solid Created by Gmsh
facet normal 0 1 0
  outer loop
    vertex -5.357696112588089 50 6.319655367116194
    vertex -6.988391920270141 50 4.491166780316098
    vertex -7.071067811865466 50 7.071067811865488
  endloop
endfacet
facet normal -0 1 0
  outer loop
    vertex 5.357696112588084 50 -6.3196553671162
    vertex 6.988391920270138 50 -4.491166780316104
    vertex 7.071067811865455 50 -7.071067811865498
  endloop
endfacet
facet normal 0 1 0
  outer loop
    vertex -7.071067811865488 50 -7.071067811865465
    vertex -6.988391920270161 50 -4.491166780316062
    vertex -5.357696112588108 50 -6.319655367116175
  endloop
endfacet
facet normal 0 1 0
  outer loop
    vertex 7.071067811865489 50 7.071067811865464
    vertex 6.988391920270159 50 4.491166780316069
    vertex 5.357696112588106 50 6.319655367116177
  endloop
endfacet
facet normal -0 1 0
  outer loop
    vertex 1.032026550097449 50 -8.224890083827468
    vertex 3.456281870527933 50 -7.568201620054847
    vertex 1.950903220161277 50 -9.807852804032308
  endloop
endfacet
facet normal 0 1 0
  outer loop
    vertex -1.03202655009745 50 8.224890083827466
    vertex -3.456281870527936 50 7.568201620054843
    vertex -1.950903220161279 50 9.807852804032308
  endloop
endfacet
facet normal 0 1 -0
  outer loop
    vertex -1.950903220161288 50 -9.807852804032304
    vertex -3.456281870527951 50 -7.568201620054835
    vertex -1.0578810730803 50 -8.21956588720268
  endloop
endfacet
facet normal 0 1 0
  outer loop
    vertex 1.950903220161287 50 9.807852804032304
    vertex 3.45628187052795 50 7.568201620054837
    vertex 1.0578810730803 50 8.219565887202682
  endloop
endfacet
facet normal 0 1 0
  outer loop
    vertex 1.950903220161277 50 -9.807852804032308
    vertex 3.456281870527933 50 -7.568201620054847
    vertex 3.826834323650883 50 -9.238795325112875
  endloop
endfacet
facet normal 0 1 0
  outer loop
    vertex -1.950903220161279 50 9.807852804032308
    vertex -3.456281870527936 50 7.568201620054843
    vertex -3.826834323650896 50 9.23879532511287
  endloop
endfacet
facet normal -0 1 0
  outer loop
    vertex -3.826834323650905 50 -9.238795325112866
    vertex -3.456281870527951 50 -7.568201620054835
    vertex -1.950903220161288 50 -9.807852804032304
  endloop
endfacet
facet normal 0 1 0
  outer loop
    vertex 3.826834323650906 50 9.238795325112866
    vertex 3.45628187052795 50 7.568201620054837
    vertex 1.950903220161287 50 9.807852804032304
  endloop
endfacet
facet normal 0 1 0
  outer loop
    vertex 7.939003777456312 50 -2.362168880509103
    vertex 8.302808554674435 50 -2.175732675355987e-14
    vertex 9.807852804032299 50 -1.950903220161317
  endloop
endfacet
facet normal 0 1 0
  outer loop
    vertex -7.939003777456312 50 2.362168880509099
    vertex -8.302808554674437 50 2.322345461468784e-14
    vertex -9.807852804032299 50 1.950903220161318
  endloop
endfacet
facet normal -0 1 0
  outer loop
    vertex -9.807852804032313 50 -1.950903220161252
    vertex -8.302808554674437 50 2.322345461468784e-14
    vertex -7.939003777456326 50 -2.362168880509053
  endloop
endfacet
facet normal 0 1 0
  outer loop
    vertex 9.807852804032313 50 1.950903220161253
    vertex 8.302808554674435 50 -2.175732675355987e-14
    vertex 7.939003777456325 50 2.362168880509057
  endloop
endfacet
facet normal 0 1 -0
  outer loop
    vertex -5.357696112588108 50 -6.319655367116175
    vertex -6.988391920270161 50 -4.491166780316062
    vertex -5.290247020479821 50 -4.584025137616984
  endloop
endfacet
facet normal 0 1 0
  outer loop
    vertex -5.2902470204798 50 4.584025137617008
    vertex -6.988391920270141 50 4.491166780316098
    vertex -5.357696112588089 50 6.319655367116194
  endloop
endfacet
facet normal -0 1 0
  outer loop
    vertex 5.290247020479797 50 -4.58402513761701
    vertex 6.988391920270138 50 -4.491166780316104
    vertex 5.357696112588084 50 -6.3196553671162
  endloop
endfacet
facet normal 0 1 0
  outer loop
    vertex 5.357696112588106 50 6.319655367116177
    vertex 6.988391920270159 50 4.491166780316069
    vertex 5.290247020479817 50 4.584025137616988
  endloop
endfacet
facet normal 0 1 -0
  outer loop
    vertex 7.071067811865455 50 -7.071067811865498
    vertex 6.988391920270138 50 -4.491166780316104
    vertex 8.314696123025433 50 -5.555702330196054
  endloop
endfacet
facet normal -0 1 0
  outer loop
    vertex -8.314696123025463 50 -5.555702330196008
    vertex -6.988391920270161 50 -4.491166780316062
    vertex -7.071067811865488 50 -7.071067811865465
  endloop
endfacet
facet normal 0 1 0
  outer loop
    vertex -7.071067811865466 50 7.071067811865488
    vertex -6.988391920270141 50 4.491166780316098
    vertex -8.314696123025442 50 5.555702330196041
  endloop
endfacet
facet normal 0 1 0
  outer loop
    vertex 8.314696123025465 50 5.555702330196008
    vertex 6.988391920270159 50 4.491166780316069
    vertex 7.071067811865489 50 7.071067811865464
  endloop
endfacet
facet normal 0 1 -0
  outer loop
    vertex 1.224646799147353e-15 50 -10
    vertex -1.0578810730803 50 -8.21956588720268
    vertex 1.032026550097449 50 -8.224890083827468
  endloop
endfacet
facet normal 0 1 0
  outer loop
    vertex 0 50 10
    vertex 1.0578810730803 50 8.219565887202682
    vertex -1.03202655009745 50 8.224890083827466
  endloop
endfacet
facet normal 0 1 -0
  outer loop
    vertex 7.939003777456325 50 2.362168880509057
    vertex 6.988391920270159 50 4.491166780316069
    vertex 9.238795325112878 50 3.826834323650874
  endloop
endfacet
facet normal -0 1 0
  outer loop
    vertex -9.238795325112857 50 3.826834323650925
    vertex -6.988391920270141 50 4.491166780316098
    vertex -7.939003777456312 50 2.362168880509099
  endloop
endfacet
facet normal 0 1 0
  outer loop
    vertex -7.939003777456326 50 -2.362168880509053
    vertex -6.988391920270161 50 -4.491166780316062
    vertex -9.23879532511288 50 -3.826834323650871
  endloop
endfacet
facet normal 0 1 0
  outer loop
    vertex 9.238795325112855 50 -3.826834323650935
    vertex 6.988391920270138 50 -4.491166780316104
    vertex 7.939003777456312 50 -2.362168880509103
  endloop
endfacet
facet normal 0 1 -0
  outer loop
    vertex 9.807852804032299 50 -1.950903220161317
    vertex 8.302808554674435 50 -2.175732675355987e-14
    vertex 10 50 -3.713527966034414e-14
  endloop
endfacet
facet normal 0 1 0
  outer loop
    vertex -9.807852804032299 50 1.950903220161318
    vertex -8.302808554674437 50 2.322345461468784e-14
    vertex -10 50 3.369022725727145e-14
  endloop
endfacet
facet normal 0 1 0
  outer loop
    vertex 10 50 -3.713527966034414e-14
    vertex 8.302808554674435 50 -2.175732675355987e-14
    vertex 9.807852804032313 50 1.950903220161253
  endloop
endfacet
facet normal 0 1 0
  outer loop
    vertex -10 50 3.369022725727145e-14
    vertex -8.302808554674437 50 2.322345461468784e-14
    vertex -9.807852804032313 50 -1.950903220161252
  endloop
endfacet
facet normal -0 1 0
  outer loop
    vertex 6.928750093166528 50 -0.9962038679130137
    vertex 8.302808554674435 50 -2.175732675355987e-14
    vertex 7.939003777456312 50 -2.362168880509103
  endloop
endfacet
facet normal 0 1 0
  outer loop
    vertex -6.928750093166528 50 0.9962038679130127
    vertex -8.302808554674437 50 2.322345461468784e-14
    vertex -7.939003777456312 50 2.362168880509099
  endloop
endfacet
facet normal 0 1 -0
  outer loop
    vertex -7.939003777456326 50 -2.362168880509053
    vertex -8.302808554674437 50 2.322345461468784e-14
    vertex -6.928750093166534 50 -0.9962038679129723
  endloop
endfacet
facet normal 0 1 0
  outer loop
    vertex 7.939003777456325 50 2.362168880509057
    vertex 8.302808554674435 50 -2.175732675355987e-14
    vertex 6.928750093166534 50 0.9962038679129792
  endloop
endfacet
facet normal 0 1 0
  outer loop
    vertex -5.555702330196016 50 8.314696123025458
    vertex -3.456281870527936 50 7.568201620054843
    vertex -5.357696112588089 50 6.319655367116194
  endloop
endfacet
facet normal 0 1 0
  outer loop
    vertex 5.555702330196004 50 -8.314696123025467
    vertex 3.456281870527933 50 -7.568201620054847
    vertex 5.357696112588084 50 -6.3196553671162
  endloop
endfacet
facet normal 0 1 -0
  outer loop
    vertex 5.357696112588106 50 6.319655367116177
    vertex 3.45628187052795 50 7.568201620054837
    vertex 5.555702330196034 50 8.314696123025445
  endloop
endfacet
facet normal 0 1 0
  outer loop
    vertex -5.357696112588108 50 -6.319655367116175
    vertex -3.456281870527951 50 -7.568201620054835
    vertex -5.555702330196035 50 -8.314696123025445
  endloop
endfacet
facet normal 0 1 0
  outer loop
    vertex -8.314696123025442 50 5.555702330196041
    vertex -6.988391920270141 50 4.491166780316098
    vertex -9.238795325112857 50 3.826834323650925
  endloop
endfacet
facet normal 0 1 0
  outer loop
    vertex -9.23879532511288 50 -3.826834323650871
    vertex -6.988391920270161 50 -4.491166780316062
    vertex -8.314696123025463 50 -5.555702330196008
  endloop
endfacet
facet normal 0 1 -0
  outer loop
    vertex 8.314696123025433 50 -5.555702330196054
    vertex 6.988391920270138 50 -4.491166780316104
    vertex 9.238795325112855 50 -3.826834323650935
  endloop
endfacet
facet normal 0 1 0
  outer loop
    vertex 9.238795325112878 50 3.826834323650874
    vertex 6.988391920270159 50 4.491166780316069
    vertex 8.314696123025465 50 5.555702330196008
  endloop
endfacet
facet normal 0 1 0
  outer loop
    vertex 1.032026550097449 50 -8.224890083827468
    vertex -1.0578810730803 50 -8.21956588720268
    vertex 8.572527594031474e-16 50 -7.000000000000002
  endloop
endfacet
facet normal 0 1 0
  outer loop
    vertex -1.03202655009745 50 8.224890083827466
    vertex 1.0578810730803 50 8.219565887202682
    vertex 0 50 7.000000000000002
  endloop
endfacet
facet normal 0 1 0
  outer loop
    vertex -1.0578810730803 50 -8.21956588720268
    vertex -3.456281870527951 50 -7.568201620054835
    vertex -1.972127897890013 50 -6.716450815301482
  endloop
endfacet
facet normal 0 1 0
  outer loop
    vertex 1.0578810730803 50 8.219565887202682
    vertex 3.45628187052795 50 7.568201620054837
    vertex 1.972127897890013 50 6.716450815301482
  endloop
endfacet
facet normal 0 1 -0
  outer loop
    vertex -1.972127897890003 50 6.716450815301485
    vertex -3.456281870527936 50 7.568201620054843
    vertex -1.03202655009745 50 8.224890083827466
  endloop
endfacet
facet normal 0 1 0
  outer loop
    vertex 1.972127897890002 50 -6.716450815301486
    vertex 3.456281870527933 50 -7.568201620054847
    vertex 1.032026550097449 50 -8.224890083827468
  endloop
endfacet
facet normal -0 1 0
  outer loop
    vertex 6.367423967481637 50 2.90790509101319
    vertex 6.988391920270159 50 4.491166780316069
    vertex 7.939003777456325 50 2.362168880509057
  endloop
endfacet
facet normal 0 1 0
  outer loop
    vertex -6.367423967481641 50 -2.907905091013182
    vertex -6.988391920270161 50 -4.491166780316062
    vertex -7.939003777456326 50 -2.362168880509053
  endloop
endfacet
facet normal 0 1 0
  outer loop
    vertex 7.939003777456312 50 -2.362168880509103
    vertex 6.988391920270138 50 -4.491166780316104
    vertex 6.367423967481622 50 -2.907905091013225
  endloop
endfacet
facet normal 0 1 0
  outer loop
    vertex -7.939003777456312 50 2.362168880509099
    vertex -6.988391920270141 50 4.491166780316098
    vertex -6.367423967481623 50 2.90790509101322
  endloop
endfacet
facet normal 0 1 -0
  outer loop
    vertex 3.826834323650883 50 -9.238795325112875
    vertex 3.456281870527933 50 -7.568201620054847
    vertex 5.555702330196004 50 -8.314696123025467
  endloop
endfacet
facet normal 0 1 0
  outer loop
    vertex -3.826834323650896 50 9.23879532511287
    vertex -3.456281870527936 50 7.568201620054843
    vertex -5.555702330196016 50 8.314696123025458
  endloop
endfacet
facet normal -0 1 0
  outer loop
    vertex -5.555702330196035 50 -8.314696123025445
    vertex -3.456281870527951 50 -7.568201620054835
    vertex -3.826834323650905 50 -9.238795325112866
  endloop
endfacet
facet normal 0 1 0
  outer loop
    vertex 5.555702330196034 50 8.314696123025445
    vertex 3.45628187052795 50 7.568201620054837
    vertex 3.826834323650906 50 9.238795325112866
  endloop
endfacet
facet normal 0 1 0
  outer loop
    vertex 1.224646799147353e-15 50 -10
    vertex 1.032026550097449 50 -8.224890083827468
    vertex 1.950903220161277 50 -9.807852804032308
  endloop
endfacet
facet normal -0 1 0
  outer loop
    vertex -1.950903220161288 50 -9.807852804032304
    vertex -1.0578810730803 50 -8.21956588720268
    vertex 1.224646799147353e-15 50 -10
  endloop
endfacet
facet normal 0 1 0
  outer loop
    vertex 1.950903220161287 50 9.807852804032304
    vertex 1.0578810730803 50 8.219565887202682
    vertex 0 50 10
  endloop
endfacet
facet normal 0 1 0
  outer loop
    vertex 0 50 10
    vertex -1.03202655009745 50 8.224890083827466
    vertex -1.950903220161279 50 9.807852804032308
  endloop
endfacet
facet normal -0 1 0
  outer loop
    vertex -5.357696112588089 50 6.319655367116194
    vertex -3.456281870527936 50 7.568201620054843
    vertex -3.784485722189178 50 5.888774729818273
  endloop
endfacet
facet normal 0 1 -0
  outer loop
    vertex 3.784485722189191 50 5.888774729818265
    vertex 3.45628187052795 50 7.568201620054837
    vertex 5.357696112588106 50 6.319655367116177
  endloop
endfacet
facet normal 0 1 0
  outer loop
    vertex 5.357696112588084 50 -6.3196553671162
    vertex 3.456281870527933 50 -7.568201620054847
    vertex 3.784485722189172 50 -5.888774729818277
  endloop
endfacet
facet normal 0 1 0
  outer loop
    vertex -3.784485722189195 50 -5.888774729818263
    vertex -3.456281870527951 50 -7.568201620054835
    vertex -5.357696112588108 50 -6.319655367116175
  endloop
endfacet
facet normal 0 1 0
  outer loop
    vertex 5.290247020479797 50 -4.58402513761701
    vertex 5.357696112588084 50 -6.3196553671162
    vertex 3.784485722189172 50 -5.888774729818277
  endloop
endfacet
facet normal 0 1 -0
  outer loop
    vertex -5.2902470204798 50 4.584025137617008
    vertex -5.357696112588089 50 6.319655367116194
    vertex -3.784485722189178 50 5.888774729818273
  endloop
endfacet
facet normal -0 1 0
  outer loop
    vertex 3.784485722189191 50 5.888774729818265
    vertex 5.357696112588106 50 6.319655367116177
    vertex 5.290247020479817 50 4.584025137616988
  endloop
endfacet
facet normal 0 1 0
  outer loop
    vertex -3.784485722189195 50 -5.888774729818263
    vertex -5.357696112588108 50 -6.319655367116175
    vertex -5.290247020479821 50 -4.584025137616984
  endloop
endfacet
facet normal 0 1 0
  outer loop
    vertex 6.928750093166528 50 -0.9962038679130137
    vertex 7.939003777456312 50 -2.362168880509103
    vertex 6.367423967481622 50 -2.907905091013225
  endloop
endfacet
facet normal 0 1 -0
  outer loop
    vertex -6.928750093166528 50 0.9962038679130127
    vertex -7.939003777456312 50 2.362168880509099
    vertex -6.367423967481623 50 2.90790509101322
  endloop
endfacet
facet normal 0 1 0
  outer loop
    vertex -6.367423967481641 50 -2.907905091013182
    vertex -7.939003777456326 50 -2.362168880509053
    vertex -6.928750093166534 50 -0.9962038679129723
  endloop
endfacet
facet normal 0 1 0
  outer loop
    vertex 6.367423967481637 50 2.90790509101319
    vertex 7.939003777456325 50 2.362168880509057
    vertex 6.928750093166534 50 0.9962038679129792
  endloop
endfacet
facet normal 0 1 -0
  outer loop
    vertex 9.238795325112855 50 -3.826834323650935
    vertex 7.939003777456312 50 -2.362168880509103
    vertex 9.807852804032299 50 -1.950903220161317
  endloop
endfacet
facet normal 0 1 0
  outer loop
    vertex -9.238795325112857 50 3.826834323650925
    vertex -7.939003777456312 50 2.362168880509099
    vertex -9.807852804032299 50 1.950903220161318
  endloop
endfacet
facet normal 0 1 0
  outer loop
    vertex -9.807852804032313 50 -1.950903220161252
    vertex -7.939003777456326 50 -2.362168880509053
    vertex -9.23879532511288 50 -3.826834323650871
  endloop
endfacet
facet normal 0 1 0
  outer loop
    vertex 9.807852804032313 50 1.950903220161253
    vertex 7.939003777456325 50 2.362168880509057
    vertex 9.238795325112878 50 3.826834323650874
  endloop
endfacet
facet normal 0 1 -0
  outer loop
    vertex 5.555702330196004 50 -8.314696123025467
    vertex 5.357696112588084 50 -6.3196553671162
    vertex 7.071067811865455 50 -7.071067811865498
  endloop
endfacet
facet normal 0 1 0
  outer loop
    vertex -5.555702330196016 50 8.314696123025458
    vertex -5.357696112588089 50 6.319655367116194
    vertex -7.071067811865466 50 7.071067811865488
  endloop
endfacet
facet normal 0 1 0
  outer loop
    vertex 7.071067811865489 50 7.071067811865464
    vertex 5.357696112588106 50 6.319655367116177
    vertex 5.555702330196034 50 8.314696123025445
  endloop
endfacet
facet normal -0 1 0
  outer loop
    vertex -7.071067811865488 50 -7.071067811865465
    vertex -5.357696112588108 50 -6.319655367116175
    vertex -5.555702330196035 50 -8.314696123025445
  endloop
endfacet
facet normal 0 1 0
  outer loop
    vertex 8.572527594031474e-16 50 -7.000000000000002
    vertex -1.0578810730803 50 -8.21956588720268
    vertex -1.972127897890013 50 -6.716450815301482
  endloop
endfacet
facet normal 0 1 0
  outer loop
    vertex 1.972127897890002 50 -6.716450815301486
    vertex 1.032026550097449 50 -8.224890083827468
    vertex 8.572527594031474e-16 50 -7.000000000000002
  endloop
endfacet
facet normal -0 1 0
  outer loop
    vertex 0 50 7.000000000000002
    vertex 1.0578810730803 50 8.219565887202682
    vertex 1.972127897890013 50 6.716450815301482
  endloop
endfacet
facet normal 0 1 0
  outer loop
    vertex -1.972127897890003 50 6.716450815301485
    vertex -1.03202655009745 50 8.224890083827466
    vertex 0 50 7.000000000000002
  endloop
endfacet
facet normal 0 1 0
  outer loop
    vertex -3.784485722189178 50 5.888774729818273
    vertex -3.456281870527936 50 7.568201620054843
    vertex -1.972127897890003 50 6.716450815301485
  endloop
endfacet
facet normal 0 1 0
  outer loop
    vertex 3.784485722189172 50 -5.888774729818277
    vertex 3.456281870527933 50 -7.568201620054847
    vertex 1.972127897890002 50 -6.716450815301486
  endloop
endfacet
facet normal 0 1 0
  outer loop
    vertex -1.972127897890013 50 -6.716450815301482
    vertex -3.456281870527951 50 -7.568201620054835
    vertex -3.784485722189195 50 -5.888774729818263
  endloop
endfacet
facet normal -0 1 0
  outer loop
    vertex 1.972127897890013 50 6.716450815301482
    vertex 3.45628187052795 50 7.568201620054837
    vertex 3.784485722189191 50 5.888774729818265
  endloop
endfacet
facet normal 0 1 -0
  outer loop
    vertex -6.367423967481623 50 2.90790509101322
    vertex -6.988391920270141 50 4.491166780316098
    vertex -5.2902470204798 50 4.584025137617008
  endloop
endfacet
facet normal 0 1 0
  outer loop
    vertex -5.290247020479821 50 -4.584025137616984
    vertex -6.988391920270161 50 -4.491166780316062
    vertex -6.367423967481641 50 -2.907905091013182
  endloop
endfacet
facet normal 0 1 0
  outer loop
    vertex 5.290247020479817 50 4.584025137616988
    vertex 6.988391920270159 50 4.491166780316069
    vertex 6.367423967481637 50 2.90790509101319
  endloop
endfacet
facet normal 0 1 0
  outer loop
    vertex 6.367423967481622 50 -2.907905091013225
    vertex 6.988391920270138 50 -4.491166780316104
    vertex 5.290247020479797 50 -4.58402513761701
  endloop
endfacet
facet normal 0 1 -0
  outer loop
    vertex -6.928750093166534 50 -0.9962038679129723
    vertex -8.302808554674437 50 2.322345461468784e-14
    vertex -6.928750093166528 50 0.9962038679130127
  endloop
endfacet
facet normal 0 1 0
  outer loop
    vertex 6.928750093166534 50 0.9962038679129792
    vertex 8.302808554674435 50 -2.175732675355987e-14
    vertex 6.928750093166528 50 -0.9962038679130137
  endloop
endfacet
endsolid Created by Gmsh
