solid Created by Gmsh
facet normal 0 0 1
  outer loop
    vertex -84.9833804400848 16.51361365200706 0
    vertex -90.61817029090263 9.188678352530703 0
    vertex -80.31456627018243 8.517199647234808 0
  endloop
endfacet
facet normal 0 0 1
  outer loop
    vertex 80.16621971672319 -8.644367817303284 0
    vertex 84.75333680436975 -17.02729028333643 0
    vertex 90.75603936131176 -9.452949057060135 0
  endloop
endfacet
facet normal 0 0 1
  outer loop
    vertex -84.26277644347442 -15.47802041856696 0
    vertex -84.28303082641438 -5.62856516241583 0
    vertex -91.92138089678465 -9.697405148659934 0
  endloop
endfacet
facet normal 0 0 1
  outer loop
    vertex 84.30574538662086 15.40489726883513 0
    vertex 84.30074820498788 5.616161035128165 0
    vertex 92.04008321724413 9.746710743187297 0
  endloop
endfacet
facet normal 0 0 1
  outer loop
    vertex -90.61817029090263 9.188678352530703 0
    vertex -84.48751121073606 2.093838518904727 0
    vertex -80.31456627018243 8.517199647234808 0
  endloop
endfacet
facet normal 0 0 1
  outer loop
    vertex 90.75603936131176 -9.452949057060135 0
    vertex 84.48751121073595 -2.093838518904641 0
    vertex 80.16621971672319 -8.644367817303284 0
  endloop
endfacet
facet normal 0 -0 1
  outer loop
    vertex -84.26277644347442 -15.47802041856696 0
    vertex -77.48724294154053 -9.376503953705015 0
    vertex -84.28303082641438 -5.62856516241583 0
  endloop
endfacet
facet normal 0 0 1
  outer loop
    vertex 84.30574538662086 15.40489726883513 0
    vertex 77.47201396379978 9.353744743721638 0
    vertex 84.30074820498788 5.616161035128165 0
  endloop
endfacet
facet normal 0 0 1
  outer loop
    vertex -50.11418236196442 -8.877878641554027 0
    vertex -40.05841610881642 -8.758834945203297 0
    vertex -45.13318653616582 -0.7404029752472372 0
  endloop
endfacet
facet normal 0 0 1
  outer loop
    vertex 0.2810845458203869 -8.207010430450188 0
    vertex -9.999999999999991 -8.660254037844393 0
    vertex -4.866936100744034 -16.58003079246599 0
  endloop
endfacet
facet normal 0 0 1
  outer loop
    vertex -0.2816208588373943 8.223882642225426 0
    vertex 9.932316956338871 8.562464012980723 0
    vertex 4.866936100744056 16.58003079246598 0
  endloop
endfacet
facet normal 0 -0 1
  outer loop
    vertex -59.99999999999999 -25 0
    vertex -55.08444032448929 -16.92105649384131 0
    vertex -64.99953367012372 -16.96125756630839 0
  endloop
endfacet
facet normal -0 0 1
  outer loop
    vertex 69.98372964086349 -7.688885620538518 0
    vertex 80.16621971672319 -8.644367817303284 0
    vertex 75.75844271947841 0.9263177342526708 0
  endloop
endfacet
facet normal 0 0 1
  outer loop
    vertex -60.03021701895177 7.706776512008719 0
    vertex -65.00675145155414 16.35029822141489 0
    vertex -70.01029169037318 7.715520892169456 0
  endloop
endfacet
facet normal -0 0 1
  outer loop
    vertex -89.99999999999999 25 0
    vertex -84.9833804400848 16.51361365200706 0
    vertex -79.99999999999999 25 0
  endloop
endfacet
facet normal 0 0 1
  outer loop
    vertex -74.99999999999997 16.33974596215557 0
    vertex -80.31456627018243 8.517199647234808 0
    vertex -70.01029169037318 7.715520892169456 0
  endloop
endfacet
facet normal 0 -0 1
  outer loop
    vertex -70.01029169037318 7.715520892169456 0
    vertex -65.00675145155414 16.35029822141489 0
    vertex -74.99999999999997 16.33974596215557 0
  endloop
endfacet
facet normal 0 0 1
  outer loop
    vertex -54.99999999999999 16.33974596215561 0
    vertex -65.00675145155414 16.35029822141489 0
    vertex -60.03021701895177 7.706776512008719 0
  endloop
endfacet
facet normal 0 -0 1
  outer loop
    vertex 64.98637830397873 -16.34761045202032 0
    vertex 69.98372964086349 -7.688885620538518 0
    vertex 59.99772971732981 -7.680802672622005 0
  endloop
endfacet
facet normal -0 0 1
  outer loop
    vertex 59.99772971732981 -7.680802672622005 0
    vertex 69.98372964086349 -7.688885620538518 0
    vertex 65 0.9807621135331734 0
  endloop
endfacet
facet normal 0 -0 1
  outer loop
    vertex 69.98372964086349 -7.688885620538518 0
    vertex 75.75844271947841 0.9263177342526708 0
    vertex 65 0.9807621135331734 0
  endloop
endfacet
facet normal 0 0 1
  outer loop
    vertex -74.99999999999997 16.33974596215557 0
    vertex -84.9833804400848 16.51361365200706 0
    vertex -80.31456627018243 8.517199647234808 0
  endloop
endfacet
facet normal 0 -0 1
  outer loop
    vertex 60.00000000000001 -25 0
    vertex 64.98637830397873 -16.34761045202032 0
    vertex 55.00000000000001 -16.3397459621556 0
  endloop
endfacet
facet normal 0 0 1
  outer loop
    vertex -34.99999999999999 16.3397459621556 0
    vertex -44.99999999999999 16.33974596215562 0
    vertex -40.00073582145934 7.679937772164682 0
  endloop
endfacet
facet normal 0 0 1
  outer loop
    vertex -54.99999999999999 16.33974596215561 0
    vertex -60.03021701895177 7.706776512008719 0
    vertex -50.02232039293751 7.719626088667773 0
  endloop
endfacet
facet normal 0 -0 1
  outer loop
    vertex -50.02232039293751 7.719626088667773 0
    vertex -44.99999999999999 16.33974596215562 0
    vertex -54.99999999999999 16.33974596215561 0
  endloop
endfacet
facet normal 0 0 1
  outer loop
    vertex -40.00073582145934 7.679937772164682 0
    vertex -44.99999999999999 16.33974596215562 0
    vertex -50.02232039293751 7.719626088667773 0
  endloop
endfacet
facet normal 0 0 1
  outer loop
    vertex -79.99999999999999 25 0
    vertex -84.9833804400848 16.51361365200706 0
    vertex -74.99999999999997 16.33974596215557 0
  endloop
endfacet
facet normal 0 0 1
  outer loop
    vertex 64.98637830397873 -16.34761045202032 0
    vertex 59.99772971732981 -7.680802672622005 0
    vertex 55.00000000000001 -16.3397459621556 0
  endloop
endfacet
facet normal -0 0 1
  outer loop
    vertex 40.00067275805186 -7.679974181839997 0
    vertex 45.00004906293448 -16.3398627480857 0
    vertex 49.99962161955497 -7.67971038236302 0
  endloop
endfacet
facet normal 0 0 1
  outer loop
    vertex -34.99999999999999 16.3397459621556 0
    vertex -40.00073582145934 7.679937772164682 0
    vertex -30.00441492875616 7.682167011432059 0
  endloop
endfacet
facet normal 0 0 1
  outer loop
    vertex 70.00000000000001 -25 0
    vertex 64.98637830397873 -16.34761045202032 0
    vertex 60.00000000000001 -25 0
  endloop
endfacet
facet normal -0 0 1
  outer loop
    vertex 15.00000000000001 -16.33974596215562 0
    vertex 25.00515075021555 -16.34286689712993 0
    vertex 20.02648957253707 -7.69554244703629 0
  endloop
endfacet
facet normal 0 -0 1
  outer loop
    vertex -30.00441492875616 7.682167011432059 0
    vertex -25.00515075021552 16.34286689712993 0
    vertex -34.99999999999999 16.3397459621556 0
  endloop
endfacet
facet normal 0 -0 1
  outer loop
    vertex 35.00000000000001 -16.33974596215561 0
    vertex 40.00067275805186 -7.679974181839997 0
    vertex 30.00441492875618 -7.682167011432067 0
  endloop
endfacet
facet normal 0 0 1
  outer loop
    vertex -20.02648957253705 7.695542447036289 0
    vertex -25.00515075021552 16.34286689712993 0
    vertex -30.00441492875616 7.682167011432059 0
  endloop
endfacet
facet normal 0 0 1
  outer loop
    vertex 30.00441492875618 -7.682167011432067 0
    vertex 25.00515075021555 -16.34286689712993 0
    vertex 35.00000000000001 -16.33974596215561 0
  endloop
endfacet
facet normal 0 0 1
  outer loop
    vertex -14.99999999999999 16.33974596215561 0
    vertex -25.00515075021552 16.34286689712993 0
    vertex -20.02648957253705 7.695542447036289 0
  endloop
endfacet
facet normal -0 0 1
  outer loop
    vertex 35.00000000000001 -16.33974596215561 0
    vertex 45.00004906293448 -16.3398627480857 0
    vertex 40.00067275805186 -7.679974181839997 0
  endloop
endfacet
facet normal 0 0 1
  outer loop
    vertex -50.02232039293751 7.719626088667773 0
    vertex -60.03021701895177 7.706776512008719 0
    vertex -55.15898172077316 -0.8571887517046026 0
  endloop
endfacet
facet normal -0 0 1
  outer loop
    vertex 20.02648957253707 -7.69554244703629 0
    vertex 25.00515075021555 -16.34286689712993 0
    vertex 30.00441492875618 -7.682167011432067 0
  endloop
endfacet
facet normal 0 0 1
  outer loop
    vertex 55.00000000000001 0.9807621135331637 0
    vertex 45.00000000000001 0.9807621135331592 0
    vertex 49.99962161955497 -7.67971038236302 0
  endloop
endfacet
facet normal 0 0 1
  outer loop
    vertex 45.00000000000001 0.9807621135331592 0
    vertex 40.00067275805186 -7.679974181839997 0
    vertex 49.99962161955497 -7.67971038236302 0
  endloop
endfacet
facet normal 0 0 1
  outer loop
    vertex 91.81505525181566 0.4016650986151776 0
    vertex 90.75603936131176 -9.452949057060135 0
    vertex 100 -5 0
  endloop
endfacet
facet normal -0 0 1
  outer loop
    vertex 1.4210854715202e-14 25 0
    vertex 4.866936100744056 16.58003079246598 0
    vertex 10.00000000000001 25 0
  endloop
endfacet
facet normal -0 0 1
  outer loop
    vertex 4.866936100744056 16.58003079246598 0
    vertex 14.99191788755735 16.47348072025672 0
    vertex 10.00000000000001 25 0
  endloop
endfacet
facet normal 0 0 1
  outer loop
    vertex 1.4210854715202e-14 25 0
    vertex -5.155241215798599 16.45661791192886 0
    vertex 4.866936100744056 16.58003079246598 0
  endloop
endfacet
facet normal 0 0 1
  outer loop
    vertex -19.99999999999999 25 0
    vertex -25.00515075021552 16.34286689712993 0
    vertex -14.99999999999999 16.33974596215561 0
  endloop
endfacet
facet normal 0 0 1
  outer loop
    vertex -59.99999999999999 25 0
    vertex -65.00675145155414 16.35029822141489 0
    vertex -54.99999999999999 16.33974596215561 0
  endloop
endfacet
facet normal 0 0 1
  outer loop
    vertex 1.4210854715202e-14 -25 0
    vertex -4.866936100744034 -16.58003079246599 0
    vertex -9.999999999999986 -25 0
  endloop
endfacet
facet normal 0 0 1
  outer loop
    vertex -4.866936100744034 -16.58003079246599 0
    vertex -14.99191788755733 -16.47348072025673 0
    vertex -9.999999999999986 -25 0
  endloop
endfacet
facet normal 0 -0 1
  outer loop
    vertex 20.00000000000001 -25 0
    vertex 25.00515075021555 -16.34286689712993 0
    vertex 15.00000000000001 -16.33974596215562 0
  endloop
endfacet
facet normal 0 0 1
  outer loop
    vertex 49.99962161955497 -7.67971038236302 0
    vertex 45.00004906293448 -16.3398627480857 0
    vertex 55.00000000000001 -16.3397459621556 0
  endloop
endfacet
facet normal 0 0 1
  outer loop
    vertex -14.99999999999997 -0.9807621135331583 0
    vertex -5.018921123240743 -0.3855104821026593 0
    vertex -10.15893743522237 7.775795060661616 0
  endloop
endfacet
facet normal 0 0 1
  outer loop
    vertex -20.02648957253705 7.695542447036289 0
    vertex -24.99999999999997 -0.9807621135331694 0
    vertex -14.99999999999997 -0.9807621135331583 0
  endloop
endfacet
facet normal 0 0 1
  outer loop
    vertex -30.00441492875616 7.682167011432059 0
    vertex -40.00073582145934 7.679937772164682 0
    vertex -34.99999999999997 -0.980762113533185 0
  endloop
endfacet
facet normal 0 0 1
  outer loop
    vertex -60.03021701895177 7.706776512008719 0
    vertex -65.03153312328746 -0.7918728940810424 0
    vertex -55.15898172077316 -0.8571887517046026 0
  endloop
endfacet
facet normal 0 0 1
  outer loop
    vertex -65.03153312328746 -0.7918728940810424 0
    vertex -60.29788027252199 -8.935097645475338 0
    vertex -55.15898172077316 -0.8571887517046026 0
  endloop
endfacet
facet normal 0 0 1
  outer loop
    vertex 15 0.9807621135331601 0
    vertex 5.016668608569244 0.4563737715586678 0
    vertex 10.15893743522239 -7.775795060661615 0
  endloop
endfacet
facet normal 0 -0 1
  outer loop
    vertex 30.00441492875618 -7.682167011432067 0
    vertex 35 0.9807621135331721 0
    vertex 25 0.980762113533169 0
  endloop
endfacet
facet normal 0 0 1
  outer loop
    vertex 30.00441492875618 -7.682167011432067 0
    vertex 40.00067275805186 -7.679974181839997 0
    vertex 35 0.9807621135331721 0
  endloop
endfacet
facet normal 0 0 1
  outer loop
    vertex 100 5 0
    vertex 91.81505525181566 0.4016650986151776 0
    vertex 100 -5 0
  endloop
endfacet
facet normal -0 0 1
  outer loop
    vertex 80.00000000000001 25 0
    vertex 84.30574538662086 15.40489726883513 0
    vertex 90.00000000000001 25 0
  endloop
endfacet
facet normal -0 0 1
  outer loop
    vertex 70.00000000000001 25 0
    vertex 74.45056613844218 16.61935185893641 0
    vertex 80.00000000000001 25 0
  endloop
endfacet
facet normal -0 0 1
  outer loop
    vertex 60.00000000000001 25 0
    vertex 65.00000000000001 16.33974596215561 0
    vertex 70.00000000000001 25 0
  endloop
endfacet
facet normal -0 0 1
  outer loop
    vertex 40.00000000000001 25 0
    vertex 45.00000000000001 16.33974596215561 0
    vertex 50.00000000000001 25 0
  endloop
endfacet
facet normal 0 0 1
  outer loop
    vertex 45.00000000000001 16.33974596215561 0
    vertex 55.00000000000004 16.33974596215564 0
    vertex 50.00000000000001 25 0
  endloop
endfacet
facet normal -0 0 1
  outer loop
    vertex 20.00000000000001 25 0
    vertex 25.00000000000001 16.33974596215561 0
    vertex 30.00000000000001 25 0
  endloop
endfacet
facet normal 0 0 1
  outer loop
    vertex 25.00000000000001 16.33974596215561 0
    vertex 35.00000000000001 16.33974596215562 0
    vertex 30.00000000000001 25 0
  endloop
endfacet
facet normal -0 0 1
  outer loop
    vertex 10.00000000000001 25 0
    vertex 14.99191788755735 16.47348072025672 0
    vertex 20.00000000000001 25 0
  endloop
endfacet
facet normal -0 0 1
  outer loop
    vertex -9.999999999999986 25 0
    vertex -5.155241215798599 16.45661791192886 0
    vertex 1.4210854715202e-14 25 0
  endloop
endfacet
facet normal -0 0 1
  outer loop
    vertex -19.99999999999999 25 0
    vertex -14.99999999999999 16.33974596215561 0
    vertex -9.999999999999986 25 0
  endloop
endfacet
facet normal -0 0 1
  outer loop
    vertex -39.99999999999999 25 0
    vertex -34.99999999999999 16.3397459621556 0
    vertex -29.99999999999999 25 0
  endloop
endfacet
facet normal -0 0 1
  outer loop
    vertex -59.99999999999999 25 0
    vertex -54.99999999999999 16.33974596215561 0
    vertex -49.99999999999999 25 0
  endloop
endfacet
facet normal -0 0 1
  outer loop
    vertex -69.99999999999999 25 0
    vertex -65.00675145155414 16.35029822141489 0
    vertex -59.99999999999999 25 0
  endloop
endfacet
facet normal -0 0 1
  outer loop
    vertex -79.99999999999999 25 0
    vertex -74.99999999999997 16.33974596215557 0
    vertex -69.99999999999999 25 0
  endloop
endfacet
facet normal 0 0 1
  outer loop
    vertex -99.99999999999999 -5 0
    vertex -91.86224219100393 -0.4833952747429036 0
    vertex -99.99999999999999 5 0
  endloop
endfacet
facet normal 0 0 1
  outer loop
    vertex -69.99999999999999 -25 0
    vertex -74.69932174822044 -16.85168563884185 0
    vertex -79.99999999999999 -25 0
  endloop
endfacet
facet normal 0 0 1
  outer loop
    vertex -39.99999999999999 -25 0
    vertex -45.09504564232567 -16.75210510971007 0
    vertex -49.99999999999999 -25 0
  endloop
endfacet
facet normal 0 0 1
  outer loop
    vertex -19.99999999999999 -25 0
    vertex -24.99999999999999 -16.33974596215561 0
    vertex -29.99999999999999 -25 0
  endloop
endfacet
facet normal 0 0 1
  outer loop
    vertex -24.99999999999999 -16.33974596215561 0
    vertex -35.00808211244264 -16.54160679333086 0
    vertex -29.99999999999999 -25 0
  endloop
endfacet
facet normal 0 0 1
  outer loop
    vertex -9.999999999999986 -25 0
    vertex -14.99191788755733 -16.47348072025673 0
    vertex -19.99999999999999 -25 0
  endloop
endfacet
facet normal 0 0 1
  outer loop
    vertex 10.00000000000001 -25 0
    vertex 5.155241215798625 -16.45661791192886 0
    vertex 1.4210854715202e-14 -25 0
  endloop
endfacet
facet normal 0 0 1
  outer loop
    vertex 20.00000000000001 -25 0
    vertex 15.00000000000001 -16.33974596215562 0
    vertex 10.00000000000001 -25 0
  endloop
endfacet
facet normal 0 0 1
  outer loop
    vertex 15.00000000000001 -16.33974596215562 0
    vertex 5.155241215798625 -16.45661791192886 0
    vertex 10.00000000000001 -25 0
  endloop
endfacet
facet normal 0 0 1
  outer loop
    vertex 40.00000000000001 -25 0
    vertex 35.00000000000001 -16.33974596215561 0
    vertex 30.00000000000001 -25 0
  endloop
endfacet
facet normal 0 0 1
  outer loop
    vertex 60.00000000000001 -25 0
    vertex 55.00000000000001 -16.3397459621556 0
    vertex 50.00000000000001 -25 0
  endloop
endfacet
facet normal 0 0 1
  outer loop
    vertex 55.00000000000001 -16.3397459621556 0
    vertex 45.00004906293448 -16.3398627480857 0
    vertex 50.00000000000001 -25 0
  endloop
endfacet
facet normal 0 0 1
  outer loop
    vertex 80.00000000000001 -25 0
    vertex 74.91826982387227 -16.3869329013439 0
    vertex 70.00000000000001 -25 0
  endloop
endfacet
facet normal -0 0 1
  outer loop
    vertex -20.02648957253705 7.695542447036289 0
    vertex -14.99999999999997 -0.9807621135331583 0
    vertex -10.15893743522237 7.775795060661616 0
  endloop
endfacet
facet normal 0 0 1
  outer loop
    vertex -20.02648957253705 7.695542447036289 0
    vertex -30.00441492875616 7.682167011432059 0
    vertex -24.99999999999997 -0.9807621135331694 0
  endloop
endfacet
facet normal 0 0 1
  outer loop
    vertex -30.00441492875616 7.682167011432059 0
    vertex -34.99999999999997 -0.980762113533185 0
    vertex -24.99999999999997 -0.9807621135331694 0
  endloop
endfacet
facet normal -0 0 1
  outer loop
    vertex -14.99999999999999 16.33974596215561 0
    vertex -10.15893743522237 7.775795060661616 0
    vertex -5.155241215798599 16.45661791192886 0
  endloop
endfacet
facet normal 0 0 1
  outer loop
    vertex -14.99999999999999 16.33974596215561 0
    vertex -20.02648957253705 7.695542447036289 0
    vertex -10.15893743522237 7.775795060661616 0
  endloop
endfacet
facet normal 0 0 1
  outer loop
    vertex 15.00000000000001 -16.33974596215562 0
    vertex 10.15893743522239 -7.775795060661615 0
    vertex 5.155241215798625 -16.45661791192886 0
  endloop
endfacet
facet normal 0 -0 1
  outer loop
    vertex 15.00000000000001 -16.33974596215562 0
    vertex 20.02648957253707 -7.69554244703629 0
    vertex 10.15893743522239 -7.775795060661615 0
  endloop
endfacet
facet normal 0 0 1
  outer loop
    vertex 59.99772971732981 -7.680802672622005 0
    vertex 49.99962161955497 -7.67971038236302 0
    vertex 55.00000000000001 -16.3397459621556 0
  endloop
endfacet
facet normal 0 -0 1
  outer loop
    vertex 59.99772971732981 -7.680802672622005 0
    vertex 65 0.9807621135331734 0
    vertex 55.00000000000001 0.9807621135331637 0
  endloop
endfacet
facet normal 0 0 1
  outer loop
    vertex 35 0.9807621135331721 0
    vertex 40.00067275805186 -7.679974181839997 0
    vertex 45.00000000000001 0.9807621135331592 0
  endloop
endfacet
facet normal 0 0 1
  outer loop
    vertex -40.00073582145934 7.679937772164682 0
    vertex -45.13318653616582 -0.7404029752472372 0
    vertex -34.99999999999997 -0.980762113533185 0
  endloop
endfacet
facet normal 0 0 1
  outer loop
    vertex -50.02232039293751 7.719626088667773 0
    vertex -55.15898172077316 -0.8571887517046026 0
    vertex -45.13318653616582 -0.7404029752472372 0
  endloop
endfacet
facet normal 0 0 1
  outer loop
    vertex -60.03021701895177 7.706776512008719 0
    vertex -70.01029169037318 7.715520892169456 0
    vertex -65.03153312328746 -0.7918728940810424 0
  endloop
endfacet
facet normal 0 -0 1
  outer loop
    vertex 20.02648957253707 -7.69554244703629 0
    vertex 25 0.980762113533169 0
    vertex 15 0.9807621135331601 0
  endloop
endfacet
facet normal 0 0 1
  outer loop
    vertex 20.02648957253707 -7.69554244703629 0
    vertex 30.00441492875618 -7.682167011432067 0
    vertex 25 0.980762113533169 0
  endloop
endfacet
facet normal 0 0 1
  outer loop
    vertex 80.00000000000001 25 0
    vertex 74.45056613844218 16.61935185893641 0
    vertex 84.30574538662086 15.40489726883513 0
  endloop
endfacet
facet normal -0 0 1
  outer loop
    vertex 30.00000000000001 25 0
    vertex 35.00000000000001 16.33974596215562 0
    vertex 40.00000000000001 25 0
  endloop
endfacet
facet normal 0 0 1
  outer loop
    vertex 40.00000000000001 25 0
    vertex 35.00000000000001 16.33974596215562 0
    vertex 45.00000000000001 16.33974596215561 0
  endloop
endfacet
facet normal 0 0 1
  outer loop
    vertex 20.00000000000001 25 0
    vertex 14.99191788755735 16.47348072025672 0
    vertex 25.00000000000001 16.33974596215561 0
  endloop
endfacet
facet normal 0 0 1
  outer loop
    vertex -14.99999999999999 16.33974596215561 0
    vertex -5.155241215798599 16.45661791192886 0
    vertex -9.999999999999986 25 0
  endloop
endfacet
facet normal -0 0 1
  outer loop
    vertex -29.99999999999999 25 0
    vertex -25.00515075021552 16.34286689712993 0
    vertex -19.99999999999999 25 0
  endloop
endfacet
facet normal 0 0 1
  outer loop
    vertex -34.99999999999999 16.3397459621556 0
    vertex -25.00515075021552 16.34286689712993 0
    vertex -29.99999999999999 25 0
  endloop
endfacet
facet normal -0 0 1
  outer loop
    vertex -49.99999999999999 25 0
    vertex -44.99999999999999 16.33974596215562 0
    vertex -39.99999999999999 25 0
  endloop
endfacet
facet normal 0 0 1
  outer loop
    vertex -39.99999999999999 25 0
    vertex -44.99999999999999 16.33974596215562 0
    vertex -34.99999999999999 16.3397459621556 0
  endloop
endfacet
facet normal 0 0 1
  outer loop
    vertex -29.99999999999999 -25 0
    vertex -35.00808211244264 -16.54160679333086 0
    vertex -39.99999999999999 -25 0
  endloop
endfacet
facet normal 0 -0 1
  outer loop
    vertex -39.99999999999999 -25 0
    vertex -35.00808211244264 -16.54160679333086 0
    vertex -45.09504564232567 -16.75210510971007 0
  endloop
endfacet
facet normal 0 -0 1
  outer loop
    vertex -19.99999999999999 -25 0
    vertex -14.99191788755733 -16.47348072025673 0
    vertex -24.99999999999999 -16.33974596215561 0
  endloop
endfacet
facet normal 0 -0 1
  outer loop
    vertex 1.4210854715202e-14 -25 0
    vertex 5.155241215798625 -16.45661791192886 0
    vertex -4.866936100744034 -16.58003079246599 0
  endloop
endfacet
facet normal 0 0 1
  outer loop
    vertex 50.00000000000001 -25 0
    vertex 45.00004906293448 -16.3398627480857 0
    vertex 40.00000000000001 -25 0
  endloop
endfacet
facet normal 0 -0 1
  outer loop
    vertex 40.00000000000001 -25 0
    vertex 45.00004906293448 -16.3398627480857 0
    vertex 35.00000000000001 -16.33974596215561 0
  endloop
endfacet
facet normal 0 0 1
  outer loop
    vertex 20.02648957253707 -7.69554244703629 0
    vertex 15 0.9807621135331601 0
    vertex 10.15893743522239 -7.775795060661615 0
  endloop
endfacet
facet normal 0 0 1
  outer loop
    vertex -54.99999999999999 16.33974596215561 0
    vertex -44.99999999999999 16.33974596215562 0
    vertex -49.99999999999999 25 0
  endloop
endfacet
facet normal 0 0 1
  outer loop
    vertex 30.00000000000001 -25 0
    vertex 25.00515075021555 -16.34286689712993 0
    vertex 20.00000000000001 -25 0
  endloop
endfacet
facet normal 0 0 1
  outer loop
    vertex 35.00000000000001 -16.33974596215561 0
    vertex 25.00515075021555 -16.34286689712993 0
    vertex 30.00000000000001 -25 0
  endloop
endfacet
facet normal 0 0 1
  outer loop
    vertex 100 -5 0
    vertex 90.75603936131176 -9.452949057060135 0
    vertex 100 -15 0
  endloop
endfacet
facet normal 0 0 1
  outer loop
    vertex 59.99772971732981 -7.680802672622005 0
    vertex 55.00000000000001 0.9807621135331637 0
    vertex 49.99962161955497 -7.67971038236302 0
  endloop
endfacet
facet normal 0 0 1
  outer loop
    vertex -40.00073582145934 7.679937772164682 0
    vertex -50.02232039293751 7.719626088667773 0
    vertex -45.13318653616582 -0.7404029752472372 0
  endloop
endfacet
facet normal 0 0 1
  outer loop
    vertex 65.00000000000001 16.33974596215561 0
    vertex 74.45056613844218 16.61935185893641 0
    vertex 70.00000000000001 25 0
  endloop
endfacet
facet normal -0 0 1
  outer loop
    vertex 50.00000000000001 25 0
    vertex 55.00000000000004 16.33974596215564 0
    vertex 60.00000000000001 25 0
  endloop
endfacet
facet normal 0 0 1
  outer loop
    vertex -74.99999999999997 16.33974596215557 0
    vertex -65.00675145155414 16.35029822141489 0
    vertex -69.99999999999999 25 0
  endloop
endfacet
facet normal 0 0 1
  outer loop
    vertex -79.99999999999999 -25 0
    vertex -84.26277644347442 -15.47802041856696 0
    vertex -89.99999999999999 -25 0
  endloop
endfacet
facet normal 0 0 1
  outer loop
    vertex 74.91826982387227 -16.3869329013439 0
    vertex 64.98637830397873 -16.34761045202032 0
    vertex 70.00000000000001 -25 0
  endloop
endfacet
facet normal 0 0 1
  outer loop
    vertex -70.01029169037318 7.715520892169456 0
    vertex -75.76672712270012 -0.8952723952098006 0
    vertex -65.03153312328746 -0.7918728940810424 0
  endloop
endfacet
facet normal 0 0 1
  outer loop
    vertex -70.01029169037318 7.715520892169456 0
    vertex -80.31456627018243 8.517199647234808 0
    vertex -75.76672712270012 -0.8952723952098006 0
  endloop
endfacet
facet normal 0 -0 1
  outer loop
    vertex 74.91826982387227 -16.3869329013439 0
    vertex 80.16621971672319 -8.644367817303284 0
    vertex 69.98372964086349 -7.688885620538518 0
  endloop
endfacet
facet normal 0 0 1
  outer loop
    vertex 60.00000000000001 25 0
    vertex 55.00000000000004 16.33974596215564 0
    vertex 65.00000000000001 16.33974596215561 0
  endloop
endfacet
facet normal 0 0 1
  outer loop
    vertex 74.91826982387227 -16.3869329013439 0
    vertex 69.98372964086349 -7.688885620538518 0
    vertex 64.98637830397873 -16.34761045202032 0
  endloop
endfacet
facet normal 0 0 1
  outer loop
    vertex -74.69932174822044 -16.85168563884185 0
    vertex -84.26277644347442 -15.47802041856696 0
    vertex -79.99999999999999 -25 0
  endloop
endfacet
facet normal 0 0 1
  outer loop
    vertex -99.99999999999999 -15 0
    vertex -91.92138089678465 -9.697405148659934 0
    vertex -99.99999999999999 -5 0
  endloop
endfacet
facet normal 0 0 1
  outer loop
    vertex -99.99999999999999 5 0
    vertex -90.61817029090263 9.188678352530703 0
    vertex -99.99999999999999 15 0
  endloop
endfacet
facet normal 0 0 1
  outer loop
    vertex 90.00000000000001 -25 0
    vertex 84.75333680436975 -17.02729028333643 0
    vertex 80.00000000000001 -25 0
  endloop
endfacet
facet normal 0 0 1
  outer loop
    vertex 100 15 0
    vertex 92.04008321724413 9.746710743187297 0
    vertex 100 5 0
  endloop
endfacet
facet normal -0 0 1
  outer loop
    vertex 74.91826982387227 -16.3869329013439 0
    vertex 84.75333680436975 -17.02729028333643 0
    vertex 80.16621971672319 -8.644367817303284 0
  endloop
endfacet
facet normal 0 0 1
  outer loop
    vertex 5.016668608569244 0.4563737715586678 0
    vertex -0.2816208588373943 8.223882642225426 0
    vertex -5.018921123240743 -0.3855104821026593 0
  endloop
endfacet
facet normal -0 0 1
  outer loop
    vertex -5.018921123240743 -0.3855104821026593 0
    vertex 0.2810845458203869 -8.207010430450188 0
    vertex 5.016668608569244 0.4563737715586678 0
  endloop
endfacet
facet normal 0 0 1
  outer loop
    vertex -64.99953367012372 -16.96125756630839 0
    vertex -55.08444032448929 -16.92105649384131 0
    vertex -60.29788027252199 -8.935097645475338 0
  endloop
endfacet
facet normal 0 0 1
  outer loop
    vertex -5.018921123240743 -0.3855104821026593 0
    vertex -9.999999999999991 -8.660254037844393 0
    vertex 0.2810845458203869 -8.207010430450188 0
  endloop
endfacet
facet normal 0 -0 1
  outer loop
    vertex -45.09504564232567 -16.75210510971007 0
    vertex -40.05841610881642 -8.758834945203297 0
    vertex -50.11418236196442 -8.877878641554027 0
  endloop
endfacet
facet normal 0 -0 1
  outer loop
    vertex 5.016668608569244 0.4563737715586678 0
    vertex 9.932316956338871 8.562464012980723 0
    vertex -0.2816208588373943 8.223882642225426 0
  endloop
endfacet
facet normal 0 0 1
  outer loop
    vertex -59.99999999999999 -25 0
    vertex -64.99953367012372 -16.96125756630839 0
    vertex -69.99999999999999 -25 0
  endloop
endfacet
facet normal -0 0 1
  outer loop
    vertex -5.155241215798599 16.45661791192886 0
    vertex -0.2816208588373943 8.223882642225426 0
    vertex 4.866936100744056 16.58003079246598 0
  endloop
endfacet
facet normal 0 0 1
  outer loop
    vertex 5.155241215798625 -16.45661791192886 0
    vertex 0.2810845458203869 -8.207010430450188 0
    vertex -4.866936100744034 -16.58003079246599 0
  endloop
endfacet
facet normal 0 -0 1
  outer loop
    vertex -5.018921123240743 -0.3855104821026593 0
    vertex -0.2816208588373943 8.223882642225426 0
    vertex -10.15893743522237 7.775795060661616 0
  endloop
endfacet
facet normal -0 0 1
  outer loop
    vertex -55.15898172077316 -0.8571887517046026 0
    vertex -50.11418236196442 -8.877878641554027 0
    vertex -45.13318653616582 -0.7404029752472372 0
  endloop
endfacet
facet normal 0 0 1
  outer loop
    vertex 5.016668608569244 0.4563737715586678 0
    vertex 0.2810845458203869 -8.207010430450188 0
    vertex 10.15893743522239 -7.775795060661615 0
  endloop
endfacet
facet normal 0 0 1
  outer loop
    vertex -45.09504564232567 -16.75210510971007 0
    vertex -55.08444032448929 -16.92105649384131 0
    vertex -49.99999999999999 -25 0
  endloop
endfacet
facet normal 0 0 1
  outer loop
    vertex -65.03153312328746 -0.7918728940810424 0
    vertex -69.69875717177348 -8.957720399356088 0
    vertex -60.29788027252199 -8.935097645475338 0
  endloop
endfacet
facet normal -0 0 1
  outer loop
    vertex -99.99999999999999 -5 0
    vertex -91.92138089678465 -9.697405148659934 0
    vertex -91.86224219100393 -0.4833952747429036 0
  endloop
endfacet
facet normal 0 0 1
  outer loop
    vertex 100 5 0
    vertex 92.04008321724413 9.746710743187297 0
    vertex 91.81505525181566 0.4016650986151776 0
  endloop
endfacet
facet normal 0 -0 1
  outer loop
    vertex 80.00000000000001 -25 0
    vertex 84.75333680436975 -17.02729028333643 0
    vertex 74.91826982387227 -16.3869329013439 0
  endloop
endfacet
facet normal 0 -0 1
  outer loop
    vertex -91.86224219100393 -0.4833952747429036 0
    vertex -90.61817029090263 9.188678352530703 0
    vertex -99.99999999999999 5 0
  endloop
endfacet
facet normal -0 0 1
  outer loop
    vertex 90.00000000000001 25 0
    vertex 92.67949192431124 17.67949192431124 0
    vertex 100 25 0
  endloop
endfacet
facet normal 0 0 1
  outer loop
    vertex -99.99999999999999 15 0
    vertex -92.67949192431118 17.67949192431124 0
    vertex -99.99999999999999 25 0
  endloop
endfacet
facet normal 0 0 1
  outer loop
    vertex -99.99999999999999 -25 0
    vertex -92.67949192431118 -17.67949192431123 0
    vertex -99.99999999999999 -15 0
  endloop
endfacet
facet normal 0 0 1
  outer loop
    vertex -89.99999999999999 -25 0
    vertex -92.67949192431118 -17.67949192431123 0
    vertex -99.99999999999999 -25 0
  endloop
endfacet
facet normal 0 0 1
  outer loop
    vertex 100 25 0
    vertex 92.67949192431124 17.67949192431124 0
    vertex 100 15 0
  endloop
endfacet
facet normal -0 0 1
  outer loop
    vertex -99.99999999999999 25 0
    vertex -92.67949192431118 17.67949192431124 0
    vertex -89.99999999999999 25 0
  endloop
endfacet
facet normal 0 0 1
  outer loop
    vertex 100 -25 0
    vertex 92.67949192431125 -17.67949192431126 0
    vertex 90.00000000000001 -25 0
  endloop
endfacet
facet normal 0 0 1
  outer loop
    vertex 100 -15 0
    vertex 92.67949192431125 -17.67949192431126 0
    vertex 100 -25 0
  endloop
endfacet
facet normal 0 0 1
  outer loop
    vertex -60.29788027252199 -8.935097645475338 0
    vertex -69.69875717177348 -8.957720399356088 0
    vertex -64.99953367012372 -16.96125756630839 0
  endloop
endfacet
facet normal 0 0 1
  outer loop
    vertex -50.11418236196442 -8.877878641554027 0
    vertex -55.08444032448929 -16.92105649384131 0
    vertex -45.09504564232567 -16.75210510971007 0
  endloop
endfacet
facet normal 0 0 1
  outer loop
    vertex -10.15893743522237 7.775795060661616 0
    vertex -0.2816208588373943 8.223882642225426 0
    vertex -5.155241215798599 16.45661791192886 0
  endloop
endfacet
facet normal 0 0 1
  outer loop
    vertex 10.15893743522239 -7.775795060661615 0
    vertex 0.2810845458203869 -8.207010430450188 0
    vertex 5.155241215798625 -16.45661791192886 0
  endloop
endfacet
facet normal 0 -0 1
  outer loop
    vertex -69.99999999999999 -25 0
    vertex -64.99953367012372 -16.96125756630839 0
    vertex -74.69932174822044 -16.85168563884185 0
  endloop
endfacet
facet normal 0 0 1
  outer loop
    vertex -60.29788027252199 -8.935097645475338 0
    vertex -50.11418236196442 -8.877878641554027 0
    vertex -55.15898172077316 -0.8571887517046026 0
  endloop
endfacet
facet normal 0 0 1
  outer loop
    vertex 91.81505525181566 0.4016650986151776 0
    vertex 84.48751121073595 -2.093838518904641 0
    vertex 90.75603936131176 -9.452949057060135 0
  endloop
endfacet
facet normal 0 0 1
  outer loop
    vertex -74.69932174822044 -16.85168563884185 0
    vertex -77.48724294154053 -9.376503953705015 0
    vertex -84.26277644347442 -15.47802041856696 0
  endloop
endfacet
facet normal 0 0 1
  outer loop
    vertex 74.45056613844218 16.61935185893641 0
    vertex 77.47201396379978 9.353744743721638 0
    vertex 84.30574538662086 15.40489726883513 0
  endloop
endfacet
facet normal -0 0 1
  outer loop
    vertex 45.00000000000001 16.33974596215561 0
    vertex 50.00000000000001 8.660254037844389 0
    vertex 55.00000000000004 16.33974596215564 0
  endloop
endfacet
facet normal -0 0 1
  outer loop
    vertex 19.98737247398271 8.666244826717298 0
    vertex 29.99789541233046 8.661252502656543 0
    vertex 25.00000000000001 16.33974596215561 0
  endloop
endfacet
facet normal 0 -0 1
  outer loop
    vertex 25 0.980762113533169 0
    vertex 29.99789541233046 8.661252502656543 0
    vertex 19.98737247398271 8.666244826717298 0
  endloop
endfacet
facet normal 0 0 1
  outer loop
    vertex 45.00000000000001 0.9807621135331592 0
    vertex 40.00000000000001 8.660254037844391 0
    vertex 35 0.9807621135331721 0
  endloop
endfacet
facet normal -0 0 1
  outer loop
    vertex -14.99999999999997 -0.9807621135331583 0
    vertex -9.999999999999991 -8.660254037844393 0
    vertex -5.018921123240743 -0.3855104821026593 0
  endloop
endfacet
facet normal 0 0 1
  outer loop
    vertex 4.866936100744056 16.58003079246598 0
    vertex 9.932316956338871 8.562464012980723 0
    vertex 14.99191788755735 16.47348072025672 0
  endloop
endfacet
facet normal 0 0 1
  outer loop
    vertex -24.99999999999997 -0.9807621135331694 0
    vertex -29.99999999999999 -8.66025403784441 0
    vertex -19.99999999999999 -8.660254037844396 0
  endloop
endfacet
facet normal 0 0 1
  outer loop
    vertex 35.00000000000001 16.33974596215562 0
    vertex 29.99789541233046 8.661252502656543 0
    vertex 40.00000000000001 8.660254037844391 0
  endloop
endfacet
facet normal 0 0 1
  outer loop
    vertex 35.00000000000001 16.33974596215562 0
    vertex 40.00000000000001 8.660254037844391 0
    vertex 45.00000000000001 16.33974596215561 0
  endloop
endfacet
facet normal 0 0 1
  outer loop
    vertex 14.99191788755735 16.47348072025672 0
    vertex 19.98737247398271 8.666244826717298 0
    vertex 25.00000000000001 16.33974596215561 0
  endloop
endfacet
facet normal -0 0 1
  outer loop
    vertex -24.99999999999997 -0.9807621135331694 0
    vertex -19.99999999999999 -8.660254037844396 0
    vertex -14.99999999999997 -0.9807621135331583 0
  endloop
endfacet
facet normal 0 0 1
  outer loop
    vertex 9.932316956338871 8.562464012980723 0
    vertex 19.98737247398271 8.666244826717298 0
    vertex 14.99191788755735 16.47348072025672 0
  endloop
endfacet
facet normal 0 0 1
  outer loop
    vertex -14.99999999999997 -0.9807621135331583 0
    vertex -19.99999999999999 -8.660254037844396 0
    vertex -9.999999999999991 -8.660254037844393 0
  endloop
endfacet
facet normal -0 0 1
  outer loop
    vertex -34.99999999999997 -0.980762113533185 0
    vertex -29.99999999999999 -8.66025403784441 0
    vertex -24.99999999999997 -0.9807621135331694 0
  endloop
endfacet
facet normal 0 0 1
  outer loop
    vertex 40.00000000000001 8.660254037844391 0
    vertex 29.99789541233046 8.661252502656543 0
    vertex 35 0.9807621135331721 0
  endloop
endfacet
facet normal 0 0 1
  outer loop
    vertex -35.00808211244264 -16.54160679333086 0
    vertex -40.05841610881642 -8.758834945203297 0
    vertex -45.09504564232567 -16.75210510971007 0
  endloop
endfacet
facet normal 0 0 1
  outer loop
    vertex 35 0.9807621135331721 0
    vertex 29.99789541233046 8.661252502656543 0
    vertex 25 0.980762113533169 0
  endloop
endfacet
facet normal 0 0 1
  outer loop
    vertex 55.00000000000004 16.33974596215564 0
    vertex 60 8.660254037844394 0
    vertex 65.00000000000001 16.33974596215561 0
  endloop
endfacet
facet normal 0 0 1
  outer loop
    vertex -4.866936100744034 -16.58003079246599 0
    vertex -9.999999999999991 -8.660254037844393 0
    vertex -14.99191788755733 -16.47348072025673 0
  endloop
endfacet
facet normal 0 0 1
  outer loop
    vertex 65 0.9807621135331734 0
    vertex 60 8.660254037844394 0
    vertex 55.00000000000001 0.9807621135331637 0
  endloop
endfacet
facet normal 0 0 1
  outer loop
    vertex 25 0.980762113533169 0
    vertex 19.98737247398271 8.666244826717298 0
    vertex 15 0.9807621135331601 0
  endloop
endfacet
facet normal 0 0 1
  outer loop
    vertex 15 0.9807621135331601 0
    vertex 9.932316956338871 8.562464012980723 0
    vertex 5.016668608569244 0.4563737715586678 0
  endloop
endfacet
facet normal 0 -0 1
  outer loop
    vertex 45.00000000000001 0.9807621135331592 0
    vertex 50.00000000000001 8.660254037844389 0
    vertex 40.00000000000001 8.660254037844391 0
  endloop
endfacet
facet normal 0 0 1
  outer loop
    vertex -14.99191788755733 -16.47348072025673 0
    vertex -19.99999999999999 -8.660254037844396 0
    vertex -24.99999999999999 -16.33974596215561 0
  endloop
endfacet
facet normal 0 -0 1
  outer loop
    vertex 15 0.9807621135331601 0
    vertex 19.98737247398271 8.666244826717298 0
    vertex 9.932316956338871 8.562464012980723 0
  endloop
endfacet
facet normal -0 0 1
  outer loop
    vertex 25.00000000000001 16.33974596215561 0
    vertex 29.99789541233046 8.661252502656543 0
    vertex 35.00000000000001 16.33974596215562 0
  endloop
endfacet
facet normal 0 0 1
  outer loop
    vertex -19.99999999999999 -8.660254037844396 0
    vertex -29.99999999999999 -8.66025403784441 0
    vertex -24.99999999999999 -16.33974596215561 0
  endloop
endfacet
facet normal 0 0 1
  outer loop
    vertex 75.75844271947841 0.9263177342526708 0
    vertex 69.60111005032547 8.806274265250936 0
    vertex 65 0.9807621135331734 0
  endloop
endfacet
facet normal 0 0 1
  outer loop
    vertex -45.13318653616582 -0.7404029752472372 0
    vertex -40.05841610881642 -8.758834945203297 0
    vertex -34.99999999999997 -0.980762113533185 0
  endloop
endfacet
facet normal 0 0 1
  outer loop
    vertex -9.999999999999991 -8.660254037844393 0
    vertex -19.99999999999999 -8.660254037844396 0
    vertex -14.99191788755733 -16.47348072025673 0
  endloop
endfacet
facet normal -0 0 1
  outer loop
    vertex 40.00000000000001 8.660254037844391 0
    vertex 50.00000000000001 8.660254037844389 0
    vertex 45.00000000000001 16.33974596215561 0
  endloop
endfacet
facet normal 0 0 1
  outer loop
    vertex 50.00000000000001 8.660254037844389 0
    vertex 60 8.660254037844394 0
    vertex 55.00000000000004 16.33974596215564 0
  endloop
endfacet
facet normal 0 -0 1
  outer loop
    vertex -35.00808211244264 -16.54160679333086 0
    vertex -29.99999999999999 -8.66025403784441 0
    vertex -40.05841610881642 -8.758834945203297 0
  endloop
endfacet
facet normal 0 0 1
  outer loop
    vertex -24.99999999999999 -16.33974596215561 0
    vertex -29.99999999999999 -8.66025403784441 0
    vertex -35.00808211244264 -16.54160679333086 0
  endloop
endfacet
facet normal 0 0 1
  outer loop
    vertex 55.00000000000001 0.9807621135331637 0
    vertex 50.00000000000001 8.660254037844389 0
    vertex 45.00000000000001 0.9807621135331592 0
  endloop
endfacet
facet normal 0 0 1
  outer loop
    vertex 60 8.660254037844394 0
    vertex 69.60111005032547 8.806274265250936 0
    vertex 65.00000000000001 16.33974596215561 0
  endloop
endfacet
facet normal 0 0 1
  outer loop
    vertex -40.05841610881642 -8.758834945203297 0
    vertex -29.99999999999999 -8.66025403784441 0
    vertex -34.99999999999997 -0.980762113533185 0
  endloop
endfacet
facet normal -0 0 1
  outer loop
    vertex 65.00000000000001 16.33974596215561 0
    vertex 69.60111005032547 8.806274265250936 0
    vertex 74.45056613844218 16.61935185893641 0
  endloop
endfacet
facet normal 0 -0 1
  outer loop
    vertex 65 0.9807621135331734 0
    vertex 69.60111005032547 8.806274265250936 0
    vertex 60 8.660254037844394 0
  endloop
endfacet
facet normal 0 -0 1
  outer loop
    vertex 55.00000000000001 0.9807621135331637 0
    vertex 60 8.660254037844394 0
    vertex 50.00000000000001 8.660254037844389 0
  endloop
endfacet
facet normal 0 0 1
  outer loop
    vertex -49.99999999999999 -25 0
    vertex -55.08444032448929 -16.92105649384131 0
    vertex -59.99999999999999 -25 0
  endloop
endfacet
facet normal -0 0 1
  outer loop
    vertex -75.76672712270012 -0.8952723952098006 0
    vertex -69.69875717177348 -8.957720399356088 0
    vertex -65.03153312328746 -0.7918728940810424 0
  endloop
endfacet
facet normal 0 0 1
  outer loop
    vertex 92.04008321724413 9.746710743187297 0
    vertex 84.30074820498788 5.616161035128165 0
    vertex 91.81505525181566 0.4016650986151776 0
  endloop
endfacet
facet normal 0 0 1
  outer loop
    vertex -91.92138089678465 -9.697405148659934 0
    vertex -84.28303082641438 -5.62856516241583 0
    vertex -91.86224219100393 -0.4833952747429036 0
  endloop
endfacet
facet normal 0 -0 1
  outer loop
    vertex 80.16621971672319 -8.644367817303284 0
    vertex 84.48751121073595 -2.093838518904641 0
    vertex 75.75844271947841 0.9263177342526708 0
  endloop
endfacet
facet normal 0 0 1
  outer loop
    vertex -80.31456627018243 8.517199647234808 0
    vertex -84.48751121073606 2.093838518904727 0
    vertex -75.76672712270012 -0.8952723952098006 0
  endloop
endfacet
facet normal 0 0 1
  outer loop
    vertex -91.86224219100393 -0.4833952747429036 0
    vertex -84.48751121073606 2.093838518904727 0
    vertex -90.61817029090263 9.188678352530703 0
  endloop
endfacet
facet normal 0 0 1
  outer loop
    vertex -64.99953367012372 -16.96125756630839 0
    vertex -69.69875717177348 -8.957720399356088 0
    vertex -74.69932174822044 -16.85168563884185 0
  endloop
endfacet
facet normal -0 0 1
  outer loop
    vertex -60.29788027252199 -8.935097645475338 0
    vertex -55.08444032448929 -16.92105649384131 0
    vertex -50.11418236196442 -8.877878641554027 0
  endloop
endfacet
facet normal 0 0 1
  outer loop
    vertex -75.76672712270012 -0.8952723952098006 0
    vertex -84.48751121073606 2.093838518904727 0
    vertex -84.28303082641438 -5.62856516241583 0
  endloop
endfacet
facet normal -0 0 1
  outer loop
    vertex 75.75844271947841 0.9263177342526708 0
    vertex 84.48751121073595 -2.093838518904641 0
    vertex 84.30074820498788 5.616161035128165 0
  endloop
endfacet
facet normal 0 0 1
  outer loop
    vertex -90.61817029090263 9.188678352530703 0
    vertex -92.67949192431118 17.67949192431124 0
    vertex -99.99999999999999 15 0
  endloop
endfacet
facet normal -0 0 1
  outer loop
    vertex -99.99999999999999 -15 0
    vertex -92.67949192431118 -17.67949192431123 0
    vertex -91.92138089678465 -9.697405148659934 0
  endloop
endfacet
facet normal 0 0 1
  outer loop
    vertex 100 15 0
    vertex 92.67949192431124 17.67949192431124 0
    vertex 92.04008321724413 9.746710743187297 0
  endloop
endfacet
facet normal 0 -0 1
  outer loop
    vertex 90.00000000000001 -25 0
    vertex 92.67949192431125 -17.67949192431126 0
    vertex 84.75333680436975 -17.02729028333643 0
  endloop
endfacet
facet normal 0 0 1
  outer loop
    vertex -89.99999999999999 25 0
    vertex -92.67949192431118 17.67949192431124 0
    vertex -84.9833804400848 16.51361365200706 0
  endloop
endfacet
facet normal 0 0 1
  outer loop
    vertex 84.30574538662086 15.40489726883513 0
    vertex 92.67949192431124 17.67949192431124 0
    vertex 90.00000000000001 25 0
  endloop
endfacet
facet normal 0 0 1
  outer loop
    vertex 90.75603936131176 -9.452949057060135 0
    vertex 92.67949192431125 -17.67949192431126 0
    vertex 100 -15 0
  endloop
endfacet
facet normal 0 0 1
  outer loop
    vertex -84.26277644347442 -15.47802041856696 0
    vertex -92.67949192431118 -17.67949192431123 0
    vertex -89.99999999999999 -25 0
  endloop
endfacet
facet normal -0 0 1
  outer loop
    vertex 84.75333680436975 -17.02729028333643 0
    vertex 92.67949192431125 -17.67949192431126 0
    vertex 90.75603936131176 -9.452949057060135 0
  endloop
endfacet
facet normal 0 -0 1
  outer loop
    vertex 92.04008321724413 9.746710743187297 0
    vertex 92.67949192431124 17.67949192431124 0
    vertex 84.30574538662086 15.40489726883513 0
  endloop
endfacet
facet normal 0 0 1
  outer loop
    vertex -91.92138089678465 -9.697405148659934 0
    vertex -92.67949192431118 -17.67949192431123 0
    vertex -84.26277644347442 -15.47802041856696 0
  endloop
endfacet
facet normal 0 0 1
  outer loop
    vertex -84.9833804400848 16.51361365200706 0
    vertex -92.67949192431118 17.67949192431124 0
    vertex -90.61817029090263 9.188678352530703 0
  endloop
endfacet
facet normal 0 0 1
  outer loop
    vertex 84.30074820498788 5.616161035128165 0
    vertex 77.47201396379978 9.353744743721638 0
    vertex 75.75844271947841 0.9263177342526708 0
  endloop
endfacet
facet normal -0 0 1
  outer loop
    vertex -84.28303082641438 -5.62856516241583 0
    vertex -77.48724294154053 -9.376503953705015 0
    vertex -75.76672712270012 -0.8952723952098006 0
  endloop
endfacet
facet normal 0 -0 1
  outer loop
    vertex 75.75844271947841 0.9263177342526708 0
    vertex 77.47201396379978 9.353744743721638 0
    vertex 69.60111005032547 8.806274265250936 0
  endloop
endfacet
facet normal 0 0 1
  outer loop
    vertex -75.76672712270012 -0.8952723952098006 0
    vertex -77.48724294154053 -9.376503953705015 0
    vertex -69.69875717177348 -8.957720399356088 0
  endloop
endfacet
facet normal 0 0 1
  outer loop
    vertex 84.30074820498788 5.616161035128165 0
    vertex 84.48751121073595 -2.093838518904641 0
    vertex 91.81505525181566 0.4016650986151776 0
  endloop
endfacet
facet normal 0 0 1
  outer loop
    vertex -84.28303082641438 -5.62856516241583 0
    vertex -84.48751121073606 2.093838518904727 0
    vertex -91.86224219100393 -0.4833952747429036 0
  endloop
endfacet
facet normal 0 0 1
  outer loop
    vertex -69.69875717177348 -8.957720399356088 0
    vertex -77.48724294154053 -9.376503953705015 0
    vertex -74.69932174822044 -16.85168563884185 0
  endloop
endfacet
facet normal 0 0 1
  outer loop
    vertex 69.60111005032547 8.806274265250936 0
    vertex 77.47201396379978 9.353744743721638 0
    vertex 74.45056613844218 16.61935185893641 0
  endloop
endfacet
endsolid Created by Gmsh
