solid Created by Gmsh
facet normal 0.776712 -0.0628737 0.62671
  outer loop
    vertex -2.82053943604499 13.09631436452835 -1.022035855395981
    vertex -2.183380573222623 10.64731136437199 -2.057388945356235
    vertex -1.554057002605321 13.3508846490792 -2.566107330696313
  endloop
endfacet
facet normal 0.76352 0.071538 -0.64181
  outer loop
    vertex -2.818779754499046 -13.09396449244942 1.02687910467897
    vertex -2.165558093293345 -10.65220120746854 2.076140203495823
    vertex -1.444246641450686 -13.38638518751709 2.629477445930732
  endloop
endfacet
facet normal 0.750864 0.0695807 0.656782
  outer loop
    vertex -2.208271398385807 -10.70524947427857 -2.030649509657238
    vertex -2.780785488264019 -13.06890823266438 -1.12571402596762
    vertex -1.426599735617767 -13.39729371021557 -2.639093252299984
  endloop
endfacet
facet normal 0.754339 -0.0698186 -0.652762
  outer loop
    vertex -2.194453581364988 10.69801941140623 2.045574119711717
    vertex -2.791343550915748 13.09640570696029 1.099273023757543
    vertex -1.436523300760244 13.38823107441234 2.633704768263307
  endloop
endfacet
facet normal 0.34398 0.0956931 0.934088
  outer loop
    vertex -2.183380573222623 10.64731136437199 -2.057388945356235
    vertex 0 12 -2.999999999999998
    vertex -1.554057002605321 13.3508846490792 -2.566107330696313
  endloop
endfacet
facet normal 0.336771 -0.10062 -0.936195
  outer loop
    vertex -2.165558093293345 -10.65220120746854 2.076140203495823
    vertex 3.673940397442058e-16 -12 2.999999999999998
    vertex -1.444246641450686 -13.38638518751709 2.629477445930732
  endloop
endfacet
facet normal 0.344318 -0.110737 0.932299
  outer loop
    vertex 0 -12 -2.999999999999998
    vertex -2.208271398385807 -10.70524947427857 -2.030649509657238
    vertex -1.426599735617767 -13.39729371021557 -2.639093252299984
  endloop
endfacet
facet normal 0.342097 0.107694 -0.933473
  outer loop
    vertex 3.673940397442058e-16 12 2.999999999999998
    vertex -2.194453581364988 10.69801941140623 2.045574119711717
    vertex -1.436523300760244 13.38823107441234 2.633704768263307
  endloop
endfacet
facet normal 0.392444 -0.00978073 -0.919724
  outer loop
    vertex -2.194453581364988 10.69801941140623 2.045574119711717
    vertex 3.673940397442058e-16 9 2.999999999999998
    vertex -2.139459910676901 7.502310582186052 2.103024320022565
  endloop
endfacet
facet normal 0.401696 -0.0203871 0.915546
  outer loop
    vertex 0 -6 -2.999999999999998
    vertex -2.256710648830635 -4.509533113594666 -1.976678286280902
    vertex -2.151360214051274 -7.560959998825586 -2.090848925531743
  endloop
endfacet
facet normal 0.401943 -0 0.915665
  outer loop
    vertex 0 -12 -2.999999999999998
    vertex 0 -9 -2.999999999999998
    vertex -2.208271398385807 -10.70524947427857 -2.030649509657238
  endloop
endfacet
facet normal 0.398837 0 -0.917022
  outer loop
    vertex 3.673940397442058e-16 12 2.999999999999998
    vertex 3.673940397442058e-16 9 2.999999999999998
    vertex -2.194453581364988 10.69801941140623 2.045574119711717
  endloop
endfacet
facet normal 0.395155 0.0104341 0.918555
  outer loop
    vertex -2.208271398385807 -10.70524947427857 -2.030649509657238
    vertex 0 -9 -2.999999999999998
    vertex -2.151360214051274 -7.560959998825586 -2.090848925531743
  endloop
endfacet
facet normal 0.410158 -0.0138284 0.91191
  outer loop
    vertex 0 6 -2.999999999999998
    vertex -2.277138492087721 7.49571413769078 -1.95311041363576
    vertex -2.209896228304021 4.493476765277287 -2.028881135041591
  endloop
endfacet
facet normal 0.268915 -0 0.963164
  outer loop
    vertex 0 12 -2.999999999999998
    vertex 0 15 -2.999999999999998
    vertex -1.554057002605321 13.3508846490792 -2.566107330696313
  endloop
endfacet
facet normal 0.245257 -0 0.969458
  outer loop
    vertex 0 -15 -2.999999999999998
    vertex 0 -12 -2.999999999999998
    vertex -1.426599735617767 -13.39729371021557 -2.639093252299984
  endloop
endfacet
facet normal 0.247081 0 -0.968995
  outer loop
    vertex 3.673940397442058e-16 15 2.999999999999998
    vertex 3.673940397442058e-16 12 2.999999999999998
    vertex -1.436523300760244 13.38823107441234 2.633704768263307
  endloop
endfacet
facet normal 0.248503 0 -0.968631
  outer loop
    vertex 3.673940397442058e-16 -12 2.999999999999998
    vertex 3.673940397442058e-16 -15 2.999999999999998
    vertex -1.444246641450686 -13.38638518751709 2.629477445930732
  endloop
endfacet
facet normal 0.396671 0.0169151 -0.917805
  outer loop
    vertex 3.673940397442058e-16 6 2.999999999999998
    vertex -2.227110066273005 4.508696512770117 2.009970336275001
    vertex -2.139459910676901 7.502310582186052 2.103024320022565
  endloop
endfacet
facet normal 0.386647 0 -0.922228
  outer loop
    vertex 3.673940397442058e-16 9 2.999999999999998
    vertex 3.673940397442058e-16 6 2.999999999999998
    vertex -2.139459910676901 7.502310582186052 2.103024320022565
  endloop
endfacet
facet normal 0.392399 0 -0.919795
  outer loop
    vertex 3.673940397442058e-16 -9 2.999999999999998
    vertex 3.673940397442058e-16 -12 2.999999999999998
    vertex -2.165558093293345 -10.65220120746854 2.076140203495823
  endloop
endfacet
facet normal 0.396361 -0 0.918095
  outer loop
    vertex 0 9 -2.999999999999998
    vertex 0 12 -2.999999999999998
    vertex -2.183380573222623 10.64731136437199 -2.057388945356235
  endloop
endfacet
facet normal 0.418729 -0.0270416 -0.907709
  outer loop
    vertex -2.341874249399762 -1.5 1.874999999999544
    vertex 3.673940397442058e-16 -3 2.999999999999998
    vertex -2.214385922491421 -4.526725765820541 2.023979986628279
  endloop
endfacet
facet normal 0.41771 -0 0.90858
  outer loop
    vertex 0 6 -2.999999999999998
    vertex 0 9 -2.999999999999998
    vertex -2.277138492087721 7.49571413769078 -1.95311041363576
  endloop
endfacet
facet normal 0.417519 0 -0.908668
  outer loop
    vertex 3.673940397442058e-16 -6 2.999999999999998
    vertex 3.673940397442058e-16 -9 2.999999999999998
    vertex -2.276316210008242 -7.496595553503397 1.954068707096478
  endloop
endfacet
facet normal 0.410574 0.00432858 0.911817
  outer loop
    vertex -2.256710648830635 -4.509533113594666 -1.976678286280902
    vertex 0 -3 -2.999999999999998
    vertex -2.235624843397895 -1.492499655766519 -2.000495328557937
  endloop
endfacet
facet normal 0.410466 0.0129042 -0.911784
  outer loop
    vertex 3.673940397442058e-16 -6 2.999999999999998
    vertex -2.276316210008242 -7.496595553503397 1.954068707096478
    vertex -2.214385922491421 -4.526725765820541 2.023979986628279
  endloop
endfacet
facet normal 0.424577 0.0160662 -0.905249
  outer loop
    vertex 3.673940397442058e-16 0 2.999999999999998
    vertex -2.341874249399762 -1.5 1.874999999999544
    vertex -2.268694799562112 1.51951199934535 1.962912098500546
  endloop
endfacet
facet normal 0.389262 -0 0.921127
  outer loop
    vertex 0 -9 -2.999999999999998
    vertex 0 -6 -2.999999999999998
    vertex -2.151360214051274 -7.560959998825586 -2.090848925531743
  endloop
endfacet
facet normal 0.412981 -0 0.910739
  outer loop
    vertex 0 -6 -2.999999999999998
    vertex 0 -3 -2.999999999999998
    vertex -2.256710648830635 -4.509533113594666 -1.976678286280902
  endloop
endfacet
facet normal 0.406208 0 -0.913781
  outer loop
    vertex 3.673940397442058e-16 6 2.999999999999998
    vertex 3.673940397442058e-16 3 2.999999999999998
    vertex -2.227110066273005 4.508696512770117 2.009970336275001
  endloop
endfacet
facet normal 0.40231 -0 0.915504
  outer loop
    vertex 0 3 -2.999999999999998
    vertex 0 6 -2.999999999999998
    vertex -2.209896228304021 4.493476765277287 -2.028881135041591
  endloop
endfacet
facet normal 0.403324 0 -0.915057
  outer loop
    vertex 3.673940397442058e-16 -3 2.999999999999998
    vertex 3.673940397442058e-16 -6 2.999999999999998
    vertex -2.214385922491421 -4.526725765820541 2.023979986628279
  endloop
endfacet
facet normal 0.433013 0 -0.901388
  outer loop
    vertex 3.673940397442058e-16 0 2.999999999999998
    vertex 3.673940397442058e-16 -3 2.999999999999998
    vertex -2.341874249399762 -1.5 1.874999999999544
  endloop
endfacet
facet normal 0.417021 -0 0.908897
  outer loop
    vertex 0 0 -2.999999999999998
    vertex 0 3 -2.999999999999998
    vertex -2.274176551036249 1.504679307907194 -1.95655846187045
  endloop
endfacet
facet normal 0.40977 0.0132578 0.912092
  outer loop
    vertex -2.274176551036249 1.504679307907194 -1.95655846187045
    vertex 0 3 -2.999999999999998
    vertex -2.209896228304021 4.493476765277287 -2.028881135041591
  endloop
endfacet
facet normal 0.41107 0.0086319 -0.911563
  outer loop
    vertex -2.227110066273005 4.508696512770117 2.009970336275001
    vertex 3.673940397442058e-16 3 2.999999999999998
    vertex -2.268694799562112 1.51951199934535 1.962912098500546
  endloop
endfacet
facet normal 0.41575 0 -0.909479
  outer loop
    vertex 3.673940397442058e-16 3 2.999999999999998
    vertex 3.673940397442058e-16 0 2.999999999999998
    vertex -2.268694799562112 1.51951199934535 1.962912098500546
  endloop
endfacet
facet normal 0.408147 -0 0.912916
  outer loop
    vertex 0 -3 -2.999999999999998
    vertex 0 0 -2.999999999999998
    vertex -2.235624843397895 -1.492499655766519 -2.000495328557937
  endloop
endfacet
facet normal 0.412606 -0.00804567 0.910874
  outer loop
    vertex 0 0 -2.999999999999998
    vertex -2.274176551036249 1.504679307907194 -1.95655846187045
    vertex -2.235624843397895 -1.492499655766519 -2.000495328557937
  endloop
endfacet
facet normal 0.40776 0.0180753 0.91291
  outer loop
    vertex -2.277138492087721 7.49571413769078 -1.95311041363576
    vertex 0 9 -2.999999999999998
    vertex -2.183380573222623 10.64731136437199 -2.057388945356235
  endloop
endfacet
facet normal 0.405887 -0.0210986 -0.91368
  outer loop
    vertex -2.276316210008242 -7.496595553503397 1.954068707096478
    vertex 3.673940397442058e-16 -9 2.999999999999998
    vertex -2.165558093293345 -10.65220120746854 2.076140203495823
  endloop
endfacet
facet normal 0.917492 0.117388 0.380038
  outer loop
    vertex -2.999999999999998 -15 5.510728592200695e-16
    vertex -2.121320343559642 -15 -2.121320343559641
    vertex -2.780785488264019 -13.06890823266438 -1.12571402596762
  endloop
endfacet
facet normal 0.917329 -0.118872 -0.37997
  outer loop
    vertex -2.999999999999998 15 5.510728592200695e-16
    vertex -2.121320343559641 15 2.121320343559642
    vertex -2.791343550915748 13.09640570696029 1.099273023757543
  endloop
endfacet
facet normal 0.917478 0.117512 -0.380032
  outer loop
    vertex -2.121320343559641 -15 2.121320343559642
    vertex -2.999999999999998 -15 5.510728592200695e-16
    vertex -2.818779754499046 -13.09396449244942 1.02687910467897
  endloop
endfacet
facet normal 0.917476 -0.117538 0.380031
  outer loop
    vertex -2.121320343559642 15 -2.121320343559641
    vertex -2.999999999999998 15 5.510728592200695e-16
    vertex -2.82053943604499 13.09631436452835 -1.022035855395981
  endloop
endfacet
facet normal 0.931792 0.000559024 0.362993
  outer loop
    vertex -2.999778081520898 -3.082797257358332 -0.03648919876884049
    vertex -2.235624843397895 -1.492499655766519 -2.000495328557937
    vertex -2.999714060075126 0.01176487873075395 -0.04141929245642923
  endloop
endfacet
facet normal 0.945697 -0.000537415 -0.325049
  outer loop
    vertex -2.341874249399762 -1.5 1.874999999999544
    vertex -2.999778081520898 -3.082797257358332 -0.03648919876884049
    vertex -2.999714060075126 0.01176487873075395 -0.04141929245642923
  endloop
endfacet
facet normal 0.994509 -0.103364 0.0163504
  outer loop
    vertex -2.818779754499046 -13.09396449244942 1.02687910467897
    vertex -2.999999999999998 -15 5.510728592200695e-16
    vertex -2.780785488264019 -13.06890823266438 -1.12571402596762
  endloop
endfacet
facet normal 0.994779 0.101131 -0.0136956
  outer loop
    vertex -2.82053943604499 13.09631436452835 -1.022035855395981
    vertex -2.999999999999998 15 5.510728592200695e-16
    vertex -2.791343550915748 13.09640570696029 1.099273023757543
  endloop
endfacet
facet normal 0.926734 0.0091954 -0.375606
  outer loop
    vertex -2.194453581364988 10.69801941140623 2.045574119711717
    vertex -2.139459910676901 7.502310582186052 2.103024320022565
    vertex -2.999963360045053 8.928793958171129 0.01482694800633498
  endloop
endfacet
facet normal 0.938451 0.00414365 -0.345389
  outer loop
    vertex -2.999995054097857 3.073784171658925 -0.005447512128287898
    vertex -2.268694799562112 1.51951199934535 1.962912098500546
    vertex -2.999714060075126 0.01176487873075395 -0.04141929245642923
  endloop
endfacet
facet normal 0.927682 -0.00964484 0.373248
  outer loop
    vertex -2.208271398385807 -10.70524947427857 -2.030649509657238
    vertex -2.151360214051274 -7.560959998825586 -2.090848925531743
    vertex -2.999945551069117 -8.966747879985652 -0.01807458493580445
  endloop
endfacet
facet normal 0.936175 -0.00404355 0.351511
  outer loop
    vertex -2.274176551036249 1.504679307907194 -1.95655846187045
    vertex -2.999995054097857 3.073784171658925 -0.005447512128287898
    vertex -2.999714060075126 0.01176487873075395 -0.04141929245642923
  endloop
endfacet
facet normal 0.929923 0.018363 0.367296
  outer loop
    vertex -2.151360214051274 -7.560959998825586 -2.090848925531743
    vertex -2.256710648830635 -4.509533113594666 -1.976678286280902
    vertex -2.999947630699505 -6.05401838992973 -0.01772605597462371
  endloop
endfacet
facet normal 0.925459 -4.46712e-05 0.378849
  outer loop
    vertex -2.999945551069117 -8.966747879985652 -0.01807458493580445
    vertex -2.151360214051274 -7.560959998825586 -2.090848925531743
    vertex -2.999947630699505 -6.05401838992973 -0.01772605597462371
  endloop
endfacet
facet normal 0.923869 -0.00291398 -0.382698
  outer loop
    vertex -2.999963360045053 8.928793958171129 0.01482694800633498
    vertex -2.139459910676901 7.502310582186052 2.103024320022565
    vertex -2.999764991631493 6.007439865913048 0.03754989989466224
  endloop
endfacet
facet normal 0.924612 -0.0881096 -0.370579
  outer loop
    vertex -2.165558093293345 -10.65220120746854 2.076140203495823
    vertex -2.818779754499046 -13.09396449244942 1.02687910467897
    vertex -2.997793682570956 -11.1374054255351 0.1150349370306847
  endloop
endfacet
facet normal 0.931201 0.0933053 0.352361
  outer loop
    vertex -2.183380573222623 10.64731136437199 -2.057388945356235
    vertex -2.82053943604499 13.09631436452835 -1.022035855395981
    vertex -2.999898223038835 11.1200135846241 -0.02471136192989445
  endloop
endfacet
facet normal 0.939323 0.0027319 0.343024
  outer loop
    vertex -2.277138492087721 7.49571413769078 -1.95311041363576
    vertex -2.999963360045053 8.928793958171129 0.01482694800633498
    vertex -2.999764991631493 6.007439865913048 0.03754989989466224
  endloop
endfacet
facet normal 0.934721 -0.0160606 0.355019
  outer loop
    vertex -2.277138492087721 7.49571413769078 -1.95311041363576
    vertex -2.183380573222623 10.64731136437199 -2.057388945356235
    vertex -2.999963360045053 8.928793958171129 0.01482694800633498
  endloop
endfacet
facet normal 0.926944 -0.0154872 -0.374879
  outer loop
    vertex -2.139459910676901 7.502310582186052 2.103024320022565
    vertex -2.227110066273005 4.508696512770117 2.009970336275001
    vertex -2.999764991631493 6.007439865913048 0.03754989989466224
  endloop
endfacet
facet normal 0.93696 0.0121717 0.349224
  outer loop
    vertex -2.209896228304021 4.493476765277287 -2.028881135041591
    vertex -2.277138492087721 7.49571413769078 -1.95311041363576
    vertex -2.999764991631493 6.007439865913048 0.03754989989466224
  endloop
endfacet
facet normal 0.938788 4.18917e-05 -0.344496
  outer loop
    vertex -2.276316210008242 -7.496595553503397 1.954068707096478
    vertex -2.999945551069117 -8.966747879985652 -0.01807458493580445
    vertex -2.999947630699505 -6.05401838992973 -0.01772605597462371
  endloop
endfacet
facet normal 0.932941 -0.00367827 0.360009
  outer loop
    vertex -2.256710648830635 -4.509533113594666 -1.976678286280902
    vertex -2.235624843397895 -1.492499655766519 -2.000495328557937
    vertex -2.999778081520898 -3.082797257358332 -0.03648919876884049
  endloop
endfacet
facet normal 0.933971 0.0189771 -0.356844
  outer loop
    vertex -2.276316210008242 -7.496595553503397 1.954068707096478
    vertex -2.165558093293345 -10.65220120746854 2.076140203495823
    vertex -2.999945551069117 -8.966747879985652 -0.01807458493580445
  endloop
endfacet
facet normal 0.942522 -0.0131215 -0.333886
  outer loop
    vertex -2.268694799562112 1.51951199934535 1.962912098500546
    vertex -2.341874249399762 -1.5 1.874999999999544
    vertex -2.999714060075126 0.01176487873075395 -0.04141929245642923
  endloop
endfacet
facet normal 0.939375 0.0227268 -0.342137
  outer loop
    vertex -2.341874249399762 -1.5 1.874999999999544
    vertex -2.214385922491421 -4.526725765820541 2.023979986628279
    vertex -2.999778081520898 -3.082797257358332 -0.03648919876884049
  endloop
endfacet
facet normal 0.936031 -0.011239 -0.351738
  outer loop
    vertex -2.214385922491421 -4.526725765820541 2.023979986628279
    vertex -2.276316210008242 -7.496595553503397 1.954068707096478
    vertex -2.999947630699505 -6.05401838992973 -0.01772605597462371
  endloop
endfacet
facet normal 0.934142 -0.0114588 0.356719
  outer loop
    vertex -2.274176551036249 1.504679307907194 -1.95655846187045
    vertex -2.209896228304021 4.493476765277287 -2.028881135041591
    vertex -2.999995054097857 3.073784171658925 -0.005447512128287898
  endloop
endfacet
facet normal 0.935434 -0.00744964 -0.353422
  outer loop
    vertex -2.227110066273005 4.508696512770117 2.009970336275001
    vertex -2.268694799562112 1.51951199934535 1.962912098500546
    vertex -2.999995054097857 3.073784171658925 -0.005447512128287898
  endloop
endfacet
facet normal 0.933368 0.00674495 0.358858
  outer loop
    vertex -2.235624843397895 -1.492499655766519 -2.000495328557937
    vertex -2.274176551036249 1.504679307907194 -1.95655846187045
    vertex -2.999714060075126 0.01176487873075395 -0.04141929245642923
  endloop
endfacet
facet normal 0.940029 -0.103223 0.325101
  outer loop
    vertex -2.780785488264019 -13.06890823266438 -1.12571402596762
    vertex -2.208271398385807 -10.70524947427857 -2.030649509657238
    vertex -2.997793682570956 -11.1374054255351 0.1150349370306847
  endloop
endfacet
facet normal 0.933877 -0.00231144 -0.357587
  outer loop
    vertex -2.214385922491421 -4.526725765820541 2.023979986628279
    vertex -2.999947630699505 -6.05401838992973 -0.01772605597462371
    vertex -2.999778081520898 -3.082797257358332 -0.03648919876884049
  endloop
endfacet
facet normal 0.93439 0.00219635 0.356244
  outer loop
    vertex -2.999947630699505 -6.05401838992973 -0.01772605597462371
    vertex -2.256710648830635 -4.509533113594666 -1.976678286280902
    vertex -2.999778081520898 -3.082797257358332 -0.03648919876884049
  endloop
endfacet
facet normal 0.934084 0.0968736 -0.343659
  outer loop
    vertex -2.791343550915748 13.09640570696029 1.099273023757543
    vertex -2.194453581364988 10.69801941140623 2.045574119711717
    vertex -2.999898223038835 11.1200135846241 -0.02471136192989445
  endloop
endfacet
facet normal 0.762772 0.0896485 0.640423
  outer loop
    vertex -2.121320343559642 15 -2.121320343559641
    vertex -2.82053943604499 13.09631436452835 -1.022035855395981
    vertex -1.554057002605321 13.3508846490792 -2.566107330696313
  endloop
endfacet
facet normal 0.932437 0.00522223 -0.361295
  outer loop
    vertex -2.999764991631493 6.007439865913048 0.03754989989466224
    vertex -2.227110066273005 4.508696512770117 2.009970336275001
    vertex -2.999995054097857 3.073784171658925 -0.005447512128287898
  endloop
endfacet
facet normal 0.745245 -0.105359 -0.658414
  outer loop
    vertex -2.121320343559641 -15 2.121320343559642
    vertex -2.818779754499046 -13.09396449244942 1.02687910467897
    vertex -1.444246641450686 -13.38638518751709 2.629477445930732
  endloop
endfacet
facet normal 0.932759 -0.00535627 0.36046
  outer loop
    vertex -2.209896228304021 4.493476765277287 -2.028881135041591
    vertex -2.999764991631493 6.007439865913048 0.03754989989466224
    vertex -2.999995054097857 3.073784171658925 -0.005447512128287898
  endloop
endfacet
facet normal 0.730854 -0.0986141 0.675373
  outer loop
    vertex -2.780785488264019 -13.06890823266438 -1.12571402596762
    vertex -2.121320343559642 -15 -2.121320343559641
    vertex -1.426599735617767 -13.39729371021557 -2.639093252299984
  endloop
endfacet
facet normal 0.736328 0.100113 -0.669178
  outer loop
    vertex -2.791343550915748 13.09640570696029 1.099273023757543
    vertex -2.121320343559641 15 2.121320343559642
    vertex -1.436523300760244 13.38823107441234 2.633704768263307
  endloop
endfacet
facet normal 0.994837 0.0997464 0.0187204
  outer loop
    vertex -2.818779754499046 -13.09396449244942 1.02687910467897
    vertex -2.780785488264019 -13.06890823266438 -1.12571402596762
    vertex -2.997793682570956 -11.1374054255351 0.1150349370306847
  endloop
endfacet
facet normal 0.995168 -0.0972261 -0.0136925
  outer loop
    vertex -2.82053943604499 13.09631436452835 -1.022035855395981
    vertex -2.791343550915748 13.09640570696029 1.099273023757543
    vertex -2.999898223038835 11.1200135846241 -0.02471136192989445
  endloop
endfacet
facet normal 0.379436 -0.129999 -0.91604
  outer loop
    vertex -2.121320343559641 15 2.121320343559642
    vertex 3.673940397442058e-16 15 2.999999999999998
    vertex -1.436523300760244 13.38823107441234 2.633704768263307
  endloop
endfacet
facet normal 0.379472 0.129278 -0.916127
  outer loop
    vertex 3.673940397442058e-16 -15 2.999999999999998
    vertex -2.121320343559641 -15 2.121320343559642
    vertex -1.444246641450686 -13.38638518751709 2.629477445930732
  endloop
endfacet
facet normal 0.380067 -0.116742 0.917562
  outer loop
    vertex 0 15 -2.999999999999998
    vertex -2.121320343559642 15 -2.121320343559641
    vertex -1.554057002605321 13.3508846490792 -2.566107330696313
  endloop
endfacet
facet normal 0.379363 0.131439 0.915864
  outer loop
    vertex -2.121320343559642 -15 -2.121320343559641
    vertex 0 -15 -2.999999999999998
    vertex -1.426599735617767 -13.39729371021557 -2.639093252299984
  endloop
endfacet
facet normal 0.936783 0.0223422 0.349197
  outer loop
    vertex -2.208271398385807 -10.70524947427857 -2.030649509657238
    vertex -2.999945551069117 -8.966747879985652 -0.01807458493580445
    vertex -2.997793682570956 -11.1374054255351 0.1150349370306847
  endloop
endfacet
facet normal 0.928448 0.00667396 0.371402
  outer loop
    vertex -2.999963360045053 8.928793958171129 0.01482694800633498
    vertex -2.183380573222623 10.64731136437199 -2.057388945356235
    vertex -2.999898223038835 11.1200135846241 -0.02471136192989445
  endloop
endfacet
facet normal 0.922312 -0.0227423 -0.385776
  outer loop
    vertex -2.999945551069117 -8.966747879985652 -0.01807458493580445
    vertex -2.165558093293345 -10.65220120746854 2.076140203495823
    vertex -2.997793682570956 -11.1374054255351 0.1150349370306847
  endloop
endfacet
facet normal 0.931479 -0.00659092 -0.363735
  outer loop
    vertex -2.194453581364988 10.69801941140623 2.045574119711717
    vertex -2.999963360045053 8.928793958171129 0.01482694800633498
    vertex -2.999898223038835 11.1200135846241 -0.02471136192989445
  endloop
endfacet
facet normal -0.763497 -0.0718963 -0.641797
  outer loop
    vertex 2.8197965418666 13.09766393851696 1.024083718490415
    vertex 2.165231860462638 10.65433372328014 2.07648043343478
    vertex 1.439875109829668 13.39937334573985 2.631873794104305
  endloop
endfacet
facet normal -0.76352 0.071538 0.64181
  outer loop
    vertex 2.818779754489427 -13.09396449246466 -1.026879104705377
    vertex 2.165558093303277 -10.65220120747357 -2.076140203485464
    vertex 1.444246641448963 -13.38638518751907 -2.629477445931678
  endloop
endfacet
facet normal -0.750864 0.0695807 -0.656782
  outer loop
    vertex 2.208271398478689 -10.70524947431695 2.030649509556231
    vertex 2.780785488275133 -13.06890823266806 1.125714025940167
    vertex 1.426599735628741 -13.39729371021562 2.639093252294051
  endloop
endfacet
facet normal -0.750778 -0.0695362 0.656884
  outer loop
    vertex 2.208271398461584 10.70524947432216 -2.030649509574832
    vertex 2.780546528741242 13.06947012594581 -1.126304133662404
    vertex 1.426562801420109 13.39736367813552 -2.639113217276667
  endloop
endfacet
facet normal -0.336909 0.100386 -0.93617
  outer loop
    vertex 2.165231860462638 10.65433372328014 2.07648043343478
    vertex 3.673940397442058e-16 12 2.999999999999998
    vertex 1.439875109829668 13.39937334573985 2.631873794104305
  endloop
endfacet
facet normal -0.336771 -0.10062 0.936195
  outer loop
    vertex 2.165558093303277 -10.65220120747357 -2.076140203485464
    vertex 0 -12 -2.999999999999998
    vertex 1.444246641448963 -13.38638518751907 -2.629477445931678
  endloop
endfacet
facet normal -0.344318 -0.110737 -0.932299
  outer loop
    vertex 3.673940397442058e-16 -12 2.999999999999998
    vertex 2.208271398478689 -10.70524947431695 2.030649509556231
    vertex 1.426599735628741 -13.39729371021562 2.639093252294051
  endloop
endfacet
facet normal -0.344319 0.110736 0.932299
  outer loop
    vertex 0 12 -2.999999999999998
    vertex 2.208271398461584 10.70524947432216 -2.030649509574832
    vertex 1.426562801420109 13.39736367813552 -2.639113217276667
  endloop
endfacet
facet normal -0.401696 -0.0203871 -0.915546
  outer loop
    vertex 3.673940397442058e-16 -6 2.999999999999998
    vertex 2.256710648814145 -4.509533113597103 1.976678286299729
    vertex 2.15136021398941 -7.560959998880142 2.090848925595397
  endloop
endfacet
facet normal -0.401431 0.0200096 0.915671
  outer loop
    vertex 0 6 -2.999999999999998
    vertex 2.254718329013715 4.509133051846214 -1.978950544306145
    vertex 2.151186272263307 7.560920246042144 -2.091027886477339
  endloop
endfacet
facet normal -0.401943 0 -0.915665
  outer loop
    vertex 3.673940397442058e-16 -12 2.999999999999998
    vertex 3.673940397442058e-16 -9 2.999999999999998
    vertex 2.208271398478689 -10.70524947431695 2.030649509556231
  endloop
endfacet
facet normal -0.401943 0 0.915665
  outer loop
    vertex 0 12 -2.999999999999998
    vertex 0 9 -2.999999999999998
    vertex 2.208271398461584 10.70524947432216 -2.030649509574832
  endloop
endfacet
facet normal -0.395155 0.0104341 -0.918555
  outer loop
    vertex 2.208271398478689 -10.70524947431695 2.030649509556231
    vertex 3.673940397442058e-16 -9 2.999999999999998
    vertex 2.15136021398941 -7.560959998880142 2.090848925595397
  endloop
endfacet
facet normal -0.395135 -0.0104649 0.918564
  outer loop
    vertex 2.208271398461584 10.70524947432216 -2.030649509574832
    vertex 0 9 -2.999999999999998
    vertex 2.151186272263307 7.560920246042144 -2.091027886477339
  endloop
endfacet
facet normal -0.414571 -0.00543869 -0.910001
  outer loop
    vertex 3.673940397442058e-16 6 2.999999999999998
    vertex 2.276361753564502 7.495373822435535 1.954015651653982
    vertex 2.250507080053536 4.492981168204753 1.983738360426822
  endloop
endfacet
facet normal -0.24525 0 0.96946
  outer loop
    vertex 0 15 -2.999999999999998
    vertex 0 12 -2.999999999999998
    vertex 1.426562801420109 13.39736367813552 -2.639113217276667
  endloop
endfacet
facet normal -0.245257 0 -0.969458
  outer loop
    vertex 3.673940397442058e-16 -15 2.999999999999998
    vertex 3.673940397442058e-16 -12 2.999999999999998
    vertex 1.426599735628741 -13.39729371021562 2.639093252294051
  endloop
endfacet
facet normal -0.247698 0 -0.968837
  outer loop
    vertex 3.673940397442058e-16 12 2.999999999999998
    vertex 3.673940397442058e-16 15 2.999999999999998
    vertex 1.439875109829668 13.39937334573985 2.631873794104305
  endloop
endfacet
facet normal -0.248503 0 0.968631
  outer loop
    vertex 0 -12 -2.999999999999998
    vertex 0 -15 -2.999999999999998
    vertex 1.444246641448963 -13.38638518751907 -2.629477445931678
  endloop
endfacet
facet normal -0.392326 0 -0.919826
  outer loop
    vertex 3.673940397442058e-16 9 2.999999999999998
    vertex 3.673940397442058e-16 12 2.999999999999998
    vertex 2.165231860462638 10.65433372328014 2.07648043343478
  endloop
endfacet
facet normal -0.392399 0 0.919795
  outer loop
    vertex 0 -9 -2.999999999999998
    vertex 0 -12 -2.999999999999998
    vertex 2.165558093303277 -10.65220120747357 -2.076140203485464
  endloop
endfacet
facet normal -0.417529 0 -0.908663
  outer loop
    vertex 3.673940397442058e-16 6 2.999999999999998
    vertex 3.673940397442058e-16 9 2.999999999999998
    vertex 2.276361753564502 7.495373822435535 1.954015651653982
  endloop
endfacet
facet normal -0.417519 0 0.908668
  outer loop
    vertex 0 -6 -2.999999999999998
    vertex 0 -9 -2.999999999999998
    vertex 2.276316210019141 -7.496595553513364 -1.954068707083781
  endloop
endfacet
facet normal -0.409612 -0.0126331 0.912172
  outer loop
    vertex 2.272031869034683 -1.505907352589349 -1.959048541024636
    vertex 0 -3 -2.999999999999998
    vertex 2.210036810869813 -4.526996897187869 -2.028727999166072
  endloop
endfacet
facet normal -0.414549 -0.00283036 -0.910022
  outer loop
    vertex 2.256710648814145 -4.509533113597103 1.976678286299729
    vertex 3.673940397442058e-16 -3 2.999999999999998
    vertex 2.270246753728158 -1.48879546447884 1.961116946331032
  endloop
endfacet
facet normal -0.410252 -0.00407964 0.911963
  outer loop
    vertex 2.254718329013715 4.509133051846214 -1.978950544306145
    vertex 0 3 -2.999999999999998
    vertex 2.234814625184273 1.492221725984191 -2.001400407480339
  endloop
endfacet
facet normal -0.409986 0.0137779 0.911988
  outer loop
    vertex 0 -6 -2.999999999999998
    vertex 2.276316210019141 -7.496595553513364 -1.954068707083781
    vertex 2.210036810869813 -4.526996897187869 -2.028727999166072
  endloop
endfacet
facet normal -0.389262 0 -0.921127
  outer loop
    vertex 3.673940397442058e-16 -9 2.999999999999998
    vertex 3.673940397442058e-16 -6 2.999999999999998
    vertex 2.15136021398941 -7.560959998880142 2.090848925595397
  endloop
endfacet
facet normal -0.389224 0 0.921143
  outer loop
    vertex 0 9 -2.999999999999998
    vertex 0 6 -2.999999999999998
    vertex 2.151186272263307 7.560920246042144 -2.091027886477339
  endloop
endfacet
facet normal -0.412981 0 -0.910739
  outer loop
    vertex 3.673940397442058e-16 -6 2.999999999999998
    vertex 3.673940397442058e-16 -3 2.999999999999998
    vertex 2.256710648814145 -4.509533113597103 1.976678286299729
  endloop
endfacet
facet normal -0.412523 0 0.910947
  outer loop
    vertex 0 6 -2.999999999999998
    vertex 0 3 -2.999999999999998
    vertex 2.254718329013715 4.509133051846214 -1.978950544306145
  endloop
endfacet
facet normal -0.411554 0 -0.911385
  outer loop
    vertex 3.673940397442058e-16 3 2.999999999999998
    vertex 3.673940397442058e-16 6 2.999999999999998
    vertex 2.250507080053536 4.492981168204753 1.983738360426822
  endloop
endfacet
facet normal -0.402341 0 0.91549
  outer loop
    vertex 0 -3 -2.999999999999998
    vertex 0 -6 -2.999999999999998
    vertex 2.210036810869813 -4.526996897187869 -2.028727999166072
  endloop
endfacet
facet normal -0.433013 0 -0.901388
  outer loop
    vertex 3.673940397442058e-16 0 2.999999999999998
    vertex 3.673940397442058e-16 3 2.999999999999998
    vertex 2.341874249397824 1.5 1.875000000001965
  endloop
endfacet
facet normal -0.416524 0 0.909125
  outer loop
    vertex 0 0 -2.999999999999998
    vertex 0 -3 -2.999999999999998
    vertex 2.272031869034683 -1.505907352589349 -1.959048541024636
  endloop
endfacet
facet normal -0.422476 0.0200246 -0.906153
  outer loop
    vertex 2.341874249397824 1.5 1.875000000001965
    vertex 3.673940397442058e-16 3 2.999999999999998
    vertex 2.250507080053536 4.492981168204753 1.983738360426822
  endloop
endfacet
facet normal -0.41611 0 -0.909314
  outer loop
    vertex 3.673940397442058e-16 -3 2.999999999999998
    vertex 3.673940397442058e-16 0 2.999999999999998
    vertex 2.270246753728158 -1.48879546447884 1.961116946331032
  endloop
endfacet
facet normal -0.407962 0 0.912999
  outer loop
    vertex 0 3 -2.999999999999998
    vertex 0 0 -2.999999999999998
    vertex 2.234814625184273 1.492221725984191 -2.001400407480339
  endloop
endfacet
facet normal -0.424662 -0.0159049 -0.905212
  outer loop
    vertex 3.673940397442058e-16 0 2.999999999999998
    vertex 2.341874249397824 1.5 1.875000000001965
    vertex 2.270246753728158 -1.48879546447884 1.961116946331032
  endloop
endfacet
facet normal -0.41226 0.00775176 0.911033
  outer loop
    vertex 0 0 -2.999999999999998
    vertex 2.272031869034683 -1.505907352589349 -1.959048541024636
    vertex 2.234814625184273 1.492221725984191 -2.001400407480339
  endloop
endfacet
facet normal -0.405863 0.0211434 -0.913689
  outer loop
    vertex 2.276361753564502 7.495373822435535 1.954015651653982
    vertex 3.673940397442058e-16 9 2.999999999999998
    vertex 2.165231860462638 10.65433372328014 2.07648043343478
  endloop
endfacet
facet normal -0.405887 -0.0210986 0.91368
  outer loop
    vertex 2.276316210019141 -7.496595553513364 -1.954068707083781
    vertex 0 -9 -2.999999999999998
    vertex 2.165558093303277 -10.65220120747357 -2.076140203485464
  endloop
endfacet
facet normal -0.917488 -0.117424 0.380036
  outer loop
    vertex 2.999999999999998 15 -1.836909530733565e-16
    vertex 2.121320343559641 15 -2.121320343559641
    vertex 2.780546528741242 13.06947012594581 -1.126304133662404
  endloop
endfacet
facet normal -0.917492 0.117388 -0.380038
  outer loop
    vertex 2.999999999999998 -15 -1.836909530733565e-16
    vertex 2.121320343559641 -15 2.121320343559641
    vertex 2.780785488275133 -13.06890823266806 1.125714025940167
  endloop
endfacet
facet normal -0.917478 0.117512 0.380032
  outer loop
    vertex 2.121320343559641 -15 -2.121320343559641
    vertex 2.999999999999998 -15 -1.836909530733565e-16
    vertex 2.818779754489427 -13.09396449246466 -1.026879104705377
  endloop
endfacet
facet normal -0.917461 -0.11767 -0.380025
  outer loop
    vertex 2.121320343559641 15 2.121320343559641
    vertex 2.999999999999998 15 -1.836909530733565e-16
    vertex 2.8197965418666 13.09766393851696 1.024083718490415
  endloop
endfacet
facet normal -0.938878 -0.00267001 -0.34424
  outer loop
    vertex 2.999953363912107 -3.081717820846246 -0.01672765232855659
    vertex 2.270246753728158 -1.48879546447884 1.961116946331032
    vertex 2.999732768997676 0.001653658750984192 -0.04004141108303408
  endloop
endfacet
facet normal -0.994513 0.103251 0.0167987
  outer loop
    vertex 2.8197965418666 13.09766393851696 1.024083718490415
    vertex 2.999999999999998 15 -1.836909530733565e-16
    vertex 2.780546528741242 13.06947012594581 -1.126304133662404
  endloop
endfacet
facet normal -0.994509 -0.103364 -0.0163504
  outer loop
    vertex 2.818779754489427 -13.09396449246466 -1.026879104705377
    vertex 2.999999999999998 -15 -1.836909530733565e-16
    vertex 2.780785488275133 -13.06890823266806 1.125714025940167
  endloop
endfacet
facet normal -0.935702 0.00260048 0.352782
  outer loop
    vertex 2.272031869034683 -1.505907352589349 -1.959048541024636
    vertex 2.999953363912107 -3.081717820846246 -0.01672765232855659
    vertex 2.999732768997676 0.001653658750984192 -0.04004141108303408
  endloop
endfacet
facet normal -0.945905 -0.000635438 -0.324442
  outer loop
    vertex 2.341874249397824 1.5 1.875000000001965
    vertex 2.999650213487096 3.070095401110322 -0.04581044342514562
    vertex 2.999732768997676 0.001653658750984192 -0.04004141108303408
  endloop
endfacet
facet normal -0.927682 -0.00964484 -0.373248
  outer loop
    vertex 2.208271398478689 -10.70524947431695 2.030649509556231
    vertex 2.15136021398941 -7.560959998880142 2.090848925595397
    vertex 2.999945551069174 -8.966747880126949 0.01807458492639385
  endloop
endfacet
facet normal -0.927656 0.00967309 0.373312
  outer loop
    vertex 2.208271398461584 10.70524947432216 -2.030649509574832
    vertex 2.151186272263307 7.560920246042144 -2.091027886477339
    vertex 2.999943884481734 8.966815524376194 -0.01834911334736604
  endloop
endfacet
facet normal -0.931487 0.000658878 0.363775
  outer loop
    vertex 2.999650213487096 3.070095401110322 -0.04581044342514562
    vertex 2.234814625184273 1.492221725984191 -2.001400407480339
    vertex 2.999732768997676 0.001653658750984192 -0.04004141108303408
  endloop
endfacet
facet normal -0.930005 0.0183736 -0.367087
  outer loop
    vertex 2.15136021398941 -7.560959998880142 2.090848925595397
    vertex 2.256710648814145 -4.509533113597103 1.976678286299729
    vertex 2.999955183625428 -6.053745722059155 0.0163980559491778
  endloop
endfacet
facet normal -0.929352 -0.0179857 0.368756
  outer loop
    vertex 2.151186272263307 7.560920246042144 -2.091027886477339
    vertex 2.254718329013715 4.509133051846214 -1.978950544306145
    vertex 2.999890845347337 6.054007110146715 -0.02559132667975402
  endloop
endfacet
facet normal -0.925499 -0.000214923 -0.37875
  outer loop
    vertex 2.999945551069174 -8.966747880126949 0.01807458492639385
    vertex 2.15136021398941 -7.560959998880142 2.090848925595397
    vertex 2.999955183625428 -6.053745722059155 0.0163980559491778
  endloop
endfacet
facet normal -0.925194 -0.000926701 0.379494
  outer loop
    vertex 2.999943884481734 8.966815524376194 -0.01834911334736604
    vertex 2.151186272263307 7.560920246042144 -2.091027886477339
    vertex 2.999890845347337 6.054007110146715 -0.02559132667975402
  endloop
endfacet
facet normal -0.924549 0.0879876 -0.370767
  outer loop
    vertex 2.165231860462638 10.65433372328014 2.07648043343478
    vertex 2.8197965418666 13.09766393851696 1.024083718490415
    vertex 2.997793682562738 11.13740542559893 0.1150349372448589
  endloop
endfacet
facet normal -0.924612 -0.0881096 0.370579
  outer loop
    vertex 2.165558093303277 -10.65220120747357 -2.076140203485464
    vertex 2.818779754489427 -13.09396449246466 -1.026879104705377
    vertex 2.997793682562582 -11.13740542560252 -0.1150349372489103
  endloop
endfacet
facet normal -0.938126 0.00465065 -0.346263
  outer loop
    vertex 2.250507080053536 4.492981168204753 1.983738360426822
    vertex 2.276361753564502 7.495373822435535 1.954015651653982
    vertex 2.999890845347337 6.054007110146715 -0.02559132667975402
  endloop
endfacet
facet normal -0.939027 0.000872003 -0.343841
  outer loop
    vertex 2.276361753564502 7.495373822435535 1.954015651653982
    vertex 2.999943884481734 8.966815524376194 -0.01834911334736604
    vertex 2.999890845347337 6.054007110146715 -0.02559132667975402
  endloop
endfacet
facet normal -0.938749 0.000201433 0.344601
  outer loop
    vertex 2.276316210019141 -7.496595553513364 -1.954068707083781
    vertex 2.999945551069174 -8.966747880126949 0.01807458492639385
    vertex 2.999955183625428 -6.053745722059155 0.0163980559491778
  endloop
endfacet
facet normal -0.937551 0.00240932 -0.347841
  outer loop
    vertex 2.256710648814145 -4.509533113597103 1.976678286299729
    vertex 2.270246753728158 -1.48879546447884 1.961116946331032
    vertex 2.999953363912107 -3.081717820846246 -0.01672765232855659
  endloop
endfacet
facet normal -0.933976 -0.0190232 -0.35683
  outer loop
    vertex 2.276361753564502 7.495373822435535 1.954015651653982
    vertex 2.165231860462638 10.65433372328014 2.07648043343478
    vertex 2.999943884481734 8.966815524376194 -0.01834911334736604
  endloop
endfacet
facet normal -0.933971 0.0189771 0.356844
  outer loop
    vertex 2.276316210019141 -7.496595553513364 -1.954068707083781
    vertex 2.165558093303277 -10.65220120747357 -2.076140203485464
    vertex 2.999945551069174 -8.966747880126949 0.01807458492639385
  endloop
endfacet
facet normal -0.932244 0.003458 0.361813
  outer loop
    vertex 2.254718329013715 4.509133051846214 -1.978950544306145
    vertex 2.234814625184273 1.492221725984191 -2.001400407480339
    vertex 2.999650213487096 3.070095401110322 -0.04581044342514562
  endloop
endfacet
facet normal -0.935752 -0.0120243 0.352453
  outer loop
    vertex 2.210036810869813 -4.526996897187869 -2.028727999166072
    vertex 2.276316210019141 -7.496595553513364 -1.954068707083781
    vertex 2.999955183625428 -6.053745722059155 0.0163980559491778
  endloop
endfacet
facet normal -0.933412 0.0108825 0.358643
  outer loop
    vertex 2.272031869034683 -1.505907352589349 -1.959048541024636
    vertex 2.210036810869813 -4.526996897187869 -2.028727999166072
    vertex 2.999953363912107 -3.081717820846246 -0.01672765232855659
  endloop
endfacet
facet normal -0.942513 0.0129663 -0.333919
  outer loop
    vertex 2.270246753728158 -1.48879546447884 1.961116946331032
    vertex 2.341874249397824 1.5 1.875000000001965
    vertex 2.999732768997676 0.001653658750984192 -0.04004141108303408
  endloop
endfacet
facet normal -0.941714 -0.0165403 -0.336008
  outer loop
    vertex 2.341874249397824 1.5 1.875000000001965
    vertex 2.250507080053536 4.492981168204753 1.983738360426822
    vertex 2.999650213487096 3.070095401110322 -0.04581044342514562
  endloop
endfacet
facet normal -0.933303 -0.00651382 0.359032
  outer loop
    vertex 2.234814625184273 1.492221725984191 -2.001400407480339
    vertex 2.272031869034683 -1.505907352589349 -1.959048541024636
    vertex 2.999732768997676 0.001653658750984192 -0.04004141108303408
  endloop
endfacet
facet normal -0.937573 0.00243218 -0.34778
  outer loop
    vertex 2.250507080053536 4.492981168204753 1.983738360426822
    vertex 2.999890845347337 6.054007110146715 -0.02559132667975402
    vertex 2.999650213487096 3.070095401110322 -0.04581044342514562
  endloop
endfacet
facet normal -0.9337 -0.00235086 0.358049
  outer loop
    vertex 2.999890845347337 6.054007110146715 -0.02559132667975402
    vertex 2.254718329013715 4.509133051846214 -1.978950544306145
    vertex 2.999650213487096 3.070095401110322 -0.04581044342514562
  endloop
endfacet
facet normal -0.940029 -0.103223 -0.325101
  outer loop
    vertex 2.780785488275133 -13.06890823266806 1.125714025940167
    vertex 2.208271398478689 -10.70524947431695 2.030649509556231
    vertex 2.997793682562582 -11.13740542560252 -0.1150349372489103
  endloop
endfacet
facet normal -0.94003 0.103182 0.32511
  outer loop
    vertex 2.780546528741242 13.06947012594581 -1.126304133662404
    vertex 2.208271398461584 10.70524947432216 -2.030649509574832
    vertex 2.997793682562738 11.13740542559893 0.1150349372448589
  endloop
endfacet
facet normal -0.931809 0.00404453 0.362925
  outer loop
    vertex 2.210036810869813 -4.526996897187869 -2.028727999166072
    vertex 2.999955183625428 -6.053745722059155 0.0163980559491778
    vertex 2.999953363912107 -3.081717820846246 -0.01672765232855659
  endloop
endfacet
facet normal -0.93606 -0.00392189 -0.35182
  outer loop
    vertex 2.999955183625428 -6.053745722059155 0.0163980559491778
    vertex 2.256710648814145 -4.509533113597103 1.976678286299729
    vertex 2.999953363912107 -3.081717820846246 -0.01672765232855659
  endloop
endfacet
facet normal -0.744508 0.106755 -0.659023
  outer loop
    vertex 2.121320343559641 15 2.121320343559641
    vertex 2.8197965418666 13.09766393851696 1.024083718490415
    vertex 1.439875109829668 13.39937334573985 2.631873794104305
  endloop
endfacet
facet normal -0.745245 -0.105359 0.658414
  outer loop
    vertex 2.121320343559641 -15 -2.121320343559641
    vertex 2.818779754489427 -13.09396449246466 -1.026879104705377
    vertex 1.444246641448963 -13.38638518751907 -2.629477445931678
  endloop
endfacet
facet normal -0.730854 -0.0986141 -0.675373
  outer loop
    vertex 2.780785488275133 -13.06890823266806 1.125714025940167
    vertex 2.121320343559641 -15 2.121320343559641
    vertex 1.426599735628741 -13.39729371021562 2.639093252294051
  endloop
endfacet
facet normal -0.730797 0.0985806 0.675439
  outer loop
    vertex 2.780546528741242 13.06947012594581 -1.126304133662404
    vertex 2.121320343559641 15 -2.121320343559641
    vertex 1.426562801420109 13.39736367813552 -2.639113217276667
  endloop
endfacet
facet normal -0.994861 -0.0993613 0.0194615
  outer loop
    vertex 2.8197965418666 13.09766393851696 1.024083718490415
    vertex 2.780546528741242 13.06947012594581 -1.126304133662404
    vertex 2.997793682562738 11.13740542559893 0.1150349372448589
  endloop
endfacet
facet normal -0.994837 0.0997464 -0.0187204
  outer loop
    vertex 2.818779754489427 -13.09396449246466 -1.026879104705377
    vertex 2.780785488275133 -13.06890823266806 1.125714025940167
    vertex 2.997793682562582 -11.13740542560252 -0.1150349372489103
  endloop
endfacet
facet normal -0.379472 0.129278 0.916127
  outer loop
    vertex 0 -15 -2.999999999999998
    vertex 2.121320343559641 -15 -2.121320343559641
    vertex 1.444246641448963 -13.38638518751907 -2.629477445931678
  endloop
endfacet
facet normal -0.379363 -0.131447 0.915863
  outer loop
    vertex 2.121320343559641 15 -2.121320343559641
    vertex 0 15 -2.999999999999998
    vertex 1.426562801420109 13.39736367813552 -2.639113217276667
  endloop
endfacet
facet normal -0.379363 0.131439 -0.915864
  outer loop
    vertex 2.121320343559641 -15 2.121320343559641
    vertex 3.673940397442058e-16 -15 2.999999999999998
    vertex 1.426599735628741 -13.39729371021562 2.639093252294051
  endloop
endfacet
facet normal -0.379404 -0.130639 -0.915962
  outer loop
    vertex 3.673940397442058e-16 15 2.999999999999998
    vertex 2.121320343559641 15 2.121320343559641
    vertex 1.439875109829668 13.39937334573985 2.631873794104305
  endloop
endfacet
facet normal -0.936783 0.0223422 -0.349197
  outer loop
    vertex 2.208271398478689 -10.70524947431695 2.030649509556231
    vertex 2.999945551069174 -8.966747880126949 0.01807458492639385
    vertex 2.997793682562582 -11.13740542560252 -0.1150349372489103
  endloop
endfacet
facet normal -0.936779 -0.0223868 0.349204
  outer loop
    vertex 2.208271398461584 10.70524947432216 -2.030649509574832
    vertex 2.999943884481734 8.966815524376194 -0.01834911334736604
    vertex 2.997793682562738 11.13740542559893 0.1150349372448589
  endloop
endfacet
facet normal -0.922276 0.0227976 -0.385858
  outer loop
    vertex 2.999943884481734 8.966815524376194 -0.01834911334736604
    vertex 2.165231860462638 10.65433372328014 2.07648043343478
    vertex 2.997793682562738 11.13740542559893 0.1150349372448589
  endloop
endfacet
facet normal -0.922312 -0.0227423 0.385776
  outer loop
    vertex 2.999945551069174 -8.966747880126949 0.01807458492639385
    vertex 2.165558093303277 -10.65220120747357 -2.076140203485464
    vertex 2.997793682562582 -11.13740542560252 -0.1150349372489103
  endloop
endfacet
endsolid Created by Gmsh
