solid Created by Gmsh
facet normal 0.763416 0.0623427 -0.642891
  outer loop
    vertex -1.394941928090373 0.9794429442529171 0.5514861895419653
    vertex -1.068439240889717 2.151158173758116 1.052823626504937
    vertex -0.7620980770811615 0.8660720912066427 1.291977755578322
  endloop
endfacet
facet normal 0.761446 -0.0615855 -0.645296
  outer loop
    vertex -1.063436461089672 12.85183212590618 1.057876596406726
    vertex -1.392531042773187 14.02538486359525 0.5575457783115418
    vertex -0.7603850362745951 14.13527928555955 1.292986696223007
  endloop
endfacet
facet normal 0.762116 -0.0627346 0.644394
  outer loop
    vertex -1.393276757344611 14.05003516370709 -0.5556796536164413
    vertex -1.084244981341244 12.86497384098097 -1.036538865859032
    vertex -0.7638925974434004 14.14378610789737 -1.290917541739664
  endloop
endfacet
facet normal 0.759045 0.0619366 0.648085
  outer loop
    vertex -1.081847120075037 2.139336794409963 -1.03904129310887
    vertex -1.388113481384759 0.9686247179358326 -0.5684548907326659
    vertex -0.7608725190284282 0.8599323478416994 -1.292699891617284
  endloop
endfacet
facet normal 0.334686 -0.0946964 -0.937559
  outer loop
    vertex -1.068439240889717 2.151158173758116 1.052823626504937
    vertex 1.836970198721031e-16 1.5 1.500000000000001
    vertex -0.7620980770811615 0.8660720912066427 1.291977755578322
  endloop
endfacet
facet normal 0.333272 0.0931751 -0.938215
  outer loop
    vertex 1.836970198721031e-16 13.5 1.500000000000001
    vertex -1.063436461089672 12.85183212590618 1.057876596406726
    vertex -0.7603850362745951 14.13527928555955 1.292986696223007
  endloop
endfacet
facet normal 0.339237 -0.100335 0.935335
  outer loop
    vertex 0 1.5 -1.500000000000001
    vertex -1.081847120075037 2.139336794409963 -1.03904129310887
    vertex -0.7608725190284282 0.8599323478416994 -1.292699891617284
  endloop
endfacet
facet normal 0.340651 0.100611 0.934791
  outer loop
    vertex -1.084244981341244 12.86497384098097 -1.036538865859032
    vertex 0 13.5 -1.500000000000001
    vertex -0.7638925974434004 14.14378610789737 -1.290917541739664
  endloop
endfacet
facet normal 0.403988 -0.0312543 0.91423
  outer loop
    vertex 0 4.5 -1.500000000000001
    vertex -1.145742618099676 5.248233995311822 -0.9681290477359427
    vertex -1.065707018469503 3.724436829010836 -1.05558919603454
  endloop
endfacet
facet normal 0.404099 0.030537 0.914205
  outer loop
    vertex -1.144986428915669 9.755519236284583 -0.9690232595758201
    vertex 0 10.5 -1.500000000000001
    vertex -1.066250893439519 11.28873967119672 -1.05503982495422
  endloop
endfacet
facet normal 0.391986 -0 0.919971
  outer loop
    vertex 0 1.5 -1.500000000000001
    vertex 0 3 -1.500000000000001
    vertex -1.081847120075037 2.139336794409963 -1.03904129310887
  endloop
endfacet
facet normal 0.393048 -0 0.919518
  outer loop
    vertex 0 12 -1.500000000000001
    vertex 0 13.5 -1.500000000000001
    vertex -1.084244981341244 12.86497384098097 -1.036538865859032
  endloop
endfacet
facet normal 0.388159 0.00566854 0.921575
  outer loop
    vertex -1.081847120075037 2.139336794409963 -1.03904129310887
    vertex 0 3 -1.500000000000001
    vertex -1.065707018469503 3.724436829010836 -1.05558919603454
  endloop
endfacet
facet normal 0.388735 -0.00637628 0.921327
  outer loop
    vertex 0 12 -1.500000000000001
    vertex -1.084244981341244 12.86497384098097 -1.036538865859032
    vertex -1.066250893439519 11.28873967119672 -1.05503982495422
  endloop
endfacet
facet normal 0.262869 5.71295e-16 0.964832
  outer loop
    vertex 0 0 -1.5
    vertex 0 1.5 -1.500000000000001
    vertex -0.7608725190284282 0.8599323478416994 -1.292699891617284
  endloop
endfacet
facet normal 0.263997 4.28335e-16 0.964524
  outer loop
    vertex 0 13.5 -1.500000000000001
    vertex 0 15 -1.500000000000002
    vertex -0.7638925974434004 14.14378610789737 -1.290917541739664
  endloop
endfacet
facet normal 0.263326 5.71221e-16 -0.964707
  outer loop
    vertex 1.836970198721031e-16 1.5 1.500000000000001
    vertex 1.83697019872103e-16 0 1.5
    vertex -0.7620980770811615 0.8660720912066427 1.291977755578322
  endloop
endfacet
facet normal 0.262687 4.28493e-16 -0.964881
  outer loop
    vertex 1.836970198721031e-16 15 1.500000000000002
    vertex 1.836970198721031e-16 13.5 1.500000000000001
    vertex -0.7603850362745951 14.13527928555955 1.292986696223007
  endloop
endfacet
facet normal 0.418954 -0.00467164 -0.907995
  outer loop
    vertex 1.836970198721031e-16 4.5 1.500000000000001
    vertex -1.135791433984218 3.752717840315403 0.9797845775924807
    vertex -1.146625277331011 5.249762836809273 0.9670834883222781
  endloop
endfacet
facet normal 0.383894 0 -0.923377
  outer loop
    vertex 1.836970198721031e-16 13.5 1.500000000000001
    vertex 1.836970198721031e-16 12 1.500000000000001
    vertex -1.063436461089672 12.85183212590618 1.057876596406726
  endloop
endfacet
facet normal 0.386081 0 -0.922465
  outer loop
    vertex 1.836970198721031e-16 3 1.500000000000001
    vertex 1.836970198721031e-16 1.5 1.500000000000001
    vertex -1.068439240889717 2.151158173758116 1.052823626504937
  endloop
endfacet
facet normal 0.410308 0.0207928 -0.91171
  outer loop
    vertex 1.836970198721031e-16 9 1.500000000000001
    vertex -1.146879059161193 8.251352842323275 0.9667825110424475
    vertex -1.0957611076415 9.767129635380567 1.024357161824076
  endloop
endfacet
facet normal 0.402103 0 -0.915594
  outer loop
    vertex 1.836970198721031e-16 12 1.500000000000001
    vertex 1.836970198721031e-16 10.5 1.500000000000001
    vertex -1.104490159644699 11.25388350261173 1.014939154456084
  endloop
endfacet
facet normal 0.416419 0 -0.909173
  outer loop
    vertex 1.836970198721031e-16 4.5 1.500000000000001
    vertex 1.836970198721031e-16 3 1.500000000000001
    vertex -1.135791433984218 3.752717840315403 0.9797845775924807
  endloop
endfacet
facet normal 0.418178 0.00532211 0.90835
  outer loop
    vertex -1.145742618099676 5.248233995311822 -0.9681290477359427
    vertex 0 6 -1.500000000000001
    vertex -1.133253154051598 6.757085675768785 -0.9827193337022063
  endloop
endfacet
facet normal 0.418401 0.00569003 -0.908244
  outer loop
    vertex 1.836970198721031e-16 6 1.500000000000001
    vertex -1.146625277331011 5.249762836809273 0.9670834883222781
    vertex -1.133305986234569 6.75643816842541 0.9826584053295908
  endloop
endfacet
facet normal 0.400122 -0.00345618 -0.916455
  outer loop
    vertex -1.104490159644699 11.25388350261173 1.014939154456084
    vertex 1.836970198721031e-16 10.5 1.500000000000001
    vertex -1.0957611076415 9.767129635380567 1.024357161824076
  endloop
endfacet
facet normal 0.384886 -0 0.922964
  outer loop
    vertex 0 3 -1.500000000000001
    vertex 0 4.5 -1.500000000000001
    vertex -1.065707018469503 3.724436829010836 -1.05558919603454
  endloop
endfacet
facet normal 0.385123 -0 0.922865
  outer loop
    vertex 0 10.5 -1.500000000000001
    vertex 0 12 -1.500000000000001
    vertex -1.066250893439519 11.28873967119672 -1.05503982495422
  endloop
endfacet
facet normal 0.421099 0.000726716 0.907014
  outer loop
    vertex 0 9 -1.500000000000001
    vertex -1.144986428915669 9.755519236284583 -0.9690232595758201
    vertex -1.146662381428569 8.250719799005207 -0.9670394940314309
  endloop
endfacet
facet normal 0.420704 -0 0.907198
  outer loop
    vertex 0 9 -1.500000000000001
    vertex 0 10.5 -1.500000000000001
    vertex -1.144986428915669 9.755519236284583 -0.9690232595758201
  endloop
endfacet
facet normal 0.421059 -0 0.907033
  outer loop
    vertex 0 4.5 -1.500000000000001
    vertex 0 6 -1.500000000000001
    vertex -1.145742618099676 5.248233995311822 -0.9681290477359427
  endloop
endfacet
facet normal 0.421472 0 -0.906841
  outer loop
    vertex 1.836970198721031e-16 6 1.500000000000001
    vertex 1.836970198721031e-16 4.5 1.500000000000001
    vertex -1.146625277331011 5.249762836809273 0.9670834883222781
  endloop
endfacet
facet normal 0.39818 0 -0.917307
  outer loop
    vertex 1.836970198721031e-16 10.5 1.500000000000001
    vertex 1.836970198721031e-16 9 1.500000000000001
    vertex -1.0957611076415 9.767129635380567 1.024357161824076
  endloop
endfacet
facet normal 0.42149 -0 0.906833
  outer loop
    vertex 0 7.5 -1.500000000000001
    vertex 0 9 -1.500000000000001
    vertex -1.146662381428569 8.250719799005207 -0.9670394940314309
  endloop
endfacet
facet normal 0.421591 0 -0.906786
  outer loop
    vertex 1.836970198721031e-16 9 1.500000000000001
    vertex 1.836970198721031e-16 7.5 1.500000000000001
    vertex -1.146879059161193 8.251352842323275 0.9667825110424475
  endloop
endfacet
facet normal 0.415243 -0 0.90971
  outer loop
    vertex 0 6 -1.500000000000001
    vertex 0 7.5 -1.500000000000001
    vertex -1.133253154051598 6.757085675768785 -0.9827193337022063
  endloop
endfacet
facet normal 0.415268 0 -0.909699
  outer loop
    vertex 1.836970198721031e-16 7.5 1.500000000000001
    vertex 1.836970198721031e-16 6 1.500000000000001
    vertex -1.133305986234569 6.75643816842541 0.9826584053295908
  endloop
endfacet
facet normal 0.418369 -0.00577876 0.908259
  outer loop
    vertex 0 7.5 -1.500000000000001
    vertex -1.146662381428569 8.250719799005207 -0.9670394940314309
    vertex -1.133253154051598 6.757085675768785 -0.9827193337022063
  endloop
endfacet
facet normal 0.418432 -0.00584618 -0.908229
  outer loop
    vertex -1.146879059161193 8.251352842323275 0.9667825110424475
    vertex 1.836970198721031e-16 7.5 1.500000000000001
    vertex -1.133305986234569 6.75643816842541 0.9826584053295908
  endloop
endfacet
facet normal 0.393788 0.0145792 -0.919086
  outer loop
    vertex 1.836970198721031e-16 12 1.500000000000001
    vertex -1.104490159644699 11.25388350261173 1.014939154456084
    vertex -1.063436461089672 12.85183212590618 1.057876596406726
  endloop
endfacet
facet normal 0.402662 -0.0247955 -0.915013
  outer loop
    vertex -1.135791433984218 3.752717840315403 0.9797845775924807
    vertex 1.836970198721031e-16 3 1.500000000000001
    vertex -1.068439240889717 2.151158173758116 1.052823626504937
  endloop
endfacet
facet normal 0.917528 0.117056 0.380053
  outer loop
    vertex -1.5 0 2.755364296100349e-16
    vertex -1.060660171779821 0 -1.060660171779821
    vertex -1.388113481384759 0.9686247179358326 -0.5684548907326659
  endloop
endfacet
facet normal 0.917292 -0.119201 0.379955
  outer loop
    vertex -1.060660171779823 15 -1.060660171779822
    vertex -1.500000000000002 15 2.755364296100352e-16
    vertex -1.393276757344611 14.05003516370709 -0.5556796536164413
  endloop
endfacet
facet normal 0.930026 0.00249201 -0.367484
  outer loop
    vertex -1.499985879045919 10.52804958069235 0.006508660602887283
    vertex -1.0957611076415 9.767129635380567 1.024357161824076
    vertex -1.499995166875824 9.010195753752621 -0.00380780109398197
  endloop
endfacet
facet normal 0.917615 -0.116253 -0.380089
  outer loop
    vertex -1.500000000000002 15 2.755364296100352e-16
    vertex -1.060660171779822 15 1.060660171779823
    vertex -1.392531042773187 14.02538486359525 0.5575457783115418
  endloop
endfacet
facet normal 0.917686 0.115596 -0.380118
  outer loop
    vertex -1.060660171779821 0 1.060660171779821
    vertex -1.5 0 2.755364296100349e-16
    vertex -1.394941928090373 0.9794429442529171 0.5514861895419653
  endloop
endfacet
facet normal 0.939113 -0.00234111 0.3436
  outer loop
    vertex -1.144986428915669 9.755519236284583 -0.9690232595758201
    vertex -1.499985879045919 10.52804958069235 0.006508660602887283
    vertex -1.499995166875824 9.010195753752621 -0.00380780109398197
  endloop
endfacet
facet normal 0.993838 -0.110616 0.00712808
  outer loop
    vertex -1.394941928090373 0.9794429442529171 0.5514861895419653
    vertex -1.5 0 2.755364296100349e-16
    vertex -1.388113481384759 0.9686247179358326 -0.5684548907326659
  endloop
endfacet
facet normal 0.925738 0.00612997 0.378117
  outer loop
    vertex -1.066250893439519 11.28873967119672 -1.05503982495422
    vertex -1.084244981341244 12.86497384098097 -1.036538865859032
    vertex -1.49999304200331 11.99517635823962 -0.004568800899587237
  endloop
endfacet
facet normal 0.924288 -0.00542709 0.381657
  outer loop
    vertex -1.081847120075037 2.139336794409963 -1.03904129310887
    vertex -1.065707018469503 3.724436829010836 -1.05558919603454
    vertex -1.499934772112931 3.020993678606075 -0.01398854554737969
  endloop
endfacet
facet normal 0.930905 0.0279917 0.364187
  outer loop
    vertex -1.065707018469503 3.724436829010836 -1.05558919603454
    vertex -1.145742618099676 5.248233995311822 -0.9681290477359427
    vertex -1.499997318391542 4.470514097379765 -0.002836338870077368
  endloop
endfacet
facet normal 0.93213 -0.027611 0.361071
  outer loop
    vertex -1.144986428915669 9.755519236284583 -0.9690232595758201
    vertex -1.066250893439519 11.28873967119672 -1.05503982495422
    vertex -1.499985879045919 10.52804958069235 0.006508660602887283
  endloop
endfacet
facet normal 0.993862 0.110612 0.00178353
  outer loop
    vertex -1.500000000000002 15 2.755364296100352e-16
    vertex -1.392531042773187 14.02538486359525 0.5575457783115418
    vertex -1.393276757344611 14.05003516370709 -0.5556796536164413
  endloop
endfacet
facet normal 0.939544 0.000154238 -0.342429
  outer loop
    vertex -1.146625277331011 5.249762836809273 0.9670834883222781
    vertex -1.499997318391542 4.470514097379765 -0.002836338870077368
    vertex -1.499998459805965 6.002220198721445 -0.002149553380152946
  endloop
endfacet
facet normal 0.923697 -0.0029077 0.383112
  outer loop
    vertex -1.499934772112931 3.020993678606075 -0.01398854554737969
    vertex -1.065707018469503 3.724436829010836 -1.05558919603454
    vertex -1.499997318391542 4.470514097379765 -0.002836338870077368
  endloop
endfacet
facet normal 0.927618 -0.105122 -0.358433
  outer loop
    vertex -1.068439240889717 2.151158173758116 1.052823626504937
    vertex -1.394941928090373 0.9794429442529171 0.5514861895419653
    vertex -1.499946222099763 1.889948582015923 0.0127016065381232
  endloop
endfacet
facet normal 0.92627 0.105505 -0.36179
  outer loop
    vertex -1.392531042773187 14.02538486359525 0.5575457783115418
    vertex -1.063436461089672 12.85183212590618 1.057876596406726
    vertex -1.499885561760437 13.11953123058298 0.01852840043235979
  endloop
endfacet
facet normal 0.938818 -0.000153729 0.344415
  outer loop
    vertex -1.499997318391542 4.470514097379765 -0.002836338870077368
    vertex -1.145742618099676 5.248233995311822 -0.9681290477359427
    vertex -1.499998459805965 6.002220198721445 -0.002149553380152946
  endloop
endfacet
facet normal 0.930189 0.00313611 -0.367068
  outer loop
    vertex -1.104490159644699 11.25388350261173 1.014939154456084
    vertex -1.0957611076415 9.767129635380567 1.024357161824076
    vertex -1.499985879045919 10.52804958069235 0.006508660602887283
  endloop
endfacet
facet normal 0.93831 -0.00472058 -0.345764
  outer loop
    vertex -1.133305986234569 6.75643816842541 0.9826584053295908
    vertex -1.146625277331011 5.249762836809273 0.9670834883222781
    vertex -1.499998459805965 6.002220198721445 -0.002149553380152946
  endloop
endfacet
facet normal 0.934963 -0.0180736 -0.354285
  outer loop
    vertex -1.0957611076415 9.767129635380567 1.024357161824076
    vertex -1.146879059161193 8.251352842323275 0.9667825110424475
    vertex -1.499995166875824 9.010195753752621 -0.00380780109398197
  endloop
endfacet
facet normal 0.938574 0.00386479 -0.345057
  outer loop
    vertex -1.146625277331011 5.249762836809273 0.9670834883222781
    vertex -1.135791433984218 3.752717840315403 0.9797845775924807
    vertex -1.499997318391542 4.470514097379765 -0.002836338870077368
  endloop
endfacet
facet normal 0.938302 0.00270102 -0.345806
  outer loop
    vertex -1.135791433984218 3.752717840315403 0.9797845775924807
    vertex -1.499934772112931 3.020993678606075 -0.01398854554737969
    vertex -1.499997318391542 4.470514097379765 -0.002836338870077368
  endloop
endfacet
facet normal 0.928763 -0.0139082 -0.370413
  outer loop
    vertex -1.063436461089672 12.85183212590618 1.057876596406726
    vertex -1.104490159644699 11.25388350261173 1.014939154456084
    vertex -1.49999304200331 11.99517635823962 -0.004568800899587237
  endloop
endfacet
facet normal 0.933144 0.0228807 -0.358774
  outer loop
    vertex -1.135791433984218 3.752717840315403 0.9797845775924807
    vertex -1.068439240889717 2.151158173758116 1.052823626504937
    vertex -1.499934772112931 3.020993678606075 -0.01398854554737969
  endloop
endfacet
facet normal 0.938826 -1.41273e-05 0.344391
  outer loop
    vertex -1.146662381428569 8.250719799005207 -0.9670394940314309
    vertex -1.499995166875824 9.010195753752621 -0.00380780109398197
    vertex -1.499995007541398 7.503100396578002 -0.003870058253410606
  endloop
endfacet
facet normal 0.939743 1.42223e-05 -0.341882
  outer loop
    vertex -1.499995166875824 9.010195753752621 -0.00380780109398197
    vertex -1.146879059161193 8.251352842323275 0.9667825110424475
    vertex -1.499995007541398 7.503100396578002 -0.003870058253410606
  endloop
endfacet
facet normal 0.937731 -0.00440339 0.347333
  outer loop
    vertex -1.145742618099676 5.248233995311822 -0.9681290477359427
    vertex -1.133253154051598 6.757085675768785 -0.9827193337022063
    vertex -1.499998459805965 6.002220198721445 -0.002149553380152946
  endloop
endfacet
facet normal 0.93761 0.00476784 0.347657
  outer loop
    vertex -1.133253154051598 6.757085675768785 -0.9827193337022063
    vertex -1.146662381428569 8.250719799005207 -0.9670394940314309
    vertex -1.499995007541398 7.503100396578002 -0.003870058253410606
  endloop
endfacet
facet normal 0.937244 -0.000401852 -0.348674
  outer loop
    vertex -1.133305986234569 6.75643816842541 0.9826584053295908
    vertex -1.499998459805965 6.002220198721445 -0.002149553380152946
    vertex -1.499995007541398 7.503100396578002 -0.003870058253410606
  endloop
endfacet
facet normal 0.936532 0.000399729 0.350582
  outer loop
    vertex -1.499998459805965 6.002220198721445 -0.002149553380152946
    vertex -1.133253154051598 6.757085675768785 -0.9827193337022063
    vertex -1.499995007541398 7.503100396578002 -0.003870058253410606
  endloop
endfacet
facet normal 0.938679 -0.000590905 0.344792
  outer loop
    vertex -1.146662381428569 8.250719799005207 -0.9670394940314309
    vertex -1.144986428915669 9.755519236284583 -0.9690232595758201
    vertex -1.499995166875824 9.010195753752621 -0.00380780109398197
  endloop
endfacet
facet normal 0.938527 0.00485565 -0.345172
  outer loop
    vertex -1.146879059161193 8.251352842323275 0.9667825110424475
    vertex -1.133305986234569 6.75643816842541 0.9826584053295908
    vertex -1.499995007541398 7.503100396578002 -0.003870058253410606
  endloop
endfacet
facet normal 0.933654 0.104452 0.342609
  outer loop
    vertex -1.084244981341244 12.86497384098097 -1.036538865859032
    vertex -1.393276757344611 14.05003516370709 -0.5556796536164413
    vertex -1.499885561760437 13.11953123058298 0.01852840043235979
  endloop
endfacet
facet normal 0.924984 0.00287365 0.379996
  outer loop
    vertex -1.066250893439519 11.28873967119672 -1.05503982495422
    vertex -1.49999304200331 11.99517635823962 -0.004568800899587237
    vertex -1.499985879045919 10.52804958069235 0.006508660602887283
  endloop
endfacet
facet normal 0.932427 -0.104935 0.345785
  outer loop
    vertex -1.388113481384759 0.9686247179358326 -0.5684548907326659
    vertex -1.081847120075037 2.139336794409963 -1.03904129310887
    vertex -1.499946222099763 1.889948582015923 0.0127016065381232
  endloop
endfacet
facet normal 0.751599 0.0845835 0.654175
  outer loop
    vertex -1.060660171779823 15 -1.060660171779822
    vertex -1.393276757344611 14.05003516370709 -0.5556796536164413
    vertex -0.7638925974434004 14.14378610789737 -1.290917541739664
  endloop
endfacet
facet normal 0.931628 -0.00273931 -0.363403
  outer loop
    vertex -1.49999304200331 11.99517635823962 -0.004568800899587237
    vertex -1.104490159644699 11.25388350261173 1.014939154456084
    vertex -1.499985879045919 10.52804958069235 0.006508660602887283
  endloop
endfacet
facet normal 0.751119 -0.0840465 -0.654794
  outer loop
    vertex -1.060660171779821 0 1.060660171779821
    vertex -1.394941928090373 0.9794429442529171 0.5514861895419653
    vertex -0.7620980770811615 0.8660720912066427 1.291977755578322
  endloop
endfacet
facet normal 0.749462 0.0838087 -0.656721
  outer loop
    vertex -1.392531042773187 14.02538486359525 0.5575457783115418
    vertex -1.060660171779822 15 1.060660171779823
    vertex -0.7603850362745951 14.13527928555955 1.292986696223007
  endloop
endfacet
facet normal 0.747174 -0.0825263 0.659485
  outer loop
    vertex -1.388113481384759 0.9686247179358326 -0.5684548907326659
    vertex -1.060660171779821 0 -1.060660171779821
    vertex -0.7608725190284282 0.8599323478416994 -1.292699891617284
  endloop
endfacet
facet normal 0.993068 0.117437 0.00492048
  outer loop
    vertex -1.394941928090373 0.9794429442529171 0.5514861895419653
    vertex -1.388113481384759 0.9686247179358326 -0.5684548907326659
    vertex -1.499946222099763 1.889948582015923 0.0127016065381232
  endloop
endfacet
facet normal 0.380185 0.114085 -0.917848
  outer loop
    vertex 1.83697019872103e-16 0 1.5
    vertex -1.060660171779821 0 1.060660171779821
    vertex -0.7620980770811615 0.8660720912066427 1.291977755578322
  endloop
endfacet
facet normal 0.380163 -0.114574 -0.917796
  outer loop
    vertex -1.060660171779822 15 1.060660171779823
    vertex 1.836970198721031e-16 15 1.500000000000002
    vertex -0.7603850362745951 14.13527928555955 1.292986696223007
  endloop
endfacet
facet normal 0.993268 -0.115793 -0.00322937
  outer loop
    vertex -1.393276757344611 14.05003516370709 -0.5556796536164413
    vertex -1.392531042773187 14.02538486359525 0.5575457783115418
    vertex -1.499885561760437 13.11953123058298 0.01852840043235979
  endloop
endfacet
facet normal 0.380142 -0.115046 0.917745
  outer loop
    vertex 0 15 -1.500000000000002
    vertex -1.060660171779823 15 -1.060660171779822
    vertex -0.7638925974434004 14.14378610789737 -1.290917541739664
  endloop
endfacet
facet normal 0.380139 0.115114 0.917738
  outer loop
    vertex -1.060660171779821 0 -1.060660171779821
    vertex 0 0 -1.5
    vertex -0.7608725190284282 0.8599323478416994 -1.292699891617284
  endloop
endfacet
facet normal 0.929748 -0.00765097 0.368117
  outer loop
    vertex -1.49999304200331 11.99517635823962 -0.004568800899587237
    vertex -1.084244981341244 12.86497384098097 -1.036538865859032
    vertex -1.499885561760437 13.11953123058298 0.01852840043235979
  endloop
endfacet
facet normal 0.928517 0.00874981 0.371188
  outer loop
    vertex -1.081847120075037 2.139336794409963 -1.03904129310887
    vertex -1.499934772112931 3.020993678606075 -0.01398854554737969
    vertex -1.499946222099763 1.889948582015923 0.0127016065381232
  endloop
endfacet
facet normal 0.922697 0.0078299 -0.385447
  outer loop
    vertex -1.063436461089672 12.85183212590618 1.057876596406726
    vertex -1.49999304200331 11.99517635823962 -0.004568800899587237
    vertex -1.499885561760437 13.11953123058298 0.01852840043235979
  endloop
endfacet
facet normal 0.924429 -0.00900598 -0.381249
  outer loop
    vertex -1.499934772112931 3.020993678606075 -0.01398854554737969
    vertex -1.068439240889717 2.151158173758116 1.052823626504937
    vertex -1.499946222099763 1.889948582015923 0.0127016065381232
  endloop
endfacet
facet normal -0.761213 0.0615987 -0.64557
  outer loop
    vertex 1.063053427047103 2.146881126802075 1.05826150418666
    vertex 1.392378074829064 0.9729174086704537 0.5579276805602243
    vertex 0.7594839995504153 0.8610190103327856 1.293516159321911
  endloop
endfacet
facet normal -0.763183 -0.0623518 -0.643167
  outer loop
    vertex 1.39479132207631 14.02225373487201 0.5518669838472139
    vertex 1.068033096412275 12.85007121925655 1.053235636013144
    vertex 0.7611921085515299 14.13762487430143 1.292511730654263
  endloop
endfacet
facet normal -0.759052 -0.0619332 0.648078
  outer loop
    vertex 1.081847120080494 12.86066320561358 -1.039041293103188
    vertex 1.38813395093617 14.0316250017664 -0.5684049034432607
    vertex 0.7608872024308075 14.14011152848489 -1.292691248975184
  endloop
endfacet
facet normal -0.762378 0.0627378 0.644083
  outer loop
    vertex 1.393488322069716 0.9514363246354444 -0.5551488955724665
    vertex 1.084577185153603 2.136117549268663 -1.036191261034511
    vertex 0.76480558439394 0.8598501916401303 -1.290376851187221
  endloop
endfacet
facet normal -0.334704 0.0944726 -0.937576
  outer loop
    vertex 1.068033096412275 12.85007121925655 1.053235636013144
    vertex 1.836970198721031e-16 13.5 1.500000000000001
    vertex 0.7611921085515299 14.13762487430143 1.292511730654263
  endloop
endfacet
facet normal -0.333297 -0.0929677 -0.938227
  outer loop
    vertex 1.836970198721031e-16 1.5 1.500000000000001
    vertex 1.063053427047103 2.146881126802075 1.05826150418666
    vertex 0.7594839995504153 0.8610190103327856 1.293516159321911
  endloop
endfacet
facet normal -0.339241 0.100328 0.935334
  outer loop
    vertex 0 13.5 -1.500000000000001
    vertex 1.081847120080494 12.86066320561358 -1.039041293103188
    vertex 0.7608872024308075 14.14011152848489 -1.292691248975184
  endloop
endfacet
facet normal -0.34061 -0.100834 0.934782
  outer loop
    vertex 1.084577185153603 2.136117549268663 -1.036191261034511
    vertex 0 1.5 -1.500000000000001
    vertex 0.76480558439394 0.8598501916401303 -1.290376851187221
  endloop
endfacet
facet normal -0.401755 0.0283668 0.915308
  outer loop
    vertex 0 10.5 -1.500000000000001
    vertex 1.13762186837419 9.757673719547018 -0.9776586748946793
    vertex 1.064474608748899 11.27637370431949 -1.056831967404885
  endloop
endfacet
facet normal -0.411613 -0.0402232 0.910471
  outer loop
    vertex 1.170937124697622 5.25 -0.9375000000025968
    vertex 0 4.5 -1.500000000000001
    vertex 1.070294408364316 3.712185655826536 -1.050937619187781
  endloop
endfacet
facet normal -0.393196 0 0.919455
  outer loop
    vertex 0 3 -1.500000000000001
    vertex 0 1.5 -1.500000000000001
    vertex 1.084577185153603 2.136117549268663 -1.036191261034511
  endloop
endfacet
facet normal -0.391986 0 0.919971
  outer loop
    vertex 0 13.5 -1.500000000000001
    vertex 0 12 -1.500000000000001
    vertex 1.081847120080494 12.86066320561358 -1.039041293103188
  endloop
endfacet
facet normal -0.389764 0.00508418 0.920901
  outer loop
    vertex 0 3 -1.500000000000001
    vertex 1.084577185153603 2.136117549268663 -1.036191261034511
    vertex 1.070294408364316 3.712185655826536 -1.050937619187781
  endloop
endfacet
facet normal -0.38787 -0.00609692 0.921694
  outer loop
    vertex 1.081847120080494 12.86066320561358 -1.039041293103188
    vertex 0 12 -1.500000000000001
    vertex 1.064474608748899 11.27637370431949 -1.056831967404885
  endloop
endfacet
facet normal -0.408833 -0.0136894 -0.912506
  outer loop
    vertex 1.836970198721031e-16 10.5 1.500000000000001
    vertex 1.135595233682684 11.24681244455665 0.9800119719866556
    vertex 1.102363278189677 9.757148211408229 1.017248840205242
  endloop
endfacet
facet normal -0.262874 4.28471e-16 0.96483
  outer loop
    vertex 0 15 -1.500000000000002
    vertex 0 13.5 -1.500000000000001
    vertex 0.7608872024308075 14.14011152848489 -1.292691248975184
  endloop
endfacet
facet normal -0.262351 5.71379e-16 -0.964973
  outer loop
    vertex 1.83697019872103e-16 0 1.5
    vertex 1.836970198721031e-16 1.5 1.500000000000001
    vertex 0.7594839995504153 0.8610190103327856 1.293516159321911
  endloop
endfacet
facet normal -0.262988 4.28457e-16 -0.964799
  outer loop
    vertex 1.836970198721031e-16 13.5 1.500000000000001
    vertex 1.836970198721031e-16 15 1.500000000000002
    vertex 0.7611921085515299 14.13762487430143 1.292511730654263
  endloop
endfacet
facet normal -0.264338 5.71057e-16 0.96443
  outer loop
    vertex 0 1.5 -1.500000000000001
    vertex 0 0 -1.5
    vertex 0.76480558439394 0.8598501916401303 -1.290376851187221
  endloop
endfacet
facet normal -0.433437 -0.000815192 0.901184
  outer loop
    vertex 0 6 -1.500000000000001
    vertex 1.170937124697622 5.25 -0.9375000000025968
    vertex 1.172714509607292 6.763874232260344 -0.9352757234936296
  endloop
endfacet
facet normal -0.416016 -0.0320881 -0.908791
  outer loop
    vertex 1.836970198721031e-16 7.5 1.500000000000001
    vertex 1.170937124698912 8.25 0.937500000000985
    vertex 1.093315056150134 6.722479294716043 1.02696747173191
  endloop
endfacet
facet normal -0.383727 0 -0.923447
  outer loop
    vertex 1.836970198721031e-16 1.5 1.500000000000001
    vertex 1.836970198721031e-16 3 1.500000000000001
    vertex 1.063053427047103 2.146881126802075 1.05826150418666
  endloop
endfacet
facet normal -0.385903 0 -0.922539
  outer loop
    vertex 1.836970198721031e-16 12 1.500000000000001
    vertex 1.836970198721031e-16 13.5 1.500000000000001
    vertex 1.068033096412275 12.85007121925655 1.053235636013144
  endloop
endfacet
facet normal -0.416328 0 -0.909214
  outer loop
    vertex 1.836970198721031e-16 10.5 1.500000000000001
    vertex 1.836970198721031e-16 12 1.500000000000001
    vertex 1.135595233682684 11.24681244455665 0.9800119719866556
  endloop
endfacet
facet normal -0.402103 0 -0.915594
  outer loop
    vertex 1.836970198721031e-16 3 1.500000000000001
    vertex 1.836970198721031e-16 4.5 1.500000000000001
    vertex 1.104490159665068 3.746116497369624 1.014939154433917
  endloop
endfacet
facet normal -0.394494 0.0132131 -0.918804
  outer loop
    vertex 1.104490159665068 3.746116497369624 1.014939154433917
    vertex 1.836970198721031e-16 4.5 1.500000000000001
    vertex 1.070614969426742 5.215255801856189 1.050611054215298
  endloop
endfacet
facet normal -0.384347 0 0.923189
  outer loop
    vertex 0 12 -1.500000000000001
    vertex 0 10.5 -1.500000000000001
    vertex 1.064474608748899 11.27637370431949 -1.056831967404885
  endloop
endfacet
facet normal -0.386895 0 0.922124
  outer loop
    vertex 0 4.5 -1.500000000000001
    vertex 0 3 -1.500000000000001
    vertex 1.070294408364316 3.712185655826536 -1.050937619187781
  endloop
endfacet
facet normal -0.397086 0 -0.917781
  outer loop
    vertex 1.836970198721031e-16 6 1.500000000000001
    vertex 1.836970198721031e-16 7.5 1.500000000000001
    vertex 1.093315056150134 6.722479294716043 1.02696747173191
  endloop
endfacet
facet normal -0.433868 0 0.900976
  outer loop
    vertex 0 7.5 -1.500000000000001
    vertex 0 6 -1.500000000000001
    vertex 1.172714509607292 6.763874232260344 -0.9352757234936296
  endloop
endfacet
facet normal -0.417269 0 0.908783
  outer loop
    vertex 0 10.5 -1.500000000000001
    vertex 0 9 -1.500000000000001
    vertex 1.13762186837419 9.757673719547018 -0.9776586748946793
  endloop
endfacet
facet normal -0.433013 0 0.901388
  outer loop
    vertex 0 6 -1.500000000000001
    vertex 0 4.5 -1.500000000000001
    vertex 1.170937124697622 5.25 -0.9375000000025968
  endloop
endfacet
facet normal -0.392324 -0.00851982 -0.919788
  outer loop
    vertex 1.070614969426742 5.215255801856189 1.050611054215298
    vertex 1.836970198721031e-16 6 1.500000000000001
    vertex 1.093315056150134 6.722479294716043 1.02696747173191
  endloop
endfacet
facet normal -0.401145 0 -0.916015
  outer loop
    vertex 1.836970198721031e-16 9 1.500000000000001
    vertex 1.836970198721031e-16 10.5 1.500000000000001
    vertex 1.102363278189677 9.757148211408229 1.017248840205242
  endloop
endfacet
facet normal -0.433013 0 -0.901388
  outer loop
    vertex 1.836970198721031e-16 7.5 1.500000000000001
    vertex 1.836970198721031e-16 9 1.500000000000001
    vertex 1.170937124698912 8.25 0.937500000000985
  endloop
endfacet
facet normal -0.417651 0.0290505 -0.908143
  outer loop
    vertex 1.170937124698912 8.25 0.937500000000985
    vertex 1.836970198721031e-16 9 1.500000000000001
    vertex 1.102363278189677 9.757148211408229 1.017248840205242
  endloop
endfacet
facet normal -0.432579 0.00252515 0.901592
  outer loop
    vertex 1.167251498522089 8.25919284921779 -0.9420848895921964
    vertex 0 7.5 -1.500000000000001
    vertex 1.172714509607292 6.763874232260344 -0.9352757234936296
  endloop
endfacet
facet normal -0.387035 0 -0.922065
  outer loop
    vertex 1.836970198721031e-16 4.5 1.500000000000001
    vertex 1.836970198721031e-16 6 1.500000000000001
    vertex 1.070614969426742 5.215255801856189 1.050611054215298
  endloop
endfacet
facet normal -0.424427 0.0131011 0.905367
  outer loop
    vertex 1.13762186837419 9.757673719547018 -0.9776586748946793
    vertex 0 9 -1.500000000000001
    vertex 1.167251498522089 8.25919284921779 -0.9420848895921964
  endloop
endfacet
facet normal -0.431244 0 0.902235
  outer loop
    vertex 0 9 -1.500000000000001
    vertex 0 7.5 -1.500000000000001
    vertex 1.167251498522089 8.25919284921779 -0.9420848895921964
  endloop
endfacet
facet normal -0.39372 -0.0146968 -0.919113
  outer loop
    vertex 1.836970198721031e-16 3 1.500000000000001
    vertex 1.104490159665068 3.746116497369624 1.014939154433917
    vertex 1.063053427047103 2.146881126802075 1.05826150418666
  endloop
endfacet
facet normal -0.40254 0.0248295 -0.915066
  outer loop
    vertex 1.135595233682684 11.24681244455665 0.9800119719866556
    vertex 1.836970198721031e-16 12 1.500000000000001
    vertex 1.068033096412275 12.85007121925655 1.053235636013144
  endloop
endfacet
facet normal -0.943949 0.00236779 0.330082
  outer loop
    vertex 1.499995240714888 9.053675409152923 0.003778601948812518
    vertex 1.167251498522089 8.25919284921779 -0.9420848895921964
    vertex 1.499923343190967 7.437747566759689 0.0151645821187112
  endloop
endfacet
facet normal -0.942518 -0.00231251 -0.334148
  outer loop
    vertex 1.170937124698912 8.25 0.937500000000985
    vertex 1.499995240714888 9.053675409152923 0.003778601948812518
    vertex 1.499923343190967 7.437747566759689 0.0151645821187112
  endloop
endfacet
facet normal -0.917525 -0.117086 0.380051
  outer loop
    vertex 1.500000000000002 15 -4.249123839242257e-16
    vertex 1.060660171779822 15 -1.060660171779823
    vertex 1.38813395093617 14.0316250017664 -0.5684049034432607
  endloop
endfacet
facet normal -0.917313 0.119011 0.379964
  outer loop
    vertex 1.060660171779821 0 -1.060660171779821
    vertex 1.5 0 -9.184547653667829e-17
    vertex 1.393488322069716 0.9514363246354444 -0.5551488955724665
  endloop
endfacet
facet normal -0.917664 -0.1158 -0.380109
  outer loop
    vertex 1.060660171779823 15 1.060660171779822
    vertex 1.500000000000002 15 -4.249123839242257e-16
    vertex 1.39479132207631 14.02225373487201 0.5518669838472139
  endloop
endfacet
facet normal -0.917593 0.116458 -0.38008
  outer loop
    vertex 1.5 0 -9.184547653667829e-17
    vertex 1.060660171779821 0 1.060660171779821
    vertex 1.392378074829064 0.9729174086704537 0.5579276805602243
  endloop
endfacet
facet normal -0.99382 0.110795 0.00683273
  outer loop
    vertex 1.39479132207631 14.02225373487201 0.5518669838472139
    vertex 1.500000000000002 15 -4.249123839242257e-16
    vertex 1.38813395093617 14.0316250017664 -0.5684049034432607
  endloop
endfacet
facet normal -0.924119 0.00584309 0.382061
  outer loop
    vertex 1.081847120080494 12.86066320561358 -1.039041293103188
    vertex 1.064474608748899 11.27637370431949 -1.056831967404885
    vertex 1.4999317613082 11.97920753174863 -0.01430773982443176
  endloop
endfacet
facet normal -0.926355 -0.00487109 0.376619
  outer loop
    vertex 1.070294408364316 3.712185655826536 -1.050937619187781
    vertex 1.084577185153603 2.136117549268663 -1.036191261034511
    vertex 1.49999666090604 3.004817854661364 -0.003165007224818442
  endloop
endfacet
facet normal -0.930201 -0.0257145 0.366148
  outer loop
    vertex 1.064474608748899 11.27637370431949 -1.056831967404885
    vertex 1.13762186837419 9.757673719547018 -0.9776586748946793
    vertex 1.499997318391374 10.52948590265024 -0.002836338958639401
  endloop
endfacet
facet normal -0.936717 0.0356133 0.348272
  outer loop
    vertex 1.170937124697622 5.25 -0.9375000000025968
    vertex 1.070294408364316 3.712185655826536 -1.050937619187781
    vertex 1.499740693659684 4.457530676178113 0.02788999428417287
  endloop
endfacet
facet normal -0.993865 -0.110595 0.00114301
  outer loop
    vertex 1.5 0 -9.184547653667829e-17
    vertex 1.392378074829064 0.9729174086704537 0.5579276805602243
    vertex 1.393488322069716 0.9514363246354444 -0.5551488955724665
  endloop
endfacet
facet normal -0.923452 0.00299441 0.383703
  outer loop
    vertex 1.4999317613082 11.97920753174863 -0.01430773982443176
    vertex 1.064474608748899 11.27637370431949 -1.056831967404885
    vertex 1.499997318391374 10.52948590265024 -0.002836338958639401
  endloop
endfacet
facet normal -0.927499 0.105107 -0.358744
  outer loop
    vertex 1.068033096412275 12.85007121925655 1.053235636013144
    vertex 1.39479132207631 14.02225373487201 0.5518669838472139
    vertex 1.499944780253573 13.1104981470311 0.01287074939790504
  endloop
endfacet
facet normal -0.926098 -0.105399 -0.362262
  outer loop
    vertex 1.392378074829064 0.9729174086704537 0.5579276805602243
    vertex 1.063053427047103 2.146881126802075 1.05826150418666
    vertex 1.499878708775023 1.880412820514964 0.0190750875062999
  endloop
endfacet
facet normal -0.934683 0.0119703 -0.355281
  outer loop
    vertex 1.102363278189677 9.757148211408229 1.017248840205242
    vertex 1.135595233682684 11.24681244455665 0.9800119719866556
    vertex 1.499997318391374 10.52948590265024 -0.002836338958639401
  endloop
endfacet
facet normal -0.919851 0.00839122 -0.392179
  outer loop
    vertex 1.499740693659684 4.457530676178113 0.02788999428417287
    vertex 1.070614969426742 5.215255801856189 1.050611054215298
    vertex 1.498697256494172 5.960816264584649 0.06250226697364841
  endloop
endfacet
facet normal -0.925222 -0.0121256 -0.379232
  outer loop
    vertex 1.104490159665068 3.746116497369624 1.014939154433917
    vertex 1.070614969426742 5.215255801856189 1.050611054215298
    vertex 1.499740693659684 4.457530676178113 0.02788999428417287
  endloop
endfacet
facet normal -0.947852 0.0109959 0.318521
  outer loop
    vertex 1.172714509607292 6.763874232260344 -0.9352757234936296
    vertex 1.498697256494172 5.960816264584649 0.06250226697364841
    vertex 1.499923343190967 7.437747566759689 0.0151645821187112
  endloop
endfacet
facet normal -0.950399 0.000658839 0.311034
  outer loop
    vertex 1.172714509607292 6.763874232260344 -0.9352757234936296
    vertex 1.170937124697622 5.25 -0.9375000000025968
    vertex 1.498697256494172 5.960816264584649 0.06250226697364841
  endloop
endfacet
facet normal -0.948545 -0.00794661 0.316543
  outer loop
    vertex 1.170937124697622 5.25 -0.9375000000025968
    vertex 1.499740693659684 4.457530676178113 0.02788999428417287
    vertex 1.498697256494172 5.960816264584649 0.06250226697364841
  endloop
endfacet
facet normal -0.938285 -0.00277909 -0.345851
  outer loop
    vertex 1.135595233682684 11.24681244455665 0.9800119719866556
    vertex 1.4999317613082 11.97920753174863 -0.01430773982443176
    vertex 1.499997318391374 10.52948590265024 -0.002836338958639401
  endloop
endfacet
facet normal -0.928558 0.0140112 -0.370922
  outer loop
    vertex 1.063053427047103 2.146881126802075 1.05826150418666
    vertex 1.104490159665068 3.746116497369624 1.014939154433917
    vertex 1.49999666090604 3.004817854661364 -0.003165007224818442
  endloop
endfacet
facet normal -0.933129 -0.0229351 -0.358809
  outer loop
    vertex 1.135595233682684 11.24681244455665 0.9800119719866556
    vertex 1.068033096412275 12.85007121925655 1.053235636013144
    vertex 1.4999317613082 11.97920753174863 -0.01430773982443176
  endloop
endfacet
facet normal -0.925003 -0.0114049 -0.379789
  outer loop
    vertex 1.498697256494172 5.960816264584649 0.06250226697364841
    vertex 1.093315056150134 6.722479294716043 1.02696747173191
    vertex 1.499923343190967 7.437747566759689 0.0151645821187112
  endloop
endfacet
facet normal -0.93391 0.0265759 -0.356519
  outer loop
    vertex 1.093315056150134 6.722479294716043 1.02696747173191
    vertex 1.170937124698912 8.25 0.937500000000985
    vertex 1.499923343190967 7.437747566759689 0.0151645821187112
  endloop
endfacet
facet normal -0.945104 -0.00196488 0.326765
  outer loop
    vertex 1.167251498522089 8.25919284921779 -0.9420848895921964
    vertex 1.172714509607292 6.763874232260344 -0.9352757234936296
    vertex 1.499923343190967 7.437747566759689 0.0151645821187112
  endloop
endfacet
facet normal -0.936206 -0.0240434 -0.350628
  outer loop
    vertex 1.170937124698912 8.25 0.937500000000985
    vertex 1.102363278189677 9.757148211408229 1.017248840205242
    vertex 1.499995240714888 9.053675409152923 0.003778601948812518
  endloop
endfacet
facet normal -0.919666 0.00769189 -0.392627
  outer loop
    vertex 1.070614969426742 5.215255801856189 1.050611054215298
    vertex 1.093315056150134 6.722479294716043 1.02696747173191
    vertex 1.498697256494172 5.960816264584649 0.06250226697364841
  endloop
endfacet
facet normal -0.940477 -0.0105318 0.339695
  outer loop
    vertex 1.13762186837419 9.757673719547018 -0.9776586748946793
    vertex 1.167251498522089 8.25919284921779 -0.9420848895921964
    vertex 1.499995240714888 9.053675409152923 0.003778601948812518
  endloop
endfacet
facet normal -0.933805 -0.104557 0.342165
  outer loop
    vertex 1.084577185153603 2.136117549268663 -1.036191261034511
    vertex 1.393488322069716 0.9514363246354444 -0.5551488955724665
    vertex 1.499878708775023 1.880412820514964 0.0190750875062999
  endloop
endfacet
facet normal -0.931296 -0.00163139 -0.364259
  outer loop
    vertex 1.102363278189677 9.757148211408229 1.017248840205242
    vertex 1.499997318391374 10.52948590265024 -0.002836338958639401
    vertex 1.499995240714888 9.053675409152923 0.003778601948812518
  endloop
endfacet
facet normal -0.92711 -0.0081734 0.374699
  outer loop
    vertex 1.070294408364316 3.712185655826536 -1.050937619187781
    vertex 1.49999666090604 3.004817854661364 -0.003165007224818442
    vertex 1.499740693659684 4.457530676178113 0.02788999428417287
  endloop
endfacet
facet normal -0.937733 0.00155825 0.347354
  outer loop
    vertex 1.499997318391374 10.52948590265024 -0.002836338958639401
    vertex 1.13762186837419 9.757673719547018 -0.9776586748946793
    vertex 1.499995240714888 9.053675409152923 0.003778601948812518
  endloop
endfacet
facet normal -0.93246 0.104961 0.345691
  outer loop
    vertex 1.38813395093617 14.0316250017664 -0.5684049034432607
    vertex 1.081847120080494 12.86066320561358 -1.039041293103188
    vertex 1.499944780253573 13.1104981470311 0.01287074939790504
  endloop
endfacet
facet normal -0.930208 0.00768055 -0.366953
  outer loop
    vertex 1.49999666090604 3.004817854661364 -0.003165007224818442
    vertex 1.104490159665068 3.746116497369624 1.014939154433917
    vertex 1.499740693659684 4.457530676178113 0.02788999428417287
  endloop
endfacet
facet normal -0.752129 -0.0841699 0.653619
  outer loop
    vertex 1.060660171779821 0 -1.060660171779821
    vertex 1.393488322069716 0.9514363246354444 -0.5551488955724665
    vertex 0.76480558439394 0.8598501916401303 -1.290376851187221
  endloop
endfacet
facet normal -0.750629 0.084484 -0.655301
  outer loop
    vertex 1.060660171779823 15 1.060660171779822
    vertex 1.39479132207631 14.02225373487201 0.5518669838472139
    vertex 0.7611921085515299 14.13762487430143 1.292511730654263
  endloop
endfacet
facet normal -0.748972 -0.084242 -0.657224
  outer loop
    vertex 1.392378074829064 0.9729174086704537 0.5579276805602243
    vertex 1.060660171779821 0 1.060660171779821
    vertex 0.7594839995504153 0.8610190103327856 1.293516159321911
  endloop
endfacet
facet normal -0.7472 0.0825416 0.659454
  outer loop
    vertex 1.38813395093617 14.0316250017664 -0.5684049034432607
    vertex 1.060660171779822 15 -1.060660171779823
    vertex 0.7608872024308075 14.14011152848489 -1.292691248975184
  endloop
endfacet
facet normal -0.993068 -0.117439 0.00491904
  outer loop
    vertex 1.39479132207631 14.02225373487201 0.5518669838472139
    vertex 1.38813395093617 14.0316250017664 -0.5684049034432607
    vertex 1.499944780253573 13.1104981470311 0.01287074939790504
  endloop
endfacet
facet normal -0.380171 0.114394 0.917815
  outer loop
    vertex 0 0 -1.5
    vertex 1.060660171779821 0 -1.060660171779821
    vertex 0.76480558439394 0.8598501916401303 -1.290376851187221
  endloop
endfacet
facet normal -0.993273 0.115747 -0.00322453
  outer loop
    vertex 1.393488322069716 0.9514363246354444 -0.5551488955724665
    vertex 1.392378074829064 0.9729174086704537 0.5579276805602243
    vertex 1.499878708775023 1.880412820514964 0.0190750875062999
  endloop
endfacet
facet normal -0.380139 -0.115117 0.917737
  outer loop
    vertex 1.060660171779822 15 -1.060660171779823
    vertex 0 15 -1.500000000000002
    vertex 0.7608872024308075 14.14011152848489 -1.292691248975184
  endloop
endfacet
facet normal -0.380156 -0.114734 -0.917778
  outer loop
    vertex 1.836970198721031e-16 15 1.500000000000002
    vertex 1.060660171779823 15 1.060660171779822
    vertex 0.7611921085515299 14.13762487430143 1.292511730654263
  endloop
endfacet
facet normal -0.380135 0.115225 -0.917726
  outer loop
    vertex 1.060660171779821 0 1.060660171779821
    vertex 1.83697019872103e-16 0 1.5
    vertex 0.7594839995504153 0.8610190103327856 1.293516159321911
  endloop
endfacet
facet normal -0.929896 0.0073714 0.367748
  outer loop
    vertex 1.49999666090604 3.004817854661364 -0.003165007224818442
    vertex 1.084577185153603 2.136117549268663 -1.036191261034511
    vertex 1.499878708775023 1.880412820514964 0.0190750875062999
  endloop
endfacet
facet normal -0.928522 -0.00890642 0.37117
  outer loop
    vertex 1.081847120080494 12.86066320561358 -1.039041293103188
    vertex 1.4999317613082 11.97920753174863 -0.01430773982443176
    vertex 1.499944780253573 13.1104981470311 0.01287074939790504
  endloop
endfacet
facet normal -0.922528 -0.00753523 -0.385856
  outer loop
    vertex 1.063053427047103 2.146881126802075 1.05826150418666
    vertex 1.49999666090604 3.004817854661364 -0.003165007224818442
    vertex 1.499878708775023 1.880412820514964 0.0190750875062999
  endloop
endfacet
facet normal -0.924344 0.00917468 -0.381449
  outer loop
    vertex 1.4999317613082 11.97920753174863 -0.01430773982443176
    vertex 1.068033096412275 12.85007121925655 1.053235636013144
    vertex 1.499944780253573 13.1104981470311 0.01287074939790504
  endloop
endfacet
endsolid Created by Gmsh
