solid Created by Gmsh
facet normal -8.89846e-14 2.82538e-14 -1
  outer loop
    vertex -7.629910221567703 2.752312542811242 24.00000000000029
    vertex -4.797760173599693 2.744353701530153 24.00000000000004
    vertex -5.811806820472669 -0.07212682152046845 24.00000000000005
  endloop
endfacet
facet normal -1.0759e-14 5.32077e-16 -1
  outer loop
    vertex -1.499999999999999 2.657081822904806 24
    vertex -4.797760173599693 2.744353701530153 24.00000000000004
    vertex -3.7081483329024 4.74599136805498 24.00000000000002
  endloop
endfacet
facet normal -2.76522e-14 -2.89278e-14 -1
  outer loop
    vertex -1.499999999999999 -5.314163645809592 24
    vertex -4.115842136679394 -6.989320269413485 24.00000000000012
    vertex -3.740715388885325 -4.031949394373506 24.00000000000002
  endloop
endfacet
facet normal -1.07806e-14 -2.82266e-16 -1
  outer loop
    vertex -4.797760173599693 2.744353701530153 24.00000000000004
    vertex -1.499999999999999 2.657081822904806 24
    vertex -3.42876237710541 0.803857090106689 24.00000000000002
  endloop
endfacet
facet normal -4.61772e-14 3.08712e-29 -1
  outer loop
    vertex -1.499999999999999 -5.314163645809592 24
    vertex -1.5 -7.971245468714409 24
    vertex -4.115842136679394 -6.989320269413485 24.00000000000012
  endloop
endfacet
facet normal -4.34609e-14 0 -1
  outer loop
    vertex -4.115842136679375 6.989320269413493 24.00000000000011
    vertex -1.499999999999999 7.971245468714409 24
    vertex -1.499999999999999 5.314163645809609 24
  endloop
endfacet
facet normal -1.11698e-13 -1.4367e-14 -1
  outer loop
    vertex -7.629910221567703 -2.752312542811242 24.00000000000029
    vertex -8.111149999999956 1.873903848382e-15 24.0000000000003
    vertex -5.811806820472669 -0.07212682152046845 24.00000000000005
  endloop
endfacet
facet normal -1.10801e-13 1.42103e-14 -1
  outer loop
    vertex -8.111149999999956 1.873903848382e-15 24.0000000000003
    vertex -7.629910221567703 2.752312542811242 24.00000000000029
    vertex -5.811806820472669 -0.07212682152046845 24.00000000000005
  endloop
endfacet
facet normal -1.09708e-13 -1.57171e-14 -1
  outer loop
    vertex -7.629910221567703 -2.752312542811242 24.00000000000029
    vertex -5.811806820472669 -0.07212682152046845 24.00000000000005
    vertex -5.404937030913726 -2.68608751278272 24.00000000000004
  endloop
endfacet
facet normal -6.86314e-14 -2.37298e-14 -1
  outer loop
    vertex -4.115842136679394 -6.989320269413485 24.00000000000012
    vertex -6.243295447164344 -5.178032085833048 24.00000000000022
    vertex -3.740715388885325 -4.031949394373506 24.00000000000002
  endloop
endfacet
facet normal -1.12624e-14 -0 -1
  outer loop
    vertex -1.499999999999999 5.314163645809609 24
    vertex -1.499999999999999 2.657081822904806 24
    vertex -3.7081483329024 4.74599136805498 24.00000000000002
  endloop
endfacet
facet normal -8.89951e-14 2.45095e-14 -1
  outer loop
    vertex -7.629910221567703 2.752312542811242 24.00000000000029
    vertex -6.243295447164336 5.178032085833052 24.00000000000022
    vertex -4.797760173599693 2.744353701530153 24.00000000000004
  endloop
endfacet
facet normal -1.01557e-14 -0 -1
  outer loop
    vertex -1.499999999999999 9.178943878111848e-15 24
    vertex -1.499999999999999 -2.657081822904785 24
    vertex -3.598957276478589 -1.396016719375344 24.00000000000002
  endloop
endfacet
facet normal -1.10987e-14 -0 -1
  outer loop
    vertex -1.499999999999999 -2.657081822904785 24
    vertex -1.499999999999999 -5.314163645809592 24
    vertex -3.740715388885325 -4.031949394373506 24.00000000000002
  endloop
endfacet
facet normal -2.04915e-14 3.58679e-14 -1
  outer loop
    vertex -4.115842136679375 6.989320269413493 24.00000000000011
    vertex -1.499999999999999 5.314163645809609 24
    vertex -3.7081483329024 4.74599136805498 24.00000000000002
  endloop
endfacet
facet normal -1.06222e-14 -7.76548e-16 -1
  outer loop
    vertex -3.598957276478589 -1.396016719375344 24.00000000000002
    vertex -1.499999999999999 -2.657081822904785 24
    vertex -3.740715388885325 -4.031949394373506 24.00000000000002
  endloop
endfacet
facet normal -1.10518e-14 -0 -1
  outer loop
    vertex -1.499999999999999 2.657081822904806 24
    vertex -1.499999999999999 9.178943878111848e-15 24
    vertex -3.42876237710541 0.803857090106689 24.00000000000002
  endloop
endfacet
facet normal -1.04244e-14 -3.09954e-17 -1
  outer loop
    vertex -4.797760173599693 2.744353701530153 24.00000000000004
    vertex -3.42876237710541 0.803857090106689 24.00000000000002
    vertex -5.811806820472669 -0.07212682152046845 24.00000000000005
  endloop
endfacet
facet normal -7.26456e-14 3.42207e-14 -1
  outer loop
    vertex -4.797760173599693 2.744353701530153 24.00000000000004
    vertex -6.243295447164336 5.178032085833052 24.00000000000022
    vertex -3.7081483329024 4.74599136805498 24.00000000000002
  endloop
endfacet
facet normal -7.40228e-14 2.61394e-14 -1
  outer loop
    vertex -6.243295447164336 5.178032085833052 24.00000000000022
    vertex -4.115842136679375 6.989320269413493 24.00000000000011
    vertex -3.7081483329024 4.74599136805498 24.00000000000002
  endloop
endfacet
facet normal -1.09104e-13 -3.60042e-14 -1
  outer loop
    vertex -6.243295447164344 -5.178032085833048 24.00000000000022
    vertex -7.629910221567703 -2.752312542811242 24.00000000000029
    vertex -5.404937030913726 -2.68608751278272 24.00000000000004
  endloop
endfacet
facet normal -5.46152e-14 -5.43356e-14 -1
  outer loop
    vertex -3.740715388885325 -4.031949394373506 24.00000000000002
    vertex -6.243295447164344 -5.178032085833048 24.00000000000022
    vertex -5.404937030913726 -2.68608751278272 24.00000000000004
  endloop
endfacet
facet normal -1.07066e-14 8.28322e-16 -1
  outer loop
    vertex -1.499999999999999 9.178943878111848e-15 24
    vertex -3.598957276478589 -1.396016719375344 24.00000000000002
    vertex -3.42876237710541 0.803857090106689 24.00000000000002
  endloop
endfacet
facet normal -1.14958e-14 -4.30227e-16 -1
  outer loop
    vertex -5.811806820472669 -0.07212682152046845 24.00000000000005
    vertex -3.598957276478589 -1.396016719375344 24.00000000000002
    vertex -5.404937030913726 -2.68608751278272 24.00000000000004
  endloop
endfacet
facet normal -1.12735e-14 -7.41524e-16 -1
  outer loop
    vertex -3.598957276478589 -1.396016719375344 24.00000000000002
    vertex -3.740715388885325 -4.031949394373506 24.00000000000002
    vertex -5.404937030913726 -2.68608751278272 24.00000000000004
  endloop
endfacet
facet normal -1.07413e-14 8.31007e-16 -1
  outer loop
    vertex -3.42876237710541 0.803857090106689 24.00000000000002
    vertex -3.598957276478589 -1.396016719375344 24.00000000000002
    vertex -5.811806820472669 -0.07212682152046845 24.00000000000005
  endloop
endfacet
facet normal -1 0 0
  outer loop
    vertex -1.499999999999999 4.204967503627835 14.37696984054919
    vertex -1.499999999999999 2.917017080247748 16.68650566724375
    vertex -1.499999999999999 6.058011978630228 17.10898091840469
  endloop
endfacet
facet normal -1 0 0
  outer loop
    vertex -1.499999999999999 1.485102412873626 18.89984074397418
    vertex -1.499999999999999 1.221537646451252 21.65470711795874
    vertex -1.499999999999999 3.985622734357208 21.69889964143058
  endloop
endfacet
facet normal -1 0 -0
  outer loop
    vertex -1.499999999999999 3.985622734357208 21.69889964143058
    vertex -1.499999999999999 4.160040976582839 18.88642992756666
    vertex -1.499999999999999 1.485102412873626 18.89984074397418
  endloop
endfacet
facet normal -1 0 0
  outer loop
    vertex -1.499999999999999 -1.43405557263253 21.6555449981284
    vertex -1.499999999999999 1.221537646451252 21.65470711795874
    vertex -1.499999999999999 -1.188888385759324 18.92049247603378
  endloop
endfacet
facet normal -1 0 0
  outer loop
    vertex -1.499999999999999 -1.188888385759324 18.92049247603378
    vertex -1.499999999999999 1.221537646451252 21.65470711795874
    vertex -1.499999999999999 1.485102412873626 18.89984074397418
  endloop
endfacet
facet normal -1 -0 0
  outer loop
    vertex -1.499999999999999 -1.188888385759324 18.92049247603378
    vertex -1.499999999999999 -3.763691055366604 18.89419739517013
    vertex -1.499999999999999 -1.43405557263253 21.6555449981284
  endloop
endfacet
facet normal -1 0 0
  outer loop
    vertex -1.499999999999999 -3.763691055366604 18.89419739517013
    vertex -1.499999999999999 -4.106364605389242 21.66924537073924
    vertex -1.499999999999999 -1.43405557263253 21.6555449981284
  endloop
endfacet
facet normal -1 0 -0
  outer loop
    vertex -1.499999999999999 6.058011978630228 17.10898091840469
    vertex -1.499999999999999 6.748453361118417 14.10885285908384
    vertex -1.499999999999999 4.204967503627835 14.37696984054919
  endloop
endfacet
facet normal -1 -0 0
  outer loop
    vertex -1.499999999999999 -4.521374722752373 4.997719370768507
    vertex -1.499999999999999 -7.373684296747257 4.066961852093463
    vertex -1.499999999999999 -6.997909010026602 6.507665484040587
  endloop
endfacet
facet normal -1 -0 0
  outer loop
    vertex -1.499999999999999 -4.217921719607076 9.931995276371589
    vertex -1.499999999999999 -6.851956131796239 9.041459911968024
    vertex -1.499999999999999 -6.634406226844125 11.60648557011585
  endloop
endfacet
facet normal -1 0 0
  outer loop
    vertex -1.499999999999999 2.917017080247748 16.68650566724375
    vertex -1.499999999999999 4.160040976582839 18.88642992756666
    vertex -1.499999999999999 6.058011978630228 17.10898091840469
  endloop
endfacet
facet normal -1 0 0
  outer loop
    vertex -1.499999999999999 6.058011978630228 17.10898091840469
    vertex -1.499999999999999 6.207867648576578 20.00875052500678
    vertex -1.499999999999999 8.396937579365117 18.66666666666666
  endloop
endfacet
facet normal -1 0 -0
  outer loop
    vertex -1.499999999999999 7.067009202945846 6.524054435755537
    vertex -1.499999999999999 7.394503281419269 4.102274302592233
    vertex -1.499999999999999 4.594283322109736 4.978806293111785
  endloop
endfacet
facet normal -1 0 0
  outer loop
    vertex -1.499999999999999 -6.634406226844125 11.60648557011585
    vertex -1.499999999999999 -4.623486976477271 12.36263562303318
    vertex -1.499999999999999 -4.217921719607076 9.931995276371589
  endloop
endfacet
facet normal -1 0 0
  outer loop
    vertex -1.499999999999999 -5.5427913253894 2.250566437768
    vertex -1.499999999999999 -7.373684296747257 4.066961852093463
    vertex -1.499999999999999 -4.521374722752373 4.997719370768507
  endloop
endfacet
facet normal -1 0 0
  outer loop
    vertex -1.499999999999999 -6.997909010026602 6.507665484040587
    vertex -1.499999999999999 -4.977702288291923 7.535946474613501
    vertex -1.499999999999999 -4.521374722752373 4.997719370768507
  endloop
endfacet
facet normal -1 0 0
  outer loop
    vertex -1.499999999999999 4.160040976582839 18.88642992756666
    vertex -1.499999999999999 6.207867648576578 20.00875052500678
    vertex -1.499999999999999 6.058011978630228 17.10898091840469
  endloop
endfacet
facet normal -1 0 0
  outer loop
    vertex -1.499999999999999 4.594283322109736 4.978806293111785
    vertex -1.499999999999999 5.050543295828199 7.533031690618989
    vertex -1.499999999999999 7.067009202945846 6.524054435755537
  endloop
endfacet
facet normal -1 0 0
  outer loop
    vertex -1.499999999999999 6.778028661580189 9.437175869029574
    vertex -1.499999999999999 4.033906597026339 9.607319665067479
    vertex -1.499999999999999 5.331052652942196 11.95074764529409
  endloop
endfacet
facet normal -1 0 0
  outer loop
    vertex -1.499999999999999 4.594283322109736 4.978806293111785
    vertex -1.499999999999999 7.394503281419269 4.102274302592233
    vertex -1.499999999999999 5.572189844076515 2.238799359635963
  endloop
endfacet
facet normal -1 0 -0
  outer loop
    vertex -1.499999999999999 -4.521374722752373 4.997719370768507
    vertex -1.499999999999999 -2.819400066941061 2.427329095544024
    vertex -1.499999999999999 -5.5427913253894 2.250566437768
  endloop
endfacet
facet normal -1 0 0
  outer loop
    vertex -1.499999999999999 -6.338593059462225 17.35390065503271
    vertex -1.499999999999999 -6.165763253196147 19.94389176408459
    vertex -1.499999999999999 -3.763691055366604 18.89419739517013
  endloop
endfacet
facet normal -1 0 0
  outer loop
    vertex -1.499999999999999 5.331052652942196 11.95074764529409
    vertex -1.499999999999999 7.464274706803947 11.88308541692174
    vertex -1.499999999999999 6.778028661580189 9.437175869029574
  endloop
endfacet
facet normal -1 0 0
  outer loop
    vertex -1.499999999999999 0.02202267853340708 2.432253465601963
    vertex -1.499999999999999 1.434959263876192 4.84225377999927
    vertex -1.499999999999999 2.844356494992318 2.435082342788667
  endloop
endfacet
facet normal -1 0 0
  outer loop
    vertex -1.499999999999999 8.396937579365117 18.66666666666666
    vertex -1.499999999999999 6.207867648576578 20.00875052500678
    vertex -1.499999999999999 8.184091524039763 21.33333333333333
  endloop
endfacet
facet normal -1 -0 0
  outer loop
    vertex -1.499999999999999 -2.657081822904785 24
    vertex -1.499999999999999 -4.106364605389242 21.66924537073924
    vertex -1.499999999999999 -5.314163645809592 24
  endloop
endfacet
facet normal -1 0 0
  outer loop
    vertex -1.499999999999999 -1.43405557263253 21.6555449981284
    vertex -1.499999999999999 -4.106364605389242 21.66924537073924
    vertex -1.499999999999999 -2.657081822904785 24
  endloop
endfacet
facet normal -1 0 0
  outer loop
    vertex -1.499999999999999 -5.5427913253894 2.250566437768
    vertex -1.499999999999999 -2.819400066941061 2.427329095544024
    vertex -1.499999999999999 -4.237225699989674 0
  endloop
endfacet
facet normal -1 -0 0
  outer loop
    vertex -1.499999999999999 0.02202267853340708 2.432253465601963
    vertex -1.499999999999999 -2.819400066941061 2.427329095544024
    vertex -1.499999999999999 -1.337395851688395 4.856921943476163
  endloop
endfacet
facet normal -1 -0 0
  outer loop
    vertex -1.499999999999999 -1.337395851688395 4.856921943476163
    vertex -1.499999999999999 -2.819400066941061 2.427329095544024
    vertex -1.499999999999999 -4.521374722752373 4.997719370768507
  endloop
endfacet
facet normal -1 0 0
  outer loop
    vertex -1.499999999999999 0.02202267853340708 2.432253465601963
    vertex -1.499999999999999 2.844356494992318 2.435082342788667
    vertex -1.499999999999999 1.412408566663236 0
  endloop
endfacet
facet normal -1 0 0
  outer loop
    vertex -1.499999999999999 2.844356494992318 2.435082342788667
    vertex -1.499999999999999 4.594283322109736 4.978806293111785
    vertex -1.499999999999999 5.572189844076515 2.238799359635963
  endloop
endfacet
facet normal -1 0 -0
  outer loop
    vertex -1.499999999999999 1.434900060109837 9.5862974382893
    vertex -1.499999999999999 2.818087323004947 7.217866000487794
    vertex -1.499999999999999 0.0661470021251976 7.229720300957197
  endloop
endfacet
facet normal -1 0 0
  outer loop
    vertex -1.499999999999999 1.434959263876192 4.84225377999927
    vertex -1.499999999999999 4.594283322109736 4.978806293111785
    vertex -1.499999999999999 2.844356494992318 2.435082342788667
  endloop
endfacet
facet normal -1 0 0
  outer loop
    vertex -1.499999999999999 0.02202267853340708 2.432253465601963
    vertex -1.499999999999999 -1.337395851688395 4.856921943476163
    vertex -1.499999999999999 1.434959263876192 4.84225377999927
  endloop
endfacet
facet normal -1 0 0
  outer loop
    vertex -1.499999999999999 -1.337395851688395 4.856921943476163
    vertex -1.499999999999999 0.0661470021251976 7.229720300957197
    vertex -1.499999999999999 1.434959263876192 4.84225377999927
  endloop
endfacet
facet normal -1 0 0
  outer loop
    vertex -1.499999999999999 0.0661470021251976 7.229720300957197
    vertex -1.499999999999999 2.818087323004947 7.217866000487794
    vertex -1.499999999999999 1.434959263876192 4.84225377999927
  endloop
endfacet
facet normal -1 0 0
  outer loop
    vertex -1.499999999999999 4.237225699989684 0
    vertex -1.499999999999999 2.844356494992318 2.435082342788667
    vertex -1.499999999999999 5.572189844076515 2.238799359635963
  endloop
endfacet
facet normal -1 0 0
  outer loop
    vertex -1.499999999999999 -1.337395851688395 4.856921943476163
    vertex -1.499999999999999 -2.59949989632651 7.298728844211447
    vertex -1.499999999999999 0.0661470021251976 7.229720300957197
  endloop
endfacet
facet normal -1 0 0
  outer loop
    vertex -1.499999999999999 4.237225699989684 0
    vertex -1.499999999999999 5.572189844076515 2.238799359635963
    vertex -1.499999999999999 7.06204283331614 0
  endloop
endfacet
facet normal -1 0 0
  outer loop
    vertex -1.499999999999999 1.434959263876192 4.84225377999927
    vertex -1.499999999999999 2.818087323004947 7.217866000487794
    vertex -1.499999999999999 4.594283322109736 4.978806293111785
  endloop
endfacet
facet normal -1 0 0
  outer loop
    vertex -1.499999999999999 -7.062042833316145 0
    vertex -1.499999999999999 -5.5427913253894 2.250566437768
    vertex -1.499999999999999 -4.237225699989674 0
  endloop
endfacet
facet normal -1 0 0
  outer loop
    vertex -1.499999999999999 -2.59949989632651 7.298728844211447
    vertex -1.499999999999999 -1.265069721540106 9.608670943667027
    vertex -1.499999999999999 0.0661470021251976 7.229720300957197
  endloop
endfacet
facet normal -1 0 0
  outer loop
    vertex -1.499999999999999 -3.763691055366604 18.89419739517013
    vertex -1.499999999999999 -6.165763253196147 19.94389176408459
    vertex -1.499999999999999 -4.106364605389242 21.66924537073924
  endloop
endfacet
facet normal -1 0 0
  outer loop
    vertex -1.499999999999999 -1.41240856666321 0
    vertex -1.499999999999999 0.02202267853340708 2.432253465601963
    vertex -1.499999999999999 1.412408566663236 0
  endloop
endfacet
facet normal -1 0 0
  outer loop
    vertex -1.499999999999999 -2.59949989632651 7.298728844211447
    vertex -1.499999999999999 -4.217921719607076 9.931995276371589
    vertex -1.499999999999999 -1.265069721540106 9.608670943667027
  endloop
endfacet
facet normal -1 0 0
  outer loop
    vertex -1.499999999999999 -1.265069721540106 9.608670943667027
    vertex -1.499999999999999 0.1000139020652164 11.93521571985183
    vertex -1.499999999999999 1.434900060109837 9.5862974382893
  endloop
endfacet
facet normal -1 0 0
  outer loop
    vertex -1.499999999999999 -1.265069721540106 9.608670943667027
    vertex -1.499999999999999 1.434900060109837 9.5862974382893
    vertex -1.499999999999999 0.0661470021251976 7.229720300957197
  endloop
endfacet
facet normal -1 0 0
  outer loop
    vertex -1.499999999999999 -1.41240856666321 0
    vertex -1.499999999999999 -2.819400066941061 2.427329095544024
    vertex -1.499999999999999 0.02202267853340708 2.432253465601963
  endloop
endfacet
facet normal -1 0 0
  outer loop
    vertex -1.499999999999999 -4.217921719607076 9.931995276371589
    vertex -1.499999999999999 -2.592789231524247 11.96249623663388
    vertex -1.499999999999999 -1.265069721540106 9.608670943667027
  endloop
endfacet
facet normal -1 0 0
  outer loop
    vertex -1.499999999999999 1.434900060109837 9.5862974382893
    vertex -1.499999999999999 4.033906597026339 9.607319665067479
    vertex -1.499999999999999 2.818087323004947 7.217866000487794
  endloop
endfacet
facet normal -1 0 0
  outer loop
    vertex -1.499999999999999 1.412408566663236 0
    vertex -1.499999999999999 2.844356494992318 2.435082342788667
    vertex -1.499999999999999 4.237225699989684 0
  endloop
endfacet
facet normal -1 0 0
  outer loop
    vertex -1.499999999999999 0.1000139020652164 11.93521571985183
    vertex -1.499999999999999 2.790827588692673 11.91879934668513
    vertex -1.499999999999999 1.434900060109837 9.5862974382893
  endloop
endfacet
facet normal -1 0 -0
  outer loop
    vertex -1.499999999999999 1.485102412873626 18.89984074397418
    vertex -1.499999999999999 2.917017080247748 16.68650566724375
    vertex -1.499999999999999 0.1337294468941278 16.58997675748466
  endloop
endfacet
facet normal -1 0 0
  outer loop
    vertex -1.499999999999999 1.485102412873626 18.89984074397418
    vertex -1.499999999999999 4.160040976582839 18.88642992756666
    vertex -1.499999999999999 2.917017080247748 16.68650566724375
  endloop
endfacet
facet normal -1 0 0
  outer loop
    vertex -1.499999999999999 0.1337294468941278 16.58997675748466
    vertex -1.499999999999999 2.917017080247748 16.68650566724375
    vertex -1.499999999999999 1.460250162877828 14.25683581548311
  endloop
endfacet
facet normal -1 0 0
  outer loop
    vertex -1.499999999999999 0.1000139020652164 11.93521571985183
    vertex -1.499999999999999 1.460250162877828 14.25683581548311
    vertex -1.499999999999999 2.790827588692673 11.91879934668513
  endloop
endfacet
facet normal -1 0 0
  outer loop
    vertex -1.499999999999999 -1.226072920985393 14.27767317220967
    vertex -1.499999999999999 0.1337294468941278 16.58997675748466
    vertex -1.499999999999999 1.460250162877828 14.25683581548311
  endloop
endfacet
facet normal -1 0 0
  outer loop
    vertex -1.499999999999999 -2.42081985557695 16.53800364468497
    vertex -1.499999999999999 -1.188888385759324 18.92049247603378
    vertex -1.499999999999999 0.1337294468941278 16.58997675748466
  endloop
endfacet
facet normal -1 0 0
  outer loop
    vertex -1.499999999999999 1.460250162877828 14.25683581548311
    vertex -1.499999999999999 4.204967503627835 14.37696984054919
    vertex -1.499999999999999 2.790827588692673 11.91879934668513
  endloop
endfacet
facet normal -1 0 0
  outer loop
    vertex -1.499999999999999 1.460250162877828 14.25683581548311
    vertex -1.499999999999999 2.917017080247748 16.68650566724375
    vertex -1.499999999999999 4.204967503627835 14.37696984054919
  endloop
endfacet
facet normal -1 0 0
  outer loop
    vertex -1.499999999999999 -4.237225699989674 0
    vertex -1.499999999999999 -2.819400066941061 2.427329095544024
    vertex -1.499999999999999 -1.41240856666321 0
  endloop
endfacet
facet normal -1 0 0
  outer loop
    vertex -1.499999999999999 -1.226072920985393 14.27767317220967
    vertex -1.499999999999999 -2.42081985557695 16.53800364468497
    vertex -1.499999999999999 0.1337294468941278 16.58997675748466
  endloop
endfacet
facet normal -1 0 0
  outer loop
    vertex -1.499999999999999 -2.42081985557695 16.53800364468497
    vertex -1.499999999999999 -3.763691055366604 18.89419739517013
    vertex -1.499999999999999 -1.188888385759324 18.92049247603378
  endloop
endfacet
facet normal -1 0 -0
  outer loop
    vertex -1.499999999999999 4.204967503627835 14.37696984054919
    vertex -1.499999999999999 5.331052652942196 11.95074764529409
    vertex -1.499999999999999 2.790827588692673 11.91879934668513
  endloop
endfacet
facet normal -1 0 0
  outer loop
    vertex -1.499999999999999 0.1000139020652164 11.93521571985183
    vertex -1.499999999999999 -1.226072920985393 14.27767317220967
    vertex -1.499999999999999 1.460250162877828 14.25683581548311
  endloop
endfacet
facet normal -1 0 0
  outer loop
    vertex -1.499999999999999 -1.188888385759324 18.92049247603378
    vertex -1.499999999999999 1.485102412873626 18.89984074397418
    vertex -1.499999999999999 0.1337294468941278 16.58997675748466
  endloop
endfacet
facet normal -1 0 0
  outer loop
    vertex -1.499999999999999 4.204967503627835 14.37696984054919
    vertex -1.499999999999999 6.748453361118417 14.10885285908384
    vertex -1.499999999999999 5.331052652942196 11.95074764529409
  endloop
endfacet
facet normal -1 0 0
  outer loop
    vertex -1.499999999999999 -1.226072920985393 14.27767317220967
    vertex -1.499999999999999 -3.909431470700108 14.30530636059388
    vertex -1.499999999999999 -2.42081985557695 16.53800364468497
  endloop
endfacet
facet normal -1 0 -0
  outer loop
    vertex -1.499999999999999 -8.396937579365117 18.66666666666666
    vertex -1.499999999999999 -6.338593059462225 17.35390065503271
    vertex -1.499999999999999 -8.609783634690471 15.99999999999999
  endloop
endfacet
facet normal -1 0 0
  outer loop
    vertex -1.499999999999999 8.609783634690471 15.99999999999999
    vertex -1.499999999999999 6.058011978630228 17.10898091840469
    vertex -1.499999999999999 8.396937579365117 18.66666666666666
  endloop
endfacet
facet normal -1 -0 0
  outer loop
    vertex -1.499999999999999 -1.226072920985393 14.27767317220967
    vertex -1.499999999999999 -2.592789231524247 11.96249623663388
    vertex -1.499999999999999 -3.909431470700108 14.30530636059388
  endloop
endfacet
facet normal -1 0 -0
  outer loop
    vertex -1.499999999999999 -8.822629690015827 13.33333333333331
    vertex -1.499999999999999 -6.634406226844125 11.60648557011585
    vertex -1.499999999999999 -9.035475745341181 10.66666666666664
  endloop
endfacet
facet normal -1 0 0
  outer loop
    vertex -1.499999999999999 9.248321800666535 7.999999999999979
    vertex -1.499999999999999 6.778028661580189 9.437175869029574
    vertex -1.499999999999999 9.035475745341181 10.66666666666664
  endloop
endfacet
facet normal -1 0 0
  outer loop
    vertex -1.499999999999999 -1.337395851688395 4.856921943476163
    vertex -1.499999999999999 -4.521374722752373 4.997719370768507
    vertex -1.499999999999999 -2.59949989632651 7.298728844211447
  endloop
endfacet
facet normal -1 -0 0
  outer loop
    vertex -1.499999999999999 9.178943878111848e-15 24
    vertex -1.499999999999999 -1.43405557263253 21.6555449981284
    vertex -1.499999999999999 -2.657081822904785 24
  endloop
endfacet
facet normal -1 -0 0
  outer loop
    vertex -1.499999999999999 2.657081822904806 24
    vertex -1.499999999999999 1.221537646451252 21.65470711795874
    vertex -1.499999999999999 9.178943878111848e-15 24
  endloop
endfacet
facet normal -1 0 0
  outer loop
    vertex -1.499999999999999 -1.265069721540106 9.608670943667027
    vertex -1.499999999999999 -2.592789231524247 11.96249623663388
    vertex -1.499999999999999 0.1000139020652164 11.93521571985183
  endloop
endfacet
facet normal -1 0 0
  outer loop
    vertex -1.499999999999999 0.1000139020652164 11.93521571985183
    vertex -1.499999999999999 -2.592789231524247 11.96249623663388
    vertex -1.499999999999999 -1.226072920985393 14.27767317220967
  endloop
endfacet
facet normal -1 -0 0
  outer loop
    vertex -1.499999999999999 5.314163645809609 24
    vertex -1.499999999999999 3.985622734357208 21.69889964143058
    vertex -1.499999999999999 2.657081822904806 24
  endloop
endfacet
facet normal -1 0 -0
  outer loop
    vertex -1.499999999999999 9.178943878111848e-15 24
    vertex -1.499999999999999 1.221537646451252 21.65470711795874
    vertex -1.499999999999999 -1.43405557263253 21.6555449981284
  endloop
endfacet
facet normal -1 -0 0
  outer loop
    vertex -1.499999999999999 3.985622734357208 21.69889964143058
    vertex -1.499999999999999 1.221537646451252 21.65470711795874
    vertex -1.499999999999999 2.657081822904806 24
  endloop
endfacet
facet normal -1 0 -0
  outer loop
    vertex -1.499999999999999 2.790827588692673 11.91879934668513
    vertex -1.499999999999999 4.033906597026339 9.607319665067479
    vertex -1.499999999999999 1.434900060109837 9.5862974382893
  endloop
endfacet
facet normal -1 0 0
  outer loop
    vertex -1.499999999999999 5.331052652942196 11.95074764529409
    vertex -1.499999999999999 4.033906597026339 9.607319665067479
    vertex -1.499999999999999 2.790827588692673 11.91879934668513
  endloop
endfacet
facet normal -1 0 -0
  outer loop
    vertex -1.499999999999999 -9.035475745341181 10.66666666666664
    vertex -1.499999999999999 -6.851956131796239 9.041459911968024
    vertex -1.499999999999999 -9.248321800666535 7.999999999999979
  endloop
endfacet
facet normal -1 0 0
  outer loop
    vertex -1.499999999999999 -6.634406226844125 11.60648557011585
    vertex -1.499999999999999 -6.851956131796239 9.041459911968024
    vertex -1.499999999999999 -9.035475745341181 10.66666666666664
  endloop
endfacet
facet normal -1 0 0
  outer loop
    vertex -1.499999999999999 9.461167855991887 5.333333333333321
    vertex -1.499999999999999 7.067009202945846 6.524054435755537
    vertex -1.499999999999999 9.248321800666535 7.999999999999979
  endloop
endfacet
facet normal -1 -0 0
  outer loop
    vertex -1.499999999999999 9.248321800666535 7.999999999999979
    vertex -1.499999999999999 7.067009202945846 6.524054435755537
    vertex -1.499999999999999 6.778028661580189 9.437175869029574
  endloop
endfacet
facet normal -1 0 -0
  outer loop
    vertex -1.499999999999999 -9.248321800666535 7.999999999999979
    vertex -1.499999999999999 -6.997909010026602 6.507665484040587
    vertex -1.499999999999999 -9.461167855991887 5.333333333333314
  endloop
endfacet
facet normal -1 0 0
  outer loop
    vertex -1.499999999999999 -9.248321800666535 7.999999999999979
    vertex -1.499999999999999 -6.851956131796239 9.041459911968024
    vertex -1.499999999999999 -6.997909010026602 6.507665484040587
  endloop
endfacet
facet normal -1 0 0
  outer loop
    vertex -1.499999999999999 -3.763691055366604 18.89419739517013
    vertex -1.499999999999999 -4.472085698571357 16.19279333859758
    vertex -1.499999999999999 -6.338593059462225 17.35390065503271
  endloop
endfacet
facet normal -1 0 -0
  outer loop
    vertex -1.499999999999999 -6.338593059462225 17.35390065503271
    vertex -1.499999999999999 -6.201488108108768 14.4506364115295
    vertex -1.499999999999999 -8.609783634690471 15.99999999999999
  endloop
endfacet
facet normal -1 0 0
  outer loop
    vertex -1.499999999999999 -8.822629690015827 13.33333333333331
    vertex -1.499999999999999 -6.201488108108768 14.4506364115295
    vertex -1.499999999999999 -6.634406226844125 11.60648557011585
  endloop
endfacet
facet normal -1 0 0
  outer loop
    vertex -1.499999999999999 7.06204283331614 0
    vertex -1.499999999999999 7.806234600785109 1.920180848561468
    vertex -1.499999999999999 9.886859966642593 -3.469446951953614e-15
  endloop
endfacet
facet normal -1 0 0
  outer loop
    vertex -1.499999999999999 -9.886859966642593 0
    vertex -1.499999999999999 -7.769334145232372 1.953772089377439
    vertex -1.499999999999999 -7.062042833316145 0
  endloop
endfacet
facet normal -1 0 0
  outer loop
    vertex -1.499999999999999 9.886859966642593 -3.469446951953614e-15
    vertex -1.499999999999999 7.806234600785109 1.920180848561468
    vertex -1.499999999999999 9.674013911317241 2.666666666666661
  endloop
endfacet
facet normal -1 0 -0
  outer loop
    vertex -1.499999999999999 -9.674013911317241 2.666666666666661
    vertex -1.499999999999999 -7.769334145232372 1.953772089377439
    vertex -1.499999999999999 -9.886859966642593 0
  endloop
endfacet
facet normal -1 0 0
  outer loop
    vertex -1.499999999999999 -8.396937579365117 18.66666666666666
    vertex -1.499999999999999 -6.165763253196147 19.94389176408459
    vertex -1.499999999999999 -6.338593059462225 17.35390065503271
  endloop
endfacet
facet normal -1 0 -0
  outer loop
    vertex -1.499999999999999 -8.609783634690471 15.99999999999999
    vertex -1.499999999999999 -6.201488108108768 14.4506364115295
    vertex -1.499999999999999 -8.822629690015827 13.33333333333331
  endloop
endfacet
facet normal -1 -0 0
  outer loop
    vertex -1.499999999999999 8.609783634690471 15.99999999999999
    vertex -1.499999999999999 6.748453361118417 14.10885285908384
    vertex -1.499999999999999 6.058011978630228 17.10898091840469
  endloop
endfacet
facet normal -1 0 0
  outer loop
    vertex -1.499999999999999 2.818087323004947 7.217866000487794
    vertex -1.499999999999999 5.050543295828199 7.533031690618989
    vertex -1.499999999999999 4.594283322109736 4.978806293111785
  endloop
endfacet
facet normal -1 0 -0
  outer loop
    vertex -1.499999999999999 6.748453361118417 14.10885285908384
    vertex -1.499999999999999 7.464274706803947 11.88308541692174
    vertex -1.499999999999999 5.331052652942196 11.95074764529409
  endloop
endfacet
facet normal -1 0 0
  outer loop
    vertex -1.499999999999999 9.674013911317241 2.666666666666661
    vertex -1.499999999999999 7.394503281419269 4.102274302592233
    vertex -1.499999999999999 9.461167855991887 5.333333333333321
  endloop
endfacet
facet normal -1 0 -0
  outer loop
    vertex -1.499999999999999 -9.461167855991887 5.333333333333314
    vertex -1.499999999999999 -7.373684296747257 4.066961852093463
    vertex -1.499999999999999 -9.674013911317241 2.666666666666661
  endloop
endfacet
facet normal -1 0 0
  outer loop
    vertex -1.499999999999999 -4.521374722752373 4.997719370768507
    vertex -1.499999999999999 -4.977702288291923 7.535946474613501
    vertex -1.499999999999999 -2.59949989632651 7.298728844211447
  endloop
endfacet
facet normal -1 0 -0
  outer loop
    vertex -1.499999999999999 -6.201488108108768 14.4506364115295
    vertex -1.499999999999999 -4.623486976477271 12.36263562303318
    vertex -1.499999999999999 -6.634406226844125 11.60648557011585
  endloop
endfacet
facet normal -1 0 0
  outer loop
    vertex -1.499999999999999 -4.217921719607076 9.931995276371589
    vertex -1.499999999999999 -4.977702288291923 7.535946474613501
    vertex -1.499999999999999 -6.851956131796239 9.041459911968024
  endloop
endfacet
facet normal -1 0 0
  outer loop
    vertex -1.499999999999999 3.985622734357208 21.69889964143058
    vertex -1.499999999999999 6.207867648576578 20.00875052500678
    vertex -1.499999999999999 4.160040976582839 18.88642992756666
  endloop
endfacet
facet normal -1 0 0
  outer loop
    vertex -1.499999999999999 -4.217921719607076 9.931995276371589
    vertex -1.499999999999999 -4.623486976477271 12.36263562303318
    vertex -1.499999999999999 -2.592789231524247 11.96249623663388
  endloop
endfacet
facet normal -1 0 -0
  outer loop
    vertex -1.499999999999999 -8.184091524039763 21.33333333333333
    vertex -1.499999999999999 -6.165763253196147 19.94389176408459
    vertex -1.499999999999999 -8.396937579365117 18.66666666666666
  endloop
endfacet
facet normal -1 0 0
  outer loop
    vertex -1.499999999999999 8.822629690015827 13.33333333333331
    vertex -1.499999999999999 6.748453361118417 14.10885285908384
    vertex -1.499999999999999 8.609783634690471 15.99999999999999
  endloop
endfacet
facet normal -1 -0 0
  outer loop
    vertex -1.499999999999999 -2.42081985557695 16.53800364468497
    vertex -1.499999999999999 -4.472085698571357 16.19279333859758
    vertex -1.499999999999999 -3.763691055366604 18.89419739517013
  endloop
endfacet
facet normal -1 -0 0
  outer loop
    vertex -1.499999999999999 -3.909431470700108 14.30530636059388
    vertex -1.499999999999999 -4.623486976477271 12.36263562303318
    vertex -1.499999999999999 -6.201488108108768 14.4506364115295
  endloop
endfacet
facet normal -1 0 0
  outer loop
    vertex -1.499999999999999 6.778028661580189 9.437175869029574
    vertex -1.499999999999999 7.464274706803947 11.88308541692174
    vertex -1.499999999999999 9.035475745341181 10.66666666666664
  endloop
endfacet
facet normal -1 2.27891e-16 -6.84323e-16
  outer loop
    vertex -1.5 -7.971245468714409 24
    vertex -1.499999999999999 -6.142085478572175 22.01335401756144
    vertex -1.499999999999999 -8.184091524039763 21.33333333333333
  endloop
endfacet
facet normal -1 6.68537e-16 -2.78608e-16
  outer loop
    vertex -1.499999999999999 -5.314163645809592 24
    vertex -1.499999999999999 -6.142085478572175 22.01335401756144
    vertex -1.5 -7.971245468714409 24
  endloop
endfacet
facet normal -1 -0 0
  outer loop
    vertex -1.499999999999999 9.461167855991887 5.333333333333321
    vertex -1.499999999999999 7.394503281419269 4.102274302592233
    vertex -1.499999999999999 7.067009202945846 6.524054435755537
  endloop
endfacet
facet normal -1 0 0
  outer loop
    vertex -1.499999999999999 -6.338593059462225 17.35390065503271
    vertex -1.499999999999999 -4.472085698571357 16.19279333859758
    vertex -1.499999999999999 -6.201488108108768 14.4506364115295
  endloop
endfacet
facet normal -1 0 0
  outer loop
    vertex -1.499999999999999 -6.997909010026602 6.507665484040587
    vertex -1.499999999999999 -7.373684296747257 4.066961852093463
    vertex -1.499999999999999 -9.461167855991887 5.333333333333314
  endloop
endfacet
facet normal -1 -0 0
  outer loop
    vertex -1.499999999999999 6.778028661580189 9.437175869029574
    vertex -1.499999999999999 5.050543295828199 7.533031690618989
    vertex -1.499999999999999 4.033906597026339 9.607319665067479
  endloop
endfacet
facet normal -1 0 0
  outer loop
    vertex -1.499999999999999 -6.165763253196147 19.94389176408459
    vertex -1.499999999999999 -6.142085478572175 22.01335401756144
    vertex -1.499999999999999 -4.106364605389242 21.66924537073924
  endloop
endfacet
facet normal -1 0 -0
  outer loop
    vertex -1.499999999999999 -6.851956131796239 9.041459911968024
    vertex -1.499999999999999 -4.977702288291923 7.535946474613501
    vertex -1.499999999999999 -6.997909010026602 6.507665484040587
  endloop
endfacet
facet normal -1 -0 0
  outer loop
    vertex -1.499999999999999 8.822629690015827 13.33333333333331
    vertex -1.499999999999999 7.464274706803947 11.88308541692174
    vertex -1.499999999999999 6.748453361118417 14.10885285908384
  endloop
endfacet
facet normal -1 0 -0
  outer loop
    vertex -1.499999999999999 5.314163645809609 24
    vertex -1.499999999999999 6.332598204299513 22.20819669995414
    vertex -1.499999999999999 3.985622734357208 21.69889964143058
  endloop
endfacet
facet normal -1 0 0
  outer loop
    vertex -1.499999999999999 7.067009202945846 6.524054435755537
    vertex -1.499999999999999 5.050543295828199 7.533031690618989
    vertex -1.499999999999999 6.778028661580189 9.437175869029574
  endloop
endfacet
facet normal -1 0 0
  outer loop
    vertex -1.499999999999999 -2.59949989632651 7.298728844211447
    vertex -1.499999999999999 -4.977702288291923 7.535946474613501
    vertex -1.499999999999999 -4.217921719607076 9.931995276371589
  endloop
endfacet
facet normal -1 0 0
  outer loop
    vertex -1.499999999999999 -6.201488108108768 14.4506364115295
    vertex -1.499999999999999 -4.472085698571357 16.19279333859758
    vertex -1.499999999999999 -3.909431470700108 14.30530636059388
  endloop
endfacet
facet normal -1 0 -0
  outer loop
    vertex -1.499999999999999 4.033906597026339 9.607319665067479
    vertex -1.499999999999999 5.050543295828199 7.533031690618989
    vertex -1.499999999999999 2.818087323004947 7.217866000487794
  endloop
endfacet
facet normal -1 0 0
  outer loop
    vertex -1.499999999999999 -4.106364605389242 21.66924537073924
    vertex -1.499999999999999 -6.142085478572175 22.01335401756144
    vertex -1.499999999999999 -5.314163645809592 24
  endloop
endfacet
facet normal -1 0 0
  outer loop
    vertex -1.499999999999999 8.184091524039763 21.33333333333333
    vertex -1.499999999999999 6.332598204299513 22.20819669995414
    vertex -1.499999999999999 7.971245468714409 24
  endloop
endfacet
facet normal -1 -0 0
  outer loop
    vertex -1.499999999999999 7.971245468714409 24
    vertex -1.499999999999999 6.332598204299513 22.20819669995414
    vertex -1.499999999999999 5.314163645809609 24
  endloop
endfacet
facet normal -1 0 0
  outer loop
    vertex -1.499999999999999 5.572189844076515 2.238799359635963
    vertex -1.499999999999999 7.806234600785109 1.920180848561468
    vertex -1.499999999999999 7.06204283331614 0
  endloop
endfacet
facet normal -1 0 0
  outer loop
    vertex -1.499999999999999 -7.062042833316145 0
    vertex -1.499999999999999 -7.769334145232372 1.953772089377439
    vertex -1.499999999999999 -5.5427913253894 2.250566437768
  endloop
endfacet
facet normal -1 0 0
  outer loop
    vertex -1.499999999999999 3.985622734357208 21.69889964143058
    vertex -1.499999999999999 6.332598204299513 22.20819669995414
    vertex -1.499999999999999 6.207867648576578 20.00875052500678
  endloop
endfacet
facet normal -1 0 0
  outer loop
    vertex -1.499999999999999 -2.592789231524247 11.96249623663388
    vertex -1.499999999999999 -4.623486976477271 12.36263562303318
    vertex -1.499999999999999 -3.909431470700108 14.30530636059388
  endloop
endfacet
facet normal -1 -0 0
  outer loop
    vertex -1.499999999999999 9.674013911317241 2.666666666666661
    vertex -1.499999999999999 7.806234600785109 1.920180848561468
    vertex -1.499999999999999 7.394503281419269 4.102274302592233
  endloop
endfacet
facet normal -1 0 0
  outer loop
    vertex -1.499999999999999 -7.373684296747257 4.066961852093463
    vertex -1.499999999999999 -7.769334145232372 1.953772089377439
    vertex -1.499999999999999 -9.674013911317241 2.666666666666661
  endloop
endfacet
facet normal -1 0 0
  outer loop
    vertex -1.499999999999999 -3.909431470700108 14.30530636059388
    vertex -1.499999999999999 -4.472085698571357 16.19279333859758
    vertex -1.499999999999999 -2.42081985557695 16.53800364468497
  endloop
endfacet
facet normal -1 0 0
  outer loop
    vertex -1.499999999999999 9.035475745341181 10.66666666666664
    vertex -1.499999999999999 7.464274706803947 11.88308541692174
    vertex -1.499999999999999 8.822629690015827 13.33333333333331
  endloop
endfacet
facet normal -1 0 0
  outer loop
    vertex -1.499999999999999 -8.184091524039763 21.33333333333333
    vertex -1.499999999999999 -6.142085478572175 22.01335401756144
    vertex -1.499999999999999 -6.165763253196147 19.94389176408459
  endloop
endfacet
facet normal -1 0 0
  outer loop
    vertex -1.499999999999999 6.207867648576578 20.00875052500678
    vertex -1.499999999999999 6.332598204299513 22.20819669995414
    vertex -1.499999999999999 8.184091524039763 21.33333333333333
  endloop
endfacet
facet normal -1 0 -0
  outer loop
    vertex -1.499999999999999 7.394503281419269 4.102274302592233
    vertex -1.499999999999999 7.806234600785109 1.920180848561468
    vertex -1.499999999999999 5.572189844076515 2.238799359635963
  endloop
endfacet
facet normal -1 -0 0
  outer loop
    vertex -1.499999999999999 -5.5427913253894 2.250566437768
    vertex -1.499999999999999 -7.769334145232372 1.953772089377439
    vertex -1.499999999999999 -7.373684296747257 4.066961852093463
  endloop
endfacet
facet normal 0.573294 -0.818965 -0.0251224
  outer loop
    vertex -4.005926010065559 8.572499767705427 6.820392218435344
    vertex -5.33072696658103 7.563691467343657 9.474540746745918
    vertex -6.577853153959044 6.760305190618963 7.204681050315374
  endloop
endfacet
facet normal 0.563171 0.823178 -0.0722288
  outer loop
    vertex -3.71280939374971 -8.03224378992592 14.61207461689879
    vertex -6.016845014172621 -6.312703578111157 16.24467978820238
    vertex -3.701536184106029 -7.805036815597233 17.28940724018773
  endloop
endfacet
facet normal 0.554861 0.831533 -0.0261279
  outer loop
    vertex -5.384571075670883 -7.785592063340036 6.772935479012415
    vertex -3.948025726054221 -8.824420377875441 4.218706964524245
    vertex -6.553348551420488 -7.077060346104439 4.501731330830701
  endloop
endfacet
facet normal 0.547797 0.830424 -0.101557
  outer loop
    vertex -6.016845014172621 -6.312703578111157 16.24467978820238
    vertex -3.71280939374971 -8.03224378992592 14.61207461689879
    vertex -5.865476576674759 -6.708893014832776 13.82155024004579
  endloop
endfacet
facet normal 0.541317 0.829438 -0.137871
  outer loop
    vertex -3.948025726054221 -8.824420377875441 4.218706964524245
    vertex -5.504075320736949 -8.135016513805084 2.256730560861879
    vertex -6.553348551420488 -7.077060346104439 4.501731330830701
  endloop
endfacet
facet normal 0.462468 -0.880534 -0.103842
  outer loop
    vertex -5.33072696658103 7.563691467343657 9.474540746745918
    vertex -4.005926010065559 8.572499767705427 6.820392218435344
    vertex -3.237613702801745 8.681249499359746 9.319976520663829
  endloop
endfacet
facet normal 0.558822 -0.819726 -0.125569
  outer loop
    vertex -4.005926010065559 8.572499767705427 6.820392218435344
    vertex -6.577853153959044 6.760305190618963 7.204681050315374
    vertex -5.912439429788065 7.606693440313266 4.640686261624749
  endloop
endfacet
facet normal 0.77201 0.622978 -0.126088
  outer loop
    vertex -6.847474468482602 -5.061376317271357 18.86375301861603
    vertex -7.296210542762216 -3.978220259938567 21.46792129811001
    vertex -5.436292677995183 -6.287516476286642 21.44598484347906
  endloop
endfacet
facet normal 0.543829 0.829356 -0.128134
  outer loop
    vertex -6.273110980214065 -6.84140154441588 9.11310907113123
    vertex -3.722012748455355 -8.488256402045039 9.281161383238915
    vertex -5.384571075670883 -7.785592063340036 6.772935479012415
  endloop
endfacet
facet normal 0.952235 -0.302901 -0.0387183
  outer loop
    vertex -8.835053067167236 4.268956229553897 2.383230596328925
    vertex -9.105441317101681 3.109225764605688 4.806107801261779
    vertex -9.680018778814334 1.614839864625247 2.365854453160749
  endloop
endfacet
facet normal 0.975632 -0.186577 -0.115462
  outer loop
    vertex -9.105441317101681 3.109225764605688 4.806107801261779
    vertex -9.608999331874482 0.4637886293677268 4.825953142956113
    vertex -9.680018778814334 1.614839864625247 2.365854453160749
  endloop
endfacet
facet normal 0.447049 0.892721 -0.0565348
  outer loop
    vertex -5.027268454435813 -7.55702258953279 11.72203886667117
    vertex -3.71280939374971 -8.03224378992592 14.61207461689879
    vertex -3.076789121356423 -8.518240105484361 11.96721005850619
  endloop
endfacet
facet normal 0.550407 0.827029 -0.114347
  outer loop
    vertex -3.71280939374971 -8.03224378992592 14.61207461689879
    vertex -5.027268454435813 -7.55702258953279 11.72203886667117
    vertex -5.865476576674759 -6.708893014832776 13.82155024004579
  endloop
endfacet
facet normal 0.715401 0.696096 -0.0604324
  outer loop
    vertex -6.847474468482602 -5.061376317271357 18.86375301861603
    vertex -5.436292677995183 -6.287516476286642 21.44598484347906
    vertex -5.242137508590028 -6.721260916783173 18.74828149668816
  endloop
endfacet
facet normal 0.965803 0.256576 -0.0373201
  outer loop
    vertex -9.748470606124901 -1.15770807627567 2.325481969885009
    vertex -9.338138948512917 -2.360034497254101 4.678405510095454
    vertex -9.036895198015788 -3.83971062572049 2.30146675502228
  endloop
endfacet
facet normal 0.890937 0.452792 -0.034809
  outer loop
    vertex -7.296210542762216 -3.978220259938567 21.46792129811001
    vertex -6.847474468482602 -5.061376317271357 18.86375301861603
    vertex -8.10217309006886 -2.580846574944424 19.01617765280871
  endloop
endfacet
facet normal 0.919225 0.375808 -0.117446
  outer loop
    vertex -9.338138948512917 -2.360034497254101 4.678405510095454
    vertex -8.325250376745993 -4.84908902524977 4.64150926180279
    vertex -9.036895198015788 -3.83971062572049 2.30146675502228
  endloop
endfacet
facet normal 0.45918 0.886577 -0.055995
  outer loop
    vertex -5.384571075670883 -7.785592063340036 6.772935479012415
    vertex -3.722012748455355 -8.488256402045039 9.281161383238915
    vertex -3.234615739892263 -8.908071283960936 6.631014403440281
  endloop
endfacet
facet normal 0.551477 -0.824395 -0.12746
  outer loop
    vertex -3.717572437826924 8.260594273508604 11.94664547131547
    vertex -6.223447160613978 6.579593148577851 11.97706872004079
    vertex -5.33072696658103 7.563691467343657 9.474540746745918
  endloop
endfacet
facet normal 0.567762 -0.814366 -0.120224
  outer loop
    vertex -5.051606555381534 7.281543483225166 14.44414883913745
    vertex -3.73927172869428 7.802323570133439 17.11406082835177
    vertex -5.969825700454304 6.306889613602721 16.70987879227782
  endloop
endfacet
facet normal 0.454914 0.884458 -0.103865
  outer loop
    vertex -3.948025726054221 -8.824420377875441 4.218706964524245
    vertex -5.384571075670883 -7.785592063340036 6.772935479012415
    vertex -3.234615739892263 -8.908071283960936 6.631014403440281
  endloop
endfacet
facet normal 0.654975 -0.754289 -0.0453475
  outer loop
    vertex -7.388749743144884 6.464505486878105 2.316270170823618
    vertex -5.33665668708629 8.257439483066015 2.132776764270857
    vertex -5.912439429788065 7.606693440313266 4.640686261624749
  endloop
endfacet
facet normal 0.938547 0.321641 -0.125209
  outer loop
    vertex -8.201204743652907 -1.316955035850387 21.52057902146182
    vertex -7.296210542762216 -3.978220259938567 21.46792129811001
    vertex -8.10217309006886 -2.580846574944424 19.01617765280871
  endloop
endfacet
facet normal 0.556631 -0.830282 -0.0281574
  outer loop
    vertex -6.223447160613978 6.579593148577851 11.97706872004079
    vertex -3.717572437826924 8.260594273508604 11.94664547131547
    vertex -5.051606555381534 7.281543483225166 14.44414883913745
  endloop
endfacet
facet normal 0.708791 -0.697164 -0.107598
  outer loop
    vertex -7.721171752893881 5.731468674963805 4.876065492742265
    vertex -7.388749743144884 6.464505486878105 2.316270170823618
    vertex -5.912439429788065 7.606693440313266 4.640686261624749
  endloop
endfacet
facet normal 0.833378 -0.550489 -0.0494164
  outer loop
    vertex -7.721171752893881 5.731468674963805 4.876065492742265
    vertex -8.835053067167236 4.268956229553897 2.383230596328925
    vertex -7.388749743144884 6.464505486878105 2.316270170823618
  endloop
endfacet
facet normal 0.460041 -0.8863 -0.0532454
  outer loop
    vertex -3.73927172869428 7.802323570133439 17.11406082835177
    vertex -5.051606555381534 7.281543483225166 14.44414883913745
    vertex -3.073282313170929 8.29933384608227 14.5952020298871
  endloop
endfacet
facet normal 0.879032 -0.46077 -0.122453
  outer loop
    vertex -8.835053067167236 4.268956229553897 2.383230596328925
    vertex -7.721171752893881 5.731468674963805 4.876065492742265
    vertex -9.105441317101681 3.109225764605688 4.806107801261779
  endloop
endfacet
facet normal 0.866041 -0.484457 -0.12359
  outer loop
    vertex -7.980707461102094 2.894903346302997 19.19073423447051
    vertex -7.573787667603669 4.240222704226759 16.76869773947113
    vertex -6.678682501642364 5.258444385072043 19.04972619745851
  endloop
endfacet
facet normal 0.55257 0.832727 -0.0350949
  outer loop
    vertex -3.701536184106029 -7.805036815597233 17.28940724018773
    vertex -6.016845014172621 -6.312703578111157 16.24467978820238
    vertex -5.242137508590028 -6.721260916783173 18.74828149668816
  endloop
endfacet
facet normal 0.992192 -0.00550591 -0.124602
  outer loop
    vertex -8.493583682300201 0.1276136008466829 19.12855924723338
    vertex -8.175962875962004 1.429560960718324 21.60021444197951
    vertex -8.201204743652907 -1.316955035850387 21.52057902146182
  endloop
endfacet
facet normal 0.543489 0.838901 -0.0294244
  outer loop
    vertex -3.722012748455355 -8.488256402045039 9.281161383238915
    vertex -6.273110980214065 -6.84140154441588 9.11310907113123
    vertex -5.027268454435813 -7.55702258953279 11.72203886667117
  endloop
endfacet
facet normal 0.874452 -0.483824 -0.0353223
  outer loop
    vertex -7.180710668540316 4.167092385741994 21.57004340012591
    vertex -7.980707461102094 2.894903346302997 19.19073423447051
    vertex -6.678682501642364 5.258444385072043 19.04972619745851
  endloop
endfacet
facet normal 0.931214 -0.339998 -0.13131
  outer loop
    vertex -7.180710668540316 4.167092385741994 21.57004340012591
    vertex -8.175962875962004 1.429560960718324 21.60021444197951
    vertex -7.980707461102094 2.894903346302997 19.19073423447051
  endloop
endfacet
facet normal 0.988957 0.144318 -0.0337261
  outer loop
    vertex -8.493583682300201 0.1276136008466829 19.12855924723338
    vertex -8.201204743652907 -1.316955035850387 21.52057902146182
    vertex -8.10217309006886 -2.580846574944424 19.01617765280871
  endloop
endfacet
facet normal 0.939425 -0.341815 -0.0253519
  outer loop
    vertex -7.629910221567703 2.752312542811242 24.00000000000029
    vertex -8.175962875962004 1.429560960718324 21.60021444197951
    vertex -7.180710668540316 4.167092385741994 21.57004340012591
  endloop
endfacet
facet normal 0.999456 -0.00826017 -0.0319137
  outer loop
    vertex -8.175962875962004 1.429560960718324 21.60021444197951
    vertex -8.111149999999956 1.873903848382e-15 24.0000000000003
    vertex -8.201204743652907 -1.316955035850387 21.52057902146182
  endloop
endfacet
facet normal 0.788989 -0.613362 -0.0358127
  outer loop
    vertex -6.678682501642364 5.258444385072043 19.04972619745851
    vertex -7.573787667603669 4.240222704226759 16.76869773947113
    vertex -5.969825700454304 6.306889613602721 16.70987879227782
  endloop
endfacet
facet normal 0.987547 0.101027 -0.120597
  outer loop
    vertex -9.748470606124901 -1.15770807627567 2.325481969885009
    vertex -9.608999331874482 0.4637886293677268 4.825953142956113
    vertex -9.338138948512917 -2.360034497254101 4.678405510095454
  endloop
endfacet
facet normal 0.681778 -0.721908 -0.118436
  outer loop
    vertex -6.223447160613978 6.579593148577851 11.97706872004079
    vertex -5.051606555381534 7.281543483225166 14.44414883913745
    vertex -6.975308678471515 5.476376257296798 14.37344972193861
  endloop
endfacet
facet normal 0.998905 -0.0240782 -0.0401028
  outer loop
    vertex -9.608999331874482 0.4637886293677268 4.825953142956113
    vertex -9.748470606124901 -1.15770807627567 2.325481969885009
    vertex -9.680018778814334 1.614839864625247 2.365854453160749
  endloop
endfacet
facet normal 0.684544 -0.728093 -0.035784
  outer loop
    vertex -6.975308678471515 5.476376257296798 14.37344972193861
    vertex -5.051606555381534 7.281543483225166 14.44414883913745
    vertex -5.969825700454304 6.306889613602721 16.70987879227782
  endloop
endfacet
facet normal 0.748255 0.653589 -0.113738
  outer loop
    vertex -6.966572798678356 -5.830428745121717 11.62573798758472
    vertex -7.455778958698216 -4.850491138624628 14.03853335371079
    vertex -5.865476576674759 -6.708893014832776 13.82155024004579
  endloop
endfacet
facet normal 0.643182 0.755451 -0.124945
  outer loop
    vertex -6.243295447164344 -5.178032085833048 24.00000000000022
    vertex -4.115842136679394 -6.989320269413485 24.00000000000012
    vertex -5.436292677995183 -6.287516476286642 21.44598484347906
  endloop
endfacet
facet normal 0.982915 -0.181479 -0.0307157
  outer loop
    vertex -7.980707461102094 2.894903346302997 19.19073423447051
    vertex -8.175962875962004 1.429560960718324 21.60021444197951
    vertex -8.493583682300201 0.1276136008466829 19.12855924723338
  endloop
endfacet
facet normal 0.467033 -0.882466 -0.0559862
  outer loop
    vertex -3.717572437826924 8.260594273508604 11.94664547131547
    vertex -5.33072696658103 7.563691467343657 9.474540746745918
    vertex -3.237613702801745 8.681249499359746 9.319976520663829
  endloop
endfacet
facet normal 0.977174 0.170858 -0.126244
  outer loop
    vertex -8.111149999999956 1.873903848382e-15 24.0000000000003
    vertex -7.629910221567703 -2.752312542811242 24.00000000000029
    vertex -8.201204743652907 -1.316955035850387 21.52057902146182
  endloop
endfacet
facet normal 0.782658 -0.610836 -0.119688
  outer loop
    vertex -7.573787667603669 4.240222704226759 16.76869773947113
    vertex -6.975308678471515 5.476376257296798 14.37344972193861
    vertex -5.969825700454304 6.306889613602721 16.70987879227782
  endloop
endfacet
facet normal 0.861093 -0.492227 -0.127406
  outer loop
    vertex -6.243295447164336 5.178032085833052 24.00000000000022
    vertex -7.629910221567703 2.752312542811242 24.00000000000029
    vertex -7.180710668540316 4.167092385741994 21.57004340012591
  endloop
endfacet
facet normal 0.866756 -0.483024 -0.124184
  outer loop
    vertex -7.917456566058994 4.391863608939261 12.01593461426201
    vertex -6.975308678471515 5.476376257296798 14.37344972193861
    vertex -8.328793247111088 3.040679414592729 14.40049905594189
  endloop
endfacet
facet normal 0.937511 -0.346243 -0.0344737
  outer loop
    vertex -8.874071189054913 1.803108010764865 12.00144942868641
    vertex -7.917456566058994 4.391863608939261 12.01593461426201
    vertex -8.328793247111088 3.040679414592729 14.40049905594189
  endloop
endfacet
facet normal 0.873496 -0.48575 -0.0324363
  outer loop
    vertex -6.975308678471515 5.476376257296798 14.37344972193861
    vertex -7.573787667603669 4.240222704226759 16.76869773947113
    vertex -8.328793247111088 3.040679414592729 14.40049905594189
  endloop
endfacet
facet normal 0.778415 0.627191 -0.0264976
  outer loop
    vertex -7.296210542762216 -3.978220259938567 21.46792129811001
    vertex -6.243295447164344 -5.178032085833048 24.00000000000022
    vertex -5.436292677995183 -6.287516476286642 21.44598484347906
  endloop
endfacet
facet normal 0.768394 0.628951 -0.11828
  outer loop
    vertex -7.429027818340105 -5.863017135288911 6.806344743520471
    vertex -7.95703408681938 -4.762310935708884 9.229185624474889
    vertex -6.273110980214065 -6.84140154441588 9.11310907113123
  endloop
endfacet
facet normal 0.544935 -0.837881 -0.0316382
  outer loop
    vertex -6.583762800289198 7.5268896225152 0
    vertex -4.210602125483351 9.070326881699122 0
    vertex -5.33665668708629 8.257439483066015 2.132776764270857
  endloop
endfacet
facet normal 0.684367 0.728344 -0.0340179
  outer loop
    vertex -7.429027818340105 -5.863017135288911 6.806344743520471
    vertex -6.273110980214065 -6.84140154441588 9.11310907113123
    vertex -5.384571075670883 -7.785592063340036 6.772935479012415
  endloop
endfacet
facet normal 0.783643 -0.608972 -0.122706
  outer loop
    vertex -7.917456566058994 4.391863608939261 12.01593461426201
    vertex -7.317994841299508 5.64378135143063 9.631215015918475
    vertex -6.223447160613978 6.579593148577851 11.97706872004079
  endloop
endfacet
facet normal 0.975826 -0.178006 -0.126798
  outer loop
    vertex -7.980707461102094 2.894903346302997 19.19073423447051
    vertex -8.493583682300201 0.1276136008466829 19.12855924723338
    vertex -8.527627722498794 1.618245276479541 16.77392007547062
  endloop
endfacet
facet normal 0.643082 -0.755334 -0.126157
  outer loop
    vertex -4.115842136679375 6.989320269413493 24.00000000000011
    vertex -6.243295447164336 5.178032085833052 24.00000000000022
    vertex -5.36460493449584 6.342476365489143 21.5072744434535
  endloop
endfacet
facet normal 0.931219 -0.343428 -0.122019
  outer loop
    vertex -8.874071189054913 1.803108010764865 12.00144942868641
    vertex -8.669331737620093 3.205477251344477 9.616939910603834
    vertex -7.917456566058994 4.391863608939261 12.01593461426201
  endloop
endfacet
facet normal 0.757797 0.651499 -0.0359489
  outer loop
    vertex -6.583762800289219 -7.526889622515331 0
    vertex -8.429294788261764 -5.380240642627787 0
    vertex -7.598357214881501 -6.220648397385154 2.285399801128785
  endloop
endfacet
facet normal 0.798148 0.58809 -0.130803
  outer loop
    vertex -7.455778958698216 -4.850491138624628 14.03853335371079
    vertex -7.830662988191936 -3.790646036935442 16.51609764276152
    vertex -6.016845014172621 -6.312703578111157 16.24467978820238
  endloop
endfacet
facet normal 0.692892 -0.720141 -0.0360157
  outer loop
    vertex -6.223447160613978 6.579593148577851 11.97706872004079
    vertex -7.317994841299508 5.64378135143063 9.631215015918475
    vertex -5.33072696658103 7.563691467343657 9.474540746745918
  endloop
endfacet
facet normal 0.531251 0.841633 -0.0970857
  outer loop
    vertex -5.436292677995183 -6.287516476286642 21.44598484347906
    vertex -3.593953062524588 -7.629471400819089 19.89386989508787
    vertex -5.242137508590028 -6.721260916783173 18.74828149668816
  endloop
endfacet
facet normal 0.759864 -0.637971 -0.124896
  outer loop
    vertex -5.36460493449584 6.342476365489143 21.5072744434535
    vertex -7.180710668540316 4.167092385741994 21.57004340012591
    vertex -6.678682501642364 5.258444385072043 19.04972619745851
  endloop
endfacet
facet normal 0.506468 -0.860033 -0.0619178
  outer loop
    vertex -3.727901926051711 8.944474691550553 3.92784190612667
    vertex -4.005926010065559 8.572499767705427 6.820392218435344
    vertex -5.912439429788065 7.606693440313266 4.640686261624749
  endloop
endfacet
facet normal 0.874221 -0.484302 -0.0344878
  outer loop
    vertex -7.917456566058994 4.391863608939261 12.01593461426201
    vertex -8.669331737620093 3.205477251344477 9.616939910603834
    vertex -7.317994841299508 5.64378135143063 9.631215015918475
  endloop
endfacet
facet normal 0.909952 -0.413001 -0.0376551
  outer loop
    vertex -9.59929549192589 2.802414326735231 0
    vertex -8.42929478826175 5.380240642627662 0
    vertex -8.835053067167236 4.268956229553897 2.383230596328925
  endloop
endfacet
facet normal 0.924476 0.379366 -0.0377578
  outer loop
    vertex -8.977733348111567 -2.252861964006946 9.451303224684555
    vertex -8.3280755531152 -3.609030471330736 11.7318751729333
    vertex -7.95703408681938 -4.762310935708884 9.229185624474889
  endloop
endfacet
facet normal 0.861373 0.492387 -0.12487
  outer loop
    vertex -7.629910221567703 -2.752312542811242 24.00000000000029
    vertex -6.243295447164344 -5.178032085833048 24.00000000000022
    vertex -7.296210542762216 -3.978220259938567 21.46792129811001
  endloop
endfacet
facet normal 0.766911 -0.641092 -0.02914
  outer loop
    vertex -5.36460493449584 6.342476365489143 21.5072744434535
    vertex -6.243295447164336 5.178032085833052 24.00000000000022
    vertex -7.180710668540316 4.167092385741994 21.57004340012591
  endloop
endfacet
facet normal 0.999032 -0.0291711 -0.0329114
  outer loop
    vertex -8.527627722498794 1.618245276479541 16.77392007547062
    vertex -8.493583682300201 0.1276136008466829 19.12855924723338
    vertex -8.611435029801871 -1.145356444104588 16.6794549643295
  endloop
endfacet
facet normal 0.911009 0.410648 -0.0378195
  outer loop
    vertex -8.544788382791644 -2.417038524163833 14.22876171789015
    vertex -7.830662988191936 -3.790646036935442 16.51609764276152
    vertex -7.455778958698216 -4.850491138624628 14.03853335371079
  endloop
endfacet
facet normal 0.946099 0.322353 -0.0313821
  outer loop
    vertex -7.629910221567703 -2.752312542811242 24.00000000000029
    vertex -7.296210542762216 -3.978220259938567 21.46792129811001
    vertex -8.201204743652907 -1.316955035850387 21.52057902146182
  endloop
endfacet
facet normal 0.939246 -0.341749 -0.0320241
  outer loop
    vertex -7.980707461102094 2.894903346302997 19.19073423447051
    vertex -8.527627722498794 1.618245276479541 16.77392007547062
    vertex -7.573787667603669 4.240222704226759 16.76869773947113
  endloop
endfacet
facet normal 0.973958 -0.190348 -0.123178
  outer loop
    vertex -8.863680286750084 0.3298428794613958 14.36026368104042
    vertex -8.874071189054913 1.803108010764865 12.00144942868641
    vertex -8.328793247111088 3.040679414592729 14.40049905594189
  endloop
endfacet
facet normal 0.902787 0.413311 -0.118955
  outer loop
    vertex -8.544788382791644 -2.417038524163833 14.22876171789015
    vertex -7.455778958698216 -4.850491138624628 14.03853335371079
    vertex -8.3280755531152 -3.609030471330736 11.7318751729333
  endloop
endfacet
facet normal 0.789924 -0.612261 -0.0340276
  outer loop
    vertex -7.917456566058994 4.391863608939261 12.01593461426201
    vertex -6.223447160613978 6.579593148577851 11.97706872004079
    vertex -6.975308678471515 5.476376257296798 14.37344972193861
  endloop
endfacet
facet normal 0.966993 0.25218 -0.0364601
  outer loop
    vertex -9.010551880413086 -0.965326159454325 11.91671427655745
    vertex -8.544788382791644 -2.417038524163833 14.22876171789015
    vertex -8.3280755531152 -3.609030471330736 11.7318751729333
  endloop
endfacet
facet normal 0.959069 0.256042 -0.120948
  outer loop
    vertex -8.977733348111567 -2.252861964006946 9.451303224684555
    vertex -9.010551880413086 -0.965326159454325 11.91671427655745
    vertex -8.3280755531152 -3.609030471330736 11.7318751729333
  endloop
endfacet
facet normal 0.949646 0.287925 -0.123581
  outer loop
    vertex -8.544788382791644 -2.417038524163833 14.22876171789015
    vertex -8.611435029801871 -1.145356444104588 16.6794549643295
    vertex -7.830662988191936 -3.790646036935442 16.51609764276152
  endloop
endfacet
facet normal 0.98139 0.146953 -0.123607
  outer loop
    vertex -8.611435029801871 -1.145356444104588 16.6794549643295
    vertex -8.493583682300201 0.1276136008466829 19.12855924723338
    vertex -8.10217309006886 -2.580846574944424 19.01617765280871
  endloop
endfacet
facet normal 0.992581 0.116841 -0.0336365
  outer loop
    vertex -8.863680286750084 0.3298428794613958 14.36026368104042
    vertex -8.611435029801871 -1.145356444104588 16.6794549643295
    vertex -8.544788382791644 -2.417038524163833 14.22876171789015
  endloop
endfacet
facet normal 0.86661 0.497598 -0.0372016
  outer loop
    vertex -8.77913113277017 -3.498872402554058 6.977849195695521
    vertex -7.95703408681938 -4.762310935708884 9.229185624474889
    vertex -7.429027818340105 -5.863017135288911 6.806344743520471
  endloop
endfacet
facet normal 0.978321 -0.203951 -0.0359463
  outer loop
    vertex -8.874071189054913 1.803108010764865 12.00144942868641
    vertex -9.23178890036248 0.5141178328343706 9.579192782533822
    vertex -8.669331737620093 3.205477251344477 9.616939910603834
  endloop
endfacet
facet normal 0.665523 0.745535 -0.035467
  outer loop
    vertex -5.027268454435813 -7.55702258953279 11.72203886667117
    vertex -6.966572798678356 -5.830428745121717 11.62573798758472
    vertex -5.865476576674759 -6.708893014832776 13.82155024004579
  endloop
endfacet
facet normal 0.989269 0.141451 -0.0365822
  outer loop
    vertex -9.599295491925897 -2.802414326735353 0
    vertex -10 -5.993816554195064e-14 0
    vertex -9.748470606124901 -1.15770807627567 2.325481969885009
  endloop
endfacet
facet normal 0.957979 0.28484 -0.0337983
  outer loop
    vertex -7.830662988191936 -3.790646036935442 16.51609764276152
    vertex -8.611435029801871 -1.145356444104588 16.6794549643295
    vertex -8.10217309006886 -2.580846574944424 19.01617765280871
  endloop
endfacet
facet normal 0.810487 0.58532 -0.0226085
  outer loop
    vertex -6.016845014172621 -6.312703578111157 16.24467978820238
    vertex -7.830662988191936 -3.790646036935442 16.51609764276152
    vertex -6.847474468482602 -5.061376317271357 18.86375301861603
  endloop
endfacet
facet normal 0.998245 -0.0481571 -0.0344753
  outer loop
    vertex -8.863680286750084 0.3298428794613958 14.36026368104042
    vertex -9.010551880413086 -0.965326159454325 11.91671427655745
    vertex -8.874071189054913 1.803108010764865 12.00144942868641
  endloop
endfacet
facet normal 0.976935 -0.170816 -0.128141
  outer loop
    vertex -7.629910221567703 2.752312542811242 24.00000000000029
    vertex -8.111149999999956 1.873903848382e-15 24.0000000000003
    vertex -8.175962875962004 1.429560960718324 21.60021444197951
  endloop
endfacet
facet normal 0.991907 -0.0258307 -0.124314
  outer loop
    vertex -8.527627722498794 1.618245276479541 16.77392007547062
    vertex -8.611435029801871 -1.145356444104588 16.6794549643295
    vertex -8.863680286750084 0.3298428794613958 14.36026368104042
  endloop
endfacet
facet normal 0.991454 -0.0451312 -0.122401
  outer loop
    vertex -8.874071189054913 1.803108010764865 12.00144942868641
    vertex -9.010551880413086 -0.965326159454325 11.91671427655745
    vertex -9.23178890036248 0.5141178328343706 9.579192782533822
  endloop
endfacet
facet normal 0.932261 -0.339394 -0.125304
  outer loop
    vertex -7.573787667603669 4.240222704226759 16.76869773947113
    vertex -8.527627722498794 1.618245276479541 16.77392007547062
    vertex -8.328793247111088 3.040679414592729 14.40049905594189
  endloop
endfacet
facet normal 0.980627 -0.192994 -0.0335126
  outer loop
    vertex -8.527627722498794 1.618245276479541 16.77392007547062
    vertex -8.863680286750084 0.3298428794613958 14.36026368104042
    vertex -8.328793247111088 3.040679414592729 14.40049905594189
  endloop
endfacet
facet normal 0.882387 0.453937 -0.123834
  outer loop
    vertex -6.847474468482602 -5.061376317271357 18.86375301861603
    vertex -7.830662988191936 -3.790646036935442 16.51609764276152
    vertex -8.10217309006886 -2.580846574944424 19.01617765280871
  endloop
endfacet
facet normal 0.91594 0.383125 -0.119456
  outer loop
    vertex -8.977733348111567 -2.252861964006946 9.451303224684555
    vertex -7.95703408681938 -4.762310935708884 9.229185624474889
    vertex -8.77913113277017 -3.498872402554058 6.977849195695521
  endloop
endfacet
facet normal 0.668714 0.733392 -0.122304
  outer loop
    vertex -6.583762800289219 -7.526889622515331 0
    vertex -7.598357214881501 -6.220648397385154 2.285399801128785
    vertex -5.504075320736949 -8.135016513805084 2.256730560861879
  endloop
endfacet
facet normal 0.987885 0.0963283 -0.121673
  outer loop
    vertex -9.23178890036248 0.5141178328343706 9.579192782533822
    vertex -8.977733348111567 -2.252861964006946 9.451303224684555
    vertex -9.404496225764364 -0.794050266016521 7.141274683687915
  endloop
endfacet
facet normal 0.985101 0.120249 -0.122946
  outer loop
    vertex -8.863680286750084 0.3298428794613958 14.36026368104042
    vertex -8.544788382791644 -2.417038524163833 14.22876171789015
    vertex -9.010551880413086 -0.965326159454325 11.91671427655745
  endloop
endfacet
facet normal 0.684654 -0.718615 -0.121824
  outer loop
    vertex -5.33072696658103 7.563691467343657 9.474540746745918
    vertex -7.317994841299508 5.64378135143063 9.631215015918475
    vertex -6.577853153959044 6.760305190618963 7.204681050315374
  endloop
endfacet
facet normal 0.971989 -0.201434 -0.121087
  outer loop
    vertex -8.669331737620093 3.205477251344477 9.616939910603834
    vertex -9.23178890036248 0.5141178328343706 9.579192782533822
    vertex -9.223339097921842 1.969252985409565 7.226343214308218
  endloop
endfacet
facet normal 0.99504 0.092994 -0.0353196
  outer loop
    vertex -9.23178890036248 0.5141178328343706 9.579192782533822
    vertex -9.010551880413086 -0.965326159454325 11.91671427655745
    vertex -8.977733348111567 -2.252861964006946 9.451303224684555
  endloop
endfacet
facet normal 0.997277 -0.0642664 -0.0361644
  outer loop
    vertex -9.223339097921842 1.969252985409565 7.226343214308218
    vertex -9.23178890036248 0.5141178328343706 9.579192782533822
    vertex -9.404496225764364 -0.794050266016521 7.141274683687915
  endloop
endfacet
facet normal 0.858107 0.498865 -0.121599
  outer loop
    vertex -8.77913113277017 -3.498872402554058 6.977849195695521
    vertex -7.429027818340105 -5.863017135288911 6.806344743520471
    vertex -8.325250376745993 -4.84908902524977 4.64150926180279
  endloop
endfacet
facet normal 0.296165 0.952109 -0.0759947
  outer loop
    vertex -1.499999999999999 -8.609783634690471 15.99999999999999
    vertex -1.499999999999999 -8.822629690015827 13.33333333333331
    vertex -3.71280939374971 -8.03224378992592 14.61207461689879
  endloop
endfacet
facet normal 0.544875 0.83779 -0.0349232
  outer loop
    vertex -4.210602125483375 -9.070326881699263 0
    vertex -6.583762800289219 -7.526889622515331 0
    vertex -5.504075320736949 -8.135016513805084 2.256730560861879
  endloop
endfacet
facet normal 0.990789 -0.0612361 -0.12078
  outer loop
    vertex -9.223339097921842 1.969252985409565 7.226343214308218
    vertex -9.404496225764364 -0.794050266016521 7.141274683687915
    vertex -9.608999331874482 0.4637886293677268 4.825953142956113
  endloop
endfacet
facet normal 0.973172 0.227195 -0.0363108
  outer loop
    vertex -8.977733348111567 -2.252861964006946 9.451303224684555
    vertex -8.77913113277017 -3.498872402554058 6.977849195695521
    vertex -9.404496225764364 -0.794050266016521 7.141274683687915
  endloop
endfacet
facet normal 0.302257 -0.950204 -0.0758427
  outer loop
    vertex -1.499999999999999 8.396937579365117 18.66666666666666
    vertex -1.499999999999999 8.184091524039763 21.33333333333333
    vertex -3.571006051437481 7.639841714278036 19.89842248622755
  endloop
endfacet
facet normal 0.289451 -0.954158 -0.0761583
  outer loop
    vertex -1.499999999999999 9.035475745341181 10.66666666666664
    vertex -1.499999999999999 8.822629690015827 13.33333333333331
    vertex -3.717572437826924 8.260594273508604 11.94664547131547
  endloop
endfacet
facet normal 0.304658 -0.949442 -0.0757819
  outer loop
    vertex -1.499999999999999 8.609783634690471 15.99999999999999
    vertex -1.499999999999999 8.396937579365117 18.66666666666666
    vertex -3.73927172869428 7.802323570133439 17.11406082835177
  endloop
endfacet
facet normal 0.283035 0.956069 -0.0763108
  outer loop
    vertex -1.499999999999999 -9.035475745341181 10.66666666666664
    vertex -1.499999999999999 -9.248321800666535 7.999999999999979
    vertex -3.722012748455355 -8.488256402045039 9.281161383238915
  endloop
endfacet
facet normal 0.78769 -0.604323 -0.119741
  outer loop
    vertex -6.577853153959044 6.760305190618963 7.204681050315374
    vertex -8.241224999785505 4.574081722530998 7.296238299825323
    vertex -7.721171752893881 5.731468674963805 4.876065492742265
  endloop
endfacet
facet normal 0.303672 0.949756 -0.0758069
  outer loop
    vertex -1.499999999999999 -8.184091524039763 21.33333333333333
    vertex -1.499999999999999 -8.396937579365117 18.66666666666666
    vertex -3.593953062524588 -7.629471400819089 19.89386989508787
  endloop
endfacet
facet normal 0.302856 0.950015 -0.0758276
  outer loop
    vertex -1.499999999999999 -8.396937579365117 18.66666666666666
    vertex -1.499999999999999 -8.609783634690471 15.99999999999999
    vertex -3.701536184106029 -7.805036815597233 17.28940724018773
  endloop
endfacet
facet normal 0.292859 -0.953124 -0.0760758
  outer loop
    vertex -1.499999999999999 9.461167855991887 5.333333333333321
    vertex -1.499999999999999 9.248321800666535 7.999999999999979
    vertex -4.005926010065559 8.572499767705427 6.820392218435344
  endloop
endfacet
facet normal 0.283394 0.955963 -0.0763024
  outer loop
    vertex -1.499999999999999 -9.461167855991887 5.333333333333314
    vertex -1.499999999999999 -9.674013911317241 2.666666666666661
    vertex -3.948025726054221 -8.824420377875441 4.218706964524245
  endloop
endfacet
facet normal 0.775399 0.63023 -0.0395745
  outer loop
    vertex -6.273110980214065 -6.84140154441588 9.11310907113123
    vertex -7.95703408681938 -4.762310935708884 9.229185624474889
    vertex -6.966572798678356 -5.830428745121717 11.62573798758472
  endloop
endfacet
facet normal 0.299487 0.950576 -0.0819299
  outer loop
    vertex -1.499999999999999 -8.609783634690471 15.99999999999999
    vertex -3.71280939374971 -8.03224378992592 14.61207461689879
    vertex -3.701536184106029 -7.805036815597233 17.28940724018773
  endloop
endfacet
facet normal 0.935441 -0.351759 -0.0348818
  outer loop
    vertex -8.669331737620093 3.205477251344477 9.616939910603834
    vertex -9.223339097921842 1.969252985409565 7.226343214308218
    vertex -8.241224999785505 4.574081722530998 7.296238299825323
  endloop
endfacet
facet normal 0.303413 -0.949999 -0.0737733
  outer loop
    vertex -3.73927172869428 7.802323570133439 17.11406082835177
    vertex -1.499999999999999 8.396937579365117 18.66666666666666
    vertex -3.571006051437481 7.639841714278036 19.89842248622755
  endloop
endfacet
facet normal 0.851062 0.523534 -0.0400719
  outer loop
    vertex -8.3280755531152 -3.609030471330736 11.7318751729333
    vertex -7.455778958698216 -4.850491138624628 14.03853335371079
    vertex -6.966572798678356 -5.830428745121717 11.62573798758472
  endloop
endfacet
facet normal 0.794571 -0.606072 -0.0365127
  outer loop
    vertex -6.577853153959044 6.760305190618963 7.204681050315374
    vertex -7.317994841299508 5.64378135143063 9.631215015918475
    vertex -8.241224999785505 4.574081722530998 7.296238299825323
  endloop
endfacet
facet normal 0.700135 -0.711438 -0.0605522
  outer loop
    vertex -5.36460493449584 6.342476365489143 21.5072744434535
    vertex -6.678682501642364 5.258444385072043 19.04972619745851
    vertex -5.136268595437562 6.798977160362616 18.78390935721913
  endloop
endfacet
facet normal 0.868299 -0.4805 -0.123191
  outer loop
    vertex -7.317994841299508 5.64378135143063 9.631215015918475
    vertex -8.669331737620093 3.205477251344477 9.616939910603834
    vertex -8.241224999785505 4.574081722530998 7.296238299825323
  endloop
endfacet
facet normal 0.674087 0.737928 -0.0326921
  outer loop
    vertex -5.504075320736949 -8.135016513805084 2.256730560861879
    vertex -7.598357214881501 -6.220648397385154 2.285399801128785
    vertex -6.553348551420488 -7.077060346104439 4.501731330830701
  endloop
endfacet
facet normal 0.30326 0.949828 -0.0765542
  outer loop
    vertex -3.593953062524588 -7.629471400819089 19.89386989508787
    vertex -1.499999999999999 -8.396937579365117 18.66666666666666
    vertex -3.701536184106029 -7.805036815597233 17.28940724018773
  endloop
endfacet
facet normal 0.647034 -0.752887 -0.120453
  outer loop
    vertex -6.583762800289198 7.5268896225152 0
    vertex -5.33665668708629 8.257439483066015 2.132776764270857
    vertex -7.388749743144884 6.464505486878105 2.316270170823618
  endloop
endfacet
facet normal 0.27086 -0.959567 -0.07659
  outer loop
    vertex -1.499999999999999 9.674013911317241 2.666666666666661
    vertex -1.499999999999999 9.461167855991887 5.333333333333321
    vertex -3.727901926051711 8.944474691550553 3.92784190612667
  endloop
endfacet
facet normal 0.827937 -0.548905 -0.11499
  outer loop
    vertex -8.835053067167236 4.268956229553897 2.383230596328925
    vertex -8.42929478826175 5.380240642627662 0
    vertex -7.388749743144884 6.464505486878105 2.316270170823618
  endloop
endfacet
facet normal 0.981507 -0.187132 -0.0403299
  outer loop
    vertex -9.223339097921842 1.969252985409565 7.226343214308218
    vertex -9.608999331874482 0.4637886293677268 4.825953142956113
    vertex -9.105441317101681 3.109225764605688 4.806107801261779
  endloop
endfacet
facet normal 0.281778 -0.954696 -0.0956879
  outer loop
    vertex -1.499999999999999 9.461167855991887 5.333333333333321
    vertex -4.005926010065559 8.572499767705427 6.820392218435344
    vertex -3.727901926051711 8.944474691550553 3.92784190612667
  endloop
endfacet
facet normal 0.524147 -0.845986 -0.0978612
  outer loop
    vertex -3.571006051437481 7.639841714278036 19.89842248622755
    vertex -5.36460493449584 6.342476365489143 21.5072744434535
    vertex -5.136268595437562 6.798977160362616 18.78390935721913
  endloop
endfacet
facet normal 0.663765 0.739169 -0.114216
  outer loop
    vertex -5.027268454435813 -7.55702258953279 11.72203886667117
    vertex -6.273110980214065 -6.84140154441588 9.11310907113123
    vertex -6.966572798678356 -5.830428745121717 11.62573798758472
  endloop
endfacet
facet normal 0.94638 -0.300514 -0.118557
  outer loop
    vertex -9.59929549192589 2.802414326735231 0
    vertex -8.835053067167236 4.268956229553897 2.383230596328925
    vertex -9.680018778814334 1.614839864625247 2.365854453160749
  endloop
endfacet
facet normal 0.844385 0.523062 -0.115849
  outer loop
    vertex -7.95703408681938 -4.762310935708884 9.229185624474889
    vertex -8.3280755531152 -3.609030471330736 11.7318751729333
    vertex -6.966572798678356 -5.830428745121717 11.62573798758472
  endloop
endfacet
facet normal 0.992668 -0.0227795 -0.11871
  outer loop
    vertex -9.748470606124901 -1.15770807627567 2.325481969885009
    vertex -10 -5.993816554195064e-14 0
    vertex -9.680018778814334 1.614839864625247 2.365854453160749
  endloop
endfacet
facet normal 0.855207 0.516958 -0.0370924
  outer loop
    vertex -8.325250376745993 -4.84908902524977 4.64150926180279
    vertex -7.598357214881501 -6.220648397385154 2.285399801128785
    vertex -9.036895198015788 -3.83971062572049 2.30146675502228
  endloop
endfacet
facet normal 0.994645 0.0972363 -0.0350277
  outer loop
    vertex -9.608999331874482 0.4637886293677268 4.825953142956113
    vertex -9.404496225764364 -0.794050266016521 7.141274683687915
    vertex -9.338138948512917 -2.360034497254101 4.678405510095454
  endloop
endfacet
facet normal 0.757811 -0.65151 -0.0354563
  outer loop
    vertex -8.42929478826175 5.380240642627662 0
    vertex -6.583762800289198 7.5268896225152 0
    vertex -7.388749743144884 6.464505486878105 2.316270170823618
  endloop
endfacet
facet normal 0.461202 -0.881722 -0.0992957
  outer loop
    vertex -5.051606555381534 7.281543483225166 14.44414883913745
    vertex -3.717572437826924 8.260594273508604 11.94664547131547
    vertex -3.073282313170929 8.29933384608227 14.5952020298871
  endloop
endfacet
facet normal 0.884227 -0.465904 -0.0328019
  outer loop
    vertex -7.721171752893881 5.731468674963805 4.876065492742265
    vertex -8.241224999785505 4.574081722530998 7.296238299825323
    vertex -9.105441317101681 3.109225764605688 4.806107801261779
  endloop
endfacet
facet normal 0.77283 0.622403 -0.12389
  outer loop
    vertex -7.598357214881501 -6.220648397385154 2.285399801128785
    vertex -8.325250376745993 -4.84908902524977 4.64150926180279
    vertex -6.553348551420488 -7.077060346104439 4.501731330830701
  endloop
endfacet
facet normal 0.449812 0.887715 -0.0981413
  outer loop
    vertex -3.722012748455355 -8.488256402045039 9.281161383238915
    vertex -5.027268454435813 -7.55702258953279 11.72203886667117
    vertex -3.076789121356423 -8.518240105484361 11.96721005850619
  endloop
endfacet
facet normal 0.849383 0.513997 -0.119812
  outer loop
    vertex -7.598357214881501 -6.220648397385154 2.285399801128785
    vertex -8.429294788261764 -5.380240642627787 0
    vertex -9.036895198015788 -3.83971062572049 2.30146675502228
  endloop
endfacet
facet normal 0.925371 0.377134 -0.0381812
  outer loop
    vertex -8.77913113277017 -3.498872402554058 6.977849195695521
    vertex -8.325250376745993 -4.84908902524977 4.64150926180279
    vertex -9.338138948512917 -2.360034497254101 4.678405510095454
  endloop
endfacet
facet normal 0.959399 0.25561 -0.119238
  outer loop
    vertex -9.599295491925897 -2.802414326735353 0
    vertex -9.748470606124901 -1.15770807627567 2.325481969885009
    vertex -9.036895198015788 -3.83971062572049 2.30146675502228
  endloop
endfacet
facet normal 0.781308 0.62335 -0.031501
  outer loop
    vertex -8.325250376745993 -4.84908902524977 4.64150926180279
    vertex -7.429027818340105 -5.863017135288911 6.806344743520471
    vertex -6.553348551420488 -7.077060346104439 4.501731330830701
  endloop
endfacet
facet normal 0.930166 -0.34753 -0.118381
  outer loop
    vertex -8.241224999785505 4.574081722530998 7.296238299825323
    vertex -9.223339097921842 1.969252985409565 7.226343214308218
    vertex -9.105441317101681 3.109225764605688 4.806107801261779
  endloop
endfacet
facet normal 0.71629 -0.696414 -0.0439968
  outer loop
    vertex -6.577853153959044 6.760305190618963 7.204681050315374
    vertex -7.721171752893881 5.731468674963805 4.876065492742265
    vertex -5.912439429788065 7.606693440313266 4.640686261624749
  endloop
endfacet
facet normal 0.989245 -0.141448 -0.0372485
  outer loop
    vertex -10 -5.993816554195064e-14 0
    vertex -9.59929549192589 2.802414326735231 0
    vertex -9.680018778814334 1.614839864625247 2.365854453160749
  endloop
endfacet
facet normal 0.294088 -0.952748 -0.0760458
  outer loop
    vertex -1.499999999999999 8.184091524039763 21.33333333333333
    vertex -1.499999999999999 7.971245468714409 24
    vertex -3.340022729704494 7.555215005777461 22.09646208845627
  endloop
endfacet
facet normal 0.268628 0.957794 -0.102322
  outer loop
    vertex -3.722012748455355 -8.488256402045039 9.281161383238915
    vertex -1.499999999999999 -9.248321800666535 7.999999999999979
    vertex -3.234615739892263 -8.908071283960936 6.631014403440281
  endloop
endfacet
facet normal 0.274656 -0.956019 -0.102918
  outer loop
    vertex -1.499999999999999 9.035475745341181 10.66666666666664
    vertex -3.717572437826924 8.260594273508604 11.94664547131547
    vertex -3.237613702801745 8.681249499359746 9.319976520663829
  endloop
endfacet
facet normal 0.288253 0.9569 -0.0353867
  outer loop
    vertex -1.499999999999999 -9.886859966642593 0
    vertex -4.210602125483375 -9.070326881699263 0
    vertex -3.398949701035327 -9.244128971328113 1.911745005282098
  endloop
endfacet
facet normal 0.271414 0.961318 -0.046932
  outer loop
    vertex -1.499999999999999 -9.461167855991887 5.333333333333314
    vertex -3.948025726054221 -8.824420377875441 4.218706964524245
    vertex -3.234615739892263 -8.908071283960936 6.631014403440281
  endloop
endfacet
facet normal 0.348414 0.928173 -0.130775
  outer loop
    vertex -4.115842136679394 -6.989320269413485 24.00000000000012
    vertex -1.5 -7.971245468714409 24
    vertex -3.402107659287093 -7.530655469454207 22.05943801209686
  endloop
endfacet
facet normal 0.279462 -0.95914 -0.0441706
  outer loop
    vertex -4.005926010065559 8.572499767705427 6.820392218435344
    vertex -1.499999999999999 9.248321800666535 7.999999999999979
    vertex -3.237613702801745 8.681249499359746 9.319976520663829
  endloop
endfacet
facet normal 0.27821 0.954376 -0.108465
  outer loop
    vertex -3.71280939374971 -8.03224378992592 14.61207461689879
    vertex -1.499999999999999 -8.822629690015827 13.33333333333331
    vertex -3.076789121356423 -8.518240105484361 11.96721005850619
  endloop
endfacet
facet normal 0.270543 0.961178 -0.0542586
  outer loop
    vertex -1.499999999999999 -9.035475745341181 10.66666666666664
    vertex -3.722012748455355 -8.488256402045039 9.281161383238915
    vertex -3.076789121356423 -8.518240105484361 11.96721005850619
  endloop
endfacet
facet normal 0.297902 0.95157 -0.0759517
  outer loop
    vertex -1.5 -7.971245468714409 24
    vertex -1.499999999999999 -8.184091524039763 21.33333333333333
    vertex -3.402107659287093 -7.530655469454207 22.05943801209686
  endloop
endfacet
facet normal 0.276473 -0.959547 -0.0532201
  outer loop
    vertex -3.717572437826924 8.260594273508604 11.94664547131547
    vertex -1.499999999999999 8.822629690015827 13.33333333333331
    vertex -3.073282313170929 8.29933384608227 14.5952020298871
  endloop
endfacet
facet normal 0.287445 -0.951262 -0.111698
  outer loop
    vertex -1.499999999999999 8.609783634690471 15.99999999999999
    vertex -3.73927172869428 7.802323570133439 17.11406082835177
    vertex -3.073282313170929 8.29933384608227 14.5952020298871
  endloop
endfacet
facet normal 0.246489 -0.966073 -0.0771093
  outer loop
    vertex -1.499999999999999 9.886859966642593 -3.469446951953614e-15
    vertex -1.499999999999999 9.674013911317241 2.666666666666661
    vertex -3.353302841955834 9.273701289497756 1.757730736286814
  endloop
endfacet
facet normal 0.249178 0.965388 -0.0770546
  outer loop
    vertex -1.499999999999999 -9.674013911317241 2.666666666666661
    vertex -1.499999999999999 -9.886859966642593 0
    vertex -3.398949701035327 -9.244128971328113 1.911745005282098
  endloop
endfacet
facet normal 0.965568 0.230527 -0.120563
  outer loop
    vertex -9.404496225764364 -0.794050266016521 7.141274683687915
    vertex -8.77913113277017 -3.498872402554058 6.977849195695521
    vertex -9.338138948512917 -2.360034497254101 4.678405510095454
  endloop
endfacet
facet normal 0.754984 0.653028 -0.0596096
  outer loop
    vertex -7.455778958698216 -4.850491138624628 14.03853335371079
    vertex -6.016845014172621 -6.312703578111157 16.24467978820238
    vertex -5.865476576674759 -6.708893014832776 13.82155024004579
  endloop
endfacet
facet normal 0.711009 0.695058 -0.106587
  outer loop
    vertex -6.016845014172621 -6.312703578111157 16.24467978820238
    vertex -6.847474468482602 -5.061376317271357 18.86375301861603
    vertex -5.242137508590028 -6.721260916783173 18.74828149668816
  endloop
endfacet
facet normal 0.91 0.413023 -0.0362193
  outer loop
    vertex -8.429294788261764 -5.380240642627787 0
    vertex -9.599295491925897 -2.802414326735353 0
    vertex -9.036895198015788 -3.83971062572049 2.30146675502228
  endloop
endfacet
facet normal 0.348269 -0.927786 -0.133875
  outer loop
    vertex -1.499999999999999 7.971245468714409 24
    vertex -4.115842136679375 6.989320269413493 24.00000000000011
    vertex -3.340022729704494 7.555215005777461 22.09646208845627
  endloop
endfacet
facet normal 0.288305 -0.957072 -0.0298794
  outer loop
    vertex -4.210602125483351 9.070326881699122 0
    vertex -1.499999999999999 9.886859966642593 -3.469446951953614e-15
    vertex -3.353302841955834 9.273701289497756 1.757730736286814
  endloop
endfacet
facet normal 0.530054 0.846957 -0.0413125
  outer loop
    vertex -5.436292677995183 -6.287516476286642 21.44598484347906
    vertex -4.115842136679394 -6.989320269413485 24.00000000000012
    vertex -3.402107659287093 -7.530655469454207 22.05943801209686
  endloop
endfacet
facet normal 0.678747 0.723921 -0.123451
  outer loop
    vertex -7.429027818340105 -5.863017135288911 6.806344743520471
    vertex -5.384571075670883 -7.785592063340036 6.772935479012415
    vertex -6.553348551420488 -7.077060346104439 4.501731330830701
  endloop
endfacet
facet normal 0.492441 -0.863247 -0.110935
  outer loop
    vertex -5.33665668708629 8.257439483066015 2.132776764270857
    vertex -3.727901926051711 8.944474691550553 3.92784190612667
    vertex -5.912439429788065 7.606693440313266 4.640686261624749
  endloop
endfacet
facet normal 0.297328 -0.952357 -0.0679117
  outer loop
    vertex -3.571006051437481 7.639841714278036 19.89842248622755
    vertex -1.499999999999999 8.184091524039763 21.33333333333333
    vertex -3.340022729704494 7.555215005777461 22.09646208845627
  endloop
endfacet
facet normal 0.538271 0.838379 -0.0859405
  outer loop
    vertex -3.593953062524588 -7.629471400819089 19.89386989508787
    vertex -5.436292677995183 -6.287516476286642 21.44598484347906
    vertex -3.402107659287093 -7.530655469454207 22.05943801209686
  endloop
endfacet
facet normal 0.250114 0.965147 -0.0770354
  outer loop
    vertex -1.499999999999999 -9.248321800666535 7.999999999999979
    vertex -1.499999999999999 -9.461167855991887 5.333333333333314
    vertex -3.234615739892263 -8.908071283960936 6.631014403440281
  endloop
endfacet
facet normal 0.256046 -0.9636 -0.0769119
  outer loop
    vertex -1.499999999999999 9.248321800666535 7.999999999999979
    vertex -1.499999999999999 9.035475745341181 10.66666666666664
    vertex -3.237613702801745 8.681249499359746 9.319976520663829
  endloop
endfacet
facet normal 0.530634 -0.842997 -0.0882185
  outer loop
    vertex -5.36460493449584 6.342476365489143 21.5072744434535
    vertex -3.571006051437481 7.639841714278036 19.89842248622755
    vertex -3.340022729704494 7.555215005777461 22.09646208845627
  endloop
endfacet
facet normal 0.522578 0.848941 -0.0788129
  outer loop
    vertex -3.593953062524588 -7.629471400819089 19.89386989508787
    vertex -3.701536184106029 -7.805036815597233 17.28940724018773
    vertex -5.242137508590028 -6.721260916783173 18.74828149668816
  endloop
endfacet
facet normal 0.522091 -0.851929 -0.0404791
  outer loop
    vertex -4.115842136679375 6.989320269413493 24.00000000000011
    vertex -5.36460493449584 6.342476365489143 21.5072744434535
    vertex -3.340022729704494 7.555215005777461 22.09646208845627
  endloop
endfacet
facet normal 0.257296 -0.961 -0.101379
  outer loop
    vertex -1.499999999999999 9.674013911317241 2.666666666666661
    vertex -3.727901926051711 8.944474691550553 3.92784190612667
    vertex -3.353302841955834 9.273701289497756 1.757730736286814
  endloop
endfacet
facet normal 0.449115 0.886668 -0.110067
  outer loop
    vertex -4.210602125483375 -9.070326881699263 0
    vertex -5.504075320736949 -8.135016513805084 2.256730560861879
    vertex -3.398949701035327 -9.244128971328113 1.911745005282098
  endloop
endfacet
facet normal 0.252872 0.964433 -0.0769784
  outer loop
    vertex -1.499999999999999 -8.822629690015827 13.33333333333331
    vertex -1.499999999999999 -9.035475745341181 10.66666666666664
    vertex -3.076789121356423 -8.518240105484361 11.96721005850619
  endloop
endfacet
facet normal 0.436754 -0.892866 -0.109711
  outer loop
    vertex -5.33665668708629 8.257439483066015 2.132776764270857
    vertex -4.210602125483351 9.070326881699122 0
    vertex -3.353302841955834 9.273701289497756 1.757730736286814
  endloop
endfacet
facet normal 0.300096 0.951338 -0.0699952
  outer loop
    vertex -1.499999999999999 -8.184091524039763 21.33333333333333
    vertex -3.593953062524588 -7.629471400819089 19.89386989508787
    vertex -3.402107659287093 -7.530655469454207 22.05943801209686
  endloop
endfacet
facet normal 0.692931 -0.712655 -0.109405
  outer loop
    vertex -6.678682501642364 5.258444385072043 19.04972619745851
    vertex -5.969825700454304 6.306889613602721 16.70987879227782
    vertex -5.136268595437562 6.798977160362616 18.78390935721913
  endloop
endfacet
facet normal 0.258634 -0.962913 -0.0768571
  outer loop
    vertex -1.499999999999999 8.822629690015827 13.33333333333331
    vertex -1.499999999999999 8.609783634690471 15.99999999999999
    vertex -3.073282313170929 8.29933384608227 14.5952020298871
  endloop
endfacet
facet normal 0.515801 -0.852877 -0.0809408
  outer loop
    vertex -3.73927172869428 7.802323570133439 17.11406082835177
    vertex -3.571006051437481 7.639841714278036 19.89842248622755
    vertex -5.136268595437562 6.798977160362616 18.78390935721913
  endloop
endfacet
facet normal 0.2616 0.958639 -0.112144
  outer loop
    vertex -3.948025726054221 -8.824420377875441 4.218706964524245
    vertex -1.499999999999999 -9.674013911317241 2.666666666666661
    vertex -3.398949701035327 -9.244128971328113 1.911745005282098
  endloop
endfacet
facet normal 0.560221 -0.827845 -0.0287382
  outer loop
    vertex -5.969825700454304 6.306889613602721 16.70987879227782
    vertex -3.73927172869428 7.802323570133439 17.11406082835177
    vertex -5.136268595437562 6.798977160362616 18.78390935721913
  endloop
endfacet
facet normal 0.446472 -0.892891 -0.0583912
  outer loop
    vertex -3.727901926051711 8.944474691550553 3.92784190612667
    vertex -5.33665668708629 8.257439483066015 2.132776764270857
    vertex -3.353302841955834 9.273701289497756 1.757730736286814
  endloop
endfacet
facet normal 0.458784 0.887015 -0.0521814
  outer loop
    vertex -5.504075320736949 -8.135016513805084 2.256730560861879
    vertex -3.948025726054221 -8.824420377875441 4.218706964524245
    vertex -3.398949701035327 -9.244128971328113 1.911745005282098
  endloop
endfacet
endsolid Created by Gmsh
