solid Created by Gmsh
facet normal 1 0 -0
  outer loop
    vertex -1.499999999999999 4.204967503627835 14.37696984054919
    vertex -1.499999999999999 6.058011978630228 17.10898091840469
    vertex -1.499999999999999 2.917017080247748 16.68650566724375
  endloop
endfacet
facet normal 1 0 -0
  outer loop
    vertex -1.499999999999999 1.485102412873626 18.89984074397418
    vertex -1.499999999999999 3.985622734357208 21.69889964143058
    vertex -1.499999999999999 1.221537646451252 21.65470711795874
  endloop
endfacet
facet normal 1 0 0
  outer loop
    vertex -1.499999999999999 3.985622734357208 21.69889964143058
    vertex -1.499999999999999 1.485102412873626 18.89984074397418
    vertex -1.499999999999999 4.160040976582839 18.88642992756666
  endloop
endfacet
facet normal 1 0 0
  outer loop
    vertex -1.499999999999999 -1.43405557263253 21.6555449981284
    vertex -1.499999999999999 -1.188888385759324 18.92049247603378
    vertex -1.499999999999999 1.221537646451252 21.65470711795874
  endloop
endfacet
facet normal 1 -0 0
  outer loop
    vertex -1.499999999999999 -1.188888385759324 18.92049247603378
    vertex -1.499999999999999 1.485102412873626 18.89984074397418
    vertex -1.499999999999999 1.221537646451252 21.65470711795874
  endloop
endfacet
facet normal 1 0 0
  outer loop
    vertex -1.499999999999999 -1.188888385759324 18.92049247603378
    vertex -1.499999999999999 -1.43405557263253 21.6555449981284
    vertex -1.499999999999999 -3.763691055366604 18.89419739517013
  endloop
endfacet
facet normal 1 0 -0
  outer loop
    vertex -1.499999999999999 -3.763691055366604 18.89419739517013
    vertex -1.499999999999999 -1.43405557263253 21.6555449981284
    vertex -1.499999999999999 -4.106364605389242 21.66924537073924
  endloop
endfacet
facet normal 1 0 0
  outer loop
    vertex -1.499999999999999 6.058011978630228 17.10898091840469
    vertex -1.499999999999999 4.204967503627835 14.37696984054919
    vertex -1.499999999999999 6.748453361118417 14.10885285908384
  endloop
endfacet
facet normal 1 0 0
  outer loop
    vertex -1.499999999999999 -4.521374722752373 4.997719370768507
    vertex -1.499999999999999 -6.997909010026602 6.507665484040587
    vertex -1.499999999999999 -7.373684296747257 4.066961852093463
  endloop
endfacet
facet normal 1 0 0
  outer loop
    vertex -1.499999999999999 -4.217921719607076 9.931995276371589
    vertex -1.499999999999999 -6.634406226844125 11.60648557011585
    vertex -1.499999999999999 -6.851956131796239 9.041459911968024
  endloop
endfacet
facet normal 1 0 0
  outer loop
    vertex -1.499999999999999 2.917017080247748 16.68650566724375
    vertex -1.499999999999999 6.058011978630228 17.10898091840469
    vertex -1.499999999999999 4.160040976582839 18.88642992756666
  endloop
endfacet
facet normal 1 0 0
  outer loop
    vertex -1.499999999999999 6.058011978630228 17.10898091840469
    vertex -1.499999999999999 8.396937579365117 18.66666666666666
    vertex -1.499999999999999 6.207867648576578 20.00875052500678
  endloop
endfacet
facet normal 1 0 0
  outer loop
    vertex -1.499999999999999 7.067009202945846 6.524054435755537
    vertex -1.499999999999999 4.594283322109736 4.978806293111785
    vertex -1.499999999999999 7.394503281419269 4.102274302592233
  endloop
endfacet
facet normal 1 -0 0
  outer loop
    vertex -1.499999999999999 -6.634406226844125 11.60648557011585
    vertex -1.499999999999999 -4.217921719607076 9.931995276371589
    vertex -1.499999999999999 -4.623486976477271 12.36263562303318
  endloop
endfacet
facet normal 1 0 -0
  outer loop
    vertex -1.499999999999999 -5.5427913253894 2.250566437768
    vertex -1.499999999999999 -4.521374722752373 4.997719370768507
    vertex -1.499999999999999 -7.373684296747257 4.066961852093463
  endloop
endfacet
facet normal 1 -0 0
  outer loop
    vertex -1.499999999999999 -6.997909010026602 6.507665484040587
    vertex -1.499999999999999 -4.521374722752373 4.997719370768507
    vertex -1.499999999999999 -4.977702288291923 7.535946474613501
  endloop
endfacet
facet normal 1 -0 0
  outer loop
    vertex -1.499999999999999 4.160040976582839 18.88642992756666
    vertex -1.499999999999999 6.058011978630228 17.10898091840469
    vertex -1.499999999999999 6.207867648576578 20.00875052500678
  endloop
endfacet
facet normal 1 0 0
  outer loop
    vertex -1.499999999999999 4.594283322109736 4.978806293111785
    vertex -1.499999999999999 7.067009202945846 6.524054435755537
    vertex -1.499999999999999 5.050543295828199 7.533031690618989
  endloop
endfacet
facet normal 1 0 0
  outer loop
    vertex -1.499999999999999 6.778028661580189 9.437175869029574
    vertex -1.499999999999999 5.331052652942196 11.95074764529409
    vertex -1.499999999999999 4.033906597026339 9.607319665067479
  endloop
endfacet
facet normal 1 0 0
  outer loop
    vertex -1.499999999999999 4.594283322109736 4.978806293111785
    vertex -1.499999999999999 5.572189844076515 2.238799359635963
    vertex -1.499999999999999 7.394503281419269 4.102274302592233
  endloop
endfacet
facet normal 1 0 0
  outer loop
    vertex -1.499999999999999 -4.521374722752373 4.997719370768507
    vertex -1.499999999999999 -5.5427913253894 2.250566437768
    vertex -1.499999999999999 -2.819400066941061 2.427329095544024
  endloop
endfacet
facet normal 1 0 0
  outer loop
    vertex -1.499999999999999 -6.338593059462225 17.35390065503271
    vertex -1.499999999999999 -3.763691055366604 18.89419739517013
    vertex -1.499999999999999 -6.165763253196147 19.94389176408459
  endloop
endfacet
facet normal 1 0 0
  outer loop
    vertex -1.499999999999999 5.331052652942196 11.95074764529409
    vertex -1.499999999999999 6.778028661580189 9.437175869029574
    vertex -1.499999999999999 7.464274706803947 11.88308541692174
  endloop
endfacet
facet normal 1 0 0
  outer loop
    vertex -1.499999999999999 0.02202267853340708 2.432253465601963
    vertex -1.499999999999999 2.844356494992318 2.435082342788667
    vertex -1.499999999999999 1.434959263876192 4.84225377999927
  endloop
endfacet
facet normal 1 0 0
  outer loop
    vertex -1.499999999999999 8.396937579365117 18.66666666666666
    vertex -1.499999999999999 8.184091524039763 21.33333333333333
    vertex -1.499999999999999 6.207867648576578 20.00875052500678
  endloop
endfacet
facet normal 1 0 0
  outer loop
    vertex -1.499999999999999 -2.657081822904785 24
    vertex -1.499999999999999 -5.314163645809592 24
    vertex -1.499999999999999 -4.106364605389242 21.66924537073924
  endloop
endfacet
facet normal 1 0 0
  outer loop
    vertex -1.499999999999999 -1.43405557263253 21.6555449981284
    vertex -1.499999999999999 -2.657081822904785 24
    vertex -1.499999999999999 -4.106364605389242 21.66924537073924
  endloop
endfacet
facet normal 1 -0 0
  outer loop
    vertex -1.499999999999999 -5.5427913253894 2.250566437768
    vertex -1.499999999999999 -4.237225699989674 0
    vertex -1.499999999999999 -2.819400066941061 2.427329095544024
  endloop
endfacet
facet normal 1 0 0
  outer loop
    vertex -1.499999999999999 0.02202267853340708 2.432253465601963
    vertex -1.499999999999999 -1.337395851688395 4.856921943476163
    vertex -1.499999999999999 -2.819400066941061 2.427329095544024
  endloop
endfacet
facet normal 1 0 0
  outer loop
    vertex -1.499999999999999 -1.337395851688395 4.856921943476163
    vertex -1.499999999999999 -4.521374722752373 4.997719370768507
    vertex -1.499999999999999 -2.819400066941061 2.427329095544024
  endloop
endfacet
facet normal 1 -0 0
  outer loop
    vertex -1.499999999999999 0.02202267853340708 2.432253465601963
    vertex -1.499999999999999 1.412408566663236 0
    vertex -1.499999999999999 2.844356494992318 2.435082342788667
  endloop
endfacet
facet normal 1 -0 0
  outer loop
    vertex -1.499999999999999 2.844356494992318 2.435082342788667
    vertex -1.499999999999999 5.572189844076515 2.238799359635963
    vertex -1.499999999999999 4.594283322109736 4.978806293111785
  endloop
endfacet
facet normal 1 0 0
  outer loop
    vertex -1.499999999999999 1.434900060109837 9.5862974382893
    vertex -1.499999999999999 0.0661470021251976 7.229720300957197
    vertex -1.499999999999999 2.818087323004947 7.217866000487794
  endloop
endfacet
facet normal 1 -0 0
  outer loop
    vertex -1.499999999999999 1.434959263876192 4.84225377999927
    vertex -1.499999999999999 2.844356494992318 2.435082342788667
    vertex -1.499999999999999 4.594283322109736 4.978806293111785
  endloop
endfacet
facet normal 1 0 -0
  outer loop
    vertex -1.499999999999999 0.02202267853340708 2.432253465601963
    vertex -1.499999999999999 1.434959263876192 4.84225377999927
    vertex -1.499999999999999 -1.337395851688395 4.856921943476163
  endloop
endfacet
facet normal 1 -0 0
  outer loop
    vertex -1.499999999999999 -1.337395851688395 4.856921943476163
    vertex -1.499999999999999 1.434959263876192 4.84225377999927
    vertex -1.499999999999999 0.0661470021251976 7.229720300957197
  endloop
endfacet
facet normal 1 0 0
  outer loop
    vertex -1.499999999999999 0.0661470021251976 7.229720300957197
    vertex -1.499999999999999 1.434959263876192 4.84225377999927
    vertex -1.499999999999999 2.818087323004947 7.217866000487794
  endloop
endfacet
facet normal 1 0 -0
  outer loop
    vertex -1.499999999999999 4.237225699989684 0
    vertex -1.499999999999999 5.572189844076515 2.238799359635963
    vertex -1.499999999999999 2.844356494992318 2.435082342788667
  endloop
endfacet
facet normal 1 0 -0
  outer loop
    vertex -1.499999999999999 -1.337395851688395 4.856921943476163
    vertex -1.499999999999999 0.0661470021251976 7.229720300957197
    vertex -1.499999999999999 -2.59949989632651 7.298728844211447
  endloop
endfacet
facet normal 1 0 0
  outer loop
    vertex -1.499999999999999 4.237225699989684 0
    vertex -1.499999999999999 7.06204283331614 0
    vertex -1.499999999999999 5.572189844076515 2.238799359635963
  endloop
endfacet
facet normal 1 0 0
  outer loop
    vertex -1.499999999999999 1.434959263876192 4.84225377999927
    vertex -1.499999999999999 4.594283322109736 4.978806293111785
    vertex -1.499999999999999 2.818087323004947 7.217866000487794
  endloop
endfacet
facet normal 1 0 0
  outer loop
    vertex -1.499999999999999 -7.062042833316145 0
    vertex -1.499999999999999 -4.237225699989674 0
    vertex -1.499999999999999 -5.5427913253894 2.250566437768
  endloop
endfacet
facet normal 1 -0 0
  outer loop
    vertex -1.499999999999999 -2.59949989632651 7.298728844211447
    vertex -1.499999999999999 0.0661470021251976 7.229720300957197
    vertex -1.499999999999999 -1.265069721540106 9.608670943667027
  endloop
endfacet
facet normal 1 0 0
  outer loop
    vertex -1.499999999999999 -3.763691055366604 18.89419739517013
    vertex -1.499999999999999 -4.106364605389242 21.66924537073924
    vertex -1.499999999999999 -6.165763253196147 19.94389176408459
  endloop
endfacet
facet normal 1 0 0
  outer loop
    vertex -1.499999999999999 -1.41240856666321 0
    vertex -1.499999999999999 1.412408566663236 0
    vertex -1.499999999999999 0.02202267853340708 2.432253465601963
  endloop
endfacet
facet normal 1 0 -0
  outer loop
    vertex -1.499999999999999 -2.59949989632651 7.298728844211447
    vertex -1.499999999999999 -1.265069721540106 9.608670943667027
    vertex -1.499999999999999 -4.217921719607076 9.931995276371589
  endloop
endfacet
facet normal 1 -0 0
  outer loop
    vertex -1.499999999999999 -1.265069721540106 9.608670943667027
    vertex -1.499999999999999 1.434900060109837 9.5862974382893
    vertex -1.499999999999999 0.1000139020652164 11.93521571985183
  endloop
endfacet
facet normal 1 0 0
  outer loop
    vertex -1.499999999999999 -1.265069721540106 9.608670943667027
    vertex -1.499999999999999 0.0661470021251976 7.229720300957197
    vertex -1.499999999999999 1.434900060109837 9.5862974382893
  endloop
endfacet
facet normal 1 0 -0
  outer loop
    vertex -1.499999999999999 -1.41240856666321 0
    vertex -1.499999999999999 0.02202267853340708 2.432253465601963
    vertex -1.499999999999999 -2.819400066941061 2.427329095544024
  endloop
endfacet
facet normal 1 -0 0
  outer loop
    vertex -1.499999999999999 -4.217921719607076 9.931995276371589
    vertex -1.499999999999999 -1.265069721540106 9.608670943667027
    vertex -1.499999999999999 -2.592789231524247 11.96249623663388
  endloop
endfacet
facet normal 1 -0 0
  outer loop
    vertex -1.499999999999999 1.434900060109837 9.5862974382893
    vertex -1.499999999999999 2.818087323004947 7.217866000487794
    vertex -1.499999999999999 4.033906597026339 9.607319665067479
  endloop
endfacet
facet normal 1 0 0
  outer loop
    vertex -1.499999999999999 1.412408566663236 0
    vertex -1.499999999999999 4.237225699989684 0
    vertex -1.499999999999999 2.844356494992318 2.435082342788667
  endloop
endfacet
facet normal 1 0 0
  outer loop
    vertex -1.499999999999999 0.1000139020652164 11.93521571985183
    vertex -1.499999999999999 1.434900060109837 9.5862974382893
    vertex -1.499999999999999 2.790827588692673 11.91879934668513
  endloop
endfacet
facet normal 1 0 0
  outer loop
    vertex -1.499999999999999 1.485102412873626 18.89984074397418
    vertex -1.499999999999999 0.1337294468941278 16.58997675748466
    vertex -1.499999999999999 2.917017080247748 16.68650566724375
  endloop
endfacet
facet normal 1 0 0
  outer loop
    vertex -1.499999999999999 1.485102412873626 18.89984074397418
    vertex -1.499999999999999 2.917017080247748 16.68650566724375
    vertex -1.499999999999999 4.160040976582839 18.88642992756666
  endloop
endfacet
facet normal 1 -0 0
  outer loop
    vertex -1.499999999999999 0.1337294468941278 16.58997675748466
    vertex -1.499999999999999 1.460250162877828 14.25683581548311
    vertex -1.499999999999999 2.917017080247748 16.68650566724375
  endloop
endfacet
facet normal 1 -0 0
  outer loop
    vertex -1.499999999999999 0.1000139020652164 11.93521571985183
    vertex -1.499999999999999 2.790827588692673 11.91879934668513
    vertex -1.499999999999999 1.460250162877828 14.25683581548311
  endloop
endfacet
facet normal 1 -0 0
  outer loop
    vertex -1.499999999999999 -1.226072920985393 14.27767317220967
    vertex -1.499999999999999 1.460250162877828 14.25683581548311
    vertex -1.499999999999999 0.1337294468941278 16.58997675748466
  endloop
endfacet
facet normal 1 0 0
  outer loop
    vertex -1.499999999999999 -2.42081985557695 16.53800364468497
    vertex -1.499999999999999 0.1337294468941278 16.58997675748466
    vertex -1.499999999999999 -1.188888385759324 18.92049247603378
  endloop
endfacet
facet normal 1 -0 0
  outer loop
    vertex -1.499999999999999 1.460250162877828 14.25683581548311
    vertex -1.499999999999999 2.790827588692673 11.91879934668513
    vertex -1.499999999999999 4.204967503627835 14.37696984054919
  endloop
endfacet
facet normal 1 0 0
  outer loop
    vertex -1.499999999999999 1.460250162877828 14.25683581548311
    vertex -1.499999999999999 4.204967503627835 14.37696984054919
    vertex -1.499999999999999 2.917017080247748 16.68650566724375
  endloop
endfacet
facet normal 1 0 0
  outer loop
    vertex -1.499999999999999 -4.237225699989674 0
    vertex -1.499999999999999 -1.41240856666321 0
    vertex -1.499999999999999 -2.819400066941061 2.427329095544024
  endloop
endfacet
facet normal 1 0 -0
  outer loop
    vertex -1.499999999999999 -1.226072920985393 14.27767317220967
    vertex -1.499999999999999 0.1337294468941278 16.58997675748466
    vertex -1.499999999999999 -2.42081985557695 16.53800364468497
  endloop
endfacet
facet normal 1 0 -0
  outer loop
    vertex -1.499999999999999 -2.42081985557695 16.53800364468497
    vertex -1.499999999999999 -1.188888385759324 18.92049247603378
    vertex -1.499999999999999 -3.763691055366604 18.89419739517013
  endloop
endfacet
facet normal 1 0 0
  outer loop
    vertex -1.499999999999999 4.204967503627835 14.37696984054919
    vertex -1.499999999999999 2.790827588692673 11.91879934668513
    vertex -1.499999999999999 5.331052652942196 11.95074764529409
  endloop
endfacet
facet normal 1 0 -0
  outer loop
    vertex -1.499999999999999 0.1000139020652164 11.93521571985183
    vertex -1.499999999999999 1.460250162877828 14.25683581548311
    vertex -1.499999999999999 -1.226072920985393 14.27767317220967
  endloop
endfacet
facet normal 1 0 0
  outer loop
    vertex -1.499999999999999 -1.188888385759324 18.92049247603378
    vertex -1.499999999999999 0.1337294468941278 16.58997675748466
    vertex -1.499999999999999 1.485102412873626 18.89984074397418
  endloop
endfacet
facet normal 1 0 0
  outer loop
    vertex -1.499999999999999 4.204967503627835 14.37696984054919
    vertex -1.499999999999999 5.331052652942196 11.95074764529409
    vertex -1.499999999999999 6.748453361118417 14.10885285908384
  endloop
endfacet
facet normal 1 0 0
  outer loop
    vertex -1.499999999999999 -1.226072920985393 14.27767317220967
    vertex -1.499999999999999 -2.42081985557695 16.53800364468497
    vertex -1.499999999999999 -3.909431470700108 14.30530636059388
  endloop
endfacet
facet normal 1 0 0
  outer loop
    vertex -1.499999999999999 -8.396937579365117 18.66666666666666
    vertex -1.499999999999999 -8.609783634690471 15.99999999999999
    vertex -1.499999999999999 -6.338593059462225 17.35390065503271
  endloop
endfacet
facet normal 1 0 0
  outer loop
    vertex -1.499999999999999 8.609783634690471 15.99999999999999
    vertex -1.499999999999999 8.396937579365117 18.66666666666666
    vertex -1.499999999999999 6.058011978630228 17.10898091840469
  endloop
endfacet
facet normal 1 0 0
  outer loop
    vertex -1.499999999999999 -1.226072920985393 14.27767317220967
    vertex -1.499999999999999 -3.909431470700108 14.30530636059388
    vertex -1.499999999999999 -2.592789231524247 11.96249623663388
  endloop
endfacet
facet normal 1 0 0
  outer loop
    vertex -1.499999999999999 -8.822629690015827 13.33333333333331
    vertex -1.499999999999999 -9.035475745341181 10.66666666666664
    vertex -1.499999999999999 -6.634406226844125 11.60648557011585
  endloop
endfacet
facet normal 1 0 0
  outer loop
    vertex -1.499999999999999 9.248321800666535 7.999999999999979
    vertex -1.499999999999999 9.035475745341181 10.66666666666664
    vertex -1.499999999999999 6.778028661580189 9.437175869029574
  endloop
endfacet
facet normal 1 0 0
  outer loop
    vertex -1.499999999999999 -1.337395851688395 4.856921943476163
    vertex -1.499999999999999 -2.59949989632651 7.298728844211447
    vertex -1.499999999999999 -4.521374722752373 4.997719370768507
  endloop
endfacet
facet normal 1 0 0
  outer loop
    vertex -1.499999999999999 9.339751194659129e-15 24
    vertex -1.499999999999999 -2.657081822904785 24
    vertex -1.499999999999999 -1.43405557263253 21.6555449981284
  endloop
endfacet
facet normal 1 0 0
  outer loop
    vertex -1.499999999999999 2.657081822904806 24
    vertex -1.499999999999999 9.339751194659129e-15 24
    vertex -1.499999999999999 1.221537646451252 21.65470711795874
  endloop
endfacet
facet normal 1 0 -0
  outer loop
    vertex -1.499999999999999 -1.265069721540106 9.608670943667027
    vertex -1.499999999999999 0.1000139020652164 11.93521571985183
    vertex -1.499999999999999 -2.592789231524247 11.96249623663388
  endloop
endfacet
facet normal 1 0 0
  outer loop
    vertex -1.499999999999999 0.1000139020652164 11.93521571985183
    vertex -1.499999999999999 -1.226072920985393 14.27767317220967
    vertex -1.499999999999999 -2.592789231524247 11.96249623663388
  endloop
endfacet
facet normal 1 0 0
  outer loop
    vertex -1.499999999999999 5.314163645809609 24
    vertex -1.499999999999999 2.657081822904806 24
    vertex -1.499999999999999 3.985622734357208 21.69889964143058
  endloop
endfacet
facet normal 1 0 0
  outer loop
    vertex -1.499999999999999 9.339751194659129e-15 24
    vertex -1.499999999999999 -1.43405557263253 21.6555449981284
    vertex -1.499999999999999 1.221537646451252 21.65470711795874
  endloop
endfacet
facet normal 1 0 0
  outer loop
    vertex -1.499999999999999 3.985622734357208 21.69889964143058
    vertex -1.499999999999999 2.657081822904806 24
    vertex -1.499999999999999 1.221537646451252 21.65470711795874
  endloop
endfacet
facet normal 1 0 0
  outer loop
    vertex -1.499999999999999 2.790827588692673 11.91879934668513
    vertex -1.499999999999999 1.434900060109837 9.5862974382893
    vertex -1.499999999999999 4.033906597026339 9.607319665067479
  endloop
endfacet
facet normal 1 0 0
  outer loop
    vertex -1.499999999999999 5.331052652942196 11.95074764529409
    vertex -1.499999999999999 2.790827588692673 11.91879934668513
    vertex -1.499999999999999 4.033906597026339 9.607319665067479
  endloop
endfacet
facet normal 1 0 0
  outer loop
    vertex -1.499999999999999 -9.035475745341181 10.66666666666664
    vertex -1.499999999999999 -9.248321800666535 7.999999999999979
    vertex -1.499999999999999 -6.851956131796239 9.041459911968024
  endloop
endfacet
facet normal 1 0 0
  outer loop
    vertex -1.499999999999999 -6.634406226844125 11.60648557011585
    vertex -1.499999999999999 -9.035475745341181 10.66666666666664
    vertex -1.499999999999999 -6.851956131796239 9.041459911968024
  endloop
endfacet
facet normal 1 0 0
  outer loop
    vertex -1.499999999999999 9.461167855991887 5.333333333333321
    vertex -1.499999999999999 9.248321800666535 7.999999999999979
    vertex -1.499999999999999 7.067009202945846 6.524054435755537
  endloop
endfacet
facet normal 1 0 0
  outer loop
    vertex -1.499999999999999 9.248321800666535 7.999999999999979
    vertex -1.499999999999999 6.778028661580189 9.437175869029574
    vertex -1.499999999999999 7.067009202945846 6.524054435755537
  endloop
endfacet
facet normal 1 0 0
  outer loop
    vertex -1.499999999999999 -9.248321800666535 7.999999999999979
    vertex -1.499999999999999 -9.461167855991887 5.333333333333314
    vertex -1.499999999999999 -6.997909010026602 6.507665484040587
  endloop
endfacet
facet normal 1 -0 0
  outer loop
    vertex -1.499999999999999 -9.248321800666535 7.999999999999979
    vertex -1.499999999999999 -6.997909010026602 6.507665484040587
    vertex -1.499999999999999 -6.851956131796239 9.041459911968024
  endloop
endfacet
facet normal 1 0 0
  outer loop
    vertex -1.499999999999999 -3.763691055366604 18.89419739517013
    vertex -1.499999999999999 -6.338593059462225 17.35390065503271
    vertex -1.499999999999999 -4.472085698571357 16.19279333859758
  endloop
endfacet
facet normal 1 0 0
  outer loop
    vertex -1.499999999999999 -6.338593059462225 17.35390065503271
    vertex -1.499999999999999 -8.609783634690471 15.99999999999999
    vertex -1.499999999999999 -6.201488108108768 14.4506364115295
  endloop
endfacet
facet normal 1 -0 0
  outer loop
    vertex -1.499999999999999 -8.822629690015827 13.33333333333331
    vertex -1.499999999999999 -6.634406226844125 11.60648557011585
    vertex -1.499999999999999 -6.201488108108768 14.4506364115295
  endloop
endfacet
facet normal 1 -0 0
  outer loop
    vertex -1.499999999999999 7.06204283331614 0
    vertex -1.499999999999999 9.886859966642593 -3.469446951953614e-15
    vertex -1.499999999999999 7.806234600785109 1.920180848561468
  endloop
endfacet
facet normal 1 0 0
  outer loop
    vertex -1.499999999999999 -9.886859966642593 0
    vertex -1.499999999999999 -7.062042833316145 0
    vertex -1.499999999999999 -7.769334145232372 1.953772089377439
  endloop
endfacet
facet normal 1 0 0
  outer loop
    vertex -1.499999999999999 9.886859966642593 -3.469446951953614e-15
    vertex -1.499999999999999 9.674013911317241 2.666666666666661
    vertex -1.499999999999999 7.806234600785109 1.920180848561468
  endloop
endfacet
facet normal 1 0 0
  outer loop
    vertex -1.499999999999999 -9.674013911317241 2.666666666666661
    vertex -1.499999999999999 -9.886859966642593 0
    vertex -1.499999999999999 -7.769334145232372 1.953772089377439
  endloop
endfacet
facet normal 1 -0 0
  outer loop
    vertex -1.499999999999999 -8.396937579365117 18.66666666666666
    vertex -1.499999999999999 -6.338593059462225 17.35390065503271
    vertex -1.499999999999999 -6.165763253196147 19.94389176408459
  endloop
endfacet
facet normal 1 0 0
  outer loop
    vertex -1.499999999999999 -8.609783634690471 15.99999999999999
    vertex -1.499999999999999 -8.822629690015827 13.33333333333331
    vertex -1.499999999999999 -6.201488108108768 14.4506364115295
  endloop
endfacet
facet normal 1 0 0
  outer loop
    vertex -1.499999999999999 8.609783634690471 15.99999999999999
    vertex -1.499999999999999 6.058011978630228 17.10898091840469
    vertex -1.499999999999999 6.748453361118417 14.10885285908384
  endloop
endfacet
facet normal 1 -0 0
  outer loop
    vertex -1.499999999999999 2.818087323004947 7.217866000487794
    vertex -1.499999999999999 4.594283322109736 4.978806293111785
    vertex -1.499999999999999 5.050543295828199 7.533031690618989
  endloop
endfacet
facet normal 1 0 0
  outer loop
    vertex -1.499999999999999 6.748453361118417 14.10885285908384
    vertex -1.499999999999999 5.331052652942196 11.95074764529409
    vertex -1.499999999999999 7.464274706803947 11.88308541692174
  endloop
endfacet
facet normal 1 0 0
  outer loop
    vertex -1.499999999999999 9.674013911317241 2.666666666666661
    vertex -1.499999999999999 9.461167855991887 5.333333333333321
    vertex -1.499999999999999 7.394503281419269 4.102274302592233
  endloop
endfacet
facet normal 1 0 0
  outer loop
    vertex -1.499999999999999 -9.461167855991887 5.333333333333314
    vertex -1.499999999999999 -9.674013911317241 2.666666666666661
    vertex -1.499999999999999 -7.373684296747257 4.066961852093463
  endloop
endfacet
facet normal 1 0 -0
  outer loop
    vertex -1.499999999999999 -4.521374722752373 4.997719370768507
    vertex -1.499999999999999 -2.59949989632651 7.298728844211447
    vertex -1.499999999999999 -4.977702288291923 7.535946474613501
  endloop
endfacet
facet normal 1 0 0
  outer loop
    vertex -1.499999999999999 -6.201488108108768 14.4506364115295
    vertex -1.499999999999999 -6.634406226844125 11.60648557011585
    vertex -1.499999999999999 -4.623486976477271 12.36263562303318
  endloop
endfacet
facet normal 1 0 0
  outer loop
    vertex -1.499999999999999 -4.217921719607076 9.931995276371589
    vertex -1.499999999999999 -6.851956131796239 9.041459911968024
    vertex -1.499999999999999 -4.977702288291923 7.535946474613501
  endloop
endfacet
facet normal 1 0 0
  outer loop
    vertex -1.499999999999999 3.985622734357208 21.69889964143058
    vertex -1.499999999999999 4.160040976582839 18.88642992756666
    vertex -1.499999999999999 6.207867648576578 20.00875052500678
  endloop
endfacet
facet normal 1 0 -0
  outer loop
    vertex -1.499999999999999 -4.217921719607076 9.931995276371589
    vertex -1.499999999999999 -2.592789231524247 11.96249623663388
    vertex -1.499999999999999 -4.623486976477271 12.36263562303318
  endloop
endfacet
facet normal 1 0 0
  outer loop
    vertex -1.499999999999999 -8.184091524039763 21.33333333333333
    vertex -1.499999999999999 -8.396937579365117 18.66666666666666
    vertex -1.499999999999999 -6.165763253196147 19.94389176408459
  endloop
endfacet
facet normal 1 0 0
  outer loop
    vertex -1.499999999999999 8.822629690015827 13.33333333333331
    vertex -1.499999999999999 8.609783634690471 15.99999999999999
    vertex -1.499999999999999 6.748453361118417 14.10885285908384
  endloop
endfacet
facet normal 1 0 0
  outer loop
    vertex -1.499999999999999 -2.42081985557695 16.53800364468497
    vertex -1.499999999999999 -3.763691055366604 18.89419739517013
    vertex -1.499999999999999 -4.472085698571357 16.19279333859758
  endloop
endfacet
facet normal 1 0 0
  outer loop
    vertex -1.499999999999999 -3.909431470700108 14.30530636059388
    vertex -1.499999999999999 -6.201488108108768 14.4506364115295
    vertex -1.499999999999999 -4.623486976477271 12.36263562303318
  endloop
endfacet
facet normal 1 0 0
  outer loop
    vertex -1.499999999999999 6.778028661580189 9.437175869029574
    vertex -1.499999999999999 9.035475745341181 10.66666666666664
    vertex -1.499999999999999 7.464274706803947 11.88308541692174
  endloop
endfacet
facet normal 1 0 0
  outer loop
    vertex -1.499999999999999 -7.971245468714409 24
    vertex -1.499999999999999 -8.184091524039763 21.33333333333333
    vertex -1.499999999999999 -6.142085478572175 22.01335401756144
  endloop
endfacet
facet normal 1 0 0
  outer loop
    vertex -1.499999999999999 -5.314163645809592 24
    vertex -1.499999999999999 -7.971245468714409 24
    vertex -1.499999999999999 -6.142085478572175 22.01335401756144
  endloop
endfacet
facet normal 1 0 0
  outer loop
    vertex -1.499999999999999 9.461167855991887 5.333333333333321
    vertex -1.499999999999999 7.067009202945846 6.524054435755537
    vertex -1.499999999999999 7.394503281419269 4.102274302592233
  endloop
endfacet
facet normal 1 0 0
  outer loop
    vertex -1.499999999999999 -6.338593059462225 17.35390065503271
    vertex -1.499999999999999 -6.201488108108768 14.4506364115295
    vertex -1.499999999999999 -4.472085698571357 16.19279333859758
  endloop
endfacet
facet normal 1 0 0
  outer loop
    vertex -1.499999999999999 -6.997909010026602 6.507665484040587
    vertex -1.499999999999999 -9.461167855991887 5.333333333333314
    vertex -1.499999999999999 -7.373684296747257 4.066961852093463
  endloop
endfacet
facet normal 1 0 0
  outer loop
    vertex -1.499999999999999 6.778028661580189 9.437175869029574
    vertex -1.499999999999999 4.033906597026339 9.607319665067479
    vertex -1.499999999999999 5.050543295828199 7.533031690618989
  endloop
endfacet
facet normal 1 0 0
  outer loop
    vertex -1.499999999999999 -6.165763253196147 19.94389176408459
    vertex -1.499999999999999 -4.106364605389242 21.66924537073924
    vertex -1.499999999999999 -6.142085478572175 22.01335401756144
  endloop
endfacet
facet normal 1 0 0
  outer loop
    vertex -1.499999999999999 -6.851956131796239 9.041459911968024
    vertex -1.499999999999999 -6.997909010026602 6.507665484040587
    vertex -1.499999999999999 -4.977702288291923 7.535946474613501
  endloop
endfacet
facet normal 1 0 0
  outer loop
    vertex -1.499999999999999 8.822629690015827 13.33333333333331
    vertex -1.499999999999999 6.748453361118417 14.10885285908384
    vertex -1.499999999999999 7.464274706803947 11.88308541692174
  endloop
endfacet
facet normal 1 0 0
  outer loop
    vertex -1.499999999999999 5.314163645809609 24
    vertex -1.499999999999999 3.985622734357208 21.69889964143058
    vertex -1.499999999999999 6.332598204299513 22.20819669995414
  endloop
endfacet
facet normal 1 0 0
  outer loop
    vertex -1.499999999999999 7.067009202945846 6.524054435755537
    vertex -1.499999999999999 6.778028661580189 9.437175869029574
    vertex -1.499999999999999 5.050543295828199 7.533031690618989
  endloop
endfacet
facet normal 1 0 0
  outer loop
    vertex -1.499999999999999 -2.59949989632651 7.298728844211447
    vertex -1.499999999999999 -4.217921719607076 9.931995276371589
    vertex -1.499999999999999 -4.977702288291923 7.535946474613501
  endloop
endfacet
facet normal 1 -0 0
  outer loop
    vertex -1.499999999999999 -6.201488108108768 14.4506364115295
    vertex -1.499999999999999 -3.909431470700108 14.30530636059388
    vertex -1.499999999999999 -4.472085698571357 16.19279333859758
  endloop
endfacet
facet normal 1 0 0
  outer loop
    vertex -1.499999999999999 4.033906597026339 9.607319665067479
    vertex -1.499999999999999 2.818087323004947 7.217866000487794
    vertex -1.499999999999999 5.050543295828199 7.533031690618989
  endloop
endfacet
facet normal 1 0 0
  outer loop
    vertex -1.499999999999999 -4.106364605389242 21.66924537073924
    vertex -1.499999999999999 -5.314163645809592 24
    vertex -1.499999999999999 -6.142085478572175 22.01335401756144
  endloop
endfacet
facet normal 1 0 0
  outer loop
    vertex -1.499999999999999 8.184091524039763 21.33333333333333
    vertex -1.499999999999999 7.971245468714409 24
    vertex -1.499999999999999 6.332598204299513 22.20819669995414
  endloop
endfacet
facet normal 1 0 0
  outer loop
    vertex -1.499999999999999 7.971245468714409 24
    vertex -1.499999999999999 5.314163645809609 24
    vertex -1.499999999999999 6.332598204299513 22.20819669995414
  endloop
endfacet
facet normal 1 0 0
  outer loop
    vertex -1.499999999999999 5.572189844076515 2.238799359635963
    vertex -1.499999999999999 7.06204283331614 0
    vertex -1.499999999999999 7.806234600785109 1.920180848561468
  endloop
endfacet
facet normal 1 0 -0
  outer loop
    vertex -1.499999999999999 -7.062042833316145 0
    vertex -1.499999999999999 -5.5427913253894 2.250566437768
    vertex -1.499999999999999 -7.769334145232372 1.953772089377439
  endloop
endfacet
facet normal 1 -0 0
  outer loop
    vertex -1.499999999999999 3.985622734357208 21.69889964143058
    vertex -1.499999999999999 6.207867648576578 20.00875052500678
    vertex -1.499999999999999 6.332598204299513 22.20819669995414
  endloop
endfacet
facet normal 1 0 0
  outer loop
    vertex -1.499999999999999 -2.592789231524247 11.96249623663388
    vertex -1.499999999999999 -3.909431470700108 14.30530636059388
    vertex -1.499999999999999 -4.623486976477271 12.36263562303318
  endloop
endfacet
facet normal 1 0 0
  outer loop
    vertex -1.499999999999999 9.674013911317241 2.666666666666661
    vertex -1.499999999999999 7.394503281419269 4.102274302592233
    vertex -1.499999999999999 7.806234600785109 1.920180848561468
  endloop
endfacet
facet normal 1 0 0
  outer loop
    vertex -1.499999999999999 -7.373684296747257 4.066961852093463
    vertex -1.499999999999999 -9.674013911317241 2.666666666666661
    vertex -1.499999999999999 -7.769334145232372 1.953772089377439
  endloop
endfacet
facet normal 1 0 -0
  outer loop
    vertex -1.499999999999999 -3.909431470700108 14.30530636059388
    vertex -1.499999999999999 -2.42081985557695 16.53800364468497
    vertex -1.499999999999999 -4.472085698571357 16.19279333859758
  endloop
endfacet
facet normal 1 0 0
  outer loop
    vertex -1.499999999999999 9.035475745341181 10.66666666666664
    vertex -1.499999999999999 8.822629690015827 13.33333333333331
    vertex -1.499999999999999 7.464274706803947 11.88308541692174
  endloop
endfacet
facet normal 1 -0 0
  outer loop
    vertex -1.499999999999999 -8.184091524039763 21.33333333333333
    vertex -1.499999999999999 -6.165763253196147 19.94389176408459
    vertex -1.499999999999999 -6.142085478572175 22.01335401756144
  endloop
endfacet
facet normal 1 0 0
  outer loop
    vertex -1.499999999999999 6.207867648576578 20.00875052500678
    vertex -1.499999999999999 8.184091524039763 21.33333333333333
    vertex -1.499999999999999 6.332598204299513 22.20819669995414
  endloop
endfacet
facet normal 1 0 0
  outer loop
    vertex -1.499999999999999 7.394503281419269 4.102274302592233
    vertex -1.499999999999999 5.572189844076515 2.238799359635963
    vertex -1.499999999999999 7.806234600785109 1.920180848561468
  endloop
endfacet
facet normal 1 0 0
  outer loop
    vertex -1.499999999999999 -5.5427913253894 2.250566437768
    vertex -1.499999999999999 -7.373684296747257 4.066961852093463
    vertex -1.499999999999999 -7.769334145232372 1.953772089377439
  endloop
endfacet
facet normal -0.573294 0.818965 0.0251224
  outer loop
    vertex -4.005926082753152 8.572499723142419 6.82039234037066
    vertex -6.577853309022977 6.760304998819999 7.204681423090931
    vertex -5.330727105328896 7.563691347490473 9.474540976124867
  endloop
endfacet
facet normal -0.563171 -0.823178 0.0722288
  outer loop
    vertex -3.71280939374971 -8.03224378992592 14.61207461689879
    vertex -3.701536184106029 -7.805036815597235 17.28940724018773
    vertex -6.016844954809534 -6.31270360769811 16.24468003648171
  endloop
endfacet
facet normal -0.554861 -0.831533 0.0261279
  outer loop
    vertex -5.384570941701213 -7.78559213641856 6.772935683179071
    vertex -6.55334845161992 -7.077060416067847 4.501731539806492
    vertex -3.948025667017617 -8.824420397707529 4.218707040678645
  endloop
endfacet
facet normal -0.547797 -0.830424 0.101557
  outer loop
    vertex -6.016844954809534 -6.31270360769811 16.24468003648171
    vertex -5.865476510293562 -6.708893031522072 13.82155063549568
    vertex -3.71280939374971 -8.03224378992592 14.61207461689879
  endloop
endfacet
facet normal -0.541317 -0.829438 0.13787
  outer loop
    vertex -3.948025667017617 -8.824420397707529 4.218707040678645
    vertex -6.55334845161992 -7.077060416067847 4.501731539806492
    vertex -5.504075281182607 -8.13501653581849 2.256730610732129
  endloop
endfacet
facet normal -0.462468 0.880534 0.103842
  outer loop
    vertex -5.330727105328896 7.563691347490473 9.474540976124867
    vertex -3.237613836688315 8.681249448059742 9.319976537111677
    vertex -4.005926082753152 8.572499723142419 6.82039234037066
  endloop
endfacet
facet normal -0.558822 0.819726 0.125569
  outer loop
    vertex -4.005926082753152 8.572499723142419 6.82039234037066
    vertex -5.912439487823637 7.606693371562103 4.640686498626209
    vertex -6.577853309022977 6.760304998819999 7.204681423090931
  endloop
endfacet
facet normal -0.77201 -0.622978 0.126088
  outer loop
    vertex -6.847474548103805 -5.061376180631426 18.8637532374162
    vertex -5.43629298084269 -6.287516209666925 21.4459848897882
    vertex -7.296211034046969 -3.978219331566309 21.4679214653065
  endloop
endfacet
facet normal -0.543829 -0.829356 0.128134
  outer loop
    vertex -6.273110765283422 -6.841401699573857 9.113109463045491
    vertex -5.384570941701213 -7.78559213641856 6.772935683179071
    vertex -3.722012748455355 -8.488256402045039 9.281161383238915
  endloop
endfacet
facet normal -0.952235 0.302901 0.0387184
  outer loop
    vertex -8.835053100045142 4.268956125578249 2.383230794920903
    vertex -9.680018780939012 1.614839765416271 2.365854633963499
    vertex -9.10544135062888 3.109225585911817 4.80610813188985
  endloop
endfacet
facet normal -0.975632 0.186577 0.115462
  outer loop
    vertex -9.10544135062888 3.109225585911817 4.80610813188985
    vertex -9.680018780939012 1.614839765416271 2.365854633963499
    vertex -9.608999318458762 0.4637884471677301 4.825953424847377
  endloop
endfacet
facet normal -0.447049 -0.892721 0.0565348
  outer loop
    vertex -5.02726831540863 -7.557022657656158 11.722039124085
    vertex -3.076788851984351 -8.51824020210498 11.96721006621819
    vertex -3.71280939374971 -8.03224378992592 14.61207461689879
  endloop
endfacet
facet normal -0.550407 -0.827029 0.114347
  outer loop
    vertex -3.71280939374971 -8.03224378992592 14.61207461689879
    vertex -5.865476510293562 -6.708893031522072 13.82155063549568
    vertex -5.02726831540863 -7.557022657656158 11.722039124085
  endloop
endfacet
facet normal -0.715401 -0.696096 0.0604324
  outer loop
    vertex -6.847474548103805 -5.061376180631426 18.8637532374162
    vertex -5.242137585983407 -6.72126084621434 18.74828159922197
    vertex -5.43629298084269 -6.287516209666925 21.4459848897882
  endloop
endfacet
facet normal -0.965803 -0.256576 0.0373201
  outer loop
    vertex -9.748470578241415 -1.157708172821171 2.325482177017905
    vertex -9.036895152167745 -3.839710698248034 2.301466930709831
    vertex -9.338138887780122 -2.360034633633701 4.67840583354256
  endloop
endfacet
facet normal -0.890937 -0.452791 0.034809
  outer loop
    vertex -7.296211034046969 -3.978219331566309 21.4679214653065
    vertex -8.102173128316721 -2.580846390919532 19.01617789964234
    vertex -6.847474548103805 -5.061376180631426 18.8637532374162
  endloop
endfacet
facet normal -0.919225 -0.375808 0.117446
  outer loop
    vertex -9.338138887780122 -2.360034633633701 4.67840583354256
    vertex -9.036895152167745 -3.839710698248034 2.301466930709831
    vertex -8.325250279155561 -4.849089145825523 4.641509561919708
  endloop
endfacet
facet normal -0.45918 -0.886577 0.055995
  outer loop
    vertex -5.384570941701213 -7.78559213641856 6.772935683179071
    vertex -3.234615617625912 -8.908071328051587 6.631014406959476
    vertex -3.722012748455355 -8.488256402045039 9.281161383238915
  endloop
endfacet
facet normal -0.551477 0.824395 0.12746
  outer loop
    vertex -3.717572437826923 8.260594273508602 11.94664547131547
    vertex -5.330727105328896 7.563691347490473 9.474540976124867
    vertex -6.223447337369436 6.579592939264619 11.9770691094072
  endloop
endfacet
facet normal -0.567762 0.814366 0.120224
  outer loop
    vertex -5.051606587990103 7.281543441748397 14.44414903612941
    vertex -5.969825768633013 6.306889504179082 16.7098792069705
    vertex -3.739271706585137 7.802323567324509 17.11406098207109
  endloop
endfacet
facet normal -0.454914 -0.884458 0.103865
  outer loop
    vertex -3.948025667017617 -8.824420397707529 4.218707040678645
    vertex -3.234615617625912 -8.908071328051587 6.631014406959476
    vertex -5.384570941701213 -7.78559213641856 6.772935683179071
  endloop
endfacet
facet normal -0.654975 0.754289 0.0453475
  outer loop
    vertex -7.388749745204725 6.464505456095482 2.316270408449976
    vertex -5.912439487823637 7.606693371562103 4.640686498626209
    vertex -5.336656688173552 8.257439473342599 2.132776860380418
  endloop
endfacet
facet normal -0.938547 -0.321641 0.125209
  outer loop
    vertex -8.201204778751938 -1.316954754991141 21.52057914702482
    vertex -8.102173128316721 -2.580846390919532 19.01617789964234
    vertex -7.296211034046969 -3.978219331566309 21.4679214653065
  endloop
endfacet
facet normal -0.556631 0.830282 0.0281574
  outer loop
    vertex -6.223447337369436 6.579592939264619 11.9770691094072
    vertex -5.051606587990103 7.281543441748397 14.44414903612941
    vertex -3.717572437826923 8.260594273508602 11.94664547131547
  endloop
endfacet
facet normal -0.708791 0.697164 0.107598
  outer loop
    vertex -7.721171880892051 5.731468451266646 4.876065881015912
    vertex -5.912439487823637 7.606693371562103 4.640686498626209
    vertex -7.388749745204725 6.464505456095482 2.316270408449976
  endloop
endfacet
facet normal -0.833378 0.550489 0.0494164
  outer loop
    vertex -7.721171880892051 5.731468451266646 4.876065881015912
    vertex -7.388749745204725 6.464505456095482 2.316270408449976
    vertex -8.835053100045142 4.268956125578249 2.383230794920903
  endloop
endfacet
facet normal -0.460041 0.8863 0.0532454
  outer loop
    vertex -3.739271706585137 7.802323567324509 17.11406098207109
    vertex -3.07328226245693 8.299333861472658 14.59520207021957
    vertex -5.051606587990103 7.281543441748397 14.44414903612941
  endloop
endfacet
facet normal -0.879032 0.46077 0.122453
  outer loop
    vertex -8.835053100045142 4.268956125578249 2.383230794920903
    vertex -9.10544135062888 3.109225585911817 4.80610813188985
    vertex -7.721171880892051 5.731468451266646 4.876065881015912
  endloop
endfacet
facet normal -0.866041 0.484457 0.12359
  outer loop
    vertex -7.98070753299941 2.894903086078183 19.19073450349336
    vertex -6.678682757861087 5.258444011676726 19.04972657548149
    vertex -7.573787863276805 4.240222313964089 16.76869799320709
  endloop
endfacet
facet normal -0.55257 -0.832727 0.0350949
  outer loop
    vertex -3.701536184106029 -7.805036815597235 17.28940724018773
    vertex -5.242137585983407 -6.72126084621434 18.74828159922197
    vertex -6.016844954809534 -6.31270360769811 16.24468003648171
  endloop
endfacet
facet normal -0.992192 0.00550592 0.124602
  outer loop
    vertex -8.493583664844033 0.1276134721614257 19.12855949357892
    vertex -8.201204778751938 -1.316954754991141 21.52057914702482
    vertex -8.175962880106008 1.429560898089393 21.60021452719851
  endloop
endfacet
facet normal -0.543489 -0.838901 0.0294244
  outer loop
    vertex -3.722012748455355 -8.488256402045039 9.281161383238915
    vertex -5.02726831540863 -7.557022657656158 11.722039124085
    vertex -6.273110765283422 -6.841401699573857 9.113109463045491
  endloop
endfacet
facet normal -0.874452 0.483824 0.0353223
  outer loop
    vertex -7.180711173212717 4.167091473581229 21.57004367223771
    vertex -6.678682757861087 5.258444011676726 19.04972657548149
    vertex -7.98070753299941 2.894903086078183 19.19073450349336
  endloop
endfacet
facet normal -0.931214 0.339998 0.13131
  outer loop
    vertex -7.180711173212717 4.167091473581229 21.57004367223771
    vertex -7.98070753299941 2.894903086078183 19.19073450349336
    vertex -8.175962880106008 1.429560898089393 21.60021452719851
  endloop
endfacet
facet normal -0.988957 -0.144318 0.0337261
  outer loop
    vertex -8.493583664844033 0.1276134721614257 19.12855949357892
    vertex -8.102173128316721 -2.580846390919532 19.01617789964234
    vertex -8.201204778751938 -1.316954754991141 21.52057914702482
  endloop
endfacet
facet normal -0.939425 0.341815 0.0253519
  outer loop
    vertex -7.629910262956384 2.752312428074426 24
    vertex -7.180711173212717 4.167091473581229 21.57004367223771
    vertex -8.175962880106008 1.429560898089393 21.60021452719851
  endloop
endfacet
facet normal -0.999456 0.00826018 0.0319137
  outer loop
    vertex -8.175962880106008 1.429560898089393 21.60021452719851
    vertex -8.201204778751938 -1.316954754991141 21.52057914702482
    vertex -8.111150000000002 1.571659469234987e-14 24
  endloop
endfacet
facet normal -0.788989 0.613362 0.0358127
  outer loop
    vertex -6.678682757861087 5.258444011676726 19.04972657548149
    vertex -5.969825768633013 6.306889504179082 16.7098792069705
    vertex -7.573787863276805 4.240222313964089 16.76869799320709
  endloop
endfacet
facet normal -0.987547 -0.101027 0.120597
  outer loop
    vertex -9.748470578241415 -1.157708172821171 2.325482177017905
    vertex -9.338138887780122 -2.360034633633701 4.67840583354256
    vertex -9.608999318458762 0.4637884471677301 4.825953424847377
  endloop
endfacet
facet normal -0.681778 0.721908 0.118436
  outer loop
    vertex -6.223447337369436 6.579592939264619 11.9770691094072
    vertex -6.975308812358274 5.47637603952124 14.37345009318533
    vertex -5.051606587990103 7.281543441748397 14.44414903612941
  endloop
endfacet
facet normal -0.998905 0.0240781 0.0401028
  outer loop
    vertex -9.608999318458762 0.4637884471677301 4.825953424847377
    vertex -9.680018780939012 1.614839765416271 2.365854633963499
    vertex -9.748470578241415 -1.157708172821171 2.325482177017905
  endloop
endfacet
facet normal -0.684544 0.728093 0.035784
  outer loop
    vertex -6.975308812358274 5.47637603952124 14.37345009318533
    vertex -5.969825768633013 6.306889504179082 16.7098792069705
    vertex -5.051606587990103 7.281543441748397 14.44414903612941
  endloop
endfacet
facet normal -0.748255 -0.653589 0.113738
  outer loop
    vertex -6.966572664399326 -5.830428852824964 11.62573841730215
    vertex -5.865476510293562 -6.708893031522072 13.82155063549568
    vertex -7.455778843719699 -4.850491251901936 14.03853379315752
  endloop
endfacet
facet normal -0.643182 -0.755451 0.124945
  outer loop
    vertex -6.243295576956934 -5.178031929338588 24
    vertex -5.43629298084269 -6.287516209666925 21.4459848897882
    vertex -4.115843421118969 -6.989319513037845 24
  endloop
endfacet
facet normal -0.982915 0.181479 0.0307157
  outer loop
    vertex -7.98070753299941 2.894903086078183 19.19073450349336
    vertex -8.493583664844033 0.1276134721614257 19.12855949357892
    vertex -8.175962880106008 1.429560898089393 21.60021452719851
  endloop
endfacet
facet normal -0.467033 0.882466 0.0559862
  outer loop
    vertex -3.717572437826923 8.260594273508602 11.94664547131547
    vertex -3.237613836688315 8.681249448059742 9.319976537111677
    vertex -5.330727105328896 7.563691347490473 9.474540976124867
  endloop
endfacet
facet normal -0.977174 -0.170858 0.126244
  outer loop
    vertex -8.111150000000002 1.571659469234987e-14 24
    vertex -8.201204778751938 -1.316954754991141 21.52057914702482
    vertex -7.629910262956384 -2.752312428074406 24
  endloop
endfacet
facet normal -0.782658 0.610836 0.119688
  outer loop
    vertex -7.573787863276805 4.240222313964089 16.76869799320709
    vertex -5.969825768633013 6.306889504179082 16.7098792069705
    vertex -6.975308812358274 5.47637603952124 14.37345009318533
  endloop
endfacet
facet normal -0.861093 0.492227 0.127406
  outer loop
    vertex -6.243295576956942 5.178031929338602 24
    vertex -7.180711173212717 4.167091473581229 21.57004367223771
    vertex -7.629910262956384 2.752312428074426 24
  endloop
endfacet
facet normal -0.866756 0.483024 0.124184
  outer loop
    vertex -7.917456663053855 4.391863370054904 12.01593500930497
    vertex -8.328793306649384 3.040679169673749 14.40049941288622
    vertex -6.975308812358274 5.47637603952124 14.37345009318533
  endloop
endfacet
facet normal -0.937511 0.346243 0.0344737
  outer loop
    vertex -8.87407120503514 1.803107773083398 12.00144983123227
    vertex -8.328793306649384 3.040679169673749 14.40049941288622
    vertex -7.917456663053855 4.391863370054904 12.01593500930497
  endloop
endfacet
facet normal -0.873496 0.48575 0.0324363
  outer loop
    vertex -6.975308812358274 5.47637603952124 14.37345009318533
    vertex -8.328793306649384 3.040679169673749 14.40049941288622
    vertex -7.573787863276805 4.240222313964089 16.76869799320709
  endloop
endfacet
facet normal -0.778415 -0.627191 0.0264976
  outer loop
    vertex -7.296211034046969 -3.978219331566309 21.4679214653065
    vertex -5.43629298084269 -6.287516209666925 21.4459848897882
    vertex -6.243295576956934 -5.178031929338588 24
  endloop
endfacet
facet normal -0.768394 -0.628951 0.11828
  outer loop
    vertex -7.429027655475203 -5.863017283207289 6.806345203037364
    vertex -6.273110765283422 -6.841401699573857 9.113109463045491
    vertex -7.957033931784757 -4.762311119124185 9.229186117434962
  endloop
endfacet
facet normal -0.544935 0.837881 0.0316382
  outer loop
    vertex -6.583762800289198 7.5268896225152 0
    vertex -5.336656688173552 8.257439473342599 2.132776860380418
    vertex -4.210602125483351 9.070326881699122 0
  endloop
endfacet
facet normal -0.684367 -0.728344 0.0340179
  outer loop
    vertex -7.429027655475203 -5.863017283207289 6.806345203037364
    vertex -5.384570941701213 -7.78559213641856 6.772935683179071
    vertex -6.273110765283422 -6.841401699573857 9.113109463045491
  endloop
endfacet
facet normal -0.783643 0.608972 0.122706
  outer loop
    vertex -7.917456663053855 4.391863370054904 12.01593500930497
    vertex -6.223447337369436 6.579592939264619 11.9770691094072
    vertex -7.317994985378531 5.643781111247627 9.631215430379758
  endloop
endfacet
facet normal -0.975826 0.178006 0.126798
  outer loop
    vertex -7.98070753299941 2.894903086078183 19.19073450349336
    vertex -8.527627737122108 1.618245063580196 16.77392039741891
    vertex -8.493583664844033 0.1276134721614257 19.12855949357892
  endloop
endfacet
facet normal -0.643082 0.755334 0.126157
  outer loop
    vertex -4.115843421118973 6.989319513037866 24
    vertex -5.364605641075102 6.342475794620019 21.50727418415403
    vertex -6.243295576956942 5.178031929338602 24
  endloop
endfacet
facet normal -0.931219 0.343428 0.122019
  outer loop
    vertex -8.87407120503514 1.803107773083398 12.00144983123227
    vertex -7.917456663053855 4.391863370054904 12.01593500930497
    vertex -8.669331795852859 3.205476997436695 9.616940335729964
  endloop
endfacet
facet normal -0.757797 -0.651499 0.0359489
  outer loop
    vertex -6.583762800289219 -7.526889622515331 0
    vertex -7.598357152042775 -6.220648453827671 2.285399964431972
    vertex -8.429294788261764 -5.380240642627787 0
  endloop
endfacet
facet normal -0.798148 -0.58809 0.130803
  outer loop
    vertex -7.455778843719699 -4.850491251901936 14.03853379315752
    vertex -6.016844954809534 -6.31270360769811 16.24468003648171
    vertex -7.830662907513697 -3.790646136957752 16.51609801158796
  endloop
endfacet
facet normal -0.692893 0.720141 0.0360157
  outer loop
    vertex -6.223447337369436 6.579592939264619 11.9770691094072
    vertex -5.330727105328896 7.563691347490473 9.474540976124867
    vertex -7.317994985378531 5.643781111247627 9.631215430379758
  endloop
endfacet
facet normal -0.531251 -0.841633 0.0970857
  outer loop
    vertex -5.43629298084269 -6.287516209666925 21.4459848897882
    vertex -5.242137585983407 -6.72126084621434 18.74828159922197
    vertex -3.593953066696724 -7.629471402309943 19.8938698552962
  endloop
endfacet
facet normal -0.759864 0.637971 0.124896
  outer loop
    vertex -5.364605641075102 6.342475794620019 21.50727418415403
    vertex -6.678682757861087 5.258444011676726 19.04972657548149
    vertex -7.180711173212717 4.167091473581229 21.57004367223771
  endloop
endfacet
facet normal -0.506468 0.860033 0.0619178
  outer loop
    vertex -3.727901942216779 8.944474677549248 3.927841991190609
    vertex -5.912439487823637 7.606693371562103 4.640686498626209
    vertex -4.005926082753152 8.572499723142419 6.82039234037066
  endloop
endfacet
facet normal -0.874221 0.484302 0.0344878
  outer loop
    vertex -7.917456663053855 4.391863370054904 12.01593500930497
    vertex -7.317994985378531 5.643781111247627 9.631215430379758
    vertex -8.669331795852859 3.205476997436695 9.616940335729964
  endloop
endfacet
facet normal -0.909952 0.413001 0.0376551
  outer loop
    vertex -9.59929549192589 2.802414326735231 0
    vertex -8.835053100045142 4.268956125578249 2.383230794920903
    vertex -8.42929478826175 5.380240642627662 0
  endloop
endfacet
facet normal -0.924476 -0.379366 0.0377578
  outer loop
    vertex -8.977733260225323 -2.252862166088606 9.451303682633828
    vertex -7.957033931784757 -4.762311119124185 9.229186117434962
    vertex -8.328075437913743 -3.609030647427003 11.73187562599513
  endloop
endfacet
facet normal -0.861373 -0.492387 0.12487
  outer loop
    vertex -7.629910262956384 -2.752312428074406 24
    vertex -7.296211034046969 -3.978219331566309 21.4679214653065
    vertex -6.243295576956934 -5.178031929338588 24
  endloop
endfacet
facet normal -0.766911 0.641092 0.02914
  outer loop
    vertex -5.364605641075102 6.342475794620019 21.50727418415403
    vertex -7.180711173212717 4.167091473581229 21.57004367223771
    vertex -6.243295576956942 5.178031929338602 24
  endloop
endfacet
facet normal -0.999032 0.0291711 0.0329114
  outer loop
    vertex -8.527627737122108 1.618245063580196 16.77392039741891
    vertex -8.611434982424033 -1.145356597899871 16.67945530335143
    vertex -8.493583664844033 0.1276134721614257 19.12855949357892
  endloop
endfacet
facet normal -0.911009 -0.410648 0.0378195
  outer loop
    vertex -8.544788307729691 -2.417038675769664 14.2287621111404
    vertex -7.455778843719699 -4.850491251901936 14.03853379315752
    vertex -7.830662907513697 -3.790646136957752 16.51609801158796
  endloop
endfacet
facet normal -0.946099 -0.322353 0.0313822
  outer loop
    vertex -7.629910262956384 -2.752312428074406 24
    vertex -8.201204778751938 -1.316954754991141 21.52057914702482
    vertex -7.296211034046969 -3.978219331566309 21.4679214653065
  endloop
endfacet
facet normal -0.939246 0.341749 0.0320241
  outer loop
    vertex -7.98070753299941 2.894903086078183 19.19073450349336
    vertex -7.573787863276805 4.240222313964089 16.76869799320709
    vertex -8.527627737122108 1.618245063580196 16.77392039741891
  endloop
endfacet
facet normal -0.973958 0.190348 0.123178
  outer loop
    vertex -8.86368026498198 0.3298426738243938 14.36026405463348
    vertex -8.328793306649384 3.040679169673749 14.40049941288622
    vertex -8.87407120503514 1.803107773083398 12.00144983123227
  endloop
endfacet
facet normal -0.902787 -0.413311 0.118955
  outer loop
    vertex -8.544788307729691 -2.417038675769664 14.2287621111404
    vertex -8.328075437913743 -3.609030647427003 11.73187562599513
    vertex -7.455778843719699 -4.850491251901936 14.03853379315752
  endloop
endfacet
facet normal -0.789924 0.61226 0.0340276
  outer loop
    vertex -7.917456663053855 4.391863370054904 12.01593500930497
    vertex -6.975308812358274 5.47637603952124 14.37345009318533
    vertex -6.223447337369436 6.579592939264619 11.9770691094072
  endloop
endfacet
facet normal -0.966993 -0.25218 0.0364601
  outer loop
    vertex -9.01055182572266 -0.9653263604602947 11.9167146953573
    vertex -8.328075437913743 -3.609030647427003 11.73187562599513
    vertex -8.544788307729691 -2.417038675769664 14.2287621111404
  endloop
endfacet
facet normal -0.959069 -0.256042 0.120948
  outer loop
    vertex -8.977733260225323 -2.252862166088606 9.451303682633828
    vertex -8.328075437913743 -3.609030647427003 11.73187562599513
    vertex -9.01055182572266 -0.9653263604602947 11.9167146953573
  endloop
endfacet
facet normal -0.949646 -0.287925 0.123581
  outer loop
    vertex -8.544788307729691 -2.417038675769664 14.2287621111404
    vertex -7.830662907513697 -3.790646136957752 16.51609801158796
    vertex -8.611434982424033 -1.145356597899871 16.67945530335143
  endloop
endfacet
facet normal -0.98139 -0.146953 0.123607
  outer loop
    vertex -8.611434982424033 -1.145356597899871 16.67945530335143
    vertex -8.102173128316721 -2.580846390919532 19.01617789964234
    vertex -8.493583664844033 0.1276134721614257 19.12855949357892
  endloop
endfacet
facet normal -0.992581 -0.116841 0.0336365
  outer loop
    vertex -8.86368026498198 0.3298426738243938 14.36026405463348
    vertex -8.544788307729691 -2.417038675769664 14.2287621111404
    vertex -8.611434982424033 -1.145356597899871 16.67945530335143
  endloop
endfacet
facet normal -0.86661 -0.497598 0.0372016
  outer loop
    vertex -8.779131012108936 -3.498872601249007 6.977849684876771
    vertex -7.429027655475203 -5.863017283207289 6.806345203037364
    vertex -7.957033931784757 -4.762311119124185 9.229186117434962
  endloop
endfacet
facet normal -0.978321 0.203951 0.0359463
  outer loop
    vertex -8.87407120503514 1.803107773083398 12.00144983123227
    vertex -8.669331795852859 3.205476997436695 9.616940335729964
    vertex -9.231788879128414 0.514117591476261 9.579193222489423
  endloop
endfacet
facet normal -0.665523 -0.745535 0.035467
  outer loop
    vertex -5.02726831540863 -7.557022657656158 11.722039124085
    vertex -5.865476510293562 -6.708893031522072 13.82155063549568
    vertex -6.966572664399326 -5.830428852824964 11.62573841730215
  endloop
endfacet
facet normal -0.989269 -0.141451 0.0365822
  outer loop
    vertex -9.599295491925897 -2.802414326735353 0
    vertex -9.748470578241415 -1.157708172821171 2.325482177017905
    vertex -10 -5.993816554195064e-14 0
  endloop
endfacet
facet normal -0.957979 -0.28484 0.0337983
  outer loop
    vertex -7.830662907513697 -3.790646136957752 16.51609801158796
    vertex -8.102173128316721 -2.580846390919532 19.01617789964234
    vertex -8.611434982424033 -1.145356597899871 16.67945530335143
  endloop
endfacet
facet normal -0.810487 -0.58532 0.0226085
  outer loop
    vertex -6.016844954809534 -6.31270360769811 16.24468003648171
    vertex -6.847474548103805 -5.061376180631426 18.8637532374162
    vertex -7.830662907513697 -3.790646136957752 16.51609801158796
  endloop
endfacet
facet normal -0.998245 0.0481571 0.0344753
  outer loop
    vertex -8.86368026498198 0.3298426738243938 14.36026405463348
    vertex -8.87407120503514 1.803107773083398 12.00144983123227
    vertex -9.01055182572266 -0.9653263604602947 11.9167146953573
  endloop
endfacet
facet normal -0.976935 0.170816 0.128141
  outer loop
    vertex -7.629910262956384 2.752312428074426 24
    vertex -8.175962880106008 1.429560898089393 21.60021452719851
    vertex -8.111150000000002 1.571659469234987e-14 24
  endloop
endfacet
facet normal -0.991907 0.0258306 0.124314
  outer loop
    vertex -8.527627737122108 1.618245063580196 16.77392039741891
    vertex -8.86368026498198 0.3298426738243938 14.36026405463348
    vertex -8.611434982424033 -1.145356597899871 16.67945530335143
  endloop
endfacet
facet normal -0.991454 0.0451311 0.122401
  outer loop
    vertex -8.87407120503514 1.803107773083398 12.00144983123227
    vertex -9.231788879128414 0.514117591476261 9.579193222489423
    vertex -9.01055182572266 -0.9653263604602947 11.9167146953573
  endloop
endfacet
facet normal -0.932261 0.339394 0.125304
  outer loop
    vertex -7.573787863276805 4.240222313964089 16.76869799320709
    vertex -8.328793306649384 3.040679169673749 14.40049941288622
    vertex -8.527627737122108 1.618245063580196 16.77392039741891
  endloop
endfacet
facet normal -0.980627 0.192994 0.0335126
  outer loop
    vertex -8.527627737122108 1.618245063580196 16.77392039741891
    vertex -8.328793306649384 3.040679169673749 14.40049941288622
    vertex -8.86368026498198 0.3298426738243938 14.36026405463348
  endloop
endfacet
facet normal -0.882387 -0.453937 0.123834
  outer loop
    vertex -6.847474548103805 -5.061376180631426 18.8637532374162
    vertex -8.102173128316721 -2.580846390919532 19.01617789964234
    vertex -7.830662907513697 -3.790646136957752 16.51609801158796
  endloop
endfacet
facet normal -0.91594 -0.383125 0.119456
  outer loop
    vertex -8.977733260225323 -2.252862166088606 9.451303682633828
    vertex -8.779131012108936 -3.498872601249007 6.977849684876771
    vertex -7.957033931784757 -4.762311119124185 9.229186117434962
  endloop
endfacet
facet normal -0.668714 -0.733392 0.122304
  outer loop
    vertex -6.583762800289219 -7.526889622515331 0
    vertex -5.504075281182607 -8.13501653581849 2.256730610732129
    vertex -7.598357152042775 -6.220648453827671 2.285399964431972
  endloop
endfacet
facet normal -0.987885 -0.0963283 0.121673
  outer loop
    vertex -9.231788879128414 0.514117591476261 9.579193222489423
    vertex -9.40449617268011 -0.794050503007 7.141275102380431
    vertex -8.977733260225323 -2.252862166088606 9.451303682633828
  endloop
endfacet
facet normal -0.985101 -0.120249 0.122946
  outer loop
    vertex -8.86368026498198 0.3298426738243938 14.36026405463348
    vertex -9.01055182572266 -0.9653263604602947 11.9167146953573
    vertex -8.544788307729691 -2.417038675769664 14.2287621111404
  endloop
endfacet
facet normal -0.684654 0.718615 0.121824
  outer loop
    vertex -5.330727105328896 7.563691347490473 9.474540976124867
    vertex -6.577853309022977 6.760304998819999 7.204681423090931
    vertex -7.317994985378531 5.643781111247627 9.631215430379758
  endloop
endfacet
facet normal -0.971989 0.201434 0.121087
  outer loop
    vertex -8.669331795852859 3.205476997436695 9.616940335729964
    vertex -9.223339121997283 1.969252717099923 7.22634362713251
    vertex -9.231788879128414 0.514117591476261 9.579193222489423
  endloop
endfacet
facet normal -0.99504 -0.092994 0.0353196
  outer loop
    vertex -9.231788879128414 0.514117591476261 9.579193222489423
    vertex -8.977733260225323 -2.252862166088606 9.451303682633828
    vertex -9.01055182572266 -0.9653263604602947 11.9167146953573
  endloop
endfacet
facet normal -0.997277 0.0642663 0.0361644
  outer loop
    vertex -9.223339121997283 1.969252717099923 7.22634362713251
    vertex -9.40449617268011 -0.794050503007 7.141275102380431
    vertex -9.231788879128414 0.514117591476261 9.579193222489423
  endloop
endfacet
facet normal -0.858107 -0.498865 0.121599
  outer loop
    vertex -8.779131012108936 -3.498872601249007 6.977849684876771
    vertex -8.325250279155561 -4.849089145825523 4.641509561919708
    vertex -7.429027655475203 -5.863017283207289 6.806345203037364
  endloop
endfacet
facet normal -0.296165 -0.952109 0.0759947
  outer loop
    vertex -1.499999999999999 -8.609783634690471 15.99999999999999
    vertex -3.71280939374971 -8.03224378992592 14.61207461689879
    vertex -1.499999999999999 -8.822629690015827 13.33333333333331
  endloop
endfacet
facet normal -0.544875 -0.83779 0.0349232
  outer loop
    vertex -4.210602125483375 -9.070326881699263 0
    vertex -5.504075281182607 -8.13501653581849 2.256730610732129
    vertex -6.583762800289219 -7.526889622515331 0
  endloop
endfacet
facet normal -0.990789 0.0612361 0.12078
  outer loop
    vertex -9.223339121997283 1.969252717099923 7.22634362713251
    vertex -9.608999318458762 0.4637884471677301 4.825953424847377
    vertex -9.40449617268011 -0.794050503007 7.141275102380431
  endloop
endfacet
facet normal -0.973172 -0.227195 0.0363108
  outer loop
    vertex -8.977733260225323 -2.252862166088606 9.451303682633828
    vertex -9.40449617268011 -0.794050503007 7.141275102380431
    vertex -8.779131012108936 -3.498872601249007 6.977849684876771
  endloop
endfacet
facet normal -0.302257 0.950204 0.0758427
  outer loop
    vertex -1.499999999999999 8.396937579365117 18.66666666666666
    vertex -3.571006267341026 7.63984157728507 19.89842290244479
    vertex -1.499999999999999 8.184091524039763 21.33333333333333
  endloop
endfacet
facet normal -0.289451 0.954158 0.0761583
  outer loop
    vertex -1.499999999999999 9.035475745341181 10.66666666666664
    vertex -3.717572437826923 8.260594273508602 11.94664547131547
    vertex -1.499999999999999 8.822629690015827 13.33333333333331
  endloop
endfacet
facet normal -0.304658 0.949442 0.0757819
  outer loop
    vertex -1.499999999999999 8.609783634690471 15.99999999999999
    vertex -3.739271706585137 7.802323567324509 17.11406098207109
    vertex -1.499999999999999 8.396937579365117 18.66666666666666
  endloop
endfacet
facet normal -0.283035 -0.956069 0.0763108
  outer loop
    vertex -1.499999999999999 -9.035475745341181 10.66666666666664
    vertex -3.722012748455355 -8.488256402045039 9.281161383238915
    vertex -1.499999999999999 -9.248321800666535 7.999999999999979
  endloop
endfacet
facet normal -0.78769 0.604323 0.119741
  outer loop
    vertex -6.577853309022977 6.760304998819999 7.204681423090931
    vertex -7.721171880892051 5.731468451266646 4.876065881015912
    vertex -8.241225107502757 4.574081457022771 7.296238740526368
  endloop
endfacet
facet normal -0.303672 -0.949756 0.0758069
  outer loop
    vertex -1.499999999999999 -8.184091524039763 21.33333333333333
    vertex -3.593953066696724 -7.629471402309943 19.8938698552962
    vertex -1.499999999999999 -8.396937579365117 18.66666666666666
  endloop
endfacet
facet normal -0.302856 -0.950015 0.0758276
  outer loop
    vertex -1.499999999999999 -8.396937579365117 18.66666666666666
    vertex -3.701536184106029 -7.805036815597235 17.28940724018773
    vertex -1.499999999999999 -8.609783634690471 15.99999999999999
  endloop
endfacet
facet normal -0.292859 0.953124 0.0760758
  outer loop
    vertex -1.499999999999999 9.461167855991887 5.333333333333321
    vertex -4.005926082753152 8.572499723142419 6.82039234037066
    vertex -1.499999999999999 9.248321800666535 7.999999999999979
  endloop
endfacet
facet normal -0.283394 -0.955963 0.0763024
  outer loop
    vertex -1.499999999999999 -9.461167855991887 5.333333333333314
    vertex -3.948025667017617 -8.824420397707529 4.218707040678645
    vertex -1.499999999999999 -9.674013911317241 2.666666666666661
  endloop
endfacet
facet normal -0.775399 -0.63023 0.0395745
  outer loop
    vertex -6.273110765283422 -6.841401699573857 9.113109463045491
    vertex -6.966572664399326 -5.830428852824964 11.62573841730215
    vertex -7.957033931784757 -4.762311119124185 9.229186117434962
  endloop
endfacet
facet normal -0.299487 -0.950576 0.0819299
  outer loop
    vertex -1.499999999999999 -8.609783634690471 15.99999999999999
    vertex -3.701536184106029 -7.805036815597235 17.28940724018773
    vertex -3.71280939374971 -8.03224378992592 14.61207461689879
  endloop
endfacet
facet normal -0.935441 0.351759 0.0348818
  outer loop
    vertex -8.669331795852859 3.205476997436695 9.616940335729964
    vertex -8.241225107502757 4.574081457022771 7.296238740526368
    vertex -9.223339121997283 1.969252717099923 7.22634362713251
  endloop
endfacet
facet normal -0.303413 0.949999 0.0737733
  outer loop
    vertex -3.739271706585137 7.802323567324509 17.11406098207109
    vertex -3.571006267341026 7.63984157728507 19.89842290244479
    vertex -1.499999999999999 8.396937579365117 18.66666666666666
  endloop
endfacet
facet normal -0.851062 -0.523534 0.0400719
  outer loop
    vertex -8.328075437913743 -3.609030647427003 11.73187562599513
    vertex -6.966572664399326 -5.830428852824964 11.62573841730215
    vertex -7.455778843719699 -4.850491251901936 14.03853379315752
  endloop
endfacet
facet normal -0.794571 0.606072 0.0365127
  outer loop
    vertex -6.577853309022977 6.760304998819999 7.204681423090931
    vertex -8.241225107502757 4.574081457022771 7.296238740526368
    vertex -7.317994985378531 5.643781111247627 9.631215430379758
  endloop
endfacet
facet normal -0.700135 0.711438 0.0605522
  outer loop
    vertex -5.364605641075102 6.342475794620019 21.50727418415403
    vertex -5.136268795060599 6.798976953215866 18.78390992948362
    vertex -6.678682757861087 5.258444011676726 19.04972657548149
  endloop
endfacet
facet normal -0.868299 0.4805 0.123191
  outer loop
    vertex -7.317994985378531 5.643781111247627 9.631215430379758
    vertex -8.241225107502757 4.574081457022771 7.296238740526368
    vertex -8.669331795852859 3.205476997436695 9.616940335729964
  endloop
endfacet
facet normal -0.674087 -0.737928 0.0326921
  outer loop
    vertex -5.504075281182607 -8.13501653581849 2.256730610732129
    vertex -6.55334845161992 -7.077060416067847 4.501731539806492
    vertex -7.598357152042775 -6.220648453827671 2.285399964431972
  endloop
endfacet
facet normal -0.30326 -0.949828 0.0765542
  outer loop
    vertex -3.593953066696724 -7.629471402309943 19.8938698552962
    vertex -3.701536184106029 -7.805036815597235 17.28940724018773
    vertex -1.499999999999999 -8.396937579365117 18.66666666666666
  endloop
endfacet
facet normal -0.647034 0.752887 0.120453
  outer loop
    vertex -6.583762800289198 7.5268896225152 0
    vertex -7.388749745204725 6.464505456095482 2.316270408449976
    vertex -5.336656688173552 8.257439473342599 2.132776860380418
  endloop
endfacet
facet normal -0.27086 0.959567 0.07659
  outer loop
    vertex -1.499999999999999 9.674013911317241 2.666666666666661
    vertex -3.727901942216779 8.944474677549248 3.927841991190609
    vertex -1.499999999999999 9.461167855991887 5.333333333333321
  endloop
endfacet
facet normal -0.827937 0.548905 0.11499
  outer loop
    vertex -8.835053100045142 4.268956125578249 2.383230794920903
    vertex -7.388749745204725 6.464505456095482 2.316270408449976
    vertex -8.42929478826175 5.380240642627662 0
  endloop
endfacet
facet normal -0.981507 0.187132 0.0403299
  outer loop
    vertex -9.223339121997283 1.969252717099923 7.22634362713251
    vertex -9.10544135062888 3.109225585911817 4.80610813188985
    vertex -9.608999318458762 0.4637884471677301 4.825953424847377
  endloop
endfacet
facet normal -0.281778 0.954696 0.0956879
  outer loop
    vertex -1.499999999999999 9.461167855991887 5.333333333333321
    vertex -3.727901942216779 8.944474677549248 3.927841991190609
    vertex -4.005926082753152 8.572499723142419 6.82039234037066
  endloop
endfacet
facet normal -0.524147 0.845986 0.0978612
  outer loop
    vertex -3.571006267341026 7.63984157728507 19.89842290244479
    vertex -5.136268795060599 6.798976953215866 18.78390992948362
    vertex -5.364605641075102 6.342475794620019 21.50727418415403
  endloop
endfacet
facet normal -0.663765 -0.739169 0.114216
  outer loop
    vertex -5.02726831540863 -7.557022657656158 11.722039124085
    vertex -6.966572664399326 -5.830428852824964 11.62573841730215
    vertex -6.273110765283422 -6.841401699573857 9.113109463045491
  endloop
endfacet
facet normal -0.94638 0.300514 0.118557
  outer loop
    vertex -9.59929549192589 2.802414326735231 0
    vertex -9.680018780939012 1.614839765416271 2.365854633963499
    vertex -8.835053100045142 4.268956125578249 2.383230794920903
  endloop
endfacet
facet normal -0.844385 -0.523062 0.115849
  outer loop
    vertex -7.957033931784757 -4.762311119124185 9.229186117434962
    vertex -6.966572664399326 -5.830428852824964 11.62573841730215
    vertex -8.328075437913743 -3.609030647427003 11.73187562599513
  endloop
endfacet
facet normal -0.992668 0.0227795 0.11871
  outer loop
    vertex -9.748470578241415 -1.157708172821171 2.325482177017905
    vertex -9.680018780939012 1.614839765416271 2.365854633963499
    vertex -10 -5.993816554195064e-14 0
  endloop
endfacet
facet normal -0.855207 -0.516958 0.0370924
  outer loop
    vertex -8.325250279155561 -4.849089145825523 4.641509561919708
    vertex -9.036895152167745 -3.839710698248034 2.301466930709831
    vertex -7.598357152042775 -6.220648453827671 2.285399964431972
  endloop
endfacet
facet normal -0.994645 -0.0972363 0.0350277
  outer loop
    vertex -9.608999318458762 0.4637884471677301 4.825953424847377
    vertex -9.338138887780122 -2.360034633633701 4.67840583354256
    vertex -9.40449617268011 -0.794050503007 7.141275102380431
  endloop
endfacet
facet normal -0.757811 0.65151 0.0354564
  outer loop
    vertex -8.42929478826175 5.380240642627662 0
    vertex -7.388749745204725 6.464505456095482 2.316270408449976
    vertex -6.583762800289198 7.5268896225152 0
  endloop
endfacet
facet normal -0.461202 0.881722 0.0992957
  outer loop
    vertex -5.051606587990103 7.281543441748397 14.44414903612941
    vertex -3.07328226245693 8.299333861472658 14.59520207021957
    vertex -3.717572437826923 8.260594273508602 11.94664547131547
  endloop
endfacet
facet normal -0.884227 0.465904 0.0328019
  outer loop
    vertex -7.721171880892051 5.731468451266646 4.876065881015912
    vertex -9.10544135062888 3.109225585911817 4.80610813188985
    vertex -8.241225107502757 4.574081457022771 7.296238740526368
  endloop
endfacet
facet normal -0.77283 -0.622403 0.12389
  outer loop
    vertex -7.598357152042775 -6.220648453827671 2.285399964431972
    vertex -6.55334845161992 -7.077060416067847 4.501731539806492
    vertex -8.325250279155561 -4.849089145825523 4.641509561919708
  endloop
endfacet
facet normal -0.449812 -0.887715 0.0981413
  outer loop
    vertex -3.722012748455355 -8.488256402045039 9.281161383238915
    vertex -3.076788851984351 -8.51824020210498 11.96721006621819
    vertex -5.02726831540863 -7.557022657656158 11.722039124085
  endloop
endfacet
facet normal -0.849383 -0.513997 0.119812
  outer loop
    vertex -7.598357152042775 -6.220648453827671 2.285399964431972
    vertex -9.036895152167745 -3.839710698248034 2.301466930709831
    vertex -8.429294788261764 -5.380240642627787 0
  endloop
endfacet
facet normal -0.925371 -0.377134 0.0381812
  outer loop
    vertex -8.779131012108936 -3.498872601249007 6.977849684876771
    vertex -9.338138887780122 -2.360034633633701 4.67840583354256
    vertex -8.325250279155561 -4.849089145825523 4.641509561919708
  endloop
endfacet
facet normal -0.959399 -0.25561 0.119238
  outer loop
    vertex -9.599295491925897 -2.802414326735353 0
    vertex -9.036895152167745 -3.839710698248034 2.301466930709831
    vertex -9.748470578241415 -1.157708172821171 2.325482177017905
  endloop
endfacet
facet normal -0.781308 -0.62335 0.0315011
  outer loop
    vertex -8.325250279155561 -4.849089145825523 4.641509561919708
    vertex -6.55334845161992 -7.077060416067847 4.501731539806492
    vertex -7.429027655475203 -5.863017283207289 6.806345203037364
  endloop
endfacet
facet normal -0.930166 0.34753 0.118381
  outer loop
    vertex -8.241225107502757 4.574081457022771 7.296238740526368
    vertex -9.10544135062888 3.109225585911817 4.80610813188985
    vertex -9.223339121997283 1.969252717099923 7.22634362713251
  endloop
endfacet
facet normal -0.71629 0.696414 0.0439968
  outer loop
    vertex -6.577853309022977 6.760304998819999 7.204681423090931
    vertex -5.912439487823637 7.606693371562103 4.640686498626209
    vertex -7.721171880892051 5.731468451266646 4.876065881015912
  endloop
endfacet
facet normal -0.989245 0.141448 0.0372485
  outer loop
    vertex -10 -5.993816554195064e-14 0
    vertex -9.680018780939012 1.614839765416271 2.365854633963499
    vertex -9.59929549192589 2.802414326735231 0
  endloop
endfacet
facet normal -0.294088 0.952748 0.0760458
  outer loop
    vertex -1.499999999999999 8.184091524039763 21.33333333333333
    vertex -3.340022718629076 7.555215009695676 22.09646209984261
    vertex -1.499999999999999 7.971245468714409 24
  endloop
endfacet
facet normal -0.268628 -0.957794 0.102322
  outer loop
    vertex -3.722012748455355 -8.488256402045039 9.281161383238915
    vertex -3.234615617625912 -8.908071328051587 6.631014406959476
    vertex -1.499999999999999 -9.248321800666535 7.999999999999979
  endloop
endfacet
facet normal -0.274656 0.956019 0.102918
  outer loop
    vertex -1.499999999999999 9.035475745341181 10.66666666666664
    vertex -3.237613836688315 8.681249448059742 9.319976537111677
    vertex -3.717572437826923 8.260594273508602 11.94664547131547
  endloop
endfacet
facet normal -0.288253 -0.9569 0.0353867
  outer loop
    vertex -1.499999999999999 -9.886859966642593 0
    vertex -3.398949695255695 -9.244128972869239 1.911745012229712
    vertex -4.210602125483375 -9.070326881699263 0
  endloop
endfacet
facet normal -0.271414 -0.961318 0.046932
  outer loop
    vertex -1.499999999999999 -9.461167855991887 5.333333333333314
    vertex -3.234615617625912 -8.908071328051587 6.631014406959476
    vertex -3.948025667017617 -8.824420397707529 4.218707040678645
  endloop
endfacet
facet normal -0.348414 -0.928173 0.130775
  outer loop
    vertex -4.115843421118969 -6.989319513037845 24
    vertex -3.402107507312793 -7.530655562355841 22.05943773061701
    vertex -1.499999999999999 -7.971245468714409 24
  endloop
endfacet
facet normal -0.279462 0.95914 0.0441706
  outer loop
    vertex -4.005926082753152 8.572499723142419 6.82039234037066
    vertex -3.237613836688315 8.681249448059742 9.319976537111677
    vertex -1.499999999999999 9.248321800666535 7.999999999999979
  endloop
endfacet
facet normal -0.27821 -0.954376 0.108465
  outer loop
    vertex -3.71280939374971 -8.03224378992592 14.61207461689879
    vertex -3.076788851984351 -8.51824020210498 11.96721006621819
    vertex -1.499999999999999 -8.822629690015827 13.33333333333331
  endloop
endfacet
facet normal -0.270543 -0.961178 0.0542586
  outer loop
    vertex -1.499999999999999 -9.035475745341181 10.66666666666664
    vertex -3.076788851984351 -8.51824020210498 11.96721006621819
    vertex -3.722012748455355 -8.488256402045039 9.281161383238915
  endloop
endfacet
facet normal -0.297902 -0.95157 0.0759517
  outer loop
    vertex -1.499999999999999 -7.971245468714409 24
    vertex -3.402107507312793 -7.530655562355841 22.05943773061701
    vertex -1.499999999999999 -8.184091524039763 21.33333333333333
  endloop
endfacet
facet normal -0.276473 0.959547 0.0532201
  outer loop
    vertex -3.717572437826923 8.260594273508602 11.94664547131547
    vertex -3.07328226245693 8.299333861472658 14.59520207021957
    vertex -1.499999999999999 8.822629690015827 13.33333333333331
  endloop
endfacet
facet normal -0.287445 0.951262 0.111698
  outer loop
    vertex -1.499999999999999 8.609783634690471 15.99999999999999
    vertex -3.07328226245693 8.299333861472658 14.59520207021957
    vertex -3.739271706585137 7.802323567324509 17.11406098207109
  endloop
endfacet
facet normal -0.246489 0.966073 0.0771093
  outer loop
    vertex -1.499999999999999 9.886859966642593 -3.469446951953614e-15
    vertex -3.353302845671666 9.273701284869073 1.757730775457899
    vertex -1.499999999999999 9.674013911317241 2.666666666666661
  endloop
endfacet
facet normal -0.249178 -0.965388 0.0770546
  outer loop
    vertex -1.499999999999999 -9.674013911317241 2.666666666666661
    vertex -3.398949695255695 -9.244128972869239 1.911745012229712
    vertex -1.499999999999999 -9.886859966642593 0
  endloop
endfacet
facet normal -0.965568 -0.230527 0.120563
  outer loop
    vertex -9.40449617268011 -0.794050503007 7.141275102380431
    vertex -9.338138887780122 -2.360034633633701 4.67840583354256
    vertex -8.779131012108936 -3.498872601249007 6.977849684876771
  endloop
endfacet
facet normal -0.754984 -0.653028 0.0596096
  outer loop
    vertex -7.455778843719699 -4.850491251901936 14.03853379315752
    vertex -5.865476510293562 -6.708893031522072 13.82155063549568
    vertex -6.016844954809534 -6.31270360769811 16.24468003648171
  endloop
endfacet
facet normal -0.711009 -0.695058 0.106587
  outer loop
    vertex -6.016844954809534 -6.31270360769811 16.24468003648171
    vertex -5.242137585983407 -6.72126084621434 18.74828159922197
    vertex -6.847474548103805 -5.061376180631426 18.8637532374162
  endloop
endfacet
facet normal -0.91 -0.413023 0.0362193
  outer loop
    vertex -8.429294788261764 -5.380240642627787 0
    vertex -9.036895152167745 -3.839710698248034 2.301466930709831
    vertex -9.599295491925897 -2.802414326735353 0
  endloop
endfacet
facet normal -0.348269 0.927786 0.133875
  outer loop
    vertex -1.499999999999999 7.971245468714409 24
    vertex -3.340022718629076 7.555215009695676 22.09646209984261
    vertex -4.115843421118973 6.989319513037866 24
  endloop
endfacet
facet normal -0.288305 0.957072 0.0298794
  outer loop
    vertex -4.210602125483351 9.070326881699122 0
    vertex -3.353302845671666 9.273701284869073 1.757730775457899
    vertex -1.499999999999999 9.886859966642593 -3.469446951953614e-15
  endloop
endfacet
facet normal -0.530054 -0.846957 0.0413125
  outer loop
    vertex -5.43629298084269 -6.287516209666925 21.4459848897882
    vertex -3.402107507312793 -7.530655562355841 22.05943773061701
    vertex -4.115843421118969 -6.989319513037845 24
  endloop
endfacet
facet normal -0.678747 -0.723921 0.123451
  outer loop
    vertex -7.429027655475203 -5.863017283207289 6.806345203037364
    vertex -6.55334845161992 -7.077060416067847 4.501731539806492
    vertex -5.384570941701213 -7.78559213641856 6.772935683179071
  endloop
endfacet
facet normal -0.492441 0.863247 0.110935
  outer loop
    vertex -5.336656688173552 8.257439473342599 2.132776860380418
    vertex -5.912439487823637 7.606693371562103 4.640686498626209
    vertex -3.727901942216779 8.944474677549248 3.927841991190609
  endloop
endfacet
facet normal -0.297328 0.952357 0.0679117
  outer loop
    vertex -3.571006267341026 7.63984157728507 19.89842290244479
    vertex -3.340022718629076 7.555215009695676 22.09646209984261
    vertex -1.499999999999999 8.184091524039763 21.33333333333333
  endloop
endfacet
facet normal -0.538271 -0.838379 0.0859405
  outer loop
    vertex -3.593953066696724 -7.629471402309943 19.8938698552962
    vertex -3.402107507312793 -7.530655562355841 22.05943773061701
    vertex -5.43629298084269 -6.287516209666925 21.4459848897882
  endloop
endfacet
facet normal -0.250114 -0.965147 0.0770354
  outer loop
    vertex -1.499999999999999 -9.248321800666535 7.999999999999979
    vertex -3.234615617625912 -8.908071328051587 6.631014406959476
    vertex -1.499999999999999 -9.461167855991887 5.333333333333314
  endloop
endfacet
facet normal -0.256046 0.9636 0.0769119
  outer loop
    vertex -1.499999999999999 9.248321800666535 7.999999999999979
    vertex -3.237613836688315 8.681249448059742 9.319976537111677
    vertex -1.499999999999999 9.035475745341181 10.66666666666664
  endloop
endfacet
facet normal -0.530634 0.842997 0.0882185
  outer loop
    vertex -5.364605641075102 6.342475794620019 21.50727418415403
    vertex -3.340022718629076 7.555215009695676 22.09646209984261
    vertex -3.571006267341026 7.63984157728507 19.89842290244479
  endloop
endfacet
facet normal -0.522578 -0.848941 0.0788129
  outer loop
    vertex -3.593953066696724 -7.629471402309943 19.8938698552962
    vertex -5.242137585983407 -6.72126084621434 18.74828159922197
    vertex -3.701536184106029 -7.805036815597235 17.28940724018773
  endloop
endfacet
facet normal -0.522091 0.851929 0.040479
  outer loop
    vertex -4.115843421118973 6.989319513037866 24
    vertex -3.340022718629076 7.555215009695676 22.09646209984261
    vertex -5.364605641075102 6.342475794620019 21.50727418415403
  endloop
endfacet
facet normal -0.257296 0.961 0.101379
  outer loop
    vertex -1.499999999999999 9.674013911317241 2.666666666666661
    vertex -3.353302845671666 9.273701284869073 1.757730775457899
    vertex -3.727901942216779 8.944474677549248 3.927841991190609
  endloop
endfacet
facet normal -0.449115 -0.886668 0.110067
  outer loop
    vertex -4.210602125483375 -9.070326881699263 0
    vertex -3.398949695255695 -9.244128972869239 1.911745012229712
    vertex -5.504075281182607 -8.13501653581849 2.256730610732129
  endloop
endfacet
facet normal -0.252872 -0.964433 0.0769784
  outer loop
    vertex -1.499999999999999 -8.822629690015827 13.33333333333331
    vertex -3.076788851984351 -8.51824020210498 11.96721006621819
    vertex -1.499999999999999 -9.035475745341181 10.66666666666664
  endloop
endfacet
facet normal -0.436754 0.892866 0.109711
  outer loop
    vertex -5.336656688173552 8.257439473342599 2.132776860380418
    vertex -3.353302845671666 9.273701284869073 1.757730775457899
    vertex -4.210602125483351 9.070326881699122 0
  endloop
endfacet
facet normal -0.300096 -0.951338 0.0699952
  outer loop
    vertex -1.499999999999999 -8.184091524039763 21.33333333333333
    vertex -3.402107507312793 -7.530655562355841 22.05943773061701
    vertex -3.593953066696724 -7.629471402309943 19.8938698552962
  endloop
endfacet
facet normal -0.692931 0.712655 0.109405
  outer loop
    vertex -6.678682757861087 5.258444011676726 19.04972657548149
    vertex -5.136268795060599 6.798976953215866 18.78390992948362
    vertex -5.969825768633013 6.306889504179082 16.7098792069705
  endloop
endfacet
facet normal -0.258634 0.962913 0.0768571
  outer loop
    vertex -1.499999999999999 8.822629690015827 13.33333333333331
    vertex -3.07328226245693 8.299333861472658 14.59520207021957
    vertex -1.499999999999999 8.609783634690471 15.99999999999999
  endloop
endfacet
facet normal -0.515801 0.852877 0.0809408
  outer loop
    vertex -3.739271706585137 7.802323567324509 17.11406098207109
    vertex -5.136268795060599 6.798976953215866 18.78390992948362
    vertex -3.571006267341026 7.63984157728507 19.89842290244479
  endloop
endfacet
facet normal -0.2616 -0.958639 0.112144
  outer loop
    vertex -3.948025667017617 -8.824420397707529 4.218707040678645
    vertex -3.398949695255695 -9.244128972869239 1.911745012229712
    vertex -1.499999999999999 -9.674013911317241 2.666666666666661
  endloop
endfacet
facet normal -0.560221 0.827845 0.0287382
  outer loop
    vertex -5.969825768633013 6.306889504179082 16.7098792069705
    vertex -5.136268795060599 6.798976953215866 18.78390992948362
    vertex -3.739271706585137 7.802323567324509 17.11406098207109
  endloop
endfacet
facet normal -0.446472 0.892891 0.0583912
  outer loop
    vertex -3.727901942216779 8.944474677549248 3.927841991190609
    vertex -3.353302845671666 9.273701284869073 1.757730775457899
    vertex -5.336656688173552 8.257439473342599 2.132776860380418
  endloop
endfacet
facet normal -0.458784 -0.887015 0.0521814
  outer loop
    vertex -5.504075281182607 -8.13501653581849 2.256730610732129
    vertex -3.398949695255695 -9.244128972869239 1.911745012229712
    vertex -3.948025667017617 -8.824420397707529 4.218707040678645
  endloop
endfacet
facet normal 1.00148e-14 -7.38994e-15 -1
  outer loop
    vertex -7.629834826842641 2.752305614897475 24.00000000000001
    vertex -4.797710637549037 2.744363331803097 24.00000000000004
    vertex -5.81176929594234 -0.07212539831195652 24.00000000000005
  endloop
endfacet
facet normal -1.07592e-14 5.31946e-16 -1
  outer loop
    vertex -1.499999999999999 2.657081822904811 24
    vertex -4.797710637549037 2.744363331803097 24.00000000000004
    vertex -3.708138818708099 4.746018748912551 24.00000000000002
  endloop
endfacet
facet normal -6.50224e-15 8.03258e-15 -1
  outer loop
    vertex -1.499999999999999 -5.314163645809586 24
    vertex -4.115815759044942 -6.989334415258526 24
    vertex -3.740694031479824 -4.031951062004856 24.00000000000002
  endloop
endfacet
facet normal -1.07807e-14 -2.82168e-16 -1
  outer loop
    vertex -4.797710637549037 2.744363331803097 24.00000000000004
    vertex -1.499999999999999 2.657081822904811 24
    vertex -3.428750699031697 0.8038590594392101 24.00000000000002
  endloop
endfacet
facet normal -1.35817e-15 0 -1
  outer loop
    vertex -1.499999999999999 5.314163645809611 24
    vertex -4.115815759044946 6.989334415258545 24
    vertex -1.499999999999999 7.971245468714409 24
  endloop
endfacet
facet normal -1.35817e-15 1.02148e-30 -1
  outer loop
    vertex -1.499999999999999 -5.314163645809586 24
    vertex -1.500000000000001 -7.971245468714399 24
    vertex -4.115815759044942 -6.989334415258526 24
  endloop
endfacet
facet normal 2.01968e-14 3.53195e-15 -1
  outer loop
    vertex -7.629834826842627 -2.752305614897485 24
    vertex -8.11115 2.292844957887599e-15 24
    vertex -5.81176929594234 -0.07212539831195652 24.00000000000005
  endloop
endfacet
facet normal 2.00569e-14 -9.25869e-16 -1
  outer loop
    vertex -8.11115 2.292844957887599e-15 24
    vertex -7.629834826842641 2.752305614897475 24.00000000000001
    vertex -5.81176929594234 -0.07212539831195652 24.00000000000005
  endloop
endfacet
facet normal 1.90326e-14 4.32162e-15 -1
  outer loop
    vertex -7.629834826842627 -2.752305614897485 24
    vertex -5.81176929594234 -0.07212539831195652 24.00000000000005
    vertex -5.404898299253538 -2.686085348073152 24.00000000000004
  endloop
endfacet
facet normal 7.04583e-15 6.31411e-15 -1
  outer loop
    vertex -4.115815759044942 -6.989334415258526 24
    vertex -6.243244348503634 -5.178026308630254 24
    vertex -3.740694031479824 -4.031951062004856 24.00000000000002
  endloop
endfacet
facet normal -1.12624e-14 -0 -1
  outer loop
    vertex -1.499999999999999 5.314163645809611 24
    vertex -1.499999999999999 2.657081822904811 24
    vertex -3.708138818708099 4.746018748912551 24.00000000000002
  endloop
endfacet
facet normal 1.00112e-14 -8.65181e-15 -1
  outer loop
    vertex -7.629834826842641 2.752305614897475 24.00000000000001
    vertex -6.243244348503646 5.17802630863026 24
    vertex -4.797710637549037 2.744363331803097 24.00000000000004
  endloop
endfacet
facet normal -1.01557e-14 -0 -1
  outer loop
    vertex -1.499999999999999 1.582640423805497e-14 24
    vertex -1.499999999999999 -2.657081822904781 24
    vertex -3.598948993499263 -1.396018356521205 24.00000000000002
  endloop
endfacet
facet normal -1.10988e-14 -0 -1
  outer loop
    vertex -1.499999999999999 -2.657081822904781 24
    vertex -1.499999999999999 -5.314163645809586 24
    vertex -3.740694031479824 -4.031951062004856 24.00000000000002
  endloop
endfacet
facet normal -8.42369e-15 -1.1033e-14 -1
  outer loop
    vertex -4.115815759044946 6.989334415258545 24
    vertex -1.499999999999999 5.314163645809611 24
    vertex -3.708138818708099 4.746018748912551 24.00000000000002
  endloop
endfacet
facet normal -1.06223e-14 -7.76597e-16 -1
  outer loop
    vertex -3.598948993499263 -1.396018356521205 24.00000000000002
    vertex -1.499999999999999 -2.657081822904781 24
    vertex -3.740694031479824 -4.031951062004856 24.00000000000002
  endloop
endfacet
facet normal -1.10519e-14 -0 -1
  outer loop
    vertex -1.499999999999999 2.657081822904811 24
    vertex -1.499999999999999 1.582640423805497e-14 24
    vertex -3.428750699031697 0.8038590594392101 24.00000000000002
  endloop
endfacet
facet normal -1.04246e-14 -3.08971e-17 -1
  outer loop
    vertex -4.797710637549037 2.744363331803097 24.00000000000004
    vertex -3.428750699031697 0.8038590594392101 24.00000000000002
    vertex -5.81176929594234 -0.07212539831195652 24.00000000000005
  endloop
endfacet
facet normal 8.14677e-15 -9.75924e-15 -1
  outer loop
    vertex -4.797710637549037 2.744363331803097 24.00000000000004
    vertex -6.243244348503646 5.17802630863026 24
    vertex -3.708138818708099 4.746018748912551 24.00000000000002
  endloop
endfacet
facet normal 8.45234e-15 -7.96609e-15 -1
  outer loop
    vertex -6.243244348503646 5.17802630863026 24
    vertex -4.115815759044946 6.989334415258545 24
    vertex -3.708138818708099 4.746018748912551 24.00000000000002
  endloop
endfacet
facet normal 1.88407e-14 1.07697e-14 -1
  outer loop
    vertex -6.243244348503634 -5.178026308630254 24
    vertex -7.629834826842627 -2.752305614897485 24
    vertex -5.404898299253538 -2.686085348073152 24.00000000000004
  endloop
endfacet
facet normal 2.48549e-15 1.6272e-14 -1
  outer loop
    vertex -3.740694031479824 -4.031951062004856 24.00000000000002
    vertex -6.243244348503634 -5.178026308630254 24
    vertex -5.404898299253538 -2.686085348073152 24.00000000000004
  endloop
endfacet
facet normal -1.07066e-14 8.28341e-16 -1
  outer loop
    vertex -1.499999999999999 1.582640423805497e-14 24
    vertex -3.598948993499263 -1.396018356521205 24.00000000000002
    vertex -3.428750699031697 0.8038590594392101 24.00000000000002
  endloop
endfacet
facet normal -1.1496e-14 -4.30259e-16 -1
  outer loop
    vertex -5.81176929594234 -0.07212539831195652 24.00000000000005
    vertex -3.598948993499263 -1.396018356521205 24.00000000000002
    vertex -5.404898299253538 -2.686085348073152 24.00000000000004
  endloop
endfacet
facet normal -1.12736e-14 -7.41571e-16 -1
  outer loop
    vertex -3.598948993499263 -1.396018356521205 24.00000000000002
    vertex -3.740694031479824 -4.031951062004856 24.00000000000002
    vertex -5.404898299253538 -2.686085348073152 24.00000000000004
  endloop
endfacet
facet normal -1.07414e-14 8.31032e-16 -1
  outer loop
    vertex -3.428750699031697 0.8038590594392101 24.00000000000002
    vertex -3.598948993499263 -1.396018356521205 24.00000000000002
    vertex -5.81176929594234 -0.07212539831195652 24.00000000000005
  endloop
endfacet
endsolid Created by Gmsh
