solid Created by Gmsh
facet normal 0.573294 -0.818965 0.0251224
  outer loop
    vertex 4.005926082753155 -8.572499723142412 6.82039234037067
    vertex 6.577853309022987 -6.760304998819986 7.204681423090948
    vertex 5.330727105328909 -7.563691347490464 9.474540976124885
  endloop
endfacet
facet normal 0.563171 0.823178 0.0722288
  outer loop
    vertex 3.712809393749706 8.032243789925918 14.61207461689882
    vertex 3.701536184106033 7.80503681559723 17.28940724018775
    vertex 6.016844954809533 6.312703607698109 16.24468003648175
  endloop
endfacet
facet normal 0.554861 0.831533 0.0261279
  outer loop
    vertex 5.38457094170121 7.785592136418556 6.772935683179086
    vertex 6.553348451619922 7.07706041606784 4.501731539806502
    vertex 3.948025667017626 8.824420397707529 4.218707040678656
  endloop
endfacet
facet normal 0.547797 0.830424 0.101557
  outer loop
    vertex 6.016844954809533 6.312703607698109 16.24468003648175
    vertex 5.86547651029356 6.708893031522069 13.82155063549572
    vertex 3.712809393749706 8.032243789925918 14.61207461689882
  endloop
endfacet
facet normal 0.541317 0.829438 0.13787
  outer loop
    vertex 3.948025667017626 8.824420397707529 4.218707040678656
    vertex 6.553348451619922 7.07706041606784 4.501731539806502
    vertex 5.504075281182626 8.135016535818474 2.256730610732134
  endloop
endfacet
facet normal 0.462468 -0.880534 0.103842
  outer loop
    vertex 5.330727105328909 -7.563691347490464 9.474540976124885
    vertex 3.237613836688321 -8.68124944805974 9.319976537111691
    vertex 4.005926082753155 -8.572499723142412 6.82039234037067
  endloop
endfacet
facet normal 0.558822 -0.819726 0.125569
  outer loop
    vertex 4.005926082753155 -8.572499723142412 6.82039234037067
    vertex 5.912439487823637 -7.606693371562097 4.640686498626223
    vertex 6.577853309022987 -6.760304998819986 7.204681423090948
  endloop
endfacet
facet normal 0.77201 0.622978 0.126088
  outer loop
    vertex 6.847474548103804 5.061376180631424 18.86375323741622
    vertex 5.43629298084269 6.287516209666925 21.44598488978821
    vertex 7.296211034046967 3.97821933156631 21.46792146530651
  endloop
endfacet
facet normal 0.543829 0.829356 0.128134
  outer loop
    vertex 6.273110765283417 6.841401699573859 9.113109463045513
    vertex 5.38457094170121 7.785592136418556 6.772935683179086
    vertex 3.722012748455359 8.488256402045035 9.281161383238951
  endloop
endfacet
facet normal 0.952235 -0.302901 0.0387184
  outer loop
    vertex 8.835053100045137 -4.268956125578264 2.383230794920919
    vertex 9.680018780939005 -1.614839765416282 2.365854633963521
    vertex 9.105441350628878 -3.109225585911821 4.806108131889875
  endloop
endfacet
facet normal 0.975632 -0.186577 0.115462
  outer loop
    vertex 9.105441350628878 -3.109225585911821 4.806108131889875
    vertex 9.680018780939005 -1.614839765416282 2.365854633963521
    vertex 9.608999318458761 -0.4637884471677278 4.825953424847394
  endloop
endfacet
facet normal 0.447049 0.892721 0.0565348
  outer loop
    vertex 5.027268315408629 7.557022657656159 11.72203912408503
    vertex 3.076788851984356 8.518240202104979 11.96721006621822
    vertex 3.712809393749706 8.032243789925918 14.61207461689882
  endloop
endfacet
facet normal 0.550407 0.827029 0.114347
  outer loop
    vertex 3.712809393749706 8.032243789925918 14.61207461689882
    vertex 5.86547651029356 6.708893031522069 13.82155063549572
    vertex 5.027268315408629 7.557022657656159 11.72203912408503
  endloop
endfacet
facet normal 0.715401 0.696096 0.0604324
  outer loop
    vertex 6.847474548103804 5.061376180631424 18.86375323741622
    vertex 5.242137585983408 6.721260846214339 18.74828159922199
    vertex 5.43629298084269 6.287516209666925 21.44598488978821
  endloop
endfacet
facet normal 0.965803 0.256576 0.0373201
  outer loop
    vertex 9.748470578241415 1.157708172821148 2.325482177017927
    vertex 9.036895152167759 3.839710698248001 2.301466930709835
    vertex 9.338138887780122 2.360034633633692 4.678405833542569
  endloop
endfacet
facet normal 0.890937 0.452791 0.034809
  outer loop
    vertex 7.296211034046967 3.97821933156631 21.46792146530651
    vertex 8.102173128316721 2.580846390919534 19.01617789964235
    vertex 6.847474548103804 5.061376180631424 18.86375323741622
  endloop
endfacet
facet normal 0.919225 0.375808 0.117446
  outer loop
    vertex 9.338138887780122 2.360034633633692 4.678405833542569
    vertex 9.036895152167759 3.839710698248001 2.301466930709835
    vertex 8.325250279155561 4.849089145825527 4.64150956191972
  endloop
endfacet
facet normal 0.45918 0.886577 0.055995
  outer loop
    vertex 5.38457094170121 7.785592136418556 6.772935683179086
    vertex 3.234615617625906 8.908071328051589 6.631014406959507
    vertex 3.722012748455359 8.488256402045035 9.281161383238951
  endloop
endfacet
facet normal 0.551477 -0.824395 0.12746
  outer loop
    vertex 3.717572437826924 -8.260594273508602 11.94664547131548
    vertex 5.330727105328909 -7.563691347490464 9.474540976124885
    vertex 6.223447337369448 -6.579592939264603 11.97706910940722
  endloop
endfacet
facet normal 0.567762 -0.814366 0.120224
  outer loop
    vertex 5.051606587990101 -7.281543441748394 14.44414903612942
    vertex 5.969825768633013 -6.306889504179078 16.70987920697051
    vertex 3.739271706585131 -7.80232356732451 17.11406098207109
  endloop
endfacet
facet normal 0.454914 0.884458 0.103865
  outer loop
    vertex 3.948025667017626 8.824420397707529 4.218707040678656
    vertex 3.234615617625906 8.908071328051589 6.631014406959507
    vertex 5.38457094170121 7.785592136418556 6.772935683179086
  endloop
endfacet
facet normal 0.654975 -0.754289 0.0453475
  outer loop
    vertex 7.388749745204705 -6.464505456095499 2.316270408449997
    vertex 5.912439487823637 -7.606693371562097 4.640686498626223
    vertex 5.336656688173545 -8.257439473342604 2.132776860380424
  endloop
endfacet
facet normal 0.938547 0.321641 0.125209
  outer loop
    vertex 8.201204778751936 1.316954754991139 21.52057914702483
    vertex 8.102173128316721 2.580846390919534 19.01617789964235
    vertex 7.296211034046967 3.97821933156631 21.46792146530651
  endloop
endfacet
facet normal 0.556631 -0.830282 0.0281574
  outer loop
    vertex 6.223447337369448 -6.579592939264603 11.97706910940722
    vertex 5.051606587990101 -7.281543441748394 14.44414903612942
    vertex 3.717572437826924 -8.260594273508602 11.94664547131548
  endloop
endfacet
facet normal 0.708791 -0.697164 0.107598
  outer loop
    vertex 7.721171880892056 -5.731468451266629 4.876065881015935
    vertex 5.912439487823637 -7.606693371562097 4.640686498626223
    vertex 7.388749745204705 -6.464505456095499 2.316270408449997
  endloop
endfacet
facet normal 0.833378 -0.550489 0.0494164
  outer loop
    vertex 7.721171880892056 -5.731468451266629 4.876065881015935
    vertex 7.388749745204705 -6.464505456095499 2.316270408449997
    vertex 8.835053100045137 -4.268956125578264 2.383230794920919
  endloop
endfacet
facet normal 0.460041 -0.8863 0.0532454
  outer loop
    vertex 3.739271706585131 -7.80232356732451 17.11406098207109
    vertex 3.073282262456927 -8.299333861472656 14.59520207021958
    vertex 5.051606587990101 -7.281543441748394 14.44414903612942
  endloop
endfacet
facet normal 0.879032 -0.46077 0.122453
  outer loop
    vertex 8.835053100045137 -4.268956125578264 2.383230794920919
    vertex 9.105441350628878 -3.109225585911821 4.806108131889875
    vertex 7.721171880892056 -5.731468451266629 4.876065881015935
  endloop
endfacet
facet normal 0.866041 -0.484457 0.12359
  outer loop
    vertex 7.980707532999412 -2.894903086078176 19.19073450349337
    vertex 6.678682757861085 -5.258444011676726 19.04972657548149
    vertex 7.573787863276808 -4.240222313964081 16.76869799320711
  endloop
endfacet
facet normal 0.55257 0.832727 0.0350949
  outer loop
    vertex 3.701536184106033 7.80503681559723 17.28940724018775
    vertex 5.242137585983408 6.721260846214339 18.74828159922199
    vertex 6.016844954809533 6.312703607698109 16.24468003648175
  endloop
endfacet
facet normal 0.992192 -0.00550592 0.124602
  outer loop
    vertex 8.493583664844028 -0.1276134721614215 19.12855949357893
    vertex 8.201204778751936 1.316954754991139 21.52057914702483
    vertex 8.175962880106008 -1.429560898089392 21.60021452719851
  endloop
endfacet
facet normal 0.543489 0.838901 0.0294244
  outer loop
    vertex 3.722012748455359 8.488256402045035 9.281161383238951
    vertex 5.027268315408629 7.557022657656159 11.72203912408503
    vertex 6.273110765283417 6.841401699573859 9.113109463045513
  endloop
endfacet
facet normal 0.874452 -0.483824 0.0353223
  outer loop
    vertex 7.180711173212715 -4.167091473581235 21.57004367223771
    vertex 6.678682757861085 -5.258444011676726 19.04972657548149
    vertex 7.980707532999412 -2.894903086078176 19.19073450349337
  endloop
endfacet
facet normal 0.931214 -0.339998 0.13131
  outer loop
    vertex 7.180711173212715 -4.167091473581235 21.57004367223771
    vertex 7.980707532999412 -2.894903086078176 19.19073450349337
    vertex 8.175962880106008 -1.429560898089392 21.60021452719851
  endloop
endfacet
facet normal 0.988957 0.144318 0.0337261
  outer loop
    vertex 8.493583664844028 -0.1276134721614215 19.12855949357893
    vertex 8.102173128316721 2.580846390919534 19.01617789964235
    vertex 8.201204778751936 1.316954754991139 21.52057914702483
  endloop
endfacet
facet normal 0.939425 -0.341815 0.0253519
  outer loop
    vertex 7.629910262956383 -2.752312428074424 24
    vertex 7.180711173212715 -4.167091473581235 21.57004367223771
    vertex 8.175962880106008 -1.429560898089392 21.60021452719851
  endloop
endfacet
facet normal 0.999456 -0.00826018 0.0319137
  outer loop
    vertex 8.175962880106008 -1.429560898089392 21.60021452719851
    vertex 8.201204778751936 1.316954754991139 21.52057914702483
    vertex 8.111150000000002 -1.291328155517135e-14 24
  endloop
endfacet
facet normal 0.788989 -0.613362 0.0358127
  outer loop
    vertex 6.678682757861085 -5.258444011676726 19.04972657548149
    vertex 5.969825768633013 -6.306889504179078 16.70987920697051
    vertex 7.573787863276808 -4.240222313964081 16.76869799320711
  endloop
endfacet
facet normal 0.987547 0.101027 0.120597
  outer loop
    vertex 9.748470578241415 1.157708172821148 2.325482177017927
    vertex 9.338138887780122 2.360034633633692 4.678405833542569
    vertex 9.608999318458761 -0.4637884471677278 4.825953424847394
  endloop
endfacet
facet normal 0.681778 -0.721908 0.118436
  outer loop
    vertex 6.223447337369448 -6.579592939264603 11.97706910940722
    vertex 6.975308812358285 -5.476376039521222 14.37345009318536
    vertex 5.051606587990101 -7.281543441748394 14.44414903612942
  endloop
endfacet
facet normal 0.998905 -0.0240781 0.0401028
  outer loop
    vertex 9.608999318458761 -0.4637884471677278 4.825953424847394
    vertex 9.680018780939005 -1.614839765416282 2.365854633963521
    vertex 9.748470578241415 1.157708172821148 2.325482177017927
  endloop
endfacet
facet normal 0.684544 -0.728093 0.035784
  outer loop
    vertex 6.975308812358285 -5.476376039521222 14.37345009318536
    vertex 5.969825768633013 -6.306889504179078 16.70987920697051
    vertex 5.051606587990101 -7.281543441748394 14.44414903612942
  endloop
endfacet
facet normal 0.748255 0.653589 0.113738
  outer loop
    vertex 6.966572664399322 5.830428852824966 11.62573841730218
    vertex 5.86547651029356 6.708893031522069 13.82155063549572
    vertex 7.455778843719694 4.85049125190194 14.03853379315755
  endloop
endfacet
facet normal 0.643182 0.755451 0.124945
  outer loop
    vertex 6.243295576956934 5.178031929338591 24
    vertex 5.43629298084269 6.287516209666925 21.44598488978821
    vertex 4.115843421118968 6.989319513037848 24
  endloop
endfacet
facet normal 0.982915 -0.181479 0.0307157
  outer loop
    vertex 7.980707532999412 -2.894903086078176 19.19073450349337
    vertex 8.493583664844028 -0.1276134721614215 19.12855949357893
    vertex 8.175962880106008 -1.429560898089392 21.60021452719851
  endloop
endfacet
facet normal 0.467033 -0.882466 0.0559862
  outer loop
    vertex 3.717572437826924 -8.260594273508602 11.94664547131548
    vertex 3.237613836688321 -8.68124944805974 9.319976537111691
    vertex 5.330727105328909 -7.563691347490464 9.474540976124885
  endloop
endfacet
facet normal 0.977174 0.170858 0.126244
  outer loop
    vertex 8.111150000000002 -1.291328155517135e-14 24
    vertex 8.201204778751936 1.316954754991139 21.52057914702483
    vertex 7.629910262956383 2.752312428074408 24
  endloop
endfacet
facet normal 0.782658 -0.610836 0.119688
  outer loop
    vertex 7.573787863276808 -4.240222313964081 16.76869799320711
    vertex 5.969825768633013 -6.306889504179078 16.70987920697051
    vertex 6.975308812358285 -5.476376039521222 14.37345009318536
  endloop
endfacet
facet normal 0.861093 -0.492227 0.127406
  outer loop
    vertex 6.243295576956942 -5.178031929338599 24
    vertex 7.180711173212715 -4.167091473581235 21.57004367223771
    vertex 7.629910262956383 -2.752312428074424 24
  endloop
endfacet
facet normal 0.866756 -0.483024 0.124184
  outer loop
    vertex 7.917456663053864 -4.391863370054883 12.015935009305
    vertex 8.328793306649386 -3.040679169673736 14.40049941288625
    vertex 6.975308812358285 -5.476376039521222 14.37345009318536
  endloop
endfacet
facet normal 0.937511 -0.346243 0.0344737
  outer loop
    vertex 8.87407120503514 -1.803107773083379 12.00144983123229
    vertex 8.328793306649386 -3.040679169673736 14.40049941288625
    vertex 7.917456663053864 -4.391863370054883 12.015935009305
  endloop
endfacet
facet normal 0.873496 -0.48575 0.0324363
  outer loop
    vertex 6.975308812358285 -5.476376039521222 14.37345009318536
    vertex 8.328793306649386 -3.040679169673736 14.40049941288625
    vertex 7.573787863276808 -4.240222313964081 16.76869799320711
  endloop
endfacet
facet normal 0.778415 0.627191 0.0264976
  outer loop
    vertex 7.296211034046967 3.97821933156631 21.46792146530651
    vertex 5.43629298084269 6.287516209666925 21.44598488978821
    vertex 6.243295576956934 5.178031929338591 24
  endloop
endfacet
facet normal 0.768394 0.628951 0.11828
  outer loop
    vertex 7.429027655475193 5.8630172832073 6.806345203037386
    vertex 6.273110765283417 6.841401699573859 9.113109463045513
    vertex 7.957033931784744 4.762311119124195 9.229186117434988
  endloop
endfacet
facet normal 0.544935 -0.837881 0.0316382
  outer loop
    vertex 6.583762800289213 -7.526889622515255 0
    vertex 5.336656688173545 -8.257439473342604 2.132776860380424
    vertex 4.210602125483367 -9.070326881699184 0
  endloop
endfacet
facet normal 0.684367 0.728344 0.0340179
  outer loop
    vertex 7.429027655475193 5.8630172832073 6.806345203037386
    vertex 5.38457094170121 7.785592136418556 6.772935683179086
    vertex 6.273110765283417 6.841401699573859 9.113109463045513
  endloop
endfacet
facet normal 0.783643 -0.608972 0.122706
  outer loop
    vertex 7.917456663053864 -4.391863370054883 12.015935009305
    vertex 6.223447337369448 -6.579592939264603 11.97706910940722
    vertex 7.317994985378541 -5.643781111247609 9.631215430379781
  endloop
endfacet
facet normal 0.975826 -0.178006 0.126798
  outer loop
    vertex 7.980707532999412 -2.894903086078176 19.19073450349337
    vertex 8.527627737122105 -1.618245063580187 16.77392039741891
    vertex 8.493583664844028 -0.1276134721614215 19.12855949357893
  endloop
endfacet
facet normal 0.643082 -0.755334 0.126157
  outer loop
    vertex 4.115843421118972 -6.989319513037862 24
    vertex 5.364605641075098 -6.342475794620017 21.50727418415402
    vertex 6.243295576956942 -5.178031929338599 24
  endloop
endfacet
facet normal 0.931219 -0.343428 0.122019
  outer loop
    vertex 8.87407120503514 -1.803107773083379 12.00144983123229
    vertex 7.917456663053864 -4.391863370054883 12.015935009305
    vertex 8.669331795852862 -3.205476997436671 9.616940335729987
  endloop
endfacet
facet normal 0.757797 0.651499 0.0359489
  outer loop
    vertex 6.583762800289212 7.526889622515273 0
    vertex 7.59835715204279 6.220648453827648 2.285399964431974
    vertex 8.429294788261759 5.38024064262773 0
  endloop
endfacet
facet normal 0.798148 0.58809 0.130803
  outer loop
    vertex 7.455778843719694 4.85049125190194 14.03853379315755
    vertex 6.016844954809533 6.312703607698109 16.24468003648175
    vertex 7.830662907513691 3.790646136957747 16.51609801158798
  endloop
endfacet
facet normal 0.692893 -0.720141 0.0360157
  outer loop
    vertex 6.223447337369448 -6.579592939264603 11.97706910940722
    vertex 5.330727105328909 -7.563691347490464 9.474540976124885
    vertex 7.317994985378541 -5.643781111247609 9.631215430379781
  endloop
endfacet
facet normal 0.531251 0.841633 0.0970857
  outer loop
    vertex 5.43629298084269 6.287516209666925 21.44598488978821
    vertex 5.242137585983408 6.721260846214339 18.74828159922199
    vertex 3.593953066696725 7.629471402309941 19.89386985529621
  endloop
endfacet
facet normal 0.759864 -0.637971 0.124896
  outer loop
    vertex 5.364605641075098 -6.342475794620017 21.50727418415402
    vertex 6.678682757861085 -5.258444011676726 19.04972657548149
    vertex 7.180711173212715 -4.167091473581235 21.57004367223771
  endloop
endfacet
facet normal 0.506468 -0.860033 0.0619178
  outer loop
    vertex 3.727901942216772 -8.94447467754925 3.927841991190614
    vertex 5.912439487823637 -7.606693371562097 4.640686498626223
    vertex 4.005926082753155 -8.572499723142412 6.82039234037067
  endloop
endfacet
facet normal 0.874221 -0.484302 0.0344878
  outer loop
    vertex 7.917456663053864 -4.391863370054883 12.015935009305
    vertex 7.317994985378541 -5.643781111247609 9.631215430379781
    vertex 8.669331795852862 -3.205476997436671 9.616940335729987
  endloop
endfacet
facet normal 0.909952 -0.413001 0.0376551
  outer loop
    vertex 9.599295491925893 -2.802414326735287 0
    vertex 8.835053100045137 -4.268956125578264 2.383230794920919
    vertex 8.429294788261755 -5.38024064262772 0
  endloop
endfacet
facet normal 0.924476 0.379366 0.0377578
  outer loop
    vertex 8.977733260225317 2.252862166088621 9.451303682633856
    vertex 7.957033931784744 4.762311119124195 9.229186117434988
    vertex 8.328075437913734 3.609030647427017 11.73187562599516
  endloop
endfacet
facet normal 0.861373 0.492387 0.12487
  outer loop
    vertex 7.629910262956383 2.752312428074408 24
    vertex 7.296211034046967 3.97821933156631 21.46792146530651
    vertex 6.243295576956934 5.178031929338591 24
  endloop
endfacet
facet normal 0.766911 -0.641092 0.02914
  outer loop
    vertex 5.364605641075098 -6.342475794620017 21.50727418415402
    vertex 7.180711173212715 -4.167091473581235 21.57004367223771
    vertex 6.243295576956942 -5.178031929338599 24
  endloop
endfacet
facet normal 0.999032 -0.0291711 0.0329114
  outer loop
    vertex 8.527627737122105 -1.618245063580187 16.77392039741891
    vertex 8.611434982424031 1.145356597899875 16.67945530335145
    vertex 8.493583664844028 -0.1276134721614215 19.12855949357893
  endloop
endfacet
facet normal 0.911009 0.410648 0.0378195
  outer loop
    vertex 8.544788307729682 2.417038675769674 14.22876211114043
    vertex 7.455778843719694 4.85049125190194 14.03853379315755
    vertex 7.830662907513691 3.790646136957747 16.51609801158798
  endloop
endfacet
facet normal 0.946099 0.322353 0.0313822
  outer loop
    vertex 7.629910262956383 2.752312428074408 24
    vertex 8.201204778751936 1.316954754991139 21.52057914702483
    vertex 7.296211034046967 3.97821933156631 21.46792146530651
  endloop
endfacet
facet normal 0.939246 -0.341749 0.0320241
  outer loop
    vertex 7.980707532999412 -2.894903086078176 19.19073450349337
    vertex 7.573787863276808 -4.240222313964081 16.76869799320711
    vertex 8.527627737122105 -1.618245063580187 16.77392039741891
  endloop
endfacet
facet normal 0.973958 -0.190348 0.123178
  outer loop
    vertex 8.863680264981978 -0.3298426738243793 14.3602640546335
    vertex 8.328793306649386 -3.040679169673736 14.40049941288625
    vertex 8.87407120503514 -1.803107773083379 12.00144983123229
  endloop
endfacet
facet normal 0.902787 0.413311 0.118955
  outer loop
    vertex 8.544788307729682 2.417038675769674 14.22876211114043
    vertex 8.328075437913734 3.609030647427017 11.73187562599516
    vertex 7.455778843719694 4.85049125190194 14.03853379315755
  endloop
endfacet
facet normal 0.789924 -0.61226 0.0340276
  outer loop
    vertex 7.917456663053864 -4.391863370054883 12.015935009305
    vertex 6.975308812358285 -5.476376039521222 14.37345009318536
    vertex 6.223447337369448 -6.579592939264603 11.97706910940722
  endloop
endfacet
facet normal 0.966993 0.25218 0.0364601
  outer loop
    vertex 9.010551825722652 0.9653263604603137 11.91671469535733
    vertex 8.328075437913734 3.609030647427017 11.73187562599516
    vertex 8.544788307729682 2.417038675769674 14.22876211114043
  endloop
endfacet
facet normal 0.959069 0.256042 0.120948
  outer loop
    vertex 8.977733260225317 2.252862166088621 9.451303682633856
    vertex 8.328075437913734 3.609030647427017 11.73187562599516
    vertex 9.010551825722652 0.9653263604603137 11.91671469535733
  endloop
endfacet
facet normal 0.949646 0.287925 0.123581
  outer loop
    vertex 8.544788307729682 2.417038675769674 14.22876211114043
    vertex 7.830662907513691 3.790646136957747 16.51609801158798
    vertex 8.611434982424031 1.145356597899875 16.67945530335145
  endloop
endfacet
facet normal 0.98139 0.146953 0.123607
  outer loop
    vertex 8.611434982424031 1.145356597899875 16.67945530335145
    vertex 8.102173128316721 2.580846390919534 19.01617789964235
    vertex 8.493583664844028 -0.1276134721614215 19.12855949357893
  endloop
endfacet
facet normal 0.992581 0.116841 0.0336365
  outer loop
    vertex 8.863680264981978 -0.3298426738243793 14.3602640546335
    vertex 8.544788307729682 2.417038675769674 14.22876211114043
    vertex 8.611434982424031 1.145356597899875 16.67945530335145
  endloop
endfacet
facet normal 0.86661 0.497598 0.0372016
  outer loop
    vertex 8.77913101210893 3.498872601249021 6.977849684876804
    vertex 7.429027655475193 5.8630172832073 6.806345203037386
    vertex 7.957033931784744 4.762311119124195 9.229186117434988
  endloop
endfacet
facet normal 0.978321 -0.203951 0.0359463
  outer loop
    vertex 8.87407120503514 -1.803107773083379 12.00144983123229
    vertex 8.669331795852862 -3.205476997436671 9.616940335729987
    vertex 9.231788879128416 -0.5141175914762413 9.579193222489451
  endloop
endfacet
facet normal 0.665523 0.745535 0.035467
  outer loop
    vertex 5.027268315408629 7.557022657656159 11.72203912408503
    vertex 5.86547651029356 6.708893031522069 13.82155063549572
    vertex 6.966572664399322 5.830428852824966 11.62573841730218
  endloop
endfacet
facet normal 0.989269 0.141451 0.0365822
  outer loop
    vertex 9.599295491925895 2.802414326735297 0
    vertex 9.748470578241415 1.157708172821148 2.325482177017927
    vertex 10 4.253541963095131e-15 0
  endloop
endfacet
facet normal 0.957979 0.28484 0.0337983
  outer loop
    vertex 7.830662907513691 3.790646136957747 16.51609801158798
    vertex 8.102173128316721 2.580846390919534 19.01617789964235
    vertex 8.611434982424031 1.145356597899875 16.67945530335145
  endloop
endfacet
facet normal 0.810487 0.58532 0.0226085
  outer loop
    vertex 6.016844954809533 6.312703607698109 16.24468003648175
    vertex 6.847474548103804 5.061376180631424 18.86375323741622
    vertex 7.830662907513691 3.790646136957747 16.51609801158798
  endloop
endfacet
facet normal 0.998245 -0.0481571 0.0344753
  outer loop
    vertex 8.863680264981978 -0.3298426738243793 14.3602640546335
    vertex 8.87407120503514 -1.803107773083379 12.00144983123229
    vertex 9.010551825722652 0.9653263604603137 11.91671469535733
  endloop
endfacet
facet normal 0.976935 -0.170816 0.128141
  outer loop
    vertex 7.629910262956383 -2.752312428074424 24
    vertex 8.175962880106008 -1.429560898089392 21.60021452719851
    vertex 8.111150000000002 -1.291328155517135e-14 24
  endloop
endfacet
facet normal 0.991907 -0.0258306 0.124314
  outer loop
    vertex 8.527627737122105 -1.618245063580187 16.77392039741891
    vertex 8.863680264981978 -0.3298426738243793 14.3602640546335
    vertex 8.611434982424031 1.145356597899875 16.67945530335145
  endloop
endfacet
facet normal 0.991454 -0.0451311 0.122401
  outer loop
    vertex 8.87407120503514 -1.803107773083379 12.00144983123229
    vertex 9.231788879128416 -0.5141175914762413 9.579193222489451
    vertex 9.010551825722652 0.9653263604603137 11.91671469535733
  endloop
endfacet
facet normal 0.932261 -0.339394 0.125304
  outer loop
    vertex 7.573787863276808 -4.240222313964081 16.76869799320711
    vertex 8.328793306649386 -3.040679169673736 14.40049941288625
    vertex 8.527627737122105 -1.618245063580187 16.77392039741891
  endloop
endfacet
facet normal 0.980627 -0.192994 0.0335126
  outer loop
    vertex 8.527627737122105 -1.618245063580187 16.77392039741891
    vertex 8.328793306649386 -3.040679169673736 14.40049941288625
    vertex 8.863680264981978 -0.3298426738243793 14.3602640546335
  endloop
endfacet
facet normal 0.882387 0.453937 0.123834
  outer loop
    vertex 6.847474548103804 5.061376180631424 18.86375323741622
    vertex 8.102173128316721 2.580846390919534 19.01617789964235
    vertex 7.830662907513691 3.790646136957747 16.51609801158798
  endloop
endfacet
facet normal 0.91594 0.383125 0.119456
  outer loop
    vertex 8.977733260225317 2.252862166088621 9.451303682633856
    vertex 8.77913101210893 3.498872601249021 6.977849684876804
    vertex 7.957033931784744 4.762311119124195 9.229186117434988
  endloop
endfacet
facet normal 0.668714 0.733392 0.122304
  outer loop
    vertex 6.583762800289212 7.526889622515273 0
    vertex 5.504075281182626 8.135016535818474 2.256730610732134
    vertex 7.59835715204279 6.220648453827648 2.285399964431974
  endloop
endfacet
facet normal 0.987885 0.0963283 0.121673
  outer loop
    vertex 9.231788879128416 -0.5141175914762413 9.579193222489451
    vertex 9.404496172680101 0.7940505030070234 7.141275102380457
    vertex 8.977733260225317 2.252862166088621 9.451303682633856
  endloop
endfacet
facet normal 0.985101 0.120249 0.122946
  outer loop
    vertex 8.863680264981978 -0.3298426738243793 14.3602640546335
    vertex 9.010551825722652 0.9653263604603137 11.91671469535733
    vertex 8.544788307729682 2.417038675769674 14.22876211114043
  endloop
endfacet
facet normal 0.684654 -0.718615 0.121824
  outer loop
    vertex 5.330727105328909 -7.563691347490464 9.474540976124885
    vertex 6.577853309022987 -6.760304998819986 7.204681423090948
    vertex 7.317994985378541 -5.643781111247609 9.631215430379781
  endloop
endfacet
facet normal 0.971989 -0.201434 0.121087
  outer loop
    vertex 8.669331795852862 -3.205476997436671 9.616940335729987
    vertex 9.223339121997281 -1.969252717099901 7.226343627132533
    vertex 9.231788879128416 -0.5141175914762413 9.579193222489451
  endloop
endfacet
facet normal 0.99504 0.092994 0.0353196
  outer loop
    vertex 9.231788879128416 -0.5141175914762413 9.579193222489451
    vertex 8.977733260225317 2.252862166088621 9.451303682633856
    vertex 9.010551825722652 0.9653263604603137 11.91671469535733
  endloop
endfacet
facet normal 0.997277 -0.0642663 0.0361644
  outer loop
    vertex 9.223339121997281 -1.969252717099901 7.226343627132533
    vertex 9.404496172680101 0.7940505030070234 7.141275102380457
    vertex 9.231788879128416 -0.5141175914762413 9.579193222489451
  endloop
endfacet
facet normal 0.858107 0.498865 0.121599
  outer loop
    vertex 8.77913101210893 3.498872601249021 6.977849684876804
    vertex 8.325250279155561 4.849089145825527 4.64150956191972
    vertex 7.429027655475193 5.8630172832073 6.806345203037386
  endloop
endfacet
facet normal 0.296165 0.952109 0.0759947
  outer loop
    vertex 1.500000000000002 8.609783634690471 16.00000000000001
    vertex 3.712809393749706 8.032243789925918 14.61207461689882
    vertex 1.500000000000003 8.822629690015825 13.33333333333334
  endloop
endfacet
facet normal 0.544875 0.83779 0.0349232
  outer loop
    vertex 4.210602125483374 9.070326881699195 0
    vertex 5.504075281182626 8.135016535818474 2.256730610732134
    vertex 6.583762800289212 7.526889622515273 0
  endloop
endfacet
facet normal 0.990789 -0.0612361 0.12078
  outer loop
    vertex 9.223339121997281 -1.969252717099901 7.226343627132533
    vertex 9.608999318458761 -0.4637884471677278 4.825953424847394
    vertex 9.404496172680101 0.7940505030070234 7.141275102380457
  endloop
endfacet
facet normal 0.973172 0.227195 0.0363108
  outer loop
    vertex 8.977733260225317 2.252862166088621 9.451303682633856
    vertex 9.404496172680101 0.7940505030070234 7.141275102380457
    vertex 8.77913101210893 3.498872601249021 6.977849684876804
  endloop
endfacet
facet normal 0.302257 -0.950204 0.0758427
  outer loop
    vertex 1.5 -8.396937579365119 18.66666666666666
    vertex 3.571006267341019 -7.639841577285072 19.89842290244479
    vertex 1.5 -8.184091524039765 21.33333333333333
  endloop
endfacet
facet normal 0.289451 -0.954158 0.0761583
  outer loop
    vertex 1.500000000000001 -9.035475745341179 10.66666666666666
    vertex 3.717572437826924 -8.260594273508602 11.94664547131548
    vertex 1.5 -8.822629690015827 13.33333333333332
  endloop
endfacet
facet normal 0.304658 -0.949442 0.0757819
  outer loop
    vertex 1.5 -8.609783634690473 15.99999999999999
    vertex 3.739271706585131 -7.80232356732451 17.11406098207109
    vertex 1.5 -8.396937579365119 18.66666666666666
  endloop
endfacet
facet normal 0.283035 0.956069 0.0763108
  outer loop
    vertex 1.500000000000003 9.035475745341177 10.66666666666668
    vertex 3.722012748455359 8.488256402045035 9.281161383238951
    vertex 1.500000000000003 9.248321800666531 8.000000000000012
  endloop
endfacet
facet normal 0.78769 -0.604323 0.119741
  outer loop
    vertex 6.577853309022987 -6.760304998819986 7.204681423090948
    vertex 7.721171880892056 -5.731468451266629 4.876065881015935
    vertex 8.241225107502764 -4.574081457022746 7.296238740526394
  endloop
endfacet
facet normal 0.303672 0.949756 0.0758069
  outer loop
    vertex 1.500000000000002 8.184091524039763 21.33333333333334
    vertex 3.593953066696725 7.629471402309941 19.89386985529621
    vertex 1.500000000000002 8.396937579365117 18.66666666666667
  endloop
endfacet
facet normal 0.302856 0.950015 0.0758276
  outer loop
    vertex 1.500000000000002 8.396937579365117 18.66666666666667
    vertex 3.701536184106033 7.80503681559723 17.28940724018775
    vertex 1.500000000000002 8.609783634690471 16.00000000000001
  endloop
endfacet
facet normal 0.292859 -0.953124 0.0760758
  outer loop
    vertex 1.500000000000001 -9.461167855991887 5.333333333333326
    vertex 4.005926082753155 -8.572499723142412 6.82039234037067
    vertex 1.500000000000001 -9.248321800666533 7.999999999999993
  endloop
endfacet
facet normal 0.283394 0.955963 0.0763024
  outer loop
    vertex 1.500000000000004 9.461167855991885 5.33333333333334
    vertex 3.948025667017626 8.824420397707529 4.218707040678656
    vertex 1.500000000000004 9.674013911317239 2.666666666666671
  endloop
endfacet
facet normal 0.775399 0.63023 0.0395745
  outer loop
    vertex 6.273110765283417 6.841401699573859 9.113109463045513
    vertex 6.966572664399322 5.830428852824966 11.62573841730218
    vertex 7.957033931784744 4.762311119124195 9.229186117434988
  endloop
endfacet
facet normal 0.299487 0.950576 0.0819299
  outer loop
    vertex 1.500000000000002 8.609783634690471 16.00000000000001
    vertex 3.701536184106033 7.80503681559723 17.28940724018775
    vertex 3.712809393749706 8.032243789925918 14.61207461689882
  endloop
endfacet
facet normal 0.935441 -0.351759 0.0348818
  outer loop
    vertex 8.669331795852862 -3.205476997436671 9.616940335729987
    vertex 8.241225107502764 -4.574081457022746 7.296238740526394
    vertex 9.223339121997281 -1.969252717099901 7.226343627132533
  endloop
endfacet
facet normal 0.303413 -0.949999 0.0737733
  outer loop
    vertex 3.739271706585131 -7.80232356732451 17.11406098207109
    vertex 3.571006267341019 -7.639841577285072 19.89842290244479
    vertex 1.5 -8.396937579365119 18.66666666666666
  endloop
endfacet
facet normal 0.851062 0.523534 0.0400719
  outer loop
    vertex 8.328075437913734 3.609030647427017 11.73187562599516
    vertex 6.966572664399322 5.830428852824966 11.62573841730218
    vertex 7.455778843719694 4.85049125190194 14.03853379315755
  endloop
endfacet
facet normal 0.794571 -0.606072 0.0365127
  outer loop
    vertex 6.577853309022987 -6.760304998819986 7.204681423090948
    vertex 8.241225107502764 -4.574081457022746 7.296238740526394
    vertex 7.317994985378541 -5.643781111247609 9.631215430379781
  endloop
endfacet
facet normal 0.700135 -0.711438 0.0605522
  outer loop
    vertex 5.364605641075098 -6.342475794620017 21.50727418415402
    vertex 5.136268795060591 -6.798976953215875 18.78390992948363
    vertex 6.678682757861085 -5.258444011676726 19.04972657548149
  endloop
endfacet
facet normal 0.868299 -0.4805 0.123191
  outer loop
    vertex 7.317994985378541 -5.643781111247609 9.631215430379781
    vertex 8.241225107502764 -4.574081457022746 7.296238740526394
    vertex 8.669331795852862 -3.205476997436671 9.616940335729987
  endloop
endfacet
facet normal 0.674087 0.737928 0.0326921
  outer loop
    vertex 5.504075281182626 8.135016535818474 2.256730610732134
    vertex 6.553348451619922 7.07706041606784 4.501731539806502
    vertex 7.59835715204279 6.220648453827648 2.285399964431974
  endloop
endfacet
facet normal 0.30326 0.949828 0.0765542
  outer loop
    vertex 3.593953066696725 7.629471402309941 19.89386985529621
    vertex 3.701536184106033 7.80503681559723 17.28940724018775
    vertex 1.500000000000002 8.396937579365117 18.66666666666667
  endloop
endfacet
facet normal 0.647034 -0.752887 0.120453
  outer loop
    vertex 6.583762800289213 -7.526889622515255 0
    vertex 7.388749745204705 -6.464505456095499 2.316270408449997
    vertex 5.336656688173545 -8.257439473342604 2.132776860380424
  endloop
endfacet
facet normal 0.27086 -0.959567 0.07659
  outer loop
    vertex 1.500000000000001 -9.674013911317241 2.666666666666661
    vertex 3.727901942216772 -8.94447467754925 3.927841991190614
    vertex 1.500000000000001 -9.461167855991887 5.333333333333326
  endloop
endfacet
facet normal 0.827937 -0.548905 0.11499
  outer loop
    vertex 8.835053100045137 -4.268956125578264 2.383230794920919
    vertex 7.388749745204705 -6.464505456095499 2.316270408449997
    vertex 8.429294788261755 -5.38024064262772 0
  endloop
endfacet
facet normal 0.981507 -0.187132 0.0403299
  outer loop
    vertex 9.223339121997281 -1.969252717099901 7.226343627132533
    vertex 9.105441350628878 -3.109225585911821 4.806108131889875
    vertex 9.608999318458761 -0.4637884471677278 4.825953424847394
  endloop
endfacet
facet normal 0.281778 -0.954696 0.0956879
  outer loop
    vertex 1.500000000000001 -9.461167855991887 5.333333333333326
    vertex 3.727901942216772 -8.94447467754925 3.927841991190614
    vertex 4.005926082753155 -8.572499723142412 6.82039234037067
  endloop
endfacet
facet normal 0.524147 -0.845986 0.0978612
  outer loop
    vertex 3.571006267341019 -7.639841577285072 19.89842290244479
    vertex 5.136268795060591 -6.798976953215875 18.78390992948363
    vertex 5.364605641075098 -6.342475794620017 21.50727418415402
  endloop
endfacet
facet normal 0.663765 0.739169 0.114216
  outer loop
    vertex 5.027268315408629 7.557022657656159 11.72203912408503
    vertex 6.966572664399322 5.830428852824966 11.62573841730218
    vertex 6.273110765283417 6.841401699573859 9.113109463045513
  endloop
endfacet
facet normal 0.94638 -0.300514 0.118557
  outer loop
    vertex 9.599295491925893 -2.802414326735287 0
    vertex 9.680018780939005 -1.614839765416282 2.365854633963521
    vertex 8.835053100045137 -4.268956125578264 2.383230794920919
  endloop
endfacet
facet normal 0.844385 0.523062 0.115849
  outer loop
    vertex 7.957033931784744 4.762311119124195 9.229186117434988
    vertex 6.966572664399322 5.830428852824966 11.62573841730218
    vertex 8.328075437913734 3.609030647427017 11.73187562599516
  endloop
endfacet
facet normal 0.992668 -0.0227795 0.11871
  outer loop
    vertex 9.748470578241415 1.157708172821148 2.325482177017927
    vertex 9.680018780939005 -1.614839765416282 2.365854633963521
    vertex 10 4.253541963095131e-15 0
  endloop
endfacet
facet normal 0.855207 0.516958 0.0370924
  outer loop
    vertex 8.325250279155561 4.849089145825527 4.64150956191972
    vertex 9.036895152167759 3.839710698248001 2.301466930709835
    vertex 7.59835715204279 6.220648453827648 2.285399964431974
  endloop
endfacet
facet normal 0.994645 0.0972363 0.0350277
  outer loop
    vertex 9.608999318458761 -0.4637884471677278 4.825953424847394
    vertex 9.338138887780122 2.360034633633692 4.678405833542569
    vertex 9.404496172680101 0.7940505030070234 7.141275102380457
  endloop
endfacet
facet normal 0.757811 -0.65151 0.0354564
  outer loop
    vertex 8.429294788261755 -5.38024064262772 0
    vertex 7.388749745204705 -6.464505456095499 2.316270408449997
    vertex 6.583762800289213 -7.526889622515255 0
  endloop
endfacet
facet normal 0.461202 -0.881722 0.0992957
  outer loop
    vertex 5.051606587990101 -7.281543441748394 14.44414903612942
    vertex 3.073282262456927 -8.299333861472656 14.59520207021958
    vertex 3.717572437826924 -8.260594273508602 11.94664547131548
  endloop
endfacet
facet normal 0.884227 -0.465904 0.0328019
  outer loop
    vertex 7.721171880892056 -5.731468451266629 4.876065881015935
    vertex 9.105441350628878 -3.109225585911821 4.806108131889875
    vertex 8.241225107502764 -4.574081457022746 7.296238740526394
  endloop
endfacet
facet normal 0.77283 0.622403 0.12389
  outer loop
    vertex 7.59835715204279 6.220648453827648 2.285399964431974
    vertex 6.553348451619922 7.07706041606784 4.501731539806502
    vertex 8.325250279155561 4.849089145825527 4.64150956191972
  endloop
endfacet
facet normal 0.449812 0.887715 0.0981413
  outer loop
    vertex 3.722012748455359 8.488256402045035 9.281161383238951
    vertex 3.076788851984356 8.518240202104979 11.96721006621822
    vertex 5.027268315408629 7.557022657656159 11.72203912408503
  endloop
endfacet
facet normal 0.849383 0.513997 0.119812
  outer loop
    vertex 7.59835715204279 6.220648453827648 2.285399964431974
    vertex 9.036895152167759 3.839710698248001 2.301466930709835
    vertex 8.429294788261759 5.38024064262773 0
  endloop
endfacet
facet normal 0.925371 0.377134 0.0381812
  outer loop
    vertex 8.77913101210893 3.498872601249021 6.977849684876804
    vertex 9.338138887780122 2.360034633633692 4.678405833542569
    vertex 8.325250279155561 4.849089145825527 4.64150956191972
  endloop
endfacet
facet normal 0.959399 0.25561 0.119238
  outer loop
    vertex 9.599295491925895 2.802414326735297 0
    vertex 9.036895152167759 3.839710698248001 2.301466930709835
    vertex 9.748470578241415 1.157708172821148 2.325482177017927
  endloop
endfacet
facet normal 0.781308 0.62335 0.0315011
  outer loop
    vertex 8.325250279155561 4.849089145825527 4.64150956191972
    vertex 6.553348451619922 7.07706041606784 4.501731539806502
    vertex 7.429027655475193 5.8630172832073 6.806345203037386
  endloop
endfacet
facet normal 0.930166 -0.34753 0.118381
  outer loop
    vertex 8.241225107502764 -4.574081457022746 7.296238740526394
    vertex 9.105441350628878 -3.109225585911821 4.806108131889875
    vertex 9.223339121997281 -1.969252717099901 7.226343627132533
  endloop
endfacet
facet normal 0.71629 -0.696414 0.0439968
  outer loop
    vertex 6.577853309022987 -6.760304998819986 7.204681423090948
    vertex 5.912439487823637 -7.606693371562097 4.640686498626223
    vertex 7.721171880892056 -5.731468451266629 4.876065881015935
  endloop
endfacet
facet normal 0.989245 -0.141448 0.0372485
  outer loop
    vertex 10 4.253541963095131e-15 0
    vertex 9.680018780939005 -1.614839765416282 2.365854633963521
    vertex 9.599295491925893 -2.802414326735287 0
  endloop
endfacet
facet normal 0.294088 -0.952748 0.0760458
  outer loop
    vertex 1.5 -8.184091524039765 21.33333333333333
    vertex 3.340022718629076 -7.555215009695676 22.09646209984261
    vertex 1.499999999999999 -7.971245468714409 24
  endloop
endfacet
facet normal 0.268628 0.957794 0.102322
  outer loop
    vertex 3.722012748455359 8.488256402045035 9.281161383238951
    vertex 3.234615617625906 8.908071328051589 6.631014406959507
    vertex 1.500000000000003 9.248321800666531 8.000000000000012
  endloop
endfacet
facet normal 0.274656 -0.956019 0.102918
  outer loop
    vertex 1.500000000000001 -9.035475745341179 10.66666666666666
    vertex 3.237613836688321 -8.68124944805974 9.319976537111691
    vertex 3.717572437826924 -8.260594273508602 11.94664547131548
  endloop
endfacet
facet normal 0.288253 0.9569 0.0353867
  outer loop
    vertex 1.500000000000004 9.886859966642593 0
    vertex 3.398949695255717 9.244128972869229 1.911745012229716
    vertex 4.210602125483374 9.070326881699195 0
  endloop
endfacet
facet normal 0.271414 0.961318 0.046932
  outer loop
    vertex 1.500000000000004 9.461167855991885 5.33333333333334
    vertex 3.234615617625906 8.908071328051589 6.631014406959507
    vertex 3.948025667017626 8.824420397707529 4.218707040678656
  endloop
endfacet
facet normal 0.348414 0.928173 0.130775
  outer loop
    vertex 4.115843421118968 6.989319513037848 24
    vertex 3.402107507312787 7.530655562355844 22.05943773061702
    vertex 1.500000000000002 7.971245468714409 24
  endloop
endfacet
facet normal 0.279462 -0.95914 0.0441706
  outer loop
    vertex 4.005926082753155 -8.572499723142412 6.82039234037067
    vertex 3.237613836688321 -8.68124944805974 9.319976537111691
    vertex 1.500000000000001 -9.248321800666533 7.999999999999993
  endloop
endfacet
facet normal 0.27821 0.954376 0.108465
  outer loop
    vertex 3.712809393749706 8.032243789925918 14.61207461689882
    vertex 3.076788851984356 8.518240202104979 11.96721006621822
    vertex 1.500000000000003 8.822629690015825 13.33333333333334
  endloop
endfacet
facet normal 0.270543 0.961178 0.0542586
  outer loop
    vertex 1.500000000000003 9.035475745341177 10.66666666666668
    vertex 3.076788851984356 8.518240202104979 11.96721006621822
    vertex 3.722012748455359 8.488256402045035 9.281161383238951
  endloop
endfacet
facet normal 0.297902 0.95157 0.0759517
  outer loop
    vertex 1.500000000000002 7.971245468714409 24
    vertex 3.402107507312787 7.530655562355844 22.05943773061702
    vertex 1.500000000000002 8.184091524039763 21.33333333333334
  endloop
endfacet
facet normal 0.276473 -0.959547 0.0532201
  outer loop
    vertex 3.717572437826924 -8.260594273508602 11.94664547131548
    vertex 3.073282262456927 -8.299333861472656 14.59520207021958
    vertex 1.5 -8.822629690015827 13.33333333333332
  endloop
endfacet
facet normal 0.287445 -0.951262 0.111698
  outer loop
    vertex 1.5 -8.609783634690473 15.99999999999999
    vertex 3.073282262456927 -8.299333861472656 14.59520207021958
    vertex 3.739271706585131 -7.80232356732451 17.11406098207109
  endloop
endfacet
facet normal 0.246489 -0.966073 0.0771093
  outer loop
    vertex 1.500000000000002 -9.886859966642593 0
    vertex 3.35330284567166 -9.273701284869073 1.757730775457904
    vertex 1.500000000000001 -9.674013911317241 2.666666666666661
  endloop
endfacet
facet normal 0.249178 0.965388 0.0770546
  outer loop
    vertex 1.500000000000004 9.674013911317239 2.666666666666671
    vertex 3.398949695255717 9.244128972869229 1.911745012229716
    vertex 1.500000000000004 9.886859966642593 0
  endloop
endfacet
facet normal 0.965568 0.230527 0.120563
  outer loop
    vertex 9.404496172680101 0.7940505030070234 7.141275102380457
    vertex 9.338138887780122 2.360034633633692 4.678405833542569
    vertex 8.77913101210893 3.498872601249021 6.977849684876804
  endloop
endfacet
facet normal 0.754984 0.653028 0.0596096
  outer loop
    vertex 7.455778843719694 4.85049125190194 14.03853379315755
    vertex 5.86547651029356 6.708893031522069 13.82155063549572
    vertex 6.016844954809533 6.312703607698109 16.24468003648175
  endloop
endfacet
facet normal 0.711009 0.695058 0.106587
  outer loop
    vertex 6.016844954809533 6.312703607698109 16.24468003648175
    vertex 5.242137585983408 6.721260846214339 18.74828159922199
    vertex 6.847474548103804 5.061376180631424 18.86375323741622
  endloop
endfacet
facet normal 0.91 0.413023 0.0362193
  outer loop
    vertex 8.429294788261759 5.38024064262773 0
    vertex 9.036895152167759 3.839710698248001 2.301466930709835
    vertex 9.599295491925895 2.802414326735297 0
  endloop
endfacet
facet normal 0.348269 -0.927786 0.133875
  outer loop
    vertex 1.499999999999999 -7.971245468714409 24
    vertex 3.340022718629076 -7.555215009695676 22.09646209984261
    vertex 4.115843421118972 -6.989319513037862 24
  endloop
endfacet
facet normal 0.288305 -0.957072 0.0298794
  outer loop
    vertex 4.210602125483367 -9.070326881699184 0
    vertex 3.35330284567166 -9.273701284869073 1.757730775457904
    vertex 1.500000000000002 -9.886859966642593 0
  endloop
endfacet
facet normal 0.530054 0.846957 0.0413125
  outer loop
    vertex 5.43629298084269 6.287516209666925 21.44598488978821
    vertex 3.402107507312787 7.530655562355844 22.05943773061702
    vertex 4.115843421118968 6.989319513037848 24
  endloop
endfacet
facet normal 0.678747 0.723921 0.123451
  outer loop
    vertex 7.429027655475193 5.8630172832073 6.806345203037386
    vertex 6.553348451619922 7.07706041606784 4.501731539806502
    vertex 5.38457094170121 7.785592136418556 6.772935683179086
  endloop
endfacet
facet normal 0.492441 -0.863247 0.110935
  outer loop
    vertex 5.336656688173545 -8.257439473342604 2.132776860380424
    vertex 5.912439487823637 -7.606693371562097 4.640686498626223
    vertex 3.727901942216772 -8.94447467754925 3.927841991190614
  endloop
endfacet
facet normal 0.297328 -0.952357 0.0679117
  outer loop
    vertex 3.571006267341019 -7.639841577285072 19.89842290244479
    vertex 3.340022718629076 -7.555215009695676 22.09646209984261
    vertex 1.5 -8.184091524039765 21.33333333333333
  endloop
endfacet
facet normal 0.538271 0.838379 0.0859405
  outer loop
    vertex 3.593953066696725 7.629471402309941 19.89386985529621
    vertex 3.402107507312787 7.530655562355844 22.05943773061702
    vertex 5.43629298084269 6.287516209666925 21.44598488978821
  endloop
endfacet
facet normal 0.250114 0.965147 0.0770354
  outer loop
    vertex 1.500000000000003 9.248321800666531 8.000000000000012
    vertex 3.234615617625906 8.908071328051589 6.631014406959507
    vertex 1.500000000000004 9.461167855991885 5.33333333333334
  endloop
endfacet
facet normal 0.256046 -0.9636 0.0769119
  outer loop
    vertex 1.500000000000001 -9.248321800666533 7.999999999999993
    vertex 3.237613836688321 -8.68124944805974 9.319976537111691
    vertex 1.500000000000001 -9.035475745341179 10.66666666666666
  endloop
endfacet
facet normal 0.530634 -0.842997 0.0882185
  outer loop
    vertex 5.364605641075098 -6.342475794620017 21.50727418415402
    vertex 3.340022718629076 -7.555215009695676 22.09646209984261
    vertex 3.571006267341019 -7.639841577285072 19.89842290244479
  endloop
endfacet
facet normal 0.522578 0.848941 0.0788129
  outer loop
    vertex 3.593953066696725 7.629471402309941 19.89386985529621
    vertex 5.242137585983408 6.721260846214339 18.74828159922199
    vertex 3.701536184106033 7.80503681559723 17.28940724018775
  endloop
endfacet
facet normal 0.522091 -0.851929 0.040479
  outer loop
    vertex 4.115843421118972 -6.989319513037862 24
    vertex 3.340022718629076 -7.555215009695676 22.09646209984261
    vertex 5.364605641075098 -6.342475794620017 21.50727418415402
  endloop
endfacet
facet normal 0.257296 -0.961 0.101379
  outer loop
    vertex 1.500000000000001 -9.674013911317241 2.666666666666661
    vertex 3.35330284567166 -9.273701284869073 1.757730775457904
    vertex 3.727901942216772 -8.94447467754925 3.927841991190614
  endloop
endfacet
facet normal 0.449115 0.886668 0.110067
  outer loop
    vertex 4.210602125483374 9.070326881699195 0
    vertex 3.398949695255717 9.244128972869229 1.911745012229716
    vertex 5.504075281182626 8.135016535818474 2.256730610732134
  endloop
endfacet
facet normal 0.252872 0.964433 0.0769784
  outer loop
    vertex 1.500000000000003 8.822629690015825 13.33333333333334
    vertex 3.076788851984356 8.518240202104979 11.96721006621822
    vertex 1.500000000000003 9.035475745341177 10.66666666666668
  endloop
endfacet
facet normal 0.436754 -0.892866 0.109711
  outer loop
    vertex 5.336656688173545 -8.257439473342604 2.132776860380424
    vertex 3.35330284567166 -9.273701284869073 1.757730775457904
    vertex 4.210602125483367 -9.070326881699184 0
  endloop
endfacet
facet normal 0.300096 0.951338 0.0699952
  outer loop
    vertex 1.500000000000002 8.184091524039763 21.33333333333334
    vertex 3.402107507312787 7.530655562355844 22.05943773061702
    vertex 3.593953066696725 7.629471402309941 19.89386985529621
  endloop
endfacet
facet normal 0.692931 -0.712655 0.109405
  outer loop
    vertex 6.678682757861085 -5.258444011676726 19.04972657548149
    vertex 5.136268795060591 -6.798976953215875 18.78390992948363
    vertex 5.969825768633013 -6.306889504179078 16.70987920697051
  endloop
endfacet
facet normal 0.258634 -0.962913 0.0768571
  outer loop
    vertex 1.5 -8.822629690015827 13.33333333333332
    vertex 3.073282262456927 -8.299333861472656 14.59520207021958
    vertex 1.5 -8.609783634690473 15.99999999999999
  endloop
endfacet
facet normal 0.515801 -0.852877 0.0809408
  outer loop
    vertex 3.739271706585131 -7.80232356732451 17.11406098207109
    vertex 5.136268795060591 -6.798976953215875 18.78390992948363
    vertex 3.571006267341019 -7.639841577285072 19.89842290244479
  endloop
endfacet
facet normal 0.2616 0.958639 0.112144
  outer loop
    vertex 3.948025667017626 8.824420397707529 4.218707040678656
    vertex 3.398949695255717 9.244128972869229 1.911745012229716
    vertex 1.500000000000004 9.674013911317239 2.666666666666671
  endloop
endfacet
facet normal 0.560221 -0.827845 0.0287382
  outer loop
    vertex 5.969825768633013 -6.306889504179078 16.70987920697051
    vertex 5.136268795060591 -6.798976953215875 18.78390992948363
    vertex 3.739271706585131 -7.80232356732451 17.11406098207109
  endloop
endfacet
facet normal 0.446472 -0.892891 0.0583912
  outer loop
    vertex 3.727901942216772 -8.94447467754925 3.927841991190614
    vertex 3.35330284567166 -9.273701284869073 1.757730775457904
    vertex 5.336656688173545 -8.257439473342604 2.132776860380424
  endloop
endfacet
facet normal 0.458784 0.887015 0.0521814
  outer loop
    vertex 5.504075281182626 8.135016535818474 2.256730610732134
    vertex 3.398949695255717 9.244128972869229 1.911745012229716
    vertex 3.948025667017626 8.824420397707529 4.218707040678656
  endloop
endfacet
facet normal -1 0 0
  outer loop
    vertex 1.499999999999999 4.204967503627838 14.3769698405492
    vertex 1.499999999999999 2.91701708024775 16.68650566724375
    vertex 1.499999999999999 6.058011978630233 17.10898091840471
  endloop
endfacet
facet normal -1 0 0
  outer loop
    vertex 1.499999999999999 1.485102412873627 18.89984074397418
    vertex 1.499999999999999 1.221537646451252 21.65470711795874
    vertex 1.499999999999999 3.985622734357208 21.69889964143058
  endloop
endfacet
facet normal -1 0 -0
  outer loop
    vertex 1.499999999999999 3.985622734357208 21.69889964143058
    vertex 1.499999999999999 4.160040976582836 18.88642992756667
    vertex 1.499999999999999 1.485102412873627 18.89984074397418
  endloop
endfacet
facet normal -1 0 0
  outer loop
    vertex 1.499999999999999 -1.434055572632529 21.6555449981284
    vertex 1.499999999999999 1.221537646451252 21.65470711795874
    vertex 1.499999999999999 -1.188888385759323 18.92049247603378
  endloop
endfacet
facet normal -1 0 0
  outer loop
    vertex 1.499999999999999 -1.188888385759323 18.92049247603378
    vertex 1.499999999999999 1.221537646451252 21.65470711795874
    vertex 1.499999999999999 1.485102412873627 18.89984074397418
  endloop
endfacet
facet normal -1 -0 0
  outer loop
    vertex 1.499999999999999 -1.188888385759323 18.92049247603378
    vertex 1.499999999999999 -3.763691055366602 18.89419739517013
    vertex 1.499999999999999 -1.434055572632529 21.6555449981284
  endloop
endfacet
facet normal -1 0 0
  outer loop
    vertex 1.499999999999999 -3.763691055366602 18.89419739517013
    vertex 1.499999999999999 -4.106364605389242 21.66924537073924
    vertex 1.499999999999999 -1.434055572632529 21.6555449981284
  endloop
endfacet
facet normal -1 0 -0
  outer loop
    vertex 1.499999999999999 6.058011978630233 17.10898091840471
    vertex 1.499999999999999 6.748453361118418 14.10885285908386
    vertex 1.499999999999999 4.204967503627838 14.3769698405492
  endloop
endfacet
facet normal -1 -0 0
  outer loop
    vertex 1.499999999999999 -4.521374722752373 4.997719370768511
    vertex 1.499999999999999 -7.373684296747256 4.06696185209347
    vertex 1.499999999999999 -6.997909010026602 6.507665484040595
  endloop
endfacet
facet normal -1 -0 0
  outer loop
    vertex 1.499999999999999 -4.217921719607071 9.9319952763716
    vertex 1.499999999999999 -6.851956131796237 9.041459911968035
    vertex 1.499999999999999 -6.634406226844122 11.60648557011586
  endloop
endfacet
facet normal -1 0 0
  outer loop
    vertex 1.499999999999999 2.91701708024775 16.68650566724375
    vertex 1.499999999999999 4.160040976582836 18.88642992756667
    vertex 1.499999999999999 6.058011978630233 17.10898091840471
  endloop
endfacet
facet normal -1 1.57309e-15 -8.1295e-17
  outer loop
    vertex 1.499999999999999 6.058011978630233 17.10898091840471
    vertex 1.499999999999999 6.207867648576579 20.00875052500679
    vertex 1.500000000000002 8.396937579365117 18.66666666666667
  endloop
endfacet
facet normal -1 0 -0
  outer loop
    vertex 1.499999999999999 7.067009202945838 6.524054435755556
    vertex 1.499999999999999 7.39450328141926 4.102274302592249
    vertex 1.499999999999999 4.594283322109733 4.978806293111794
  endloop
endfacet
facet normal -1 0 0
  outer loop
    vertex 1.499999999999999 -6.634406226844122 11.60648557011586
    vertex 1.499999999999999 -4.623486976477267 12.36263562303318
    vertex 1.499999999999999 -4.217921719607071 9.9319952763716
  endloop
endfacet
facet normal -1 0 0
  outer loop
    vertex 1.499999999999999 -5.5427913253894 2.250566437768004
    vertex 1.499999999999999 -7.373684296747256 4.06696185209347
    vertex 1.499999999999999 -4.521374722752373 4.997719370768511
  endloop
endfacet
facet normal -1 0 0
  outer loop
    vertex 1.499999999999999 -6.997909010026602 6.507665484040595
    vertex 1.499999999999999 -4.97770228829192 7.535946474613508
    vertex 1.499999999999999 -4.521374722752373 4.997719370768511
  endloop
endfacet
facet normal -1 0 0
  outer loop
    vertex 1.499999999999999 4.160040976582836 18.88642992756667
    vertex 1.499999999999999 6.207867648576579 20.00875052500679
    vertex 1.499999999999999 6.058011978630233 17.10898091840471
  endloop
endfacet
facet normal -1 0 0
  outer loop
    vertex 1.499999999999999 4.594283322109733 4.978806293111794
    vertex 1.499999999999999 5.050543295828196 7.533031690618998
    vertex 1.499999999999999 7.067009202945838 6.524054435755556
  endloop
endfacet
facet normal -1 0 0
  outer loop
    vertex 1.499999999999999 6.778028661580185 9.437175869029589
    vertex 1.499999999999999 4.033906597026339 9.607319665067486
    vertex 1.499999999999999 5.331052652942197 11.95074764529411
  endloop
endfacet
facet normal -1 0 0
  outer loop
    vertex 1.499999999999999 4.594283322109733 4.978806293111794
    vertex 1.499999999999999 7.39450328141926 4.102274302592249
    vertex 1.499999999999999 5.572189844076513 2.23879935963597
  endloop
endfacet
facet normal -1 0 -0
  outer loop
    vertex 1.499999999999999 -4.521374722752373 4.997719370768511
    vertex 1.499999999999999 -2.819400066941062 2.427329095544025
    vertex 1.499999999999999 -5.5427913253894 2.250566437768004
  endloop
endfacet
facet normal -1 0 0
  outer loop
    vertex 1.499999999999999 -6.338593059462225 17.35390065503271
    vertex 1.499999999999999 -6.165763253196146 19.94389176408459
    vertex 1.499999999999999 -3.763691055366602 18.89419739517013
  endloop
endfacet
facet normal -1 0 0
  outer loop
    vertex 1.499999999999999 5.331052652942197 11.95074764529411
    vertex 1.499999999999999 7.464274706803946 11.88308541692177
    vertex 1.499999999999999 6.778028661580185 9.437175869029589
  endloop
endfacet
facet normal -1 0 0
  outer loop
    vertex 1.499999999999999 0.02202267853340589 2.432253465601964
    vertex 1.499999999999999 1.434959263876192 4.842253779999272
    vertex 1.499999999999999 2.844356494992316 2.435082342788666
  endloop
endfacet
facet normal -1 1.59908e-15 -3.88989e-17
  outer loop
    vertex 1.500000000000002 8.396937579365117 18.66666666666667
    vertex 1.499999999999999 6.207867648576579 20.00875052500679
    vertex 1.500000000000002 8.184091524039763 21.33333333333334
  endloop
endfacet
facet normal -1 -0 0
  outer loop
    vertex 1.499999999999999 -2.657081822904785 24
    vertex 1.499999999999999 -4.106364605389242 21.66924537073924
    vertex 1.499999999999999 -5.314163645809592 24
  endloop
endfacet
facet normal -1 0 0
  outer loop
    vertex 1.499999999999999 -1.434055572632529 21.6555449981284
    vertex 1.499999999999999 -4.106364605389242 21.66924537073924
    vertex 1.499999999999999 -2.657081822904785 24
  endloop
endfacet
facet normal -1 0 0
  outer loop
    vertex 1.499999999999999 -5.5427913253894 2.250566437768004
    vertex 1.499999999999999 -2.819400066941062 2.427329095544025
    vertex 1.499999999999999 -4.237225699989674 0
  endloop
endfacet
facet normal -1 -0 0
  outer loop
    vertex 1.499999999999999 0.02202267853340589 2.432253465601964
    vertex 1.499999999999999 -2.819400066941062 2.427329095544025
    vertex 1.499999999999999 -1.337395851688396 4.856921943476165
  endloop
endfacet
facet normal -1 -0 0
  outer loop
    vertex 1.499999999999999 -1.337395851688396 4.856921943476165
    vertex 1.499999999999999 -2.819400066941062 2.427329095544025
    vertex 1.499999999999999 -4.521374722752373 4.997719370768511
  endloop
endfacet
facet normal -1 0 0
  outer loop
    vertex 1.499999999999999 0.02202267853340589 2.432253465601964
    vertex 1.499999999999999 2.844356494992316 2.435082342788666
    vertex 1.499999999999999 1.412408566663236 0
  endloop
endfacet
facet normal -1 0 0
  outer loop
    vertex 1.499999999999999 2.844356494992316 2.435082342788666
    vertex 1.499999999999999 4.594283322109733 4.978806293111794
    vertex 1.499999999999999 5.572189844076513 2.23879935963597
  endloop
endfacet
facet normal -1 0 -0
  outer loop
    vertex 1.499999999999999 1.434900060109837 9.586297438289304
    vertex 1.499999999999999 2.818087323004953 7.217866000487797
    vertex 1.499999999999999 0.06614700212519767 7.229720300957201
  endloop
endfacet
facet normal -1 0 0
  outer loop
    vertex 1.499999999999999 1.434959263876192 4.842253779999272
    vertex 1.499999999999999 4.594283322109733 4.978806293111794
    vertex 1.499999999999999 2.844356494992316 2.435082342788666
  endloop
endfacet
facet normal -1 0 0
  outer loop
    vertex 1.499999999999999 0.02202267853340589 2.432253465601964
    vertex 1.499999999999999 -1.337395851688396 4.856921943476165
    vertex 1.499999999999999 1.434959263876192 4.842253779999272
  endloop
endfacet
facet normal -1 0 0
  outer loop
    vertex 1.499999999999999 -1.337395851688396 4.856921943476165
    vertex 1.499999999999999 0.06614700212519767 7.229720300957201
    vertex 1.499999999999999 1.434959263876192 4.842253779999272
  endloop
endfacet
facet normal -1 0 0
  outer loop
    vertex 1.499999999999999 0.06614700212519767 7.229720300957201
    vertex 1.499999999999999 2.818087323004953 7.217866000487797
    vertex 1.499999999999999 1.434959263876192 4.842253779999272
  endloop
endfacet
facet normal -1 0 0
  outer loop
    vertex 1.499999999999999 4.237225699989684 0
    vertex 1.499999999999999 2.844356494992316 2.435082342788666
    vertex 1.499999999999999 5.572189844076513 2.23879935963597
  endloop
endfacet
facet normal -1 0 0
  outer loop
    vertex 1.499999999999999 -1.337395851688396 4.856921943476165
    vertex 1.499999999999999 -2.599499896326511 7.298728844211451
    vertex 1.499999999999999 0.06614700212519767 7.229720300957201
  endloop
endfacet
facet normal -1 0 0
  outer loop
    vertex 1.499999999999999 4.237225699989684 0
    vertex 1.499999999999999 5.572189844076513 2.23879935963597
    vertex 1.499999999999999 7.06204283331614 0
  endloop
endfacet
facet normal -1 0 0
  outer loop
    vertex 1.499999999999999 1.434959263876192 4.842253779999272
    vertex 1.499999999999999 2.818087323004953 7.217866000487797
    vertex 1.499999999999999 4.594283322109733 4.978806293111794
  endloop
endfacet
facet normal -1 0 0
  outer loop
    vertex 1.499999999999999 -7.062042833316145 0
    vertex 1.499999999999999 -5.5427913253894 2.250566437768004
    vertex 1.499999999999999 -4.237225699989674 0
  endloop
endfacet
facet normal -1 0 0
  outer loop
    vertex 1.499999999999999 -2.599499896326511 7.298728844211451
    vertex 1.499999999999999 -1.265069721540104 9.608670943667036
    vertex 1.499999999999999 0.06614700212519767 7.229720300957201
  endloop
endfacet
facet normal -1 0 0
  outer loop
    vertex 1.499999999999999 -3.763691055366602 18.89419739517013
    vertex 1.499999999999999 -6.165763253196146 19.94389176408459
    vertex 1.499999999999999 -4.106364605389242 21.66924537073924
  endloop
endfacet
facet normal -1 0 0
  outer loop
    vertex 1.499999999999999 -1.41240856666321 0
    vertex 1.499999999999999 0.02202267853340589 2.432253465601964
    vertex 1.499999999999999 1.412408566663236 0
  endloop
endfacet
facet normal -1 0 0
  outer loop
    vertex 1.499999999999999 -2.599499896326511 7.298728844211451
    vertex 1.499999999999999 -4.217921719607071 9.9319952763716
    vertex 1.499999999999999 -1.265069721540104 9.608670943667036
  endloop
endfacet
facet normal -1 0 0
  outer loop
    vertex 1.499999999999999 -1.265069721540104 9.608670943667036
    vertex 1.499999999999999 0.1000139020652215 11.93521571985184
    vertex 1.499999999999999 1.434900060109837 9.586297438289304
  endloop
endfacet
facet normal -1 0 0
  outer loop
    vertex 1.499999999999999 -1.265069721540104 9.608670943667036
    vertex 1.499999999999999 1.434900060109837 9.586297438289304
    vertex 1.499999999999999 0.06614700212519767 7.229720300957201
  endloop
endfacet
facet normal -1 0 0
  outer loop
    vertex 1.499999999999999 -1.41240856666321 0
    vertex 1.499999999999999 -2.819400066941062 2.427329095544025
    vertex 1.499999999999999 0.02202267853340589 2.432253465601964
  endloop
endfacet
facet normal -1 0 0
  outer loop
    vertex 1.499999999999999 -4.217921719607071 9.9319952763716
    vertex 1.499999999999999 -2.59278923152423 11.96249623663391
    vertex 1.499999999999999 -1.265069721540104 9.608670943667036
  endloop
endfacet
facet normal -1 0 0
  outer loop
    vertex 1.499999999999999 1.434900060109837 9.586297438289304
    vertex 1.499999999999999 4.033906597026339 9.607319665067486
    vertex 1.499999999999999 2.818087323004953 7.217866000487797
  endloop
endfacet
facet normal -1 0 0
  outer loop
    vertex 1.499999999999999 1.412408566663236 0
    vertex 1.499999999999999 2.844356494992316 2.435082342788666
    vertex 1.499999999999999 4.237225699989684 0
  endloop
endfacet
facet normal -1 0 0
  outer loop
    vertex 1.499999999999999 0.1000139020652215 11.93521571985184
    vertex 1.499999999999999 2.790827588692675 11.91879934668513
    vertex 1.499999999999999 1.434900060109837 9.586297438289304
  endloop
endfacet
facet normal -1 0 -0
  outer loop
    vertex 1.499999999999999 1.485102412873627 18.89984074397418
    vertex 1.499999999999999 2.91701708024775 16.68650566724375
    vertex 1.499999999999999 0.1337294468941317 16.58997675748466
  endloop
endfacet
facet normal -1 0 0
  outer loop
    vertex 1.499999999999999 1.485102412873627 18.89984074397418
    vertex 1.499999999999999 4.160040976582836 18.88642992756667
    vertex 1.499999999999999 2.91701708024775 16.68650566724375
  endloop
endfacet
facet normal -1 0 0
  outer loop
    vertex 1.499999999999999 0.1337294468941317 16.58997675748466
    vertex 1.499999999999999 2.91701708024775 16.68650566724375
    vertex 1.499999999999999 1.460250162877833 14.25683581548312
  endloop
endfacet
facet normal -1 0 0
  outer loop
    vertex 1.499999999999999 0.1000139020652215 11.93521571985184
    vertex 1.499999999999999 1.460250162877833 14.25683581548312
    vertex 1.499999999999999 2.790827588692675 11.91879934668513
  endloop
endfacet
facet normal -1 0 0
  outer loop
    vertex 1.499999999999999 -1.226072920985385 14.27767317220968
    vertex 1.499999999999999 0.1337294468941317 16.58997675748466
    vertex 1.499999999999999 1.460250162877833 14.25683581548312
  endloop
endfacet
facet normal -1 0 0
  outer loop
    vertex 1.499999999999999 -2.420819855576945 16.53800364468497
    vertex 1.499999999999999 -1.188888385759323 18.92049247603378
    vertex 1.499999999999999 0.1337294468941317 16.58997675748466
  endloop
endfacet
facet normal -1 0 0
  outer loop
    vertex 1.499999999999999 1.460250162877833 14.25683581548312
    vertex 1.499999999999999 4.204967503627838 14.3769698405492
    vertex 1.499999999999999 2.790827588692675 11.91879934668513
  endloop
endfacet
facet normal -1 0 0
  outer loop
    vertex 1.499999999999999 1.460250162877833 14.25683581548312
    vertex 1.499999999999999 2.91701708024775 16.68650566724375
    vertex 1.499999999999999 4.204967503627838 14.3769698405492
  endloop
endfacet
facet normal -1 0 0
  outer loop
    vertex 1.499999999999999 -4.237225699989674 0
    vertex 1.499999999999999 -2.819400066941062 2.427329095544025
    vertex 1.499999999999999 -1.41240856666321 0
  endloop
endfacet
facet normal -1 0 0
  outer loop
    vertex 1.499999999999999 -1.226072920985385 14.27767317220968
    vertex 1.499999999999999 -2.420819855576945 16.53800364468497
    vertex 1.499999999999999 0.1337294468941317 16.58997675748466
  endloop
endfacet
facet normal -1 0 0
  outer loop
    vertex 1.499999999999999 -2.420819855576945 16.53800364468497
    vertex 1.499999999999999 -3.763691055366602 18.89419739517013
    vertex 1.499999999999999 -1.188888385759323 18.92049247603378
  endloop
endfacet
facet normal -1 0 -0
  outer loop
    vertex 1.499999999999999 4.204967503627838 14.3769698405492
    vertex 1.499999999999999 5.331052652942197 11.95074764529411
    vertex 1.499999999999999 2.790827588692675 11.91879934668513
  endloop
endfacet
facet normal -1 0 0
  outer loop
    vertex 1.499999999999999 0.1000139020652215 11.93521571985184
    vertex 1.499999999999999 -1.226072920985385 14.27767317220968
    vertex 1.499999999999999 1.460250162877833 14.25683581548312
  endloop
endfacet
facet normal -1 0 0
  outer loop
    vertex 1.499999999999999 -1.188888385759323 18.92049247603378
    vertex 1.499999999999999 1.485102412873627 18.89984074397418
    vertex 1.499999999999999 0.1337294468941317 16.58997675748466
  endloop
endfacet
facet normal -1 0 0
  outer loop
    vertex 1.499999999999999 4.204967503627838 14.3769698405492
    vertex 1.499999999999999 6.748453361118418 14.10885285908386
    vertex 1.499999999999999 5.331052652942197 11.95074764529411
  endloop
endfacet
facet normal -1 0 0
  outer loop
    vertex 1.499999999999999 -1.226072920985385 14.27767317220968
    vertex 1.499999999999999 -3.9094314707001 14.30530636059389
    vertex 1.499999999999999 -2.420819855576945 16.53800364468497
  endloop
endfacet
facet normal -1 -5.63783e-16 -3.82671e-17
  outer loop
    vertex 1.5 -8.396937579365119 18.66666666666666
    vertex 1.499999999999999 -6.338593059462225 17.35390065503271
    vertex 1.5 -8.609783634690473 15.99999999999999
  endloop
endfacet
facet normal -1 1.49494e-15 3.60552e-17
  outer loop
    vertex 1.500000000000002 8.609783634690471 16.00000000000001
    vertex 1.499999999999999 6.058011978630233 17.10898091840471
    vertex 1.500000000000002 8.396937579365117 18.66666666666667
  endloop
endfacet
facet normal -1 -0 0
  outer loop
    vertex 1.499999999999999 -1.226072920985385 14.27767317220968
    vertex 1.499999999999999 -2.59278923152423 11.96249623663391
    vertex 1.499999999999999 -3.9094314707001 14.30530636059389
  endloop
endfacet
facet normal -1 1.92872e-15 7.06788e-17
  outer loop
    vertex 1.500000000000003 9.248321800666531 8.000000000000012
    vertex 1.499999999999999 6.778028661580185 9.437175869029589
    vertex 1.500000000000003 9.035475745341177 10.66666666666668
  endloop
endfacet
facet normal -1 -7.91851e-16 -1.0333e-16
  outer loop
    vertex 1.5 -8.822629690015827 13.33333333333332
    vertex 1.499999999999999 -6.634406226844122 11.60648557011586
    vertex 1.500000000000001 -9.035475745341179 10.66666666666666
  endloop
endfacet
facet normal -1 0 0
  outer loop
    vertex 1.499999999999999 -1.337395851688396 4.856921943476165
    vertex 1.499999999999999 -4.521374722752373 4.997719370768511
    vertex 1.499999999999999 -2.599499896326511 7.298728844211451
  endloop
endfacet
facet normal -1 -0 0
  outer loop
    vertex 1.499999999999999 9.339751194659129e-15 24
    vertex 1.499999999999999 -1.434055572632529 21.6555449981284
    vertex 1.499999999999999 -2.657081822904785 24
  endloop
endfacet
facet normal -1 -0 0
  outer loop
    vertex 1.499999999999999 2.657081822904806 24
    vertex 1.499999999999999 1.221537646451252 21.65470711795874
    vertex 1.499999999999999 9.339751194659129e-15 24
  endloop
endfacet
facet normal -1 0 0
  outer loop
    vertex 1.499999999999999 -1.265069721540104 9.608670943667036
    vertex 1.499999999999999 -2.59278923152423 11.96249623663391
    vertex 1.499999999999999 0.1000139020652215 11.93521571985184
  endloop
endfacet
facet normal -1 0 0
  outer loop
    vertex 1.499999999999999 0.1000139020652215 11.93521571985184
    vertex 1.499999999999999 -2.59278923152423 11.96249623663391
    vertex 1.499999999999999 -1.226072920985385 14.27767317220968
  endloop
endfacet
facet normal -1 -0 0
  outer loop
    vertex 1.499999999999999 5.314163645809609 24
    vertex 1.499999999999999 3.985622734357208 21.69889964143058
    vertex 1.499999999999999 2.657081822904806 24
  endloop
endfacet
facet normal -1 0 -0
  outer loop
    vertex 1.499999999999999 9.339751194659129e-15 24
    vertex 1.499999999999999 1.221537646451252 21.65470711795874
    vertex 1.499999999999999 -1.434055572632529 21.6555449981284
  endloop
endfacet
facet normal -1 -0 0
  outer loop
    vertex 1.499999999999999 3.985622734357208 21.69889964143058
    vertex 1.499999999999999 1.221537646451252 21.65470711795874
    vertex 1.499999999999999 2.657081822904806 24
  endloop
endfacet
facet normal -1 0 -0
  outer loop
    vertex 1.499999999999999 2.790827588692675 11.91879934668513
    vertex 1.499999999999999 4.033906597026339 9.607319665067486
    vertex 1.499999999999999 1.434900060109837 9.586297438289304
  endloop
endfacet
facet normal -1 0 0
  outer loop
    vertex 1.499999999999999 5.331052652942197 11.95074764529411
    vertex 1.499999999999999 4.033906597026339 9.607319665067486
    vertex 1.499999999999999 2.790827588692675 11.91879934668513
  endloop
endfacet
facet normal -1 -9.22398e-16 -9.64344e-18
  outer loop
    vertex 1.500000000000001 -9.035475745341179 10.66666666666666
    vertex 1.499999999999999 -6.851956131796237 9.041459911968035
    vertex 1.500000000000001 -9.248321800666533 7.999999999999993
  endloop
endfacet
facet normal -1 -8.60875e-16 7.30142e-17
  outer loop
    vertex 1.499999999999999 -6.634406226844122 11.60648557011586
    vertex 1.499999999999999 -6.851956131796237 9.041459911968035
    vertex 1.500000000000001 -9.035475745341179 10.66666666666666
  endloop
endfacet
facet normal -1 2.0816e-15 8.28805e-17
  outer loop
    vertex 1.500000000000004 9.461167855991885 5.33333333333334
    vertex 1.499999999999999 7.067009202945838 6.524054435755556
    vertex 1.500000000000003 9.248321800666531 8.000000000000012
  endloop
endfacet
facet normal -1 2.00322e-15 1.98718e-16
  outer loop
    vertex 1.500000000000003 9.248321800666531 8.000000000000012
    vertex 1.499999999999999 7.067009202945838 6.524054435755556
    vertex 1.499999999999999 6.778028661580185 9.437175869029589
  endloop
endfacet
facet normal -1 -9.89526e-16 -4.28548e-18
  outer loop
    vertex 1.500000000000001 -9.248321800666533 7.999999999999993
    vertex 1.499999999999999 -6.997909010026602 6.507665484040595
    vertex 1.500000000000001 -9.461167855991887 5.333333333333326
  endloop
endfacet
facet normal -1 -9.50381e-16 5.47443e-17
  outer loop
    vertex 1.500000000000001 -9.248321800666533 7.999999999999993
    vertex 1.499999999999999 -6.851956131796237 9.041459911968035
    vertex 1.499999999999999 -6.997909010026602 6.507665484040595
  endloop
endfacet
facet normal -1 0 0
  outer loop
    vertex 1.499999999999999 -3.763691055366602 18.89419739517013
    vertex 1.499999999999999 -4.472085698571357 16.19279333859759
    vertex 1.499999999999999 -6.338593059462225 17.35390065503271
  endloop
endfacet
facet normal -1 -5.70533e-16 -2.69431e-17
  outer loop
    vertex 1.499999999999999 -6.338593059462225 17.35390065503271
    vertex 1.499999999999999 -6.201488108108766 14.4506364115295
    vertex 1.5 -8.609783634690473 15.99999999999999
  endloop
endfacet
facet normal -1 -6.34135e-16 9.6524e-17
  outer loop
    vertex 1.5 -8.822629690015827 13.33333333333332
    vertex 1.499999999999999 -6.201488108108766 14.4506364115295
    vertex 1.499999999999999 -6.634406226844122 11.60648557011586
  endloop
endfacet
facet normal -1 1.96512e-15 -7.6161e-16
  outer loop
    vertex 1.499999999999999 7.06204283331614 0
    vertex 1.499999999999999 7.806234600785107 1.920180848561484
    vertex 1.500000000000004 9.886859966642593 0
  endloop
endfacet
facet normal -1 -1.02186e-15 -3.69928e-16
  outer loop
    vertex 1.500000000000002 -9.886859966642593 0
    vertex 1.499999999999999 -7.769334145232371 1.953772089377446
    vertex 1.499999999999999 -7.062042833316145 0
  endloop
endfacet
facet normal -1 2.79721e-15 1.39999e-16
  outer loop
    vertex 1.500000000000004 9.886859966642593 0
    vertex 1.499999999999999 7.806234600785107 1.920180848561484
    vertex 1.500000000000004 9.674013911317239 2.666666666666671
  endloop
endfacet
facet normal -1 -1.38862e-15 2.75693e-17
  outer loop
    vertex 1.500000000000001 -9.674013911317241 2.666666666666661
    vertex 1.499999999999999 -7.769334145232371 1.953772089377446
    vertex 1.500000000000002 -9.886859966642593 0
  endloop
endfacet
facet normal -1 -5.17359e-16 3.45233e-17
  outer loop
    vertex 1.5 -8.396937579365119 18.66666666666666
    vertex 1.499999999999999 -6.165763253196146 19.94389176408459
    vertex 1.499999999999999 -6.338593059462225 17.35390065503271
  endloop
endfacet
facet normal -1 -5.77133e-16 -3.72016e-17
  outer loop
    vertex 1.5 -8.609783634690473 15.99999999999999
    vertex 1.499999999999999 -6.201488108108766 14.4506364115295
    vertex 1.5 -8.822629690015827 13.33333333333332
  endloop
endfacet
facet normal -1 1.64366e-15 3.78268e-16
  outer loop
    vertex 1.500000000000002 8.609783634690471 16.00000000000001
    vertex 1.499999999999999 6.748453361118418 14.10885285908386
    vertex 1.499999999999999 6.058011978630233 17.10898091840471
  endloop
endfacet
facet normal -1 0 0
  outer loop
    vertex 1.499999999999999 2.818087323004953 7.217866000487797
    vertex 1.499999999999999 5.050543295828196 7.533031690618998
    vertex 1.499999999999999 4.594283322109733 4.978806293111794
  endloop
endfacet
facet normal -1 0 -0
  outer loop
    vertex 1.499999999999999 6.748453361118418 14.10885285908386
    vertex 1.499999999999999 7.464274706803946 11.88308541692177
    vertex 1.499999999999999 5.331052652942197 11.95074764529411
  endloop
endfacet
facet normal -1 2.35112e-15 2.11264e-17
  outer loop
    vertex 1.500000000000004 9.674013911317239 2.666666666666671
    vertex 1.499999999999999 7.39450328141926 4.102274302592249
    vertex 1.500000000000004 9.461167855991885 5.33333333333334
  endloop
endfacet
facet normal -1 -1.16421e-15 9.65703e-18
  outer loop
    vertex 1.500000000000001 -9.461167855991887 5.333333333333326
    vertex 1.499999999999999 -7.373684296747256 4.06696185209347
    vertex 1.500000000000001 -9.674013911317241 2.666666666666661
  endloop
endfacet
facet normal -1 0 0
  outer loop
    vertex 1.499999999999999 -4.521374722752373 4.997719370768511
    vertex 1.499999999999999 -4.97770228829192 7.535946474613508
    vertex 1.499999999999999 -2.599499896326511 7.298728844211451
  endloop
endfacet
facet normal -1 0 -0
  outer loop
    vertex 1.499999999999999 -6.201488108108766 14.4506364115295
    vertex 1.499999999999999 -4.623486976477267 12.36263562303318
    vertex 1.499999999999999 -6.634406226844122 11.60648557011586
  endloop
endfacet
facet normal -1 0 0
  outer loop
    vertex 1.499999999999999 -4.217921719607071 9.9319952763716
    vertex 1.499999999999999 -4.97770228829192 7.535946474613508
    vertex 1.499999999999999 -6.851956131796237 9.041459911968035
  endloop
endfacet
facet normal -1 0 0
  outer loop
    vertex 1.499999999999999 3.985622734357208 21.69889964143058
    vertex 1.499999999999999 6.207867648576579 20.00875052500679
    vertex 1.499999999999999 4.160040976582836 18.88642992756667
  endloop
endfacet
facet normal -1 0 0
  outer loop
    vertex 1.499999999999999 -4.217921719607071 9.9319952763716
    vertex 1.499999999999999 -4.623486976477267 12.36263562303318
    vertex 1.499999999999999 -2.59278923152423 11.96249623663391
  endloop
endfacet
facet normal -1 -4.71472e-16 -4.56351e-17
  outer loop
    vertex 1.5 -8.184091524039765 21.33333333333333
    vertex 1.499999999999999 -6.165763253196146 19.94389176408459
    vertex 1.5 -8.396937579365119 18.66666666666666
  endloop
endfacet
facet normal -1 1.95412e-15 7.27057e-17
  outer loop
    vertex 1.500000000000003 8.822629690015825 13.33333333333334
    vertex 1.499999999999999 6.748453361118418 14.10885285908386
    vertex 1.500000000000002 8.609783634690471 16.00000000000001
  endloop
endfacet
facet normal -1 -0 0
  outer loop
    vertex 1.499999999999999 -2.420819855576945 16.53800364468497
    vertex 1.499999999999999 -4.472085698571357 16.19279333859759
    vertex 1.499999999999999 -3.763691055366602 18.89419739517013
  endloop
endfacet
facet normal -1 -0 0
  outer loop
    vertex 1.499999999999999 -3.9094314707001 14.30530636059389
    vertex 1.499999999999999 -4.623486976477267 12.36263562303318
    vertex 1.499999999999999 -6.201488108108766 14.4506364115295
  endloop
endfacet
facet normal -1 2.32205e-15 -6.51494e-16
  outer loop
    vertex 1.499999999999999 6.778028661580185 9.437175869029589
    vertex 1.499999999999999 7.464274706803946 11.88308541692177
    vertex 1.500000000000003 9.035475745341177 10.66666666666668
  endloop
endfacet
facet normal -1 -4.18344e-16 -4.98756e-17
  outer loop
    vertex 1.499999999999999 -7.971245468714409 24
    vertex 1.499999999999999 -6.142085478572178 22.01335401756143
    vertex 1.5 -8.184091524039765 21.33333333333333
  endloop
endfacet
facet normal -1 -2.50701e-16 1.04478e-16
  outer loop
    vertex 1.499999999999999 -5.314163645809592 24
    vertex 1.499999999999999 -6.142085478572178 22.01335401756143
    vertex 1.499999999999999 -7.971245468714409 24
  endloop
endfacet
facet normal -1 2.1875e-15 2.95812e-16
  outer loop
    vertex 1.500000000000004 9.461167855991885 5.33333333333334
    vertex 1.499999999999999 7.39450328141926 4.102274302592249
    vertex 1.499999999999999 7.067009202945838 6.524054435755556
  endloop
endfacet
facet normal -1 0 0
  outer loop
    vertex 1.499999999999999 -6.338593059462225 17.35390065503271
    vertex 1.499999999999999 -4.472085698571357 16.19279333859759
    vertex 1.499999999999999 -6.201488108108766 14.4506364115295
  endloop
endfacet
facet normal -1 -1.07011e-15 1.64757e-16
  outer loop
    vertex 1.499999999999999 -6.997909010026602 6.507665484040595
    vertex 1.499999999999999 -7.373684296747256 4.06696185209347
    vertex 1.500000000000001 -9.461167855991887 5.333333333333326
  endloop
endfacet
facet normal -1 -0 0
  outer loop
    vertex 1.499999999999999 6.778028661580185 9.437175869029589
    vertex 1.499999999999999 5.050543295828196 7.533031690618998
    vertex 1.499999999999999 4.033906597026339 9.607319665067486
  endloop
endfacet
facet normal -1 0 0
  outer loop
    vertex 1.499999999999999 -6.165763253196146 19.94389176408459
    vertex 1.499999999999999 -6.142085478572178 22.01335401756143
    vertex 1.499999999999999 -4.106364605389242 21.66924537073924
  endloop
endfacet
facet normal -1 0 -0
  outer loop
    vertex 1.499999999999999 -6.851956131796237 9.041459911968035
    vertex 1.499999999999999 -4.97770228829192 7.535946474613508
    vertex 1.499999999999999 -6.997909010026602 6.507665484040595
  endloop
endfacet
facet normal -1 2.19031e-15 7.04419e-16
  outer loop
    vertex 1.500000000000003 8.822629690015825 13.33333333333334
    vertex 1.499999999999999 7.464274706803946 11.88308541692177
    vertex 1.499999999999999 6.748453361118418 14.10885285908386
  endloop
endfacet
facet normal -1 0 -0
  outer loop
    vertex 1.499999999999999 5.314163645809609 24
    vertex 1.499999999999999 6.332598204299513 22.20819669995414
    vertex 1.499999999999999 3.985622734357208 21.69889964143058
  endloop
endfacet
facet normal -1 0 0
  outer loop
    vertex 1.499999999999999 7.067009202945838 6.524054435755556
    vertex 1.499999999999999 5.050543295828196 7.533031690618998
    vertex 1.499999999999999 6.778028661580185 9.437175869029589
  endloop
endfacet
facet normal -1 0 0
  outer loop
    vertex 1.499999999999999 -2.599499896326511 7.298728844211451
    vertex 1.499999999999999 -4.97770228829192 7.535946474613508
    vertex 1.499999999999999 -4.217921719607071 9.9319952763716
  endloop
endfacet
facet normal -1 0 0
  outer loop
    vertex 1.499999999999999 -6.201488108108766 14.4506364115295
    vertex 1.499999999999999 -4.472085698571357 16.19279333859759
    vertex 1.499999999999999 -3.9094314707001 14.30530636059389
  endloop
endfacet
facet normal -1 0 -0
  outer loop
    vertex 1.499999999999999 4.033906597026339 9.607319665067486
    vertex 1.499999999999999 5.050543295828196 7.533031690618998
    vertex 1.499999999999999 2.818087323004953 7.217866000487797
  endloop
endfacet
facet normal -1 0 0
  outer loop
    vertex 1.499999999999999 -4.106364605389242 21.66924537073924
    vertex 1.499999999999999 -6.142085478572178 22.01335401756143
    vertex 1.499999999999999 -5.314163645809592 24
  endloop
endfacet
facet normal -1 1.7039e-15 5.27339e-17
  outer loop
    vertex 1.500000000000002 8.184091524039763 21.33333333333334
    vertex 1.499999999999999 6.332598204299513 22.20819669995414
    vertex 1.500000000000002 7.971245468714409 24
  endloop
endfacet
facet normal -1 1.08637e-15 6.17478e-16
  outer loop
    vertex 1.500000000000002 7.971245468714409 24
    vertex 1.499999999999999 6.332598204299513 22.20819669995414
    vertex 1.499999999999999 5.314163645809609 24
  endloop
endfacet
facet normal -1 0 0
  outer loop
    vertex 1.499999999999999 5.572189844076513 2.23879935963597
    vertex 1.499999999999999 7.806234600785107 1.920180848561484
    vertex 1.499999999999999 7.06204283331614 0
  endloop
endfacet
facet normal -1 0 0
  outer loop
    vertex 1.499999999999999 -7.062042833316145 0
    vertex 1.499999999999999 -7.769334145232371 1.953772089377446
    vertex 1.499999999999999 -5.5427913253894 2.250566437768004
  endloop
endfacet
facet normal -1 0 0
  outer loop
    vertex 1.499999999999999 3.985622734357208 21.69889964143058
    vertex 1.499999999999999 6.332598204299513 22.20819669995414
    vertex 1.499999999999999 6.207867648576579 20.00875052500679
  endloop
endfacet
facet normal -1 0 0
  outer loop
    vertex 1.499999999999999 -2.59278923152423 11.96249623663391
    vertex 1.499999999999999 -4.623486976477267 12.36263562303318
    vertex 1.499999999999999 -3.9094314707001 14.30530636059389
  endloop
endfacet
facet normal -1 2.65309e-15 5.00601e-16
  outer loop
    vertex 1.500000000000004 9.674013911317239 2.666666666666671
    vertex 1.499999999999999 7.806234600785107 1.920180848561484
    vertex 1.499999999999999 7.39450328141926 4.102274302592249
  endloop
endfacet
facet normal -1 -1.30733e-15 2.44769e-16
  outer loop
    vertex 1.499999999999999 -7.373684296747256 4.06696185209347
    vertex 1.499999999999999 -7.769334145232371 1.953772089377446
    vertex 1.500000000000001 -9.674013911317241 2.666666666666661
  endloop
endfacet
facet normal -1 0 0
  outer loop
    vertex 1.499999999999999 -3.9094314707001 14.30530636059389
    vertex 1.499999999999999 -4.472085698571357 16.19279333859759
    vertex 1.499999999999999 -2.420819855576945 16.53800364468497
  endloop
endfacet
facet normal -1 2.87517e-15 6.29548e-17
  outer loop
    vertex 1.500000000000003 9.035475745341177 10.66666666666668
    vertex 1.499999999999999 7.464274706803946 11.88308541692177
    vertex 1.500000000000003 8.822629690015825 13.33333333333334
  endloop
endfacet
facet normal -1 -4.36617e-16 4.99556e-18
  outer loop
    vertex 1.5 -8.184091524039765 21.33333333333333
    vertex 1.499999999999999 -6.142085478572178 22.01335401756143
    vertex 1.499999999999999 -6.165763253196146 19.94389176408459
  endloop
endfacet
facet normal -1 1.63517e-15 -9.27302e-17
  outer loop
    vertex 1.499999999999999 6.207867648576579 20.00875052500679
    vertex 1.499999999999999 6.332598204299513 22.20819669995414
    vertex 1.500000000000002 8.184091524039763 21.33333333333334
  endloop
endfacet
facet normal -1 0 -0
  outer loop
    vertex 1.499999999999999 7.39450328141926 4.102274302592249
    vertex 1.499999999999999 7.806234600785107 1.920180848561484
    vertex 1.499999999999999 5.572189844076513 2.23879935963597
  endloop
endfacet
facet normal -1 -0 0
  outer loop
    vertex 1.499999999999999 -5.5427913253894 2.250566437768004
    vertex 1.499999999999999 -7.769334145232371 1.953772089377446
    vertex 1.499999999999999 -7.373684296747256 4.06696185209347
  endloop
endfacet
facet normal 1.00148e-14 7.38994e-15 1
  outer loop
    vertex 4.797710637549038 2.744363331803082 24.00000000000004
    vertex 5.811769295942341 -0.07212539831196807 24.00000000000005
    vertex 7.629834826842641 2.752305614897459 24.00000000000001
  endloop
endfacet
facet normal -9.69717e-15 4.61523e-17 1
  outer loop
    vertex 4.797710637549038 2.744363331803082 24.00000000000004
    vertex 3.708138818708099 4.746018748912531 24.00000000000002
    vertex 1.499999999999999 2.6570818229048 24
  endloop
endfacet
facet normal -4.38308e-15 -8.96508e-15 1
  outer loop
    vertex 4.115815759044944 -6.989334415258545 24
    vertex 3.740694031479826 -4.031951062004866 24.00000000000002
    vertex 1.499999999999999 -5.314163645809598 24
  endloop
endfacet
facet normal -9.68292e-15 -4.92311e-16 1
  outer loop
    vertex 1.499999999999999 2.6570818229048 24
    vertex 3.428750699031698 0.803859059439195 24.00000000000002
    vertex 4.797710637549038 2.744363331803082 24.00000000000004
  endloop
endfacet
facet normal 5.01904e-16 -1.33707e-15 1
  outer loop
    vertex 1.500000000000001 -7.97124546871442 24
    vertex 4.115815759044944 -6.989334415258545 24
    vertex 1.499999999999999 -5.314163645809598 24
  endloop
endfacet
facet normal 3.21824e-15 1.33707e-15 1
  outer loop
    vertex 1.499999999999999 7.971245468714409 24
    vertex 1.499999999999999 5.314163645809606 24
    vertex 4.115815759044941 6.989334415258528 23.99999999999999
  endloop
endfacet
facet normal 1.86432e-14 -3.26026e-15 1
  outer loop
    vertex 8.11115 -1.408969975829587e-14 24
    vertex 5.811769295942341 -0.07212539831196807 24.00000000000005
    vertex 7.629834826842632 -2.752305614897498 24
  endloop
endfacet
facet normal 1.848e-14 1.94092e-15 1
  outer loop
    vertex 7.629834826842641 2.752305614897459 24.00000000000001
    vertex 5.811769295942341 -0.07212539831196807 24.00000000000005
    vertex 8.11115 -1.408969975829587e-14 24
  endloop
endfacet
facet normal 1.74432e-14 -4.07422e-15 1
  outer loop
    vertex 5.811769295942341 -0.07212539831196807 24.00000000000005
    vertex 5.404898299253539 -2.686085348073162 24.00000000000004
    vertex 7.629834826842632 -2.752305614897498 24
  endloop
endfacet
facet normal 6.46175e-15 -7.5895e-15 1
  outer loop
    vertex 6.243244348503639 -5.178026308630269 24
    vertex 3.740694031479826 -4.031951062004866 24.00000000000002
    vertex 4.115815759044944 -6.989334415258545 24
  endloop
endfacet
facet normal -9.65351e-15 0 1
  outer loop
    vertex 1.499999999999999 2.6570818229048 24
    vertex 3.708138818708099 4.746018748912531 24.00000000000002
    vertex 1.499999999999999 5.314163645809606 24
  endloop
endfacet
facet normal 1.00112e-14 8.65181e-15 1
  outer loop
    vertex 6.243244348503646 5.178026308630243 24
    vertex 4.797710637549038 2.744363331803082 24.00000000000004
    vertex 7.629834826842641 2.752305614897459 24.00000000000001
  endloop
endfacet
facet normal -8.46308e-15 0 1
  outer loop
    vertex 1.499999999999999 -2.657081822904791 24
    vertex 3.598948993499263 -1.396018356521218 24.00000000000002
    vertex 1.499999999999999 2.520770051028798e-15 24
  endloop
endfacet
facet normal -9.51325e-15 0 1
  outer loop
    vertex 1.499999999999999 -5.314163645809598 24
    vertex 3.740694031479826 -4.031951062004866 24.00000000000002
    vertex 1.499999999999999 -2.657081822904791 24
  endloop
endfacet
facet normal -5.71882e-15 1.52925e-14 1
  outer loop
    vertex 1.499999999999999 5.314163645809606 24
    vertex 3.708138818708099 4.746018748912531 24.00000000000002
    vertex 4.115815759044941 6.989334415258528 23.99999999999999
  endloop
endfacet
facet normal -8.98264e-15 8.64768e-16 1
  outer loop
    vertex 1.499999999999999 -2.657081822904791 24
    vertex 3.740694031479826 -4.031951062004866 24.00000000000002
    vertex 3.598948993499263 -1.396018356521218 24.00000000000002
  endloop
endfacet
facet normal -9.20988e-15 0 1
  outer loop
    vertex 1.499999999999999 2.520770051028798e-15 24
    vertex 3.428750699031698 0.803859059439195 24.00000000000002
    vertex 1.499999999999999 2.6570818229048 24
  endloop
endfacet
facet normal -1.04246e-14 3.08971e-17 1
  outer loop
    vertex 3.428750699031698 0.803859059439195 24.00000000000002
    vertex 5.811769295942341 -0.07212539831196807 24.00000000000005
    vertex 4.797710637549038 2.744363331803082 24.00000000000004
  endloop
endfacet
facet normal 8.14677e-15 9.75924e-15 1
  outer loop
    vertex 6.243244348503646 5.178026308630243 24
    vertex 3.708138818708099 4.746018748912531 24.00000000000002
    vertex 4.797710637549038 2.744363331803082 24.00000000000004
  endloop
endfacet
facet normal 7.61684e-15 1.2869e-14 1
  outer loop
    vertex 4.115815759044941 6.989334415258528 23.99999999999999
    vertex 3.708138818708099 4.746018748912531 24.00000000000002
    vertex 6.243244348503646 5.178026308630243 24
  endloop
endfacet
facet normal 1.72278e-14 -1.13124e-14 1
  outer loop
    vertex 7.629834826842632 -2.752305614897498 24
    vertex 5.404898299253539 -2.686085348073162 24.00000000000004
    vertex 6.243244348503639 -5.178026308630269 24
  endloop
endfacet
facet normal 2.48549e-15 -1.6272e-14 1
  outer loop
    vertex 6.243244348503639 -5.178026308630269 24
    vertex 5.404898299253539 -2.686085348073162 24.00000000000004
    vertex 3.740694031479826 -4.031951062004866 24.00000000000002
  endloop
endfacet
facet normal -8.92219e-15 -6.90284e-16 1
  outer loop
    vertex 3.598948993499263 -1.396018356521218 24.00000000000002
    vertex 3.428750699031698 0.803859059439195 24.00000000000002
    vertex 1.499999999999999 2.520770051028798e-15 24
  endloop
endfacet
facet normal -1.1496e-14 4.30259e-16 1
  outer loop
    vertex 3.598948993499263 -1.396018356521218 24.00000000000002
    vertex 5.404898299253539 -2.686085348073162 24.00000000000004
    vertex 5.811769295942341 -0.07212539831196807 24.00000000000005
  endloop
endfacet
facet normal -1.12736e-14 7.41571e-16 1
  outer loop
    vertex 3.740694031479826 -4.031951062004866 24.00000000000002
    vertex 5.404898299253539 -2.686085348073162 24.00000000000004
    vertex 3.598948993499263 -1.396018356521218 24.00000000000002
  endloop
endfacet
facet normal -1.07414e-14 -8.31032e-16 1
  outer loop
    vertex 3.598948993499263 -1.396018356521218 24.00000000000002
    vertex 5.811769295942341 -0.07212539831196807 24.00000000000005
    vertex 3.428750699031698 0.803859059439195 24.00000000000002
  endloop
endfacet
endsolid Created by Gmsh
