solid Created by Gmsh
facet normal 8.64783e-14 2.73515e-14 -1
  outer loop
    vertex 4.797760173599698 2.74435370153015 24.00000000000004
    vertex 7.629910221567703 2.752312542811234 24.00000000000028
    vertex 5.811806820472668 -0.07212682152048266 24.00000000000005
  endloop
endfacet
facet normal 9.69702e-15 -4.60398e-17 -1
  outer loop
    vertex 4.797760173599698 2.74435370153015 24.00000000000004
    vertex 1.499999999999999 2.657081822904785 24
    vertex 3.708148332902402 4.745991368054973 24.00000000000002
  endloop
endfacet
facet normal 2.68148e-14 -3.02353e-14 -1
  outer loop
    vertex 4.115842136679382 -6.989320269413491 24.00000000000012
    vertex 1.499999999999999 -5.314163645809609 24
    vertex 3.740715388885322 -4.03194939437352 24.00000000000002
  endloop
endfacet
facet normal 9.68277e-15 4.92224e-16 -1
  outer loop
    vertex 1.499999999999999 2.657081822904785 24
    vertex 4.797760173599698 2.74435370153015 24.00000000000004
    vertex 3.428762377105412 0.8038570901066722 24.00000000000002
  endloop
endfacet
facet normal 4.56753e-14 -1.33707e-15 -1
  outer loop
    vertex 1.499999999999999 5.314163645809592 24
    vertex 1.5 7.971245468714409 24
    vertex 4.115842136679394 6.989320269413482 24.00000000000012
  endloop
endfacet
facet normal 4.70334e-14 1.33707e-15 -1
  outer loop
    vertex 4.115842136679382 -6.989320269413491 24.00000000000012
    vertex 1.499999999999999 -7.971245468714409 24
    vertex 1.499999999999999 -5.314163645809609 24
  endloop
endfacet
facet normal 1.14683e-13 -1.10166e-14 -1
  outer loop
    vertex 8.111149999999958 -2.098772310187841e-14 24.00000000000031
    vertex 7.629910221567698 -2.75231254281125 24.00000000000028
    vertex 5.811806820472668 -0.07212682152048266 24.00000000000005
  endloop
endfacet
facet normal 1.14036e-13 9.61259e-15 -1
  outer loop
    vertex 7.629910221567703 2.752312542811234 24.00000000000028
    vertex 8.111149999999958 -2.098772310187841e-14 24.00000000000031
    vertex 5.811806820472668 -0.07212682152048266 24.00000000000005
  endloop
endfacet
facet normal 1.08118e-13 -1.54697e-14 -1
  outer loop
    vertex 5.811806820472668 -0.07212682152048266 24.00000000000005
    vertex 7.629910221567698 -2.75231254281125 24.00000000000028
    vertex 5.404937030913725 -2.686087512782732 24.00000000000004
  endloop
endfacet
facet normal 6.35258e-14 -2.55787e-14 -1
  outer loop
    vertex 6.243295447164343 -5.178032085833045 24.00000000000021
    vertex 4.115842136679382 -6.989320269413491 24.00000000000012
    vertex 3.740715388885322 -4.03194939437352 24.00000000000002
  endloop
endfacet
facet normal 9.65346e-15 0 -1
  outer loop
    vertex 1.499999999999999 2.657081822904785 24
    vertex 1.499999999999999 5.314163645809592 24
    vertex 3.708148332902402 4.745991368054973 24.00000000000002
  endloop
endfacet
facet normal 8.64903e-14 2.30777e-14 -1
  outer loop
    vertex 6.243295447164345 5.17803208583304 24.00000000000022
    vertex 7.629910221567703 2.752312542811234 24.00000000000028
    vertex 4.797760173599698 2.74435370153015 24.00000000000004
  endloop
endfacet
facet normal 8.46304e-15 0 -1
  outer loop
    vertex 1.499999999999999 -2.657081822904807 24
    vertex 1.499999999999999 -9.77531935027134e-15 24
    vertex 3.598957276478589 -1.396016719375362 24.00000000000002
  endloop
endfacet
facet normal 9.51316e-15 0 -1
  outer loop
    vertex 1.499999999999999 -5.314163645809609 24
    vertex 1.499999999999999 -2.657081822904807 24
    vertex 3.740715388885322 -4.03194939437352 24.00000000000002
  endloop
endfacet
facet normal 1.9733e-14 3.91731e-14 -1
  outer loop
    vertex 1.499999999999999 5.314163645809592 24
    vertex 4.115842136679394 6.989320269413482 24.00000000000012
    vertex 3.708148332902402 4.745991368054973 24.00000000000002
  endloop
endfacet
facet normal 8.98258e-15 -8.64726e-16 -1
  outer loop
    vertex 1.499999999999999 -2.657081822904807 24
    vertex 3.598957276478589 -1.396016719375362 24.00000000000002
    vertex 3.740715388885322 -4.03194939437352 24.00000000000002
  endloop
endfacet
facet normal 9.20983e-15 0 -1
  outer loop
    vertex 1.499999999999999 -9.77531935027134e-15 24
    vertex 1.499999999999999 2.657081822904785 24
    vertex 3.428762377105412 0.8038570901066722 24.00000000000002
  endloop
endfacet
facet normal 1.04244e-14 -3.09954e-17 -1
  outer loop
    vertex 3.428762377105412 0.8038570901066722 24.00000000000002
    vertex 4.797760173599698 2.74435370153015 24.00000000000004
    vertex 5.811806820472668 -0.07212682152048266 24.00000000000005
  endloop
endfacet
facet normal 7.00808e-14 3.28245e-14 -1
  outer loop
    vertex 6.243295447164345 5.17803208583304 24.00000000000022
    vertex 4.797760173599698 2.74435370153015 24.00000000000004
    vertex 3.708148332902402 4.745991368054973 24.00000000000002
  endloop
endfacet
facet normal 7.05734e-14 2.99336e-14 -1
  outer loop
    vertex 4.115842136679394 6.989320269413482 24.00000000000012
    vertex 6.243295447164345 5.17803208583304 24.00000000000022
    vertex 3.708148332902402 4.745991368054973 24.00000000000002
  endloop
endfacet
facet normal 1.07619e-13 -3.22265e-14 -1
  outer loop
    vertex 7.629910221567698 -2.75231254281125 24.00000000000028
    vertex 6.243295447164343 -5.178032085833045 24.00000000000021
    vertex 5.404937030913725 -2.686087512782732 24.00000000000004
  endloop
endfacet
facet normal 5.18961e-14 -5.09733e-14 -1
  outer loop
    vertex 6.243295447164343 -5.178032085833045 24.00000000000021
    vertex 3.740715388885322 -4.03194939437352 24.00000000000002
    vertex 5.404937030913725 -2.686087512782732 24.00000000000004
  endloop
endfacet
facet normal 8.92214e-15 6.90268e-16 -1
  outer loop
    vertex 3.598957276478589 -1.396016719375362 24.00000000000002
    vertex 1.499999999999999 -9.77531935027134e-15 24
    vertex 3.428762377105412 0.8038570901066722 24.00000000000002
  endloop
endfacet
facet normal 1.14958e-14 -4.30227e-16 -1
  outer loop
    vertex 3.598957276478589 -1.396016719375362 24.00000000000002
    vertex 5.811806820472668 -0.07212682152048266 24.00000000000005
    vertex 5.404937030913725 -2.686087512782732 24.00000000000004
  endloop
endfacet
facet normal 1.12735e-14 -7.41524e-16 -1
  outer loop
    vertex 3.740715388885322 -4.03194939437352 24.00000000000002
    vertex 3.598957276478589 -1.396016719375362 24.00000000000002
    vertex 5.404937030913725 -2.686087512782732 24.00000000000004
  endloop
endfacet
facet normal 1.07413e-14 8.31007e-16 -1
  outer loop
    vertex 3.598957276478589 -1.396016719375362 24.00000000000002
    vertex 3.428762377105412 0.8038570901066722 24.00000000000002
    vertex 5.811806820472668 -0.07212682152048266 24.00000000000005
  endloop
endfacet
facet normal 1 0 0
  outer loop
    vertex 1.499999999999999 -6.058011978630219 17.1089809184047
    vertex 1.499999999999999 -4.205100959877068 14.37675625156382
    vertex 1.499999999999999 -2.917014264607671 16.68652021318796
  endloop
endfacet
facet normal 1 0 0
  outer loop
    vertex 1.499999999999999 -3.985622734357208 21.69889964143058
    vertex 1.499999999999999 -1.485102412873555 18.8998407439742
    vertex 1.499999999999999 -1.221537646451245 21.65470711795875
  endloop
endfacet
facet normal 1 0 0
  outer loop
    vertex 1.499999999999999 -1.485102412873555 18.8998407439742
    vertex 1.499999999999999 -3.985622734357208 21.69889964143058
    vertex 1.499999999999999 -4.160040976582811 18.8864299275667
  endloop
endfacet
facet normal 1 0 -0
  outer loop
    vertex 1.499999999999999 1.188888385759397 18.92049247603378
    vertex 1.499999999999999 1.434055572632536 21.6555449981284
    vertex 1.499999999999999 -1.221537646451245 21.65470711795875
  endloop
endfacet
facet normal 1 0 0
  outer loop
    vertex 1.499999999999999 -1.485102412873555 18.8998407439742
    vertex 1.499999999999999 1.188888385759397 18.92049247603378
    vertex 1.499999999999999 -1.221537646451245 21.65470711795875
  endloop
endfacet
facet normal 1 0 0
  outer loop
    vertex 1.499999999999999 1.434055572632536 21.6555449981284
    vertex 1.499999999999999 1.188888385759397 18.92049247603378
    vertex 1.499999999999999 3.763698387359269 18.89423067847516
  endloop
endfacet
facet normal 1 -0 0
  outer loop
    vertex 1.499999999999999 1.434055572632536 21.6555449981284
    vertex 1.499999999999999 3.763698387359269 18.89423067847516
    vertex 1.499999999999999 4.106365050724081 21.66924739231996
  endloop
endfacet
facet normal 1 0 0
  outer loop
    vertex 1.499999999999999 -4.205100959877068 14.37675625156382
    vertex 1.499999999999999 -6.058011978630219 17.1089809184047
    vertex 1.499999999999999 -6.748552758589156 14.10855612911926
  endloop
endfacet
facet normal 1 0 0
  outer loop
    vertex 1.499999999999999 6.997909010026611 6.507665484040587
    vertex 1.499999999999999 4.521393126231204 4.998011946136933
    vertex 1.499999999999999 7.373685095176681 4.06697454538829
  endloop
endfacet
facet normal 1 0 0
  outer loop
    vertex 1.499999999999999 6.634542924242567 11.60663437900969
    vertex 1.499999999999999 4.21790535380741 9.933680258272028
    vertex 1.499999999999999 6.851976187062707 9.04176554376707
  endloop
endfacet
facet normal 1 -0 0
  outer loop
    vertex 1.499999999999999 -6.058011978630219 17.1089809184047
    vertex 1.499999999999999 -2.917014264607671 16.68652021318796
    vertex 1.499999999999999 -4.160040976582811 18.8864299275667
  endloop
endfacet
facet normal 1 -0 0
  outer loop
    vertex 1.499999999999999 -8.396937579365117 18.66666666666666
    vertex 1.499999999999999 -6.058011978630219 17.1089809184047
    vertex 1.499999999999999 -6.207867648576571 20.00875052500679
  endloop
endfacet
facet normal 1 0 0
  outer loop
    vertex 1.499999999999999 -4.595968390767165 4.975093269201897
    vertex 1.499999999999999 -7.061797723977377 6.512312977479024
    vertex 1.499999999999999 -7.394503281419268 4.102274302592234
  endloop
endfacet
facet normal 1 0 0
  outer loop
    vertex 1.499999999999999 4.21790535380741 9.933680258272028
    vertex 1.499999999999999 6.634542924242567 11.60663437900969
    vertex 1.499999999999999 4.624307160867844 12.36352847639623
  endloop
endfacet
facet normal 1 0 0
  outer loop
    vertex 1.499999999999999 4.521393126231204 4.998011946136933
    vertex 1.499999999999999 5.54279132538941 2.250566437768
    vertex 1.499999999999999 7.373685095176681 4.06697454538829
  endloop
endfacet
facet normal 1 0 0
  outer loop
    vertex 1.499999999999999 4.521393126231204 4.998011946136933
    vertex 1.499999999999999 6.997909010026611 6.507665484040587
    vertex 1.499999999999999 4.977702288291941 7.535946474613503
  endloop
endfacet
facet normal 1 0 -0
  outer loop
    vertex 1.499999999999999 -6.058011978630219 17.1089809184047
    vertex 1.499999999999999 -4.160040976582811 18.8864299275667
    vertex 1.499999999999999 -6.207867648576571 20.00875052500679
  endloop
endfacet
facet normal 1 0 0
  outer loop
    vertex 1.499999999999999 -5.331515581517436 11.94918085449203
    vertex 1.499999999999999 -6.779827898957788 9.437037588040603
    vertex 1.499999999999999 -4.04107473176045 9.607513013571257
  endloop
endfacet
facet normal 1 -0 0
  outer loop
    vertex 1.499999999999999 -7.061797723977377 6.512312977479024
    vertex 1.499999999999999 -4.595968390767165 4.975093269201897
    vertex 1.499999999999999 -5.063683740540806 7.549961677226488
  endloop
endfacet
facet normal 1 0 -0
  outer loop
    vertex 1.499999999999999 -5.577558061988488 2.237703298113142
    vertex 1.499999999999999 -4.595968390767165 4.975093269201897
    vertex 1.499999999999999 -7.394503281419268 4.102274302592234
  endloop
endfacet
facet normal 1 0 0
  outer loop
    vertex 1.499999999999999 5.54279132538941 2.250566437768
    vertex 1.499999999999999 4.521393126231204 4.998011946136933
    vertex 1.499999999999999 2.819447273107539 2.427481947912038
  endloop
endfacet
facet normal 1 -0 0
  outer loop
    vertex 1.499999999999999 3.763698387359269 18.89423067847516
    vertex 1.499999999999999 6.338593059462253 17.3539006550327
    vertex 1.499999999999999 6.165764179068482 19.94389596704718
  endloop
endfacet
facet normal 1 0 -0
  outer loop
    vertex 1.499999999999999 -6.779827898957788 9.437037588040603
    vertex 1.499999999999999 -5.331515581517436 11.94918085449203
    vertex 1.499999999999999 -7.46427470680392 11.88308541692174
  endloop
endfacet
facet normal 1 0 0
  outer loop
    vertex 1.499999999999999 -2.819713382181666 2.39439113898816
    vertex 1.499999999999999 -0.02202267853338198 2.432253465601966
    vertex 1.499999999999999 -1.431738817643851 4.851283590875811
  endloop
endfacet
facet normal 1 0 0
  outer loop
    vertex 1.499999999999999 -8.184091524039763 21.33333333333333
    vertex 1.499999999999999 -8.396937579365117 18.66666666666666
    vertex 1.499999999999999 -6.207867648576571 20.00875052500679
  endloop
endfacet
facet normal 1 0 0
  outer loop
    vertex 1.499999999999999 5.314163645809592 24
    vertex 1.499999999999999 2.657081822904785 24
    vertex 1.499999999999999 4.106365050724081 21.66924739231996
  endloop
endfacet
facet normal 1 0 -0
  outer loop
    vertex 1.499999999999999 -2.819713382181666 2.39439113898816
    vertex 1.499999999999999 -1.431738817643851 4.851283590875811
    vertex 1.499999999999999 -4.595968390767165 4.975093269201897
  endloop
endfacet
facet normal 1 0 0
  outer loop
    vertex 1.499999999999999 2.657081822904785 24
    vertex 1.499999999999999 1.434055572632536 21.6555449981284
    vertex 1.499999999999999 4.106365050724081 21.66924739231996
  endloop
endfacet
facet normal 1 0 0
  outer loop
    vertex 1.499999999999999 -0.0691312432860455 7.231473687075168
    vertex 1.499999999999999 -1.440477477150506 9.58369647221498
    vertex 1.499999999999999 -2.839749957241246 7.217851537839652
  endloop
endfacet
facet normal 1 0 -0
  outer loop
    vertex 1.499999999999999 4.237225699989684 0
    vertex 1.499999999999999 5.54279132538941 2.250566437768
    vertex 1.499999999999999 2.819447273107539 2.427481947912038
  endloop
endfacet
facet normal 1 0 0
  outer loop
    vertex 1.499999999999999 1.337932592727143 4.858426911955585
    vertex 1.499999999999999 -0.02202267853338198 2.432253465601966
    vertex 1.499999999999999 2.819447273107539 2.427481947912038
  endloop
endfacet
facet normal 1 0 0
  outer loop
    vertex 1.499999999999999 4.521393126231204 4.998011946136933
    vertex 1.499999999999999 1.337932592727143 4.858426911955585
    vertex 1.499999999999999 2.819447273107539 2.427481947912038
  endloop
endfacet
facet normal 1 -0 0
  outer loop
    vertex 1.499999999999999 -4.595968390767165 4.975093269201897
    vertex 1.499999999999999 -1.431738817643851 4.851283590875811
    vertex 1.499999999999999 -2.839749957241246 7.217851537839652
  endloop
endfacet
facet normal 1 0 -0
  outer loop
    vertex 1.499999999999999 -1.41240856666321 0
    vertex 1.499999999999999 -0.02202267853338198 2.432253465601966
    vertex 1.499999999999999 -2.819713382181666 2.39439113898816
  endloop
endfacet
facet normal 1 0 -0
  outer loop
    vertex 1.499999999999999 -1.431738817643851 4.851283590875811
    vertex 1.499999999999999 -0.0691312432860455 7.231473687075168
    vertex 1.499999999999999 -2.839749957241246 7.217851537839652
  endloop
endfacet
facet normal 1 0 0
  outer loop
    vertex 1.499999999999999 -5.577558061988488 2.237703298113142
    vertex 1.499999999999999 -2.819713382181666 2.39439113898816
    vertex 1.499999999999999 -4.595968390767165 4.975093269201897
  endloop
endfacet
facet normal 1 -0 0
  outer loop
    vertex 1.499999999999999 -1.431738817643851 4.851283590875811
    vertex 1.499999999999999 -0.02202267853338198 2.432253465601966
    vertex 1.499999999999999 1.337932592727143 4.858426911955585
  endloop
endfacet
facet normal 1 0 0
  outer loop
    vertex 1.499999999999999 -1.431738817643851 4.851283590875811
    vertex 1.499999999999999 1.337932592727143 4.858426911955585
    vertex 1.499999999999999 -0.0691312432860455 7.231473687075168
  endloop
endfacet
facet normal 1 -0 0
  outer loop
    vertex 1.499999999999999 -5.577558061988488 2.237703298113142
    vertex 1.499999999999999 -4.237225699989674 0
    vertex 1.499999999999999 -2.819713382181666 2.39439113898816
  endloop
endfacet
facet normal 1 -0 0
  outer loop
    vertex 1.499999999999999 -0.0691312432860455 7.231473687075168
    vertex 1.499999999999999 1.337932592727143 4.858426911955585
    vertex 1.499999999999999 2.599091979639517 7.299271903311011
  endloop
endfacet
facet normal 1 0 0
  outer loop
    vertex 1.499999999999999 -7.062042833316145 0
    vertex 1.499999999999999 -4.237225699989674 0
    vertex 1.499999999999999 -5.577558061988488 2.237703298113142
  endloop
endfacet
facet normal 1 0 0
  outer loop
    vertex 1.499999999999999 4.237225699989684 0
    vertex 1.499999999999999 7.06204283331614 0
    vertex 1.499999999999999 5.54279132538941 2.250566437768
  endloop
endfacet
facet normal 1 0 0
  outer loop
    vertex 1.499999999999999 1.26449033817619 9.610457600404761
    vertex 1.499999999999999 4.21790535380741 9.933680258272028
    vertex 1.499999999999999 2.592705089188466 11.97091973184275
  endloop
endfacet
facet normal 1 0 0
  outer loop
    vertex 1.499999999999999 -0.0691312432860455 7.231473687075168
    vertex 1.499999999999999 2.599091979639517 7.299271903311011
    vertex 1.499999999999999 1.26449033817619 9.610457600404761
  endloop
endfacet
facet normal 1 0 0
  outer loop
    vertex 1.499999999999999 4.106365050724081 21.66924739231996
    vertex 1.499999999999999 3.763698387359269 18.89423067847516
    vertex 1.499999999999999 6.165764179068482 19.94389596704718
  endloop
endfacet
facet normal 1 0 0
  outer loop
    vertex 1.499999999999999 -1.41240856666321 0
    vertex 1.499999999999999 1.412408566663236 0
    vertex 1.499999999999999 -0.02202267853338198 2.432253465601966
  endloop
endfacet
facet normal 1 -0 0
  outer loop
    vertex 1.499999999999999 1.26449033817619 9.610457600404761
    vertex 1.499999999999999 2.599091979639517 7.299271903311011
    vertex 1.499999999999999 4.21790535380741 9.933680258272028
  endloop
endfacet
facet normal 1 0 0
  outer loop
    vertex 1.499999999999999 -1.440477477150506 9.58369647221498
    vertex 1.499999999999999 1.26449033817619 9.610457600404761
    vertex 1.499999999999999 -0.09785680235757839 11.93682250814189
  endloop
endfacet
facet normal 1 0 -0
  outer loop
    vertex 1.499999999999999 -0.0691312432860455 7.231473687075168
    vertex 1.499999999999999 1.26449033817619 9.610457600404761
    vertex 1.499999999999999 -1.440477477150506 9.58369647221498
  endloop
endfacet
facet normal 1 0 0
  outer loop
    vertex 1.499999999999999 -0.02202267853338198 2.432253465601966
    vertex 1.499999999999999 1.412408566663236 0
    vertex 1.499999999999999 2.819447273107539 2.427481947912038
  endloop
endfacet
facet normal 1 0 0
  outer loop
    vertex 1.499999999999999 -4.237225699989674 0
    vertex 1.499999999999999 -1.41240856666321 0
    vertex 1.499999999999999 -2.819713382181666 2.39439113898816
  endloop
endfacet
facet normal 1 0 -0
  outer loop
    vertex 1.499999999999999 -1.440477477150506 9.58369647221498
    vertex 1.499999999999999 -0.09785680235757839 11.93682250814189
    vertex 1.499999999999999 -2.791705992370795 11.91749918849559
  endloop
endfacet
facet normal 1 0 0
  outer loop
    vertex 1.499999999999999 -0.1336567629871361 16.59025899785799
    vertex 1.499999999999999 -1.485102412873555 18.8998407439742
    vertex 1.499999999999999 -2.917014264607671 16.68652021318796
  endloop
endfacet
facet normal 1 0 -0
  outer loop
    vertex 1.499999999999999 -2.917014264607671 16.68652021318796
    vertex 1.499999999999999 -1.485102412873555 18.8998407439742
    vertex 1.499999999999999 -4.160040976582811 18.8864299275667
  endloop
endfacet
facet normal 1 0 -0
  outer loop
    vertex 1.499999999999999 -2.839749957241246 7.217851537839652
    vertex 1.499999999999999 -1.440477477150506 9.58369647221498
    vertex 1.499999999999999 -4.04107473176045 9.607513013571257
  endloop
endfacet
facet normal 1 0 -0
  outer loop
    vertex 1.499999999999999 -1.460172496695235 14.25685443976036
    vertex 1.499999999999999 -0.1336567629871361 16.59025899785799
    vertex 1.499999999999999 -2.917014264607671 16.68652021318796
  endloop
endfacet
facet normal 1 0 0
  outer loop
    vertex 1.499999999999999 -2.791705992370795 11.91749918849559
    vertex 1.499999999999999 -0.09785680235757839 11.93682250814189
    vertex 1.499999999999999 -1.460172496695235 14.25685443976036
  endloop
endfacet
facet normal 1 0 0
  outer loop
    vertex 1.499999999999999 -1.460172496695235 14.25685443976036
    vertex 1.499999999999999 1.226431358244494 14.27934799017237
    vertex 1.499999999999999 -0.1336567629871361 16.59025899785799
  endloop
endfacet
facet normal 1 -0 0
  outer loop
    vertex 1.499999999999999 -0.1336567629871361 16.59025899785799
    vertex 1.499999999999999 2.420891709104669 16.5383298210743
    vertex 1.499999999999999 1.188888385759397 18.92049247603378
  endloop
endfacet
facet normal 1 0 -0
  outer loop
    vertex 1.499999999999999 -2.791705992370795 11.91749918849559
    vertex 1.499999999999999 -1.460172496695235 14.25685443976036
    vertex 1.499999999999999 -4.205100959877068 14.37675625156382
  endloop
endfacet
facet normal 1 -0 0
  outer loop
    vertex 1.499999999999999 -4.205100959877068 14.37675625156382
    vertex 1.499999999999999 -1.460172496695235 14.25685443976036
    vertex 1.499999999999999 -2.917014264607671 16.68652021318796
  endloop
endfacet
facet normal 1 0 0
  outer loop
    vertex 1.499999999999999 1.412408566663236 0
    vertex 1.499999999999999 4.237225699989684 0
    vertex 1.499999999999999 2.819447273107539 2.427481947912038
  endloop
endfacet
facet normal 1 0 0
  outer loop
    vertex 1.499999999999999 -0.1336567629871361 16.59025899785799
    vertex 1.499999999999999 1.226431358244494 14.27934799017237
    vertex 1.499999999999999 2.420891709104669 16.5383298210743
  endloop
endfacet
facet normal 1 0 0
  outer loop
    vertex 1.499999999999999 1.188888385759397 18.92049247603378
    vertex 1.499999999999999 2.420891709104669 16.5383298210743
    vertex 1.499999999999999 3.763698387359269 18.89423067847516
  endloop
endfacet
facet normal 1 0 0
  outer loop
    vertex 1.499999999999999 -2.791705992370795 11.91749918849559
    vertex 1.499999999999999 -4.205100959877068 14.37675625156382
    vertex 1.499999999999999 -5.331515581517436 11.94918085449203
  endloop
endfacet
facet normal 1 -0 0
  outer loop
    vertex 1.499999999999999 -1.460172496695235 14.25685443976036
    vertex 1.499999999999999 -0.09785680235757839 11.93682250814189
    vertex 1.499999999999999 1.226431358244494 14.27934799017237
  endloop
endfacet
facet normal 1 0 -0
  outer loop
    vertex 1.499999999999999 -0.1336567629871361 16.59025899785799
    vertex 1.499999999999999 1.188888385759397 18.92049247603378
    vertex 1.499999999999999 -1.485102412873555 18.8998407439742
  endloop
endfacet
facet normal 1 0 -0
  outer loop
    vertex 1.499999999999999 -5.331515581517436 11.94918085449203
    vertex 1.499999999999999 -4.205100959877068 14.37675625156382
    vertex 1.499999999999999 -6.748552758589156 14.10855612911926
  endloop
endfacet
facet normal 1 0 0
  outer loop
    vertex 1.499999999999999 2.420891709104669 16.5383298210743
    vertex 1.499999999999999 1.226431358244494 14.27934799017237
    vertex 1.499999999999999 3.909431470700155 14.30530636059387
  endloop
endfacet
facet normal 1 0 0
  outer loop
    vertex 1.499999999999999 8.609783634690471 15.99999999999999
    vertex 1.499999999999999 8.396937579365117 18.66666666666666
    vertex 1.499999999999999 6.338593059462253 17.3539006550327
  endloop
endfacet
facet normal 1 0 0
  outer loop
    vertex 1.499999999999999 -8.396937579365117 18.66666666666666
    vertex 1.499999999999999 -8.609783634690471 15.99999999999999
    vertex 1.499999999999999 -6.058011978630219 17.1089809184047
  endloop
endfacet
facet normal 1 -0 0
  outer loop
    vertex 1.499999999999999 -0.09785680235757839 11.93682250814189
    vertex 1.499999999999999 1.26449033817619 9.610457600404761
    vertex 1.499999999999999 2.592705089188466 11.97091973184275
  endloop
endfacet
facet normal 1 0 0
  outer loop
    vertex 1.499999999999999 -2.791705992370795 11.91749918849559
    vertex 1.499999999999999 -5.331515581517436 11.94918085449203
    vertex 1.499999999999999 -4.04107473176045 9.607513013571257
  endloop
endfacet
facet normal 1 0 0
  outer loop
    vertex 1.499999999999999 9.035475745341181 10.66666666666664
    vertex 1.499999999999999 8.822629690015827 13.33333333333331
    vertex 1.499999999999999 6.634542924242567 11.60663437900969
  endloop
endfacet
facet normal 1 0 0
  outer loop
    vertex 1.499999999999999 -9.035475745341181 10.66666666666664
    vertex 1.499999999999999 -9.248321800666535 7.999999999999979
    vertex 1.499999999999999 -6.779827898957788 9.437037588040603
  endloop
endfacet
facet normal 1 0 0
  outer loop
    vertex 1.499999999999999 2.599091979639517 7.299271903311011
    vertex 1.499999999999999 1.337932592727143 4.858426911955585
    vertex 1.499999999999999 4.521393126231204 4.998011946136933
  endloop
endfacet
facet normal 1 0 0
  outer loop
    vertex 1.499999999999999 2.657081822904785 24
    vertex 1.499999999999999 -9.77531935027134e-15 24
    vertex 1.499999999999999 1.434055572632536 21.6555449981284
  endloop
endfacet
facet normal 1 0 0
  outer loop
    vertex 1.499999999999999 -9.77531935027134e-15 24
    vertex 1.499999999999999 -2.657081822904807 24
    vertex 1.499999999999999 -1.221537646451245 21.65470711795875
  endloop
endfacet
facet normal 1 0 0
  outer loop
    vertex 1.499999999999999 -2.657081822904807 24
    vertex 1.499999999999999 -5.314163645809609 24
    vertex 1.499999999999999 -3.985622734357208 21.69889964143058
  endloop
endfacet
facet normal 1 0 0
  outer loop
    vertex 1.499999999999999 -1.440477477150506 9.58369647221498
    vertex 1.499999999999999 -2.791705992370795 11.91749918849559
    vertex 1.499999999999999 -4.04107473176045 9.607513013571257
  endloop
endfacet
facet normal 1 0 0
  outer loop
    vertex 1.499999999999999 1.434055572632536 21.6555449981284
    vertex 1.499999999999999 -9.77531935027134e-15 24
    vertex 1.499999999999999 -1.221537646451245 21.65470711795875
  endloop
endfacet
facet normal 1 0 0
  outer loop
    vertex 1.499999999999999 -2.657081822904807 24
    vertex 1.499999999999999 -3.985622734357208 21.69889964143058
    vertex 1.499999999999999 -1.221537646451245 21.65470711795875
  endloop
endfacet
facet normal 1 0 0
  outer loop
    vertex 1.499999999999999 1.226431358244494 14.27934799017237
    vertex 1.499999999999999 -0.09785680235757839 11.93682250814189
    vertex 1.499999999999999 2.592705089188466 11.97091973184275
  endloop
endfacet
facet normal 1 0 0
  outer loop
    vertex 1.499999999999999 3.909431470700155 14.30530636059387
    vertex 1.499999999999999 1.226431358244494 14.27934799017237
    vertex 1.499999999999999 2.592705089188466 11.97091973184275
  endloop
endfacet
facet normal 1 0 0
  outer loop
    vertex 1.499999999999999 9.035475745341181 10.66666666666664
    vertex 1.499999999999999 6.634542924242567 11.60663437900969
    vertex 1.499999999999999 6.851976187062707 9.04176554376707
  endloop
endfacet
facet normal 1 0 0
  outer loop
    vertex 1.499999999999999 9.248321800666535 7.999999999999979
    vertex 1.499999999999999 9.035475745341181 10.66666666666664
    vertex 1.499999999999999 6.851976187062707 9.04176554376707
  endloop
endfacet
facet normal 1 0 0
  outer loop
    vertex 1.499999999999999 -6.779827898957788 9.437037588040603
    vertex 1.499999999999999 -9.248321800666535 7.999999999999979
    vertex 1.499999999999999 -7.061797723977377 6.512312977479024
  endloop
endfacet
facet normal 1 0 0
  outer loop
    vertex 1.499999999999999 -9.248321800666535 7.999999999999979
    vertex 1.499999999999999 -9.461167855991887 5.333333333333321
    vertex 1.499999999999999 -7.061797723977377 6.512312977479024
  endloop
endfacet
facet normal 1 0 0
  outer loop
    vertex 1.499999999999999 9.461167855991887 5.333333333333314
    vertex 1.499999999999999 9.248321800666535 7.999999999999979
    vertex 1.499999999999999 6.997909010026611 6.507665484040587
  endloop
endfacet
facet normal 1 0 -0
  outer loop
    vertex 1.499999999999999 6.997909010026611 6.507665484040587
    vertex 1.499999999999999 9.248321800666535 7.999999999999979
    vertex 1.499999999999999 6.851976187062707 9.04176554376707
  endloop
endfacet
facet normal 1 0 0
  outer loop
    vertex 1.499999999999999 6.338593059462253 17.3539006550327
    vertex 1.499999999999999 3.763698387359269 18.89423067847516
    vertex 1.499999999999999 4.472085698571389 16.19279333859756
  endloop
endfacet
facet normal 1 0 0
  outer loop
    vertex 1.499999999999999 8.609783634690471 15.99999999999999
    vertex 1.499999999999999 6.338593059462253 17.3539006550327
    vertex 1.499999999999999 6.201624805507215 14.45078522042333
  endloop
endfacet
facet normal 1 0 -0
  outer loop
    vertex 1.499999999999999 6.634542924242567 11.60663437900969
    vertex 1.499999999999999 8.822629690015827 13.33333333333331
    vertex 1.499999999999999 6.201624805507215 14.45078522042333
  endloop
endfacet
facet normal 1 0 0
  outer loop
    vertex 1.499999999999999 -9.886859966642593 -3.469446951953614e-15
    vertex 1.499999999999999 -7.062042833316145 0
    vertex 1.499999999999999 -7.806782378123064 1.920069005548934
  endloop
endfacet
facet normal 1 0 0
  outer loop
    vertex 1.499999999999999 7.06204283331614 0
    vertex 1.499999999999999 9.886859966642593 0
    vertex 1.499999999999999 7.769334203426938 1.953773014544702
  endloop
endfacet
facet normal 1 0 0
  outer loop
    vertex 1.499999999999999 -9.674013911317241 2.666666666666661
    vertex 1.499999999999999 -9.886859966642593 -3.469446951953614e-15
    vertex 1.499999999999999 -7.806782378123064 1.920069005548934
  endloop
endfacet
facet normal 1 0 0
  outer loop
    vertex 1.499999999999999 9.886859966642593 0
    vertex 1.499999999999999 9.674013911317241 2.666666666666661
    vertex 1.499999999999999 7.769334203426938 1.953773014544702
  endloop
endfacet
facet normal 1 0 -0
  outer loop
    vertex 1.499999999999999 6.338593059462253 17.3539006550327
    vertex 1.499999999999999 8.396937579365117 18.66666666666666
    vertex 1.499999999999999 6.165764179068482 19.94389596704718
  endloop
endfacet
facet normal 1 0 0
  outer loop
    vertex 1.499999999999999 8.822629690015827 13.33333333333331
    vertex 1.499999999999999 8.609783634690471 15.99999999999999
    vertex 1.499999999999999 6.201624805507215 14.45078522042333
  endloop
endfacet
facet normal 1 0 0
  outer loop
    vertex 1.499999999999999 -6.058011978630219 17.1089809184047
    vertex 1.499999999999999 -8.609783634690471 15.99999999999999
    vertex 1.499999999999999 -6.748552758589156 14.10855612911926
  endloop
endfacet
facet normal 1 0 -0
  outer loop
    vertex 1.499999999999999 -4.595968390767165 4.975093269201897
    vertex 1.499999999999999 -2.839749957241246 7.217851537839652
    vertex 1.499999999999999 -5.063683740540806 7.549961677226488
  endloop
endfacet
facet normal 1 0 0
  outer loop
    vertex 1.499999999999999 -5.331515581517436 11.94918085449203
    vertex 1.499999999999999 -6.748552758589156 14.10855612911926
    vertex 1.499999999999999 -7.46427470680392 11.88308541692174
  endloop
endfacet
facet normal 1 0 0
  outer loop
    vertex 1.499999999999999 -9.461167855991887 5.333333333333321
    vertex 1.499999999999999 -9.674013911317241 2.666666666666661
    vertex 1.499999999999999 -7.394503281419268 4.102274302592234
  endloop
endfacet
facet normal 1 0 0
  outer loop
    vertex 1.499999999999999 9.674013911317241 2.666666666666661
    vertex 1.499999999999999 9.461167855991887 5.333333333333314
    vertex 1.499999999999999 7.373685095176681 4.06697454538829
  endloop
endfacet
facet normal 1 -0 0
  outer loop
    vertex 1.499999999999999 2.599091979639517 7.299271903311011
    vertex 1.499999999999999 4.521393126231204 4.998011946136933
    vertex 1.499999999999999 4.977702288291941 7.535946474613503
  endloop
endfacet
facet normal 1 0 0
  outer loop
    vertex 1.499999999999999 6.634542924242567 11.60663437900969
    vertex 1.499999999999999 6.201624805507215 14.45078522042333
    vertex 1.499999999999999 4.624307160867844 12.36352847639623
  endloop
endfacet
facet normal 1 0 0
  outer loop
    vertex 1.499999999999999 6.851976187062707 9.04176554376707
    vertex 1.499999999999999 4.21790535380741 9.933680258272028
    vertex 1.499999999999999 4.977702288291941 7.535946474613503
  endloop
endfacet
facet normal 1 0 -0
  outer loop
    vertex 1.499999999999999 -4.160040976582811 18.8864299275667
    vertex 1.499999999999999 -3.985622734357208 21.69889964143058
    vertex 1.499999999999999 -6.207867648576571 20.00875052500679
  endloop
endfacet
facet normal 1 -0 0
  outer loop
    vertex 1.499999999999999 2.592705089188466 11.97091973184275
    vertex 1.499999999999999 4.21790535380741 9.933680258272028
    vertex 1.499999999999999 4.624307160867844 12.36352847639623
  endloop
endfacet
facet normal 1 0 0
  outer loop
    vertex 1.499999999999999 8.396937579365117 18.66666666666666
    vertex 1.499999999999999 8.184091524039763 21.33333333333333
    vertex 1.499999999999999 6.165764179068482 19.94389596704718
  endloop
endfacet
facet normal 1 0 0
  outer loop
    vertex 1.499999999999999 -8.609783634690471 15.99999999999999
    vertex 1.499999999999999 -8.822629690015827 13.33333333333331
    vertex 1.499999999999999 -6.748552758589156 14.10855612911926
  endloop
endfacet
facet normal 1 0 0
  outer loop
    vertex 1.499999999999999 3.763698387359269 18.89423067847516
    vertex 1.499999999999999 2.420891709104669 16.5383298210743
    vertex 1.499999999999999 4.472085698571389 16.19279333859756
  endloop
endfacet
facet normal 1 0 0
  outer loop
    vertex 1.499999999999999 6.201624805507215 14.45078522042333
    vertex 1.499999999999999 3.909431470700155 14.30530636059387
    vertex 1.499999999999999 4.624307160867844 12.36352847639623
  endloop
endfacet
facet normal 1 -0 0
  outer loop
    vertex 1.499999999999999 -9.035475745341181 10.66666666666664
    vertex 1.499999999999999 -6.779827898957788 9.437037588040603
    vertex 1.499999999999999 -7.46427470680392 11.88308541692174
  endloop
endfacet
facet normal 1 -1.70918e-16 -5.13243e-16
  outer loop
    vertex 1.499999999999999 8.184091524039763 21.33333333333333
    vertex 1.5 7.971245468714409 24
    vertex 1.499999999999999 6.142085478572181 22.01335401756146
  endloop
endfacet
facet normal 1 -5.01403e-16 -2.08956e-16
  outer loop
    vertex 1.5 7.971245468714409 24
    vertex 1.499999999999999 5.314163645809592 24
    vertex 1.499999999999999 6.142085478572181 22.01335401756146
  endloop
endfacet
facet normal 1 0 0
  outer loop
    vertex 1.499999999999999 -7.061797723977377 6.512312977479024
    vertex 1.499999999999999 -9.461167855991887 5.333333333333321
    vertex 1.499999999999999 -7.394503281419268 4.102274302592234
  endloop
endfacet
facet normal 1 0 -0
  outer loop
    vertex 1.499999999999999 6.201624805507215 14.45078522042333
    vertex 1.499999999999999 6.338593059462253 17.3539006550327
    vertex 1.499999999999999 4.472085698571389 16.19279333859756
  endloop
endfacet
facet normal 1 0 0
  outer loop
    vertex 1.499999999999999 9.461167855991887 5.333333333333314
    vertex 1.499999999999999 6.997909010026611 6.507665484040587
    vertex 1.499999999999999 7.373685095176681 4.06697454538829
  endloop
endfacet
facet normal 1 -0 0
  outer loop
    vertex 1.499999999999999 4.106365050724081 21.66924739231996
    vertex 1.499999999999999 6.165764179068482 19.94389596704718
    vertex 1.499999999999999 6.142085478572181 22.01335401756146
  endloop
endfacet
facet normal 1 0 0
  outer loop
    vertex 1.499999999999999 6.997909010026611 6.507665484040587
    vertex 1.499999999999999 6.851976187062707 9.04176554376707
    vertex 1.499999999999999 4.977702288291941 7.535946474613503
  endloop
endfacet
facet normal 1 0 0
  outer loop
    vertex 1.499999999999999 -4.04107473176045 9.607513013571257
    vertex 1.499999999999999 -6.779827898957788 9.437037588040603
    vertex 1.499999999999999 -5.063683740540806 7.549961677226488
  endloop
endfacet
facet normal 1 0 0
  outer loop
    vertex 1.499999999999999 -6.748552758589156 14.10855612911926
    vertex 1.499999999999999 -8.822629690015827 13.33333333333331
    vertex 1.499999999999999 -7.46427470680392 11.88308541692174
  endloop
endfacet
facet normal 1 0 0
  outer loop
    vertex 1.499999999999999 -3.985622734357208 21.69889964143058
    vertex 1.499999999999999 -5.314163645809609 24
    vertex 1.499999999999999 -6.332598204299511 22.20819669995414
  endloop
endfacet
facet normal 1 0 0
  outer loop
    vertex 1.499999999999999 4.21790535380741 9.933680258272028
    vertex 1.499999999999999 2.599091979639517 7.299271903311011
    vertex 1.499999999999999 4.977702288291941 7.535946474613503
  endloop
endfacet
facet normal 1 0 0
  outer loop
    vertex 1.499999999999999 3.909431470700155 14.30530636059387
    vertex 1.499999999999999 6.201624805507215 14.45078522042333
    vertex 1.499999999999999 4.472085698571389 16.19279333859756
  endloop
endfacet
facet normal 1 0 0
  outer loop
    vertex 1.499999999999999 -6.779827898957788 9.437037588040603
    vertex 1.499999999999999 -7.061797723977377 6.512312977479024
    vertex 1.499999999999999 -5.063683740540806 7.549961677226488
  endloop
endfacet
facet normal 1 0 0
  outer loop
    vertex 1.499999999999999 5.314163645809592 24
    vertex 1.499999999999999 4.106365050724081 21.66924739231996
    vertex 1.499999999999999 6.142085478572181 22.01335401756146
  endloop
endfacet
facet normal 1 0 0
  outer loop
    vertex 1.499999999999999 -2.839749957241246 7.217851537839652
    vertex 1.499999999999999 -4.04107473176045 9.607513013571257
    vertex 1.499999999999999 -5.063683740540806 7.549961677226488
  endloop
endfacet
facet normal 1 0 0
  outer loop
    vertex 1.499999999999999 -7.971245468714409 24
    vertex 1.499999999999999 -8.184091524039763 21.33333333333333
    vertex 1.499999999999999 -6.332598204299511 22.20819669995414
  endloop
endfacet
facet normal 1 0 0
  outer loop
    vertex 1.499999999999999 -5.314163645809609 24
    vertex 1.499999999999999 -7.971245468714409 24
    vertex 1.499999999999999 -6.332598204299511 22.20819669995414
  endloop
endfacet
facet normal 1 0 -0
  outer loop
    vertex 1.499999999999999 -7.062042833316145 0
    vertex 1.499999999999999 -5.577558061988488 2.237703298113142
    vertex 1.499999999999999 -7.806782378123064 1.920069005548934
  endloop
endfacet
facet normal 1 0 0
  outer loop
    vertex 1.499999999999999 5.54279132538941 2.250566437768
    vertex 1.499999999999999 7.06204283331614 0
    vertex 1.499999999999999 7.769334203426938 1.953773014544702
  endloop
endfacet
facet normal 1 0 -0
  outer loop
    vertex 1.499999999999999 -6.207867648576571 20.00875052500679
    vertex 1.499999999999999 -3.985622734357208 21.69889964143058
    vertex 1.499999999999999 -6.332598204299511 22.20819669995414
  endloop
endfacet
facet normal 1 0 0
  outer loop
    vertex 1.499999999999999 3.909431470700155 14.30530636059387
    vertex 1.499999999999999 2.592705089188466 11.97091973184275
    vertex 1.499999999999999 4.624307160867844 12.36352847639623
  endloop
endfacet
facet normal 1 0 0
  outer loop
    vertex 1.499999999999999 -7.394503281419268 4.102274302592234
    vertex 1.499999999999999 -9.674013911317241 2.666666666666661
    vertex 1.499999999999999 -7.806782378123064 1.920069005548934
  endloop
endfacet
facet normal 1 0 0
  outer loop
    vertex 1.499999999999999 9.674013911317241 2.666666666666661
    vertex 1.499999999999999 7.373685095176681 4.06697454538829
    vertex 1.499999999999999 7.769334203426938 1.953773014544702
  endloop
endfacet
facet normal 1 0 0
  outer loop
    vertex 1.499999999999999 2.420891709104669 16.5383298210743
    vertex 1.499999999999999 3.909431470700155 14.30530636059387
    vertex 1.499999999999999 4.472085698571389 16.19279333859756
  endloop
endfacet
facet normal 1 0 0
  outer loop
    vertex 1.499999999999999 -8.822629690015827 13.33333333333331
    vertex 1.499999999999999 -9.035475745341181 10.66666666666664
    vertex 1.499999999999999 -7.46427470680392 11.88308541692174
  endloop
endfacet
facet normal 1 0 -0
  outer loop
    vertex 1.499999999999999 6.165764179068482 19.94389596704718
    vertex 1.499999999999999 8.184091524039763 21.33333333333333
    vertex 1.499999999999999 6.142085478572181 22.01335401756146
  endloop
endfacet
facet normal 1 -0 0
  outer loop
    vertex 1.499999999999999 -8.184091524039763 21.33333333333333
    vertex 1.499999999999999 -6.207867648576571 20.00875052500679
    vertex 1.499999999999999 -6.332598204299511 22.20819669995414
  endloop
endfacet
facet normal 1 0 0
  outer loop
    vertex 1.499999999999999 -5.577558061988488 2.237703298113142
    vertex 1.499999999999999 -7.394503281419268 4.102274302592234
    vertex 1.499999999999999 -7.806782378123064 1.920069005548934
  endloop
endfacet
facet normal 1 0 0
  outer loop
    vertex 1.499999999999999 7.373685095176681 4.06697454538829
    vertex 1.499999999999999 5.54279132538941 2.250566437768
    vertex 1.499999999999999 7.769334203426938 1.953773014544702
  endloop
endfacet
facet normal -0.573294 0.818965 -0.0251224
  outer loop
    vertex 4.005926010065592 -8.572499767705409 6.820392218435338
    vertex 5.330726966581071 -7.563691467343626 9.474540746745911
    vertex 6.577853153959108 -6.760305190618897 7.204681050315369
  endloop
endfacet
facet normal -0.563171 -0.823178 -0.0722288
  outer loop
    vertex 3.712809393749709 8.03224378992592 14.61207461689879
    vertex 6.016845014172618 6.312703578111154 16.24467978820242
    vertex 3.701536184106041 7.805036815597227 17.28940724018774
  endloop
endfacet
facet normal -0.554861 -0.831533 -0.0261279
  outer loop
    vertex 5.384571075670827 7.785592063340072 6.772935479012461
    vertex 3.948025726054196 8.824420377875454 4.218706964524262
    vertex 6.553348551420452 7.077060346104466 4.50173133083074
  endloop
endfacet
facet normal -0.547797 -0.830424 -0.101557
  outer loop
    vertex 6.016845014172618 6.312703578111154 16.24467978820242
    vertex 3.712809393749709 8.03224378992592 14.61207461689879
    vertex 5.865476576674744 6.708893014832782 13.82155024004587
  endloop
endfacet
facet normal -0.541317 -0.829438 -0.137871
  outer loop
    vertex 3.948025726054196 8.824420377875454 4.218706964524262
    vertex 5.504075320736941 8.135016513805086 2.256730560861893
    vertex 6.553348551420452 7.077060346104466 4.50173133083074
  endloop
endfacet
facet normal -0.462468 0.880534 -0.103842
  outer loop
    vertex 5.330726966581071 -7.563691467343626 9.474540746745911
    vertex 4.005926010065592 -8.572499767705409 6.820392218435338
    vertex 3.237613702801772 -8.681249499359737 9.319976520663827
  endloop
endfacet
facet normal -0.558822 0.819726 -0.125569
  outer loop
    vertex 4.005926010065592 -8.572499767705409 6.820392218435338
    vertex 6.577853153959108 -6.760305190618897 7.204681050315369
    vertex 5.912439429788121 -7.606693440313221 4.640686261624749
  endloop
endfacet
facet normal -0.77201 -0.622978 -0.126088
  outer loop
    vertex 6.8474744684826 5.061376317271352 18.86375301861606
    vertex 7.29621054276222 3.978220259938561 21.46792129811003
    vertex 5.436292677995188 6.287516476286636 21.44598484347906
  endloop
endfacet
facet normal -0.543829 -0.829356 -0.128134
  outer loop
    vertex 6.273110980213992 6.841401544415935 9.113109071131326
    vertex 3.722012748455354 8.488256402045039 9.281161383238915
    vertex 5.384571075670827 7.785592063340072 6.772935479012461
  endloop
endfacet
facet normal -0.952235 0.302901 -0.0387183
  outer loop
    vertex 8.835053067167236 -4.268956229553891 2.383230596328949
    vertex 9.105441317101691 -3.109225764605637 4.806107801261809
    vertex 9.680018778814336 -1.614839864625236 2.365854453160771
  endloop
endfacet
facet normal -0.975632 0.186577 -0.115462
  outer loop
    vertex 9.105441317101691 -3.109225764605637 4.806107801261809
    vertex 9.608999331874481 -0.4637886293676688 4.825953142956138
    vertex 9.680018778814336 -1.614839864625236 2.365854453160771
  endloop
endfacet
facet normal -0.447049 -0.892721 -0.0565348
  outer loop
    vertex 5.027268454435773 7.557022589532813 11.72203886667123
    vertex 3.712809393749709 8.03224378992592 14.61207461689879
    vertex 3.076789121356349 8.518240105484384 11.9672100585062
  endloop
endfacet
facet normal -0.550407 -0.827029 -0.114347
  outer loop
    vertex 3.712809393749709 8.03224378992592 14.61207461689879
    vertex 5.027268454435773 7.557022589532813 11.72203886667123
    vertex 5.865476576674744 6.708893014832782 13.82155024004587
  endloop
endfacet
facet normal -0.715401 -0.696096 -0.0604324
  outer loop
    vertex 6.8474744684826 5.061376317271352 18.86375301861606
    vertex 5.436292677995188 6.287516476286636 21.44598484347906
    vertex 5.242137508590033 6.721260916783169 18.74828149668818
  endloop
endfacet
facet normal -0.965803 -0.256576 -0.0373201
  outer loop
    vertex 9.748470606124895 1.157708076275672 2.325481969885042
    vertex 9.338138948512903 2.360034497254137 4.6784055100955
    vertex 9.036895198015777 3.839710625720498 2.301466755022315
  endloop
endfacet
facet normal -0.890937 -0.452792 -0.034809
  outer loop
    vertex 7.29621054276222 3.978220259938561 21.46792129811003
    vertex 6.8474744684826 5.061376317271352 18.86375301861606
    vertex 8.102173090068858 2.580846574944424 19.01617765280875
  endloop
endfacet
facet normal -0.919225 -0.375808 -0.117446
  outer loop
    vertex 9.338138948512903 2.360034497254137 4.6784055100955
    vertex 8.325250376745961 4.849089025249816 4.641509261802844
    vertex 9.036895198015777 3.839710625720498 2.301466755022315
  endloop
endfacet
facet normal -0.45918 -0.886577 -0.055995
  outer loop
    vertex 5.384571075670827 7.785592063340072 6.772935479012461
    vertex 3.722012748455354 8.488256402045039 9.281161383238915
    vertex 3.234615739892206 8.908071283960956 6.631014403440282
  endloop
endfacet
facet normal -0.551477 0.824395 -0.12746
  outer loop
    vertex 3.717572437826925 -8.2605942735086 11.94664547131547
    vertex 6.223447160614024 -6.579593148577808 11.97706872004078
    vertex 5.330726966581071 -7.563691467343626 9.474540746745911
  endloop
endfacet
facet normal -0.567762 0.814366 -0.120224
  outer loop
    vertex 5.05160655538156 -7.281543483225147 14.44414883913745
    vertex 3.739271728694285 -7.802323570133437 17.11406082835177
    vertex 5.969825700454319 -6.306889613602705 16.70987879227781
  endloop
endfacet
facet normal -0.454914 -0.884458 -0.103865
  outer loop
    vertex 3.948025726054196 8.824420377875454 4.218706964524262
    vertex 5.384571075670827 7.785592063340072 6.772935479012461
    vertex 3.234615739892206 8.908071283960956 6.631014403440282
  endloop
endfacet
facet normal -0.654975 0.754289 -0.0453475
  outer loop
    vertex 7.388749743144867 -6.464505486878113 2.316270170823644
    vertex 5.336656687086297 -8.257439483066008 2.132776764270869
    vertex 5.912439429788121 -7.606693440313221 4.640686261624749
  endloop
endfacet
facet normal -0.938547 -0.321641 -0.125209
  outer loop
    vertex 8.201204743652903 1.316955035850382 21.52057902146183
    vertex 7.29621054276222 3.978220259938561 21.46792129811003
    vertex 8.102173090068858 2.580846574944424 19.01617765280875
  endloop
endfacet
facet normal -0.556631 0.830282 -0.0281574
  outer loop
    vertex 6.223447160614024 -6.579593148577808 11.97706872004078
    vertex 3.717572437826925 -8.2605942735086 11.94664547131547
    vertex 5.05160655538156 -7.281543483225147 14.44414883913745
  endloop
endfacet
facet normal -0.708791 0.697164 -0.107598
  outer loop
    vertex 7.721171752893944 -5.731468674963714 4.87606549274228
    vertex 7.388749743144867 -6.464505486878113 2.316270170823644
    vertex 5.912439429788121 -7.606693440313221 4.640686261624749
  endloop
endfacet
facet normal -0.833378 0.550489 -0.0494164
  outer loop
    vertex 7.721171752893944 -5.731468674963714 4.87606549274228
    vertex 8.835053067167236 -4.268956229553891 2.383230596328949
    vertex 7.388749743144867 -6.464505486878113 2.316270170823644
  endloop
endfacet
facet normal -0.460041 0.8863 -0.0532454
  outer loop
    vertex 3.739271728694285 -7.802323570133437 17.11406082835177
    vertex 5.05160655538156 -7.281543483225147 14.44414883913745
    vertex 3.07328231317095 -8.299333846082261 14.5952020298871
  endloop
endfacet
facet normal -0.879032 0.46077 -0.122453
  outer loop
    vertex 8.835053067167236 -4.268956229553891 2.383230596328949
    vertex 7.721171752893944 -5.731468674963714 4.87606549274228
    vertex 9.105441317101691 -3.109225764605637 4.806107801261809
  endloop
endfacet
facet normal -0.866041 0.484457 -0.12359
  outer loop
    vertex 7.980707461102092 -2.894903346302995 19.19073423447051
    vertex 7.573787667603676 -4.240222704226747 16.76869773947113
    vertex 6.678682501642363 -5.258444385072043 19.04972619745849
  endloop
endfacet
facet normal -0.55257 -0.832727 -0.0350949
  outer loop
    vertex 3.701536184106041 7.805036815597227 17.28940724018774
    vertex 6.016845014172618 6.312703578111154 16.24467978820242
    vertex 5.242137508590033 6.721260916783169 18.74828149668818
  endloop
endfacet
facet normal -0.992192 0.00550591 -0.124602
  outer loop
    vertex 8.4935836823002 -0.1276136008466814 19.1285592472334
    vertex 8.175962875962002 -1.429560960718328 21.60021444197952
    vertex 8.201204743652903 1.316955035850382 21.52057902146183
  endloop
endfacet
facet normal -0.543489 -0.838901 -0.0294244
  outer loop
    vertex 3.722012748455354 8.488256402045039 9.281161383238915
    vertex 6.273110980213992 6.841401544415935 9.113109071131326
    vertex 5.027268454435773 7.557022589532813 11.72203886667123
  endloop
endfacet
facet normal -0.874452 0.483824 -0.0353223
  outer loop
    vertex 7.18071066854031 -4.167092385742006 21.57004340012591
    vertex 7.980707461102092 -2.894903346302995 19.19073423447051
    vertex 6.678682501642363 -5.258444385072043 19.04972619745849
  endloop
endfacet
facet normal -0.931214 0.339998 -0.13131
  outer loop
    vertex 7.18071066854031 -4.167092385742006 21.57004340012591
    vertex 8.175962875962002 -1.429560960718328 21.60021444197952
    vertex 7.980707461102092 -2.894903346302995 19.19073423447051
  endloop
endfacet
facet normal -0.988957 -0.144318 -0.0337261
  outer loop
    vertex 8.4935836823002 -0.1276136008466814 19.1285592472334
    vertex 8.201204743652903 1.316955035850382 21.52057902146183
    vertex 8.102173090068858 2.580846574944424 19.01617765280875
  endloop
endfacet
facet normal -0.939425 0.341815 -0.0253519
  outer loop
    vertex 7.629910221567698 -2.75231254281125 24.00000000000028
    vertex 8.175962875962002 -1.429560960718328 21.60021444197952
    vertex 7.18071066854031 -4.167092385742006 21.57004340012591
  endloop
endfacet
facet normal -0.999456 0.00826017 -0.0319137
  outer loop
    vertex 8.175962875962002 -1.429560960718328 21.60021444197952
    vertex 8.111149999999958 -2.098772310187841e-14 24.00000000000031
    vertex 8.201204743652903 1.316955035850382 21.52057902146183
  endloop
endfacet
facet normal -0.788989 0.613362 -0.0358127
  outer loop
    vertex 6.678682501642363 -5.258444385072043 19.04972619745849
    vertex 7.573787667603676 -4.240222704226747 16.76869773947113
    vertex 5.969825700454319 -6.306889613602705 16.70987879227781
  endloop
endfacet
facet normal -0.987547 -0.101027 -0.120597
  outer loop
    vertex 9.748470606124895 1.157708076275672 2.325481969885042
    vertex 9.608999331874481 -0.4637886293676688 4.825953142956138
    vertex 9.338138948512903 2.360034497254137 4.6784055100955
  endloop
endfacet
facet normal -0.681778 0.721908 -0.118436
  outer loop
    vertex 6.223447160614024 -6.579593148577808 11.97706872004078
    vertex 5.05160655538156 -7.281543483225147 14.44414883913745
    vertex 6.975308678471538 -5.476376257296766 14.37344972193861
  endloop
endfacet
facet normal -0.998905 0.0240782 -0.0401028
  outer loop
    vertex 9.608999331874481 -0.4637886293676688 4.825953142956138
    vertex 9.748470606124895 1.157708076275672 2.325481969885042
    vertex 9.680018778814336 -1.614839864625236 2.365854453160771
  endloop
endfacet
facet normal -0.684544 0.728093 -0.035784
  outer loop
    vertex 6.975308678471538 -5.476376257296766 14.37344972193861
    vertex 5.05160655538156 -7.281543483225147 14.44414883913745
    vertex 5.969825700454319 -6.306889613602705 16.70987879227781
  endloop
endfacet
facet normal -0.748255 -0.653589 -0.113738
  outer loop
    vertex 6.966572798678318 5.83042874512175 11.6257379875848
    vertex 7.455778958698193 4.850491138624652 14.03853335371087
    vertex 5.865476576674744 6.708893014832782 13.82155024004587
  endloop
endfacet
facet normal -0.643182 -0.755451 -0.124945
  outer loop
    vertex 6.243295447164345 5.17803208583304 24.00000000000022
    vertex 4.115842136679394 6.989320269413482 24.00000000000012
    vertex 5.436292677995188 6.287516476286636 21.44598484347906
  endloop
endfacet
facet normal -0.982915 0.181479 -0.0307157
  outer loop
    vertex 7.980707461102092 -2.894903346302995 19.19073423447051
    vertex 8.175962875962002 -1.429560960718328 21.60021444197952
    vertex 8.4935836823002 -0.1276136008466814 19.1285592472334
  endloop
endfacet
facet normal -0.467033 0.882466 -0.0559862
  outer loop
    vertex 3.717572437826925 -8.2605942735086 11.94664547131547
    vertex 5.330726966581071 -7.563691467343626 9.474540746745911
    vertex 3.237613702801772 -8.681249499359737 9.319976520663827
  endloop
endfacet
facet normal -0.977174 -0.170858 -0.126244
  outer loop
    vertex 8.111149999999958 -2.098772310187841e-14 24.00000000000031
    vertex 7.629910221567703 2.752312542811234 24.00000000000028
    vertex 8.201204743652903 1.316955035850382 21.52057902146183
  endloop
endfacet
facet normal -0.782658 0.610836 -0.119688
  outer loop
    vertex 7.573787667603676 -4.240222704226747 16.76869773947113
    vertex 6.975308678471538 -5.476376257296766 14.37344972193861
    vertex 5.969825700454319 -6.306889613602705 16.70987879227781
  endloop
endfacet
facet normal -0.861093 0.492227 -0.127406
  outer loop
    vertex 6.243295447164343 -5.178032085833045 24.00000000000021
    vertex 7.629910221567698 -2.75231254281125 24.00000000000028
    vertex 7.18071066854031 -4.167092385742006 21.57004340012591
  endloop
endfacet
facet normal -0.866756 0.483024 -0.124184
  outer loop
    vertex 7.917456566059021 -4.391863608939206 12.01593461426202
    vertex 6.975308678471538 -5.476376257296766 14.37344972193861
    vertex 8.328793247111099 -3.040679414592693 14.4004990559419
  endloop
endfacet
facet normal -0.937511 0.346243 -0.0344737
  outer loop
    vertex 8.874071189054924 -1.80310801076481 12.00144942868644
    vertex 7.917456566059021 -4.391863608939206 12.01593461426202
    vertex 8.328793247111099 -3.040679414592693 14.4004990559419
  endloop
endfacet
facet normal -0.873496 0.48575 -0.0324363
  outer loop
    vertex 6.975308678471538 -5.476376257296766 14.37344972193861
    vertex 7.573787667603676 -4.240222704226747 16.76869773947113
    vertex 8.328793247111099 -3.040679414592693 14.4004990559419
  endloop
endfacet
facet normal -0.778415 -0.627191 -0.0264976
  outer loop
    vertex 7.29621054276222 3.978220259938561 21.46792129811003
    vertex 6.243295447164345 5.17803208583304 24.00000000000022
    vertex 5.436292677995188 6.287516476286636 21.44598484347906
  endloop
endfacet
facet normal -0.768394 -0.628951 -0.11828
  outer loop
    vertex 7.429027818340039 5.863017135288984 6.806344743520575
    vertex 7.957034086819332 4.76231093570895 9.229185624474995
    vertex 6.273110980213992 6.841401544415935 9.113109071131326
  endloop
endfacet
facet normal -0.544935 0.837881 -0.0316382
  outer loop
    vertex 6.583762800289207 -7.52688962251526 0
    vertex 4.210602125483363 -9.070326881699186 0
    vertex 5.336656687086297 -8.257439483066008 2.132776764270869
  endloop
endfacet
facet normal -0.684367 -0.728344 -0.0340179
  outer loop
    vertex 7.429027818340039 5.863017135288984 6.806344743520575
    vertex 6.273110980213992 6.841401544415935 9.113109071131326
    vertex 5.384571075670827 7.785592063340072 6.772935479012461
  endloop
endfacet
facet normal -0.783643 0.608972 -0.122706
  outer loop
    vertex 7.917456566059021 -4.391863608939206 12.01593461426202
    vertex 7.317994841299551 -5.643781351430565 9.631215015918475
    vertex 6.223447160614024 -6.579593148577808 11.97706872004078
  endloop
endfacet
facet normal -0.975826 0.178006 -0.126798
  outer loop
    vertex 7.980707461102092 -2.894903346302995 19.19073423447051
    vertex 8.4935836823002 -0.1276136008466814 19.1285592472334
    vertex 8.527627722498798 -1.618245276479527 16.77392007547064
  endloop
endfacet
facet normal -0.643082 0.755334 -0.126157
  outer loop
    vertex 4.115842136679382 -6.989320269413491 24.00000000000012
    vertex 6.243295447164343 -5.178032085833045 24.00000000000021
    vertex 5.364604934495835 -6.342476365489148 21.5072744434535
  endloop
endfacet
facet normal -0.931219 0.343428 -0.122019
  outer loop
    vertex 8.874071189054924 -1.80310801076481 12.00144942868644
    vertex 8.669331737620119 -3.205477251344404 9.616939910603863
    vertex 7.917456566059021 -4.391863608939206 12.01593461426202
  endloop
endfacet
facet normal -0.757797 -0.651499 -0.0359489
  outer loop
    vertex 6.583762800289212 7.526889622515273 0
    vertex 8.429294788261759 5.38024064262773 0
    vertex 7.598357214881484 6.220648397385162 2.28539980112882
  endloop
endfacet
facet normal -0.798148 -0.58809 -0.130803
  outer loop
    vertex 7.455778958698193 4.850491138624652 14.03853335371087
    vertex 7.830662988191929 3.790646036935444 16.51609764276158
    vertex 6.016845014172618 6.312703578111154 16.24467978820242
  endloop
endfacet
facet normal -0.692892 0.720141 -0.0360157
  outer loop
    vertex 6.223447160614024 -6.579593148577808 11.97706872004078
    vertex 7.317994841299551 -5.643781351430565 9.631215015918475
    vertex 5.330726966581071 -7.563691467343626 9.474540746745911
  endloop
endfacet
facet normal -0.531251 -0.841633 -0.0970857
  outer loop
    vertex 5.436292677995188 6.287516476286636 21.44598484347906
    vertex 3.59395306252459 7.629471400819085 19.89386989508788
    vertex 5.242137508590033 6.721260916783169 18.74828149668818
  endloop
endfacet
facet normal -0.759864 0.637971 -0.124896
  outer loop
    vertex 5.364604934495835 -6.342476365489148 21.5072744434535
    vertex 7.18071066854031 -4.167092385742006 21.57004340012591
    vertex 6.678682501642363 -5.258444385072043 19.04972619745849
  endloop
endfacet
facet normal -0.506468 0.860033 -0.0619178
  outer loop
    vertex 3.727901926051741 -8.944474691550541 3.927841906126673
    vertex 4.005926010065592 -8.572499767705409 6.820392218435338
    vertex 5.912439429788121 -7.606693440313221 4.640686261624749
  endloop
endfacet
facet normal -0.874221 0.484302 -0.0344878
  outer loop
    vertex 7.917456566059021 -4.391863608939206 12.01593461426202
    vertex 8.669331737620119 -3.205477251344404 9.616939910603863
    vertex 7.317994841299551 -5.643781351430565 9.631215015918475
  endloop
endfacet
facet normal -0.909952 0.413001 -0.0376551
  outer loop
    vertex 9.599295491925893 -2.802414326735287 0
    vertex 8.429294788261755 -5.38024064262772 0
    vertex 8.835053067167236 -4.268956229553891 2.383230596328949
  endloop
endfacet
facet normal -0.924476 -0.379366 -0.0377578
  outer loop
    vertex 8.977733348111542 2.252861964007017 9.451303224684626
    vertex 8.328075553115175 3.609030471330783 11.73187517293339
    vertex 7.957034086819332 4.76231093570895 9.229185624474995
  endloop
endfacet
facet normal -0.861373 -0.492387 -0.12487
  outer loop
    vertex 7.629910221567703 2.752312542811234 24.00000000000028
    vertex 6.243295447164345 5.17803208583304 24.00000000000022
    vertex 7.29621054276222 3.978220259938561 21.46792129811003
  endloop
endfacet
facet normal -0.766911 0.641092 -0.02914
  outer loop
    vertex 5.364604934495835 -6.342476365489148 21.5072744434535
    vertex 6.243295447164343 -5.178032085833045 24.00000000000021
    vertex 7.18071066854031 -4.167092385742006 21.57004340012591
  endloop
endfacet
facet normal -0.999032 0.0291711 -0.0329114
  outer loop
    vertex 8.527627722498798 -1.618245276479527 16.77392007547064
    vertex 8.4935836823002 -0.1276136008466814 19.1285592472334
    vertex 8.611435029801864 1.1453564441046 16.67945496432954
  endloop
endfacet
facet normal -0.911009 -0.410648 -0.0378195
  outer loop
    vertex 8.544788382791634 2.417038524163853 14.22876171789021
    vertex 7.830662988191929 3.790646036935444 16.51609764276158
    vertex 7.455778958698193 4.850491138624652 14.03853335371087
  endloop
endfacet
facet normal -0.946099 -0.322353 -0.0313821
  outer loop
    vertex 7.629910221567703 2.752312542811234 24.00000000000028
    vertex 7.29621054276222 3.978220259938561 21.46792129811003
    vertex 8.201204743652903 1.316955035850382 21.52057902146183
  endloop
endfacet
facet normal -0.939246 0.341749 -0.0320241
  outer loop
    vertex 7.980707461102092 -2.894903346302995 19.19073423447051
    vertex 8.527627722498798 -1.618245276479527 16.77392007547064
    vertex 7.573787667603676 -4.240222704226747 16.76869773947113
  endloop
endfacet
facet normal -0.973958 0.190348 -0.123178
  outer loop
    vertex 8.86368028675008 -0.3298428794613673 14.36026368104046
    vertex 8.874071189054924 -1.80310801076481 12.00144942868644
    vertex 8.328793247111099 -3.040679414592693 14.4004990559419
  endloop
endfacet
facet normal -0.902787 -0.413311 -0.118955
  outer loop
    vertex 8.544788382791634 2.417038524163853 14.22876171789021
    vertex 7.455778958698193 4.850491138624652 14.03853335371087
    vertex 8.328075553115175 3.609030471330783 11.73187517293339
  endloop
endfacet
facet normal -0.789924 0.612261 -0.0340276
  outer loop
    vertex 7.917456566059021 -4.391863608939206 12.01593461426202
    vertex 6.223447160614024 -6.579593148577808 11.97706872004078
    vertex 6.975308678471538 -5.476376257296766 14.37344972193861
  endloop
endfacet
facet normal -0.966993 -0.25218 -0.0364601
  outer loop
    vertex 9.010551880413074 0.9653261594543745 11.91671427655751
    vertex 8.544788382791634 2.417038524163853 14.22876171789021
    vertex 8.328075553115175 3.609030471330783 11.73187517293339
  endloop
endfacet
facet normal -0.959069 -0.256042 -0.120948
  outer loop
    vertex 8.977733348111542 2.252861964007017 9.451303224684626
    vertex 9.010551880413074 0.9653261594543745 11.91671427655751
    vertex 8.328075553115175 3.609030471330783 11.73187517293339
  endloop
endfacet
facet normal -0.949646 -0.287925 -0.123581
  outer loop
    vertex 8.544788382791634 2.417038524163853 14.22876171789021
    vertex 8.611435029801864 1.1453564441046 16.67945496432954
    vertex 7.830662988191929 3.790646036935444 16.51609764276158
  endloop
endfacet
facet normal -0.98139 -0.146953 -0.123607
  outer loop
    vertex 8.611435029801864 1.1453564441046 16.67945496432954
    vertex 8.4935836823002 -0.1276136008466814 19.1285592472334
    vertex 8.102173090068858 2.580846574944424 19.01617765280875
  endloop
endfacet
facet normal -0.992581 -0.116841 -0.0336365
  outer loop
    vertex 8.86368028675008 -0.3298428794613673 14.36026368104046
    vertex 8.611435029801864 1.1453564441046 16.67945496432954
    vertex 8.544788382791634 2.417038524163853 14.22876171789021
  endloop
endfacet
facet normal -0.86661 -0.497598 -0.0372016
  outer loop
    vertex 8.779131132770127 3.498872402554147 6.977849195695606
    vertex 7.957034086819332 4.76231093570895 9.229185624474995
    vertex 7.429027818340039 5.863017135288984 6.806344743520575
  endloop
endfacet
facet normal -0.978321 0.203951 -0.0359463
  outer loop
    vertex 8.874071189054924 -1.80310801076481 12.00144942868644
    vertex 9.231788900362478 -0.5141178328342954 9.579192782533868
    vertex 8.669331737620119 -3.205477251344404 9.616939910603863
  endloop
endfacet
facet normal -0.665523 -0.745535 -0.035467
  outer loop
    vertex 5.027268454435773 7.557022589532813 11.72203886667123
    vertex 6.966572798678318 5.83042874512175 11.6257379875848
    vertex 5.865476576674744 6.708893014832782 13.82155024004587
  endloop
endfacet
facet normal -0.989269 -0.141451 -0.0365822
  outer loop
    vertex 9.599295491925895 2.802414326735297 0
    vertex 10 4.253541963095131e-15 0
    vertex 9.748470606124895 1.157708076275672 2.325481969885042
  endloop
endfacet
facet normal -0.957979 -0.28484 -0.0337983
  outer loop
    vertex 7.830662988191929 3.790646036935444 16.51609764276158
    vertex 8.611435029801864 1.1453564441046 16.67945496432954
    vertex 8.102173090068858 2.580846574944424 19.01617765280875
  endloop
endfacet
facet normal -0.810487 -0.58532 -0.0226085
  outer loop
    vertex 6.016845014172618 6.312703578111154 16.24467978820242
    vertex 7.830662988191929 3.790646036935444 16.51609764276158
    vertex 6.8474744684826 5.061376317271352 18.86375301861606
  endloop
endfacet
facet normal -0.998245 0.0481571 -0.0344753
  outer loop
    vertex 8.86368028675008 -0.3298428794613673 14.36026368104046
    vertex 9.010551880413074 0.9653261594543745 11.91671427655751
    vertex 8.874071189054924 -1.80310801076481 12.00144942868644
  endloop
endfacet
facet normal -0.976935 0.170816 -0.128141
  outer loop
    vertex 7.629910221567698 -2.75231254281125 24.00000000000028
    vertex 8.111149999999958 -2.098772310187841e-14 24.00000000000031
    vertex 8.175962875962002 -1.429560960718328 21.60021444197952
  endloop
endfacet
facet normal -0.991907 0.0258307 -0.124314
  outer loop
    vertex 8.527627722498798 -1.618245276479527 16.77392007547064
    vertex 8.611435029801864 1.1453564441046 16.67945496432954
    vertex 8.86368028675008 -0.3298428794613673 14.36026368104046
  endloop
endfacet
facet normal -0.991454 0.0451312 -0.122401
  outer loop
    vertex 8.874071189054924 -1.80310801076481 12.00144942868644
    vertex 9.010551880413074 0.9653261594543745 11.91671427655751
    vertex 9.231788900362478 -0.5141178328342954 9.579192782533868
  endloop
endfacet
facet normal -0.932261 0.339394 -0.125304
  outer loop
    vertex 7.573787667603676 -4.240222704226747 16.76869773947113
    vertex 8.527627722498798 -1.618245276479527 16.77392007547064
    vertex 8.328793247111099 -3.040679414592693 14.4004990559419
  endloop
endfacet
facet normal -0.980627 0.192994 -0.0335126
  outer loop
    vertex 8.527627722498798 -1.618245276479527 16.77392007547064
    vertex 8.86368028675008 -0.3298428794613673 14.36026368104046
    vertex 8.328793247111099 -3.040679414592693 14.4004990559419
  endloop
endfacet
facet normal -0.882387 -0.453937 -0.123834
  outer loop
    vertex 6.8474744684826 5.061376317271352 18.86375301861606
    vertex 7.830662988191929 3.790646036935444 16.51609764276158
    vertex 8.102173090068858 2.580846574944424 19.01617765280875
  endloop
endfacet
facet normal -0.91594 -0.383125 -0.119456
  outer loop
    vertex 8.977733348111542 2.252861964007017 9.451303224684626
    vertex 7.957034086819332 4.76231093570895 9.229185624474995
    vertex 8.779131132770127 3.498872402554147 6.977849195695606
  endloop
endfacet
facet normal -0.668714 -0.733392 -0.122304
  outer loop
    vertex 6.583762800289212 7.526889622515273 0
    vertex 7.598357214881484 6.220648397385162 2.28539980112882
    vertex 5.504075320736941 8.135016513805086 2.256730560861893
  endloop
endfacet
facet normal -0.987885 -0.0963283 -0.121673
  outer loop
    vertex 9.231788900362478 -0.5141178328342954 9.579192782533868
    vertex 8.977733348111542 2.252861964007017 9.451303224684626
    vertex 9.404496225764349 0.7940502660166154 7.141274683687968
  endloop
endfacet
facet normal -0.985101 -0.120249 -0.122946
  outer loop
    vertex 8.86368028675008 -0.3298428794613673 14.36026368104046
    vertex 8.544788382791634 2.417038524163853 14.22876171789021
    vertex 9.010551880413074 0.9653261594543745 11.91671427655751
  endloop
endfacet
facet normal -0.684654 0.718615 -0.121824
  outer loop
    vertex 5.330726966581071 -7.563691467343626 9.474540746745911
    vertex 7.317994841299551 -5.643781351430565 9.631215015918475
    vertex 6.577853153959108 -6.760305190618897 7.204681050315369
  endloop
endfacet
facet normal -0.971989 0.201434 -0.121087
  outer loop
    vertex 8.669331737620119 -3.205477251344404 9.616939910603863
    vertex 9.231788900362478 -0.5141178328342954 9.579192782533868
    vertex 9.22333909792186 -1.969252985409465 7.226343214308258
  endloop
endfacet
facet normal -0.99504 -0.092994 -0.0353196
  outer loop
    vertex 9.231788900362478 -0.5141178328342954 9.579192782533868
    vertex 9.010551880413074 0.9653261594543745 11.91671427655751
    vertex 8.977733348111542 2.252861964007017 9.451303224684626
  endloop
endfacet
facet normal -0.997277 0.0642664 -0.0361644
  outer loop
    vertex 9.22333909792186 -1.969252985409465 7.226343214308258
    vertex 9.231788900362478 -0.5141178328342954 9.579192782533868
    vertex 9.404496225764349 0.7940502660166154 7.141274683687968
  endloop
endfacet
facet normal -0.858107 -0.498865 -0.121599
  outer loop
    vertex 8.779131132770127 3.498872402554147 6.977849195695606
    vertex 7.429027818340039 5.863017135288984 6.806344743520575
    vertex 8.325250376745961 4.849089025249816 4.641509261802844
  endloop
endfacet
facet normal -0.296165 -0.952109 -0.0759947
  outer loop
    vertex 1.499999999999999 8.609783634690471 15.99999999999999
    vertex 1.499999999999999 8.822629690015827 13.33333333333331
    vertex 3.712809393749709 8.03224378992592 14.61207461689879
  endloop
endfacet
facet normal -0.544875 -0.83779 -0.0349232
  outer loop
    vertex 4.210602125483366 9.070326881699199 0
    vertex 6.583762800289212 7.526889622515273 0
    vertex 5.504075320736941 8.135016513805086 2.256730560861893
  endloop
endfacet
facet normal -0.990789 0.0612361 -0.12078
  outer loop
    vertex 9.22333909792186 -1.969252985409465 7.226343214308258
    vertex 9.404496225764349 0.7940502660166154 7.141274683687968
    vertex 9.608999331874481 -0.4637886293676688 4.825953142956138
  endloop
endfacet
facet normal -0.973172 -0.227195 -0.0363108
  outer loop
    vertex 8.977733348111542 2.252861964007017 9.451303224684626
    vertex 8.779131132770127 3.498872402554147 6.977849195695606
    vertex 9.404496225764349 0.7940502660166154 7.141274683687968
  endloop
endfacet
facet normal -0.302257 0.950204 -0.0758427
  outer loop
    vertex 1.499999999999999 -8.396937579365117 18.66666666666666
    vertex 1.499999999999999 -8.184091524039763 21.33333333333333
    vertex 3.571006051437488 -7.639841714278034 19.89842248622754
  endloop
endfacet
facet normal -0.289451 0.954158 -0.0761583
  outer loop
    vertex 1.499999999999999 -9.035475745341181 10.66666666666664
    vertex 1.499999999999999 -8.822629690015827 13.33333333333331
    vertex 3.717572437826925 -8.2605942735086 11.94664547131547
  endloop
endfacet
facet normal -0.304658 0.949442 -0.0757819
  outer loop
    vertex 1.499999999999999 -8.609783634690471 15.99999999999999
    vertex 1.499999999999999 -8.396937579365117 18.66666666666666
    vertex 3.739271728694285 -7.802323570133437 17.11406082835177
  endloop
endfacet
facet normal -0.283035 -0.956069 -0.0763108
  outer loop
    vertex 1.499999999999999 9.035475745341181 10.66666666666664
    vertex 1.499999999999999 9.248321800666535 7.999999999999979
    vertex 3.722012748455354 8.488256402045039 9.281161383238915
  endloop
endfacet
facet normal -0.78769 0.604323 -0.119741
  outer loop
    vertex 6.577853153959108 -6.760305190618897 7.204681050315369
    vertex 8.241224999785551 -4.574081722530906 7.296238299825355
    vertex 7.721171752893944 -5.731468674963714 4.87606549274228
  endloop
endfacet
facet normal -0.303672 -0.949756 -0.0758069
  outer loop
    vertex 1.499999999999999 8.184091524039763 21.33333333333333
    vertex 1.499999999999999 8.396937579365117 18.66666666666666
    vertex 3.59395306252459 7.629471400819085 19.89386989508788
  endloop
endfacet
facet normal -0.302856 -0.950015 -0.0758276
  outer loop
    vertex 1.499999999999999 8.396937579365117 18.66666666666666
    vertex 1.499999999999999 8.609783634690471 15.99999999999999
    vertex 3.701536184106041 7.805036815597227 17.28940724018774
  endloop
endfacet
facet normal -0.292859 0.953124 -0.0760758
  outer loop
    vertex 1.499999999999999 -9.461167855991887 5.333333333333321
    vertex 1.499999999999999 -9.248321800666535 7.999999999999979
    vertex 4.005926010065592 -8.572499767705409 6.820392218435338
  endloop
endfacet
facet normal -0.283394 -0.955963 -0.0763024
  outer loop
    vertex 1.499999999999999 9.461167855991887 5.333333333333314
    vertex 1.499999999999999 9.674013911317241 2.666666666666661
    vertex 3.948025726054196 8.824420377875454 4.218706964524262
  endloop
endfacet
facet normal -0.775399 -0.63023 -0.0395745
  outer loop
    vertex 6.273110980213992 6.841401544415935 9.113109071131326
    vertex 7.957034086819332 4.76231093570895 9.229185624474995
    vertex 6.966572798678318 5.83042874512175 11.6257379875848
  endloop
endfacet
facet normal -0.299487 -0.950576 -0.0819299
  outer loop
    vertex 1.499999999999999 8.609783634690471 15.99999999999999
    vertex 3.712809393749709 8.03224378992592 14.61207461689879
    vertex 3.701536184106041 7.805036815597227 17.28940724018774
  endloop
endfacet
facet normal -0.935441 0.351759 -0.0348818
  outer loop
    vertex 8.669331737620119 -3.205477251344404 9.616939910603863
    vertex 9.22333909792186 -1.969252985409465 7.226343214308258
    vertex 8.241224999785551 -4.574081722530906 7.296238299825355
  endloop
endfacet
facet normal -0.303413 0.949999 -0.0737733
  outer loop
    vertex 3.739271728694285 -7.802323570133437 17.11406082835177
    vertex 1.499999999999999 -8.396937579365117 18.66666666666666
    vertex 3.571006051437488 -7.639841714278034 19.89842248622754
  endloop
endfacet
facet normal -0.851062 -0.523534 -0.0400719
  outer loop
    vertex 8.328075553115175 3.609030471330783 11.73187517293339
    vertex 7.455778958698193 4.850491138624652 14.03853335371087
    vertex 6.966572798678318 5.83042874512175 11.6257379875848
  endloop
endfacet
facet normal -0.794571 0.606072 -0.0365127
  outer loop
    vertex 6.577853153959108 -6.760305190618897 7.204681050315369
    vertex 7.317994841299551 -5.643781351430565 9.631215015918475
    vertex 8.241224999785551 -4.574081722530906 7.296238299825355
  endloop
endfacet
facet normal -0.700135 0.711438 -0.0605522
  outer loop
    vertex 5.364604934495835 -6.342476365489148 21.5072744434535
    vertex 6.678682501642363 -5.258444385072043 19.04972619745849
    vertex 5.136268595437569 -6.798977160362612 18.78390935721912
  endloop
endfacet
facet normal -0.868299 0.4805 -0.123191
  outer loop
    vertex 7.317994841299551 -5.643781351430565 9.631215015918475
    vertex 8.669331737620119 -3.205477251344404 9.616939910603863
    vertex 8.241224999785551 -4.574081722530906 7.296238299825355
  endloop
endfacet
facet normal -0.674087 -0.737928 -0.0326921
  outer loop
    vertex 5.504075320736941 8.135016513805086 2.256730560861893
    vertex 7.598357214881484 6.220648397385162 2.28539980112882
    vertex 6.553348551420452 7.077060346104466 4.50173133083074
  endloop
endfacet
facet normal -0.30326 -0.949828 -0.0765542
  outer loop
    vertex 3.59395306252459 7.629471400819085 19.89386989508788
    vertex 1.499999999999999 8.396937579365117 18.66666666666666
    vertex 3.701536184106041 7.805036815597227 17.28940724018774
  endloop
endfacet
facet normal -0.647034 0.752887 -0.120453
  outer loop
    vertex 6.583762800289207 -7.52688962251526 0
    vertex 5.336656687086297 -8.257439483066008 2.132776764270869
    vertex 7.388749743144867 -6.464505486878113 2.316270170823644
  endloop
endfacet
facet normal -0.27086 0.959567 -0.07659
  outer loop
    vertex 1.499999999999999 -9.674013911317241 2.666666666666661
    vertex 1.499999999999999 -9.461167855991887 5.333333333333321
    vertex 3.727901926051741 -8.944474691550541 3.927841906126673
  endloop
endfacet
facet normal -0.827937 0.548905 -0.11499
  outer loop
    vertex 8.835053067167236 -4.268956229553891 2.383230596328949
    vertex 8.429294788261755 -5.38024064262772 0
    vertex 7.388749743144867 -6.464505486878113 2.316270170823644
  endloop
endfacet
facet normal -0.981507 0.187132 -0.0403299
  outer loop
    vertex 9.22333909792186 -1.969252985409465 7.226343214308258
    vertex 9.608999331874481 -0.4637886293676688 4.825953142956138
    vertex 9.105441317101691 -3.109225764605637 4.806107801261809
  endloop
endfacet
facet normal -0.281778 0.954696 -0.0956879
  outer loop
    vertex 1.499999999999999 -9.461167855991887 5.333333333333321
    vertex 4.005926010065592 -8.572499767705409 6.820392218435338
    vertex 3.727901926051741 -8.944474691550541 3.927841906126673
  endloop
endfacet
facet normal -0.524147 0.845986 -0.0978612
  outer loop
    vertex 3.571006051437488 -7.639841714278034 19.89842248622754
    vertex 5.364604934495835 -6.342476365489148 21.5072744434535
    vertex 5.136268595437569 -6.798977160362612 18.78390935721912
  endloop
endfacet
facet normal -0.663765 -0.739169 -0.114216
  outer loop
    vertex 5.027268454435773 7.557022589532813 11.72203886667123
    vertex 6.273110980213992 6.841401544415935 9.113109071131326
    vertex 6.966572798678318 5.83042874512175 11.6257379875848
  endloop
endfacet
facet normal -0.94638 0.300514 -0.118557
  outer loop
    vertex 9.599295491925893 -2.802414326735287 0
    vertex 8.835053067167236 -4.268956229553891 2.383230596328949
    vertex 9.680018778814336 -1.614839864625236 2.365854453160771
  endloop
endfacet
facet normal -0.844385 -0.523062 -0.115849
  outer loop
    vertex 7.957034086819332 4.76231093570895 9.229185624474995
    vertex 8.328075553115175 3.609030471330783 11.73187517293339
    vertex 6.966572798678318 5.83042874512175 11.6257379875848
  endloop
endfacet
facet normal -0.992668 0.0227795 -0.11871
  outer loop
    vertex 9.748470606124895 1.157708076275672 2.325481969885042
    vertex 10 4.253541963095131e-15 0
    vertex 9.680018778814336 -1.614839864625236 2.365854453160771
  endloop
endfacet
facet normal -0.855207 -0.516958 -0.0370924
  outer loop
    vertex 8.325250376745961 4.849089025249816 4.641509261802844
    vertex 7.598357214881484 6.220648397385162 2.28539980112882
    vertex 9.036895198015777 3.839710625720498 2.301466755022315
  endloop
endfacet
facet normal -0.994645 -0.0972363 -0.0350277
  outer loop
    vertex 9.608999331874481 -0.4637886293676688 4.825953142956138
    vertex 9.404496225764349 0.7940502660166154 7.141274683687968
    vertex 9.338138948512903 2.360034497254137 4.6784055100955
  endloop
endfacet
facet normal -0.757811 0.65151 -0.0354563
  outer loop
    vertex 8.429294788261755 -5.38024064262772 0
    vertex 6.583762800289207 -7.52688962251526 0
    vertex 7.388749743144867 -6.464505486878113 2.316270170823644
  endloop
endfacet
facet normal -0.461202 0.881722 -0.0992957
  outer loop
    vertex 5.05160655538156 -7.281543483225147 14.44414883913745
    vertex 3.717572437826925 -8.2605942735086 11.94664547131547
    vertex 3.07328231317095 -8.299333846082261 14.5952020298871
  endloop
endfacet
facet normal -0.884227 0.465904 -0.0328019
  outer loop
    vertex 7.721171752893944 -5.731468674963714 4.87606549274228
    vertex 8.241224999785551 -4.574081722530906 7.296238299825355
    vertex 9.105441317101691 -3.109225764605637 4.806107801261809
  endloop
endfacet
facet normal -0.77283 -0.622403 -0.12389
  outer loop
    vertex 7.598357214881484 6.220648397385162 2.28539980112882
    vertex 8.325250376745961 4.849089025249816 4.641509261802844
    vertex 6.553348551420452 7.077060346104466 4.50173133083074
  endloop
endfacet
facet normal -0.449812 -0.887715 -0.0981413
  outer loop
    vertex 3.722012748455354 8.488256402045039 9.281161383238915
    vertex 5.027268454435773 7.557022589532813 11.72203886667123
    vertex 3.076789121356349 8.518240105484384 11.9672100585062
  endloop
endfacet
facet normal -0.849383 -0.513997 -0.119812
  outer loop
    vertex 7.598357214881484 6.220648397385162 2.28539980112882
    vertex 8.429294788261759 5.38024064262773 0
    vertex 9.036895198015777 3.839710625720498 2.301466755022315
  endloop
endfacet
facet normal -0.925371 -0.377134 -0.0381812
  outer loop
    vertex 8.779131132770127 3.498872402554147 6.977849195695606
    vertex 8.325250376745961 4.849089025249816 4.641509261802844
    vertex 9.338138948512903 2.360034497254137 4.6784055100955
  endloop
endfacet
facet normal -0.959399 -0.25561 -0.119238
  outer loop
    vertex 9.599295491925895 2.802414326735297 0
    vertex 9.748470606124895 1.157708076275672 2.325481969885042
    vertex 9.036895198015777 3.839710625720498 2.301466755022315
  endloop
endfacet
facet normal -0.781308 -0.62335 -0.031501
  outer loop
    vertex 8.325250376745961 4.849089025249816 4.641509261802844
    vertex 7.429027818340039 5.863017135288984 6.806344743520575
    vertex 6.553348551420452 7.077060346104466 4.50173133083074
  endloop
endfacet
facet normal -0.930166 0.34753 -0.118381
  outer loop
    vertex 8.241224999785551 -4.574081722530906 7.296238299825355
    vertex 9.22333909792186 -1.969252985409465 7.226343214308258
    vertex 9.105441317101691 -3.109225764605637 4.806107801261809
  endloop
endfacet
facet normal -0.71629 0.696414 -0.0439968
  outer loop
    vertex 6.577853153959108 -6.760305190618897 7.204681050315369
    vertex 7.721171752893944 -5.731468674963714 4.87606549274228
    vertex 5.912439429788121 -7.606693440313221 4.640686261624749
  endloop
endfacet
facet normal -0.989245 0.141448 -0.0372485
  outer loop
    vertex 10 4.253541963095131e-15 0
    vertex 9.599295491925893 -2.802414326735287 0
    vertex 9.680018778814336 -1.614839864625236 2.365854453160771
  endloop
endfacet
facet normal -0.294088 0.952748 -0.0760458
  outer loop
    vertex 1.499999999999999 -8.184091524039763 21.33333333333333
    vertex 1.499999999999999 -7.971245468714409 24
    vertex 3.340022729704497 -7.555215005777461 22.09646208845627
  endloop
endfacet
facet normal -0.268628 -0.957794 -0.102322
  outer loop
    vertex 3.722012748455354 8.488256402045039 9.281161383238915
    vertex 1.499999999999999 9.248321800666535 7.999999999999979
    vertex 3.234615739892206 8.908071283960956 6.631014403440282
  endloop
endfacet
facet normal -0.274656 0.956019 -0.102918
  outer loop
    vertex 1.499999999999999 -9.035475745341181 10.66666666666664
    vertex 3.717572437826925 -8.2605942735086 11.94664547131547
    vertex 3.237613702801772 -8.681249499359737 9.319976520663827
  endloop
endfacet
facet normal -0.288253 -0.9569 -0.0353867
  outer loop
    vertex 1.499999999999999 9.886859966642593 0
    vertex 4.210602125483366 9.070326881699199 0
    vertex 3.398949701035329 9.244128971328113 1.911745005282095
  endloop
endfacet
facet normal -0.271414 -0.961318 -0.046932
  outer loop
    vertex 1.499999999999999 9.461167855991887 5.333333333333314
    vertex 3.948025726054196 8.824420377875454 4.218706964524262
    vertex 3.234615739892206 8.908071283960956 6.631014403440282
  endloop
endfacet
facet normal -0.348414 -0.928173 -0.130775
  outer loop
    vertex 4.115842136679394 6.989320269413482 24.00000000000012
    vertex 1.5 7.971245468714409 24
    vertex 3.40210765928709 7.53065546945421 22.05943801209688
  endloop
endfacet
facet normal -0.279462 0.95914 -0.0441706
  outer loop
    vertex 4.005926010065592 -8.572499767705409 6.820392218435338
    vertex 1.499999999999999 -9.248321800666535 7.999999999999979
    vertex 3.237613702801772 -8.681249499359737 9.319976520663827
  endloop
endfacet
facet normal -0.27821 -0.954376 -0.108465
  outer loop
    vertex 3.712809393749709 8.03224378992592 14.61207461689879
    vertex 1.499999999999999 8.822629690015827 13.33333333333331
    vertex 3.076789121356349 8.518240105484384 11.9672100585062
  endloop
endfacet
facet normal -0.270543 -0.961178 -0.0542586
  outer loop
    vertex 1.499999999999999 9.035475745341181 10.66666666666664
    vertex 3.722012748455354 8.488256402045039 9.281161383238915
    vertex 3.076789121356349 8.518240105484384 11.9672100585062
  endloop
endfacet
facet normal -0.297902 -0.95157 -0.0759517
  outer loop
    vertex 1.5 7.971245468714409 24
    vertex 1.499999999999999 8.184091524039763 21.33333333333333
    vertex 3.40210765928709 7.53065546945421 22.05943801209688
  endloop
endfacet
facet normal -0.276473 0.959547 -0.0532201
  outer loop
    vertex 3.717572437826925 -8.2605942735086 11.94664547131547
    vertex 1.499999999999999 -8.822629690015827 13.33333333333331
    vertex 3.07328231317095 -8.299333846082261 14.5952020298871
  endloop
endfacet
facet normal -0.287445 0.951262 -0.111698
  outer loop
    vertex 1.499999999999999 -8.609783634690471 15.99999999999999
    vertex 3.739271728694285 -7.802323570133437 17.11406082835177
    vertex 3.07328231317095 -8.299333846082261 14.5952020298871
  endloop
endfacet
facet normal -0.246489 0.966073 -0.0771093
  outer loop
    vertex 1.499999999999999 -9.886859966642593 -3.469446951953614e-15
    vertex 1.499999999999999 -9.674013911317241 2.666666666666661
    vertex 3.353302841955837 -9.273701289497755 1.757730736286816
  endloop
endfacet
facet normal -0.249178 -0.965388 -0.0770546
  outer loop
    vertex 1.499999999999999 9.674013911317241 2.666666666666661
    vertex 1.499999999999999 9.886859966642593 0
    vertex 3.398949701035329 9.244128971328113 1.911745005282095
  endloop
endfacet
facet normal -0.965568 -0.230527 -0.120563
  outer loop
    vertex 9.404496225764349 0.7940502660166154 7.141274683687968
    vertex 8.779131132770127 3.498872402554147 6.977849195695606
    vertex 9.338138948512903 2.360034497254137 4.6784055100955
  endloop
endfacet
facet normal -0.754984 -0.653028 -0.0596096
  outer loop
    vertex 7.455778958698193 4.850491138624652 14.03853335371087
    vertex 6.016845014172618 6.312703578111154 16.24467978820242
    vertex 5.865476576674744 6.708893014832782 13.82155024004587
  endloop
endfacet
facet normal -0.711009 -0.695058 -0.106587
  outer loop
    vertex 6.016845014172618 6.312703578111154 16.24467978820242
    vertex 6.8474744684826 5.061376317271352 18.86375301861606
    vertex 5.242137508590033 6.721260916783169 18.74828149668818
  endloop
endfacet
facet normal -0.91 -0.413023 -0.0362193
  outer loop
    vertex 8.429294788261759 5.38024064262773 0
    vertex 9.599295491925895 2.802414326735297 0
    vertex 9.036895198015777 3.839710625720498 2.301466755022315
  endloop
endfacet
facet normal -0.348269 0.927786 -0.133875
  outer loop
    vertex 1.499999999999999 -7.971245468714409 24
    vertex 4.115842136679382 -6.989320269413491 24.00000000000012
    vertex 3.340022729704497 -7.555215005777461 22.09646208845627
  endloop
endfacet
facet normal -0.288305 0.957072 -0.0298794
  outer loop
    vertex 4.210602125483363 -9.070326881699186 0
    vertex 1.499999999999999 -9.886859966642593 -3.469446951953614e-15
    vertex 3.353302841955837 -9.273701289497755 1.757730736286816
  endloop
endfacet
facet normal -0.530054 -0.846957 -0.0413125
  outer loop
    vertex 5.436292677995188 6.287516476286636 21.44598484347906
    vertex 4.115842136679394 6.989320269413482 24.00000000000012
    vertex 3.40210765928709 7.53065546945421 22.05943801209688
  endloop
endfacet
facet normal -0.678747 -0.723921 -0.123451
  outer loop
    vertex 7.429027818340039 5.863017135288984 6.806344743520575
    vertex 5.384571075670827 7.785592063340072 6.772935479012461
    vertex 6.553348551420452 7.077060346104466 4.50173133083074
  endloop
endfacet
facet normal -0.492441 0.863247 -0.110935
  outer loop
    vertex 5.336656687086297 -8.257439483066008 2.132776764270869
    vertex 3.727901926051741 -8.944474691550541 3.927841906126673
    vertex 5.912439429788121 -7.606693440313221 4.640686261624749
  endloop
endfacet
facet normal -0.297328 0.952357 -0.0679117
  outer loop
    vertex 3.571006051437488 -7.639841714278034 19.89842248622754
    vertex 1.499999999999999 -8.184091524039763 21.33333333333333
    vertex 3.340022729704497 -7.555215005777461 22.09646208845627
  endloop
endfacet
facet normal -0.538271 -0.838379 -0.0859405
  outer loop
    vertex 3.59395306252459 7.629471400819085 19.89386989508788
    vertex 5.436292677995188 6.287516476286636 21.44598484347906
    vertex 3.40210765928709 7.53065546945421 22.05943801209688
  endloop
endfacet
facet normal -0.250114 -0.965147 -0.0770354
  outer loop
    vertex 1.499999999999999 9.248321800666535 7.999999999999979
    vertex 1.499999999999999 9.461167855991887 5.333333333333314
    vertex 3.234615739892206 8.908071283960956 6.631014403440282
  endloop
endfacet
facet normal -0.256046 0.9636 -0.0769119
  outer loop
    vertex 1.499999999999999 -9.248321800666535 7.999999999999979
    vertex 1.499999999999999 -9.035475745341181 10.66666666666664
    vertex 3.237613702801772 -8.681249499359737 9.319976520663827
  endloop
endfacet
facet normal -0.530634 0.842997 -0.0882185
  outer loop
    vertex 5.364604934495835 -6.342476365489148 21.5072744434535
    vertex 3.571006051437488 -7.639841714278034 19.89842248622754
    vertex 3.340022729704497 -7.555215005777461 22.09646208845627
  endloop
endfacet
facet normal -0.522578 -0.848941 -0.0788129
  outer loop
    vertex 3.59395306252459 7.629471400819085 19.89386989508788
    vertex 3.701536184106041 7.805036815597227 17.28940724018774
    vertex 5.242137508590033 6.721260916783169 18.74828149668818
  endloop
endfacet
facet normal -0.522091 0.851929 -0.0404791
  outer loop
    vertex 4.115842136679382 -6.989320269413491 24.00000000000012
    vertex 5.364604934495835 -6.342476365489148 21.5072744434535
    vertex 3.340022729704497 -7.555215005777461 22.09646208845627
  endloop
endfacet
facet normal -0.257296 0.961 -0.101379
  outer loop
    vertex 1.499999999999999 -9.674013911317241 2.666666666666661
    vertex 3.727901926051741 -8.944474691550541 3.927841906126673
    vertex 3.353302841955837 -9.273701289497755 1.757730736286816
  endloop
endfacet
facet normal -0.449115 -0.886668 -0.110067
  outer loop
    vertex 4.210602125483366 9.070326881699199 0
    vertex 5.504075320736941 8.135016513805086 2.256730560861893
    vertex 3.398949701035329 9.244128971328113 1.911745005282095
  endloop
endfacet
facet normal -0.252872 -0.964433 -0.0769784
  outer loop
    vertex 1.499999999999999 8.822629690015827 13.33333333333331
    vertex 1.499999999999999 9.035475745341181 10.66666666666664
    vertex 3.076789121356349 8.518240105484384 11.9672100585062
  endloop
endfacet
facet normal -0.436754 0.892866 -0.109711
  outer loop
    vertex 5.336656687086297 -8.257439483066008 2.132776764270869
    vertex 4.210602125483363 -9.070326881699186 0
    vertex 3.353302841955837 -9.273701289497755 1.757730736286816
  endloop
endfacet
facet normal -0.300096 -0.951338 -0.0699952
  outer loop
    vertex 1.499999999999999 8.184091524039763 21.33333333333333
    vertex 3.59395306252459 7.629471400819085 19.89386989508788
    vertex 3.40210765928709 7.53065546945421 22.05943801209688
  endloop
endfacet
facet normal -0.692931 0.712655 -0.109405
  outer loop
    vertex 6.678682501642363 -5.258444385072043 19.04972619745849
    vertex 5.969825700454319 -6.306889613602705 16.70987879227781
    vertex 5.136268595437569 -6.798977160362612 18.78390935721912
  endloop
endfacet
facet normal -0.258634 0.962913 -0.0768571
  outer loop
    vertex 1.499999999999999 -8.822629690015827 13.33333333333331
    vertex 1.499999999999999 -8.609783634690471 15.99999999999999
    vertex 3.07328231317095 -8.299333846082261 14.5952020298871
  endloop
endfacet
facet normal -0.515801 0.852877 -0.0809408
  outer loop
    vertex 3.739271728694285 -7.802323570133437 17.11406082835177
    vertex 3.571006051437488 -7.639841714278034 19.89842248622754
    vertex 5.136268595437569 -6.798977160362612 18.78390935721912
  endloop
endfacet
facet normal -0.2616 -0.958639 -0.112144
  outer loop
    vertex 3.948025726054196 8.824420377875454 4.218706964524262
    vertex 1.499999999999999 9.674013911317241 2.666666666666661
    vertex 3.398949701035329 9.244128971328113 1.911745005282095
  endloop
endfacet
facet normal -0.560221 0.827845 -0.0287382
  outer loop
    vertex 5.969825700454319 -6.306889613602705 16.70987879227781
    vertex 3.739271728694285 -7.802323570133437 17.11406082835177
    vertex 5.136268595437569 -6.798977160362612 18.78390935721912
  endloop
endfacet
facet normal -0.446472 0.892891 -0.0583912
  outer loop
    vertex 3.727901926051741 -8.944474691550541 3.927841906126673
    vertex 5.336656687086297 -8.257439483066008 2.132776764270869
    vertex 3.353302841955837 -9.273701289497755 1.757730736286816
  endloop
endfacet
facet normal -0.458784 -0.887015 -0.0521814
  outer loop
    vertex 5.504075320736941 8.135016513805086 2.256730560861893
    vertex 3.948025726054196 8.824420377875454 4.218706964524262
    vertex 3.398949701035329 9.244128971328113 1.911745005282095
  endloop
endfacet
endsolid Created by Gmsh
