solid Created by Gmsh
facet normal 0.55042 -0.830526 0.0852391
  outer loop
    vertex 4.110599805700089 -8.455884151747505 14.57882668367692
    vertex 3.880941834290813 -8.875659676311447 11.97173662939489
    vertex 6.373100203448562 -7.052496301324694 13.64293138275178
  endloop
endfacet
facet normal 0.650914 -0.73488 0.190425
  outer loop
    vertex 4.303928948163247 -7.717237604670114 19.76363837968865
    vertex 5.664448708514287 -7.104266810139856 17.47864061117436
    vertex 6.981642018903587 -5.57294407167575 18.88580139919289
  endloop
endfacet
facet normal 0.519717 -0.842163 0.14372
  outer loop
    vertex 6.373100203448562 -7.052496301324694 13.64293138275178
    vertex 3.880941834290813 -8.875659676311447 11.97173662939489
    vertex 5.979087723376044 -7.803157908807526 10.66906982860915
  endloop
endfacet
facet normal 0.583782 0.793402 0.172371
  outer loop
    vertex 7.038847703893569 6.661282466021356 11.94864558288921
    vertex 6.003019102147472 7.929125099881109 9.621051248863443
    vertex 4.280683627602939 8.695690859406206 11.92580290018802
  endloop
endfacet
facet normal 0.592638 0.804016 0.0483475
  outer loop
    vertex 5.730510819688163 7.477313499398428 14.41553969840557
    vertex 7.038847703893569 6.661282466021356 11.94864558288921
    vertex 4.280683627602939 8.695690859406206 11.92580290018802
  endloop
endfacet
facet normal 0.979198 0.188027 0.0762665
  outer loop
    vertex 9.485788744827033 1.893463101171337 12.13182653743795
    vertex 9.912161436369319 0.6350736089117993 9.759989081292208
    vertex 9.460019346475766 3.242127030806747 9.137688097644757
  endloop
endfacet
facet normal 0.633522 -0.772368 0.045803
  outer loop
    vertex 4.303928948163247 -7.717237604670114 19.76363837968865
    vertex 6.981642018903587 -5.57294407167575 18.88580139919289
    vertex 5.827831545381398 -6.348006387537116 21.77494452798541
  endloop
endfacet
facet normal 0.843254 -0.529421 0.0929348
  outer loop
    vertex 6.981642018903587 -5.57294407167575 18.88580139919289
    vertex 7.014803674818423 -6.031680943468337 15.97162313801071
    vertex 8.406056498722444 -3.718014643159949 16.52819371877411
  endloop
endfacet
facet normal 0.864677 -0.481332 0.143714
  outer loop
    vertex 8.406056498722444 -3.718014643159949 16.52819371877411
    vertex 8.408100381762452 -2.91444099819353 19.20724438483617
    vertex 6.981642018903587 -5.57294407167575 18.88580139919289
  endloop
endfacet
facet normal 0.9318 0.333885 0.142374
  outer loop
    vertex 9.460019346475766 3.242127030806747 9.137688097644757
    vertex 8.630266549132008 4.477304476031343 11.67155859474442
    vertex 9.485788744827033 1.893463101171337 12.13182653743795
  endloop
endfacet
facet normal 0.589059 0.794498 0.147591
  outer loop
    vertex 6.450576732193968 6.522787666268348 16.67994774353096
    vertex 5.730510819688163 7.477313499398428 14.41553969840557
    vertex 4.2300123669864 8.079871645610105 17.16062258605039
  endloop
endfacet
facet normal 0.974383 -0.160422 0.157613
  outer loop
    vertex 8.898946758364833 0.06697768958630473 19.20732361643946
    vertex 8.408100381762452 -2.91444099819353 19.20724438483617
    vertex 9.093052546882143 -1.174503590104761 16.74373510148362
  endloop
endfacet
facet normal 0.878484 0.455412 0.144451
  outer loop
    vertex 8.909146421728487 3.072934558340124 14.4031138613792
    vertex 8.630266549132008 4.477304476031343 11.67155859474442
    vertex 7.673133192559544 5.488608733799266 14.30404439223912
  endloop
endfacet
facet normal 0.501397 0.861025 0.0850713
  outer loop
    vertex 5.730510819688163 7.477313499398428 14.41553969840557
    vertex 3.705701646310478 8.637554350760704 14.60640062824887
    vertex 4.2300123669864 8.079871645610105 17.16062258605039
  endloop
endfacet
facet normal 0.624048 0.776555 0.0867546
  outer loop
    vertex 6.069697511175871 8.512182488953401 4.971360367010031
    vertex 7.681474480771344 7.510502318078908 2.343649887020471
    vertex 5.673981913113622 9.134500132533129 2.247370410685325
  endloop
endfacet
facet normal 0.685888 0.712248 0.1492
  outer loop
    vertex 8.257035327610899 6.45834075993293 4.720520378438319
    vertex 7.681474480771344 7.510502318078908 2.343649887020471
    vertex 6.069697511175871 8.512182488953401 4.971360367010031
  endloop
endfacet
facet normal 0.985213 -0.162202 0.055191
  outer loop
    vertex 8.520141673016905 -1.420817833186762 21.59684259780113
    vertex 8.408100381762452 -2.91444099819353 19.20724438483617
    vertex 8.898946758364833 0.06697768958630473 19.20732361643946
  endloop
endfacet
facet normal 0.546216 -0.826651 0.135263
  outer loop
    vertex 4.571937780407868 -9.212181297946167 6.520739867154108
    vertex 6.288199046799649 -8.457096955275201 4.204829331538693
    vertex 6.685211956886802 -7.817103040708925 6.512904990995172
  endloop
endfacet
facet normal 0.94311 0.324869 0.0707368
  outer loop
    vertex 9.485788744827033 1.893463101171337 12.13182653743795
    vertex 8.630266549132008 4.477304476031343 11.67155859474442
    vertex 8.909146421728487 3.072934558340124 14.4031138613792
  endloop
endfacet
facet normal 0.960672 -0.266179 0.0791067
  outer loop
    vertex 9.093052546882143 -1.174503590104761 16.74373510148362
    vertex 8.408100381762452 -2.91444099819353 19.20724438483617
    vertex 8.406056498722444 -3.718014643159949 16.52819371877411
  endloop
endfacet
facet normal 0.945164 -0.293348 0.143566
  outer loop
    vertex 10.32495631926718 -1.730690918038809 4.854227655898501
    vertex 9.522397726874555 -4.387218135884312 4.70977698878939
    vertex 10.36468391811784 -2.808763003244426 2.389854633908489
  endloop
endfacet
facet normal 0.498634 -0.862295 0.0883803
  outer loop
    vertex 4.153035264850381 -9.730674666820635 3.825397228122826
    vertex 6.288199046799649 -8.457096955275201 4.204829331538693
    vertex 4.571937780407868 -9.212181297946167 6.520739867154108
  endloop
endfacet
facet normal 0.695807 -0.708234 0.119405
  outer loop
    vertex 5.664448708514287 -7.104266810139856 17.47864061117436
    vertex 7.014803674818423 -6.031680943468337 15.97162313801071
    vertex 6.981642018903587 -5.57294407167575 18.88580139919289
  endloop
endfacet
facet normal 0.870891 0.46705 0.153011
  outer loop
    vertex 8.098742771806871 4.279355886648426 16.81679926903188
    vertex 7.134993217289901 5.346383925170949 19.04517937434082
    vertex 8.403034489086851 2.916574437072718 19.24461993122736
  endloop
endfacet
facet normal 0.921016 -0.382389 0.0742158
  outer loop
    vertex 10.36468391811784 -2.808763003244426 2.389854633908489
    vertex 9.522397726874555 -4.387218135884312 4.70977698878939
    vertex 9.301530757007386 -5.39807044808438 2.242420784869645
  endloop
endfacet
facet normal 0.987676 -9.4823e-05 0.156515
  outer loop
    vertex 8.515238036538975 1.428474845705846 21.62951283299097
    vertex 8.520141673016905 -1.420817833186762 21.59684259780113
    vertex 8.898946758364833 0.06697768958630473 19.20732361643946
  endloop
endfacet
facet normal 0.810422 0.581495 0.0712684
  outer loop
    vertex 7.673133192559544 5.488608733799266 14.30404439223912
    vertex 8.630266549132008 4.477304476031343 11.67155859474442
    vertex 7.038847703893569 6.661282466021356 11.94864558288921
  endloop
endfacet
facet normal 0.703217 0.707288 0.0723139
  outer loop
    vertex 7.038847703893569 6.661282466021356 11.94864558288921
    vertex 7.958826251874109 6.009174702470609 9.380444749780516
    vertex 6.003019102147472 7.929125099881109 9.621051248863443
  endloop
endfacet
facet normal 0.882311 0.465922 0.066658
  outer loop
    vertex 8.403034489086851 2.916574437072718 19.24461993122736
    vertex 7.134993217289901 5.346383925170949 19.04517937434082
    vertex 7.540105283793581 4.215711470663015 21.58605973130244
  endloop
endfacet
facet normal 0.99079 -0.117467 0.0673599
  outer loop
    vertex 10.32495631926718 -1.730690918038809 4.854227655898501
    vertex 10.36468391811784 -2.808763003244426 2.389854633908489
    vertex 10.70658171350875 0.2299717674382027 2.660096665060174
  endloop
endfacet
facet normal 0.802461 0.593377 0.0629254
  outer loop
    vertex 8.098742771806871 4.279355886648426 16.81679926903188
    vertex 6.450576732193968 6.522787666268348 16.67994774353096
    vertex 7.134993217289901 5.346383925170949 19.04517937434082
  endloop
endfacet
facet normal 0.985976 0.140984 0.0893074
  outer loop
    vertex 10.70658171350875 0.2299717674382027 2.660096665060174
    vertex 10.24200135394117 2.454948773121359 4.276755375242393
    vertex 10.36782506218921 0.8025401409724311 5.496176802633752
  endloop
endfacet
facet normal 0.930807 0.328158 0.160968
  outer loop
    vertex 8.515238036538975 1.428474845705846 21.62951283299097
    vertex 8.403034489086851 2.916574437072718 19.24461993122736
    vertex 7.540105283793581 4.215711470663015 21.58605973130244
  endloop
endfacet
facet normal 0.985954 0.142111 0.0877493
  outer loop
    vertex 10.3561844408143 2.864140026605202 2.331099239026324
    vertex 10.24200135394117 2.454948773121359 4.276755375242393
    vertex 10.70658171350875 0.2299717674382027 2.660096665060174
  endloop
endfacet
facet normal 0.990516 -0.0492642 0.128258
  outer loop
    vertex 10.70658171350875 0.2299717674382027 2.660096665060174
    vertex 10.36782506218921 0.8025401409724311 5.496176802633752
    vertex 10.32495631926718 -1.730690918038809 4.854227655898501
  endloop
endfacet
facet normal 0.942142 0.330489 0.0560829
  outer loop
    vertex 8.515238036538975 1.428474845705846 21.62951283299097
    vertex 7.540105283793581 4.215711470663015 21.58605973130244
    vertex 7.916527373094862 2.732987257752935 24
  endloop
endfacet
facet normal 0.998217 0.00103367 0.0596774
  outer loop
    vertex 8.375000000000004 2.556288514199423e-14 24
    vertex 8.520141673016905 -1.420817833186762 21.59684259780113
    vertex 8.515238036538975 1.428474845705846 21.62951283299097
  endloop
endfacet
facet normal 0.794408 0.602801 0.0744737
  outer loop
    vertex 9.309628951758471 5.36856427559683 2.313363799201378
    vertex 7.681474480771344 7.510502318078908 2.343649887020471
    vertex 8.257035327610899 6.45834075993293 4.720520378438319
  endloop
endfacet
facet normal 0.848659 0.510022 0.1402
  outer loop
    vertex 8.257035327610899 6.45834075993293 4.720520378438319
    vertex 9.577131139433973 4.328292976468743 4.47844307103973
    vertex 9.309628951758471 5.36856427559683 2.313363799201378
  endloop
endfacet
facet normal 0.502129 0.855526 0.12626
  outer loop
    vertex 4.280683627602939 8.695690859406206 11.92580290018802
    vertex 3.705701646310478 8.637554350760704 14.60640062824887
    vertex 5.730510819688163 7.477313499398428 14.41553969840557
  endloop
endfacet
facet normal 0.92015 0.38502 0.0713058
  outer loop
    vertex 9.309628951758471 5.36856427559683 2.313363799201378
    vertex 9.577131139433973 4.328292976468743 4.47844307103973
    vertex 10.3561844408143 2.864140026605202 2.331099239026324
  endloop
endfacet
facet normal 0.87661 -0.477531 0.0593218
  outer loop
    vertex 6.981642018903587 -5.57294407167575 18.88580139919289
    vertex 8.408100381762452 -2.91444099819353 19.20724438483617
    vertex 7.582633612711617 -4.128860425164623 21.62945796112506
  endloop
endfacet
facet normal 0.780391 -0.607348 0.148726
  outer loop
    vertex 5.827831545381398 -6.348006387537116 21.77494452798541
    vertex 6.981642018903587 -5.57294407167575 18.88580139919289
    vertex 7.582633612711617 -4.128860425164623 21.62945796112506
  endloop
endfacet
facet normal 0.502859 0.859686 0.0898518
  outer loop
    vertex 6.003019102147472 7.929125099881109 9.621051248863443
    vertex 3.931620052703594 9.187620890253378 9.172654386874656
    vertex 4.280683627602939 8.695690859406206 11.92580290018802
  endloop
endfacet
facet normal 0.939395 0.320216 0.122474
  outer loop
    vertex 9.577131139433973 4.328292976468743 4.47844307103973
    vertex 10.24200135394117 2.454948773121359 4.276755375242393
    vertex 10.3561844408143 2.864140026605202 2.331099239026324
  endloop
endfacet
facet normal 0.718078 0.68994 0.0913615
  outer loop
    vertex 7.134993217289901 5.346383925170949 19.04517937434082
    vertex 5.623945956208908 6.946677246844581 18.83658859038558
    vertex 5.770327243083545 6.451530212769379 21.42530132136912
  endloop
endfacet
facet normal 0.968604 0.202433 0.144314
  outer loop
    vertex 9.912161436369319 0.6350736089117993 9.759989081292208
    vertex 10.0624947893295 1.358197511734337 7.736643871669123
    vertex 9.460019346475766 3.242127030806747 9.137688097644757
  endloop
endfacet
facet normal 0.784917 -0.616865 0.0581607
  outer loop
    vertex 6.591305826617365 -5.16675067136008 24
    vertex 5.827831545381398 -6.348006387537116 21.77494452798541
    vertex 7.582633612711617 -4.128860425164623 21.62945796112506
  endloop
endfacet
facet normal 0.792336 0.591271 0.150341
  outer loop
    vertex 8.098742771806871 4.279355886648426 16.81679926903188
    vertex 7.673133192559544 5.488608733799266 14.30404439223912
    vertex 6.450576732193968 6.522787666268348 16.67994774353096
  endloop
endfacet
facet normal 0.974228 -0.163432 0.155465
  outer loop
    vertex 7.916527373094866 -2.732987257752892 24
    vertex 8.520141673016905 -1.420817833186762 21.59684259780113
    vertex 8.375000000000004 2.556288514199423e-14 24
  endloop
endfacet
facet normal 0.867643 0.472445 0.154894
  outer loop
    vertex 7.916527373094862 2.732987257752935 24
    vertex 7.540105283793581 4.215711470663015 21.58605973130244
    vertex 6.591305826617365 5.166750671360116 24
  endloop
endfacet
facet normal 0.983548 0.17038 0.0600383
  outer loop
    vertex 8.515238036538975 1.428474845705846 21.62951283299097
    vertex 8.898946758364833 0.06697768958630473 19.20732361643946
    vertex 8.403034489086851 2.916574437072718 19.24461993122736
  endloop
endfacet
facet normal 0.879622 0.472138 0.0578934
  outer loop
    vertex 7.958826251874109 6.009174702470609 9.380444749780516
    vertex 8.630266549132008 4.477304476031343 11.67155859474442
    vertex 9.460019346475766 3.242127030806747 9.137688097644757
  endloop
endfacet
facet normal 0.701986 0.696417 0.14906
  outer loop
    vertex 7.958826251874109 6.009174702470609 9.380444749780516
    vertex 7.17738259436186 7.260343335259628 7.215065547978974
    vertex 6.003019102147472 7.929125099881109 9.621051248863443
  endloop
endfacet
facet normal 0.549867 0.825569 0.126815
  outer loop
    vertex 5.770327243083545 6.451530212769379 21.42530132136912
    vertex 5.623945956208908 6.946677246844581 18.83658859038558
    vertex 4.018188685792636 7.853721468043223 19.89424131572074
  endloop
endfacet
facet normal 0.52965 -0.843526 0.0890777
  outer loop
    vertex 4.303928948163247 -7.717237604670114 19.76363837968865
    vertex 3.899660836191711 -8.257830084123134 17.04821798500027
    vertex 5.664448708514287 -7.104266810139856 17.47864061117436
  endloop
endfacet
facet normal 0.692436 -0.707745 0.140105
  outer loop
    vertex 5.979087723376044 -7.803157908807526 10.66906982860915
    vertex 7.391499863360139 -6.775622382588557 8.879187199672335
    vertex 7.735904370182831 -5.911851900142656 11.54041414306062
  endloop
endfacet
facet normal 0.715642 0.695384 0.0655589
  outer loop
    vertex 7.673133192559544 5.488608733799266 14.30404439223912
    vertex 5.730510819688163 7.477313499398428 14.41553969840557
    vertex 6.450576732193968 6.522787666268348 16.67994774353096
  endloop
endfacet
facet normal 0.762468 -0.628634 0.153172
  outer loop
    vertex 8.165762560151716 -4.792759909410473 13.99351431640823
    vertex 6.373100203448562 -7.052496301324694 13.64293138275178
    vertex 7.735904370182831 -5.911851900142656 11.54041414306062
  endloop
endfacet
facet normal 0.871579 -0.485415 0.0687167
  outer loop
    vertex 9.044806083109236 -3.521454453905902 11.82454156849869
    vertex 8.165762560151716 -4.792759909410473 13.99351431640823
    vertex 7.735904370182831 -5.911851900142656 11.54041414306062
  endloop
endfacet
facet normal 0.973374 0.167345 0.156649
  outer loop
    vertex 8.898946758364833 0.06697768958630473 19.20732361643946
    vertex 9.011000218246917 1.640071703540958 16.83054447571787
    vertex 8.403034489086851 2.916574437072718 19.24461993122736
  endloop
endfacet
facet normal 0.711073 -0.698314 0.0820568
  outer loop
    vertex 6.373100203448562 -7.052496301324694 13.64293138275178
    vertex 5.979087723376044 -7.803157908807526 10.66906982860915
    vertex 7.735904370182831 -5.911851900142656 11.54041414306062
  endloop
endfacet
facet normal 0.817111 -0.570962 0.0795735
  outer loop
    vertex 7.735904370182831 -5.911851900142656 11.54041414306062
    vertex 7.391499863360139 -6.775622382588557 8.879187199672335
    vertex 8.813802996355168 -4.675122029303726 9.345741999610967
  endloop
endfacet
facet normal 0.769434 0.62007 0.15325
  outer loop
    vertex 7.540105283793581 4.215711470663015 21.58605973130244
    vertex 7.134993217289901 5.346383925170949 19.04517937434082
    vertex 5.770327243083545 6.451530212769379 21.42530132136912
  endloop
endfacet
facet normal 0.666293 0.730066 0.151848
  outer loop
    vertex 6.591305826617365 5.166750671360116 24
    vertex 5.770327243083545 6.451530212769379 21.42530132136912
    vertex 4.544428567408068 7.034827218612108 24
  endloop
endfacet
facet normal 0.531012 0.844404 0.0707626
  outer loop
    vertex 4.637426815844361 9.974681575252813 0
    vertex 5.673981913113622 9.134500132533129 2.247370410685325
    vertex 6.9810884530572 8.500847252514992 0
  endloop
endfacet
facet normal 0.913203 -0.379899 0.147433
  outer loop
    vertex 9.148047972382678 -2.316535228143676 14.2898407369769
    vertex 8.165762560151716 -4.792759909410473 13.99351431640823
    vertex 9.044806083109236 -3.521454453905902 11.82454156849869
  endloop
endfacet
facet normal 0.804583 -0.576471 0.14257
  outer loop
    vertex 8.813802996355168 -4.675122029303726 9.345741999610967
    vertex 7.391499863360139 -6.775622382588557 8.879187199672335
    vertex 8.470270150055628 -5.77119028016843 6.852571188859915
  endloop
endfacet
facet normal 0.933823 -0.321392 0.157102
  outer loop
    vertex 7.582633612711617 -4.128860425164623 21.62945796112506
    vertex 8.408100381762452 -2.91444099819353 19.20724438483617
    vertex 8.520141673016905 -1.420817833186762 21.59684259780113
  endloop
endfacet
facet normal 0.943034 0.326294 0.0649595
  outer loop
    vertex 9.011000218246917 1.640071703540958 16.83054447571787
    vertex 8.098742771806871 4.279355886648426 16.81679926903188
    vertex 8.403034489086851 2.916574437072718 19.24461993122736
  endloop
endfacet
facet normal 0.86009 -0.48845 0.147178
  outer loop
    vertex 9.044806083109236 -3.521454453905902 11.82454156849869
    vertex 7.735904370182831 -5.911851900142656 11.54041414306062
    vertex 8.813802996355168 -4.675122029303726 9.345741999610967
  endloop
endfacet
facet normal 0.780437 0.622191 0.0616213
  outer loop
    vertex 6.591305826617365 5.166750671360116 24
    vertex 7.540105283793581 4.215711470663015 21.58605973130244
    vertex 5.770327243083545 6.451530212769379 21.42530132136912
  endloop
endfacet
facet normal 0.997521 0.0270772 0.0649495
  outer loop
    vertex 8.898946758364833 0.06697768958630473 19.20732361643946
    vertex 9.093052546882143 -1.174503590104761 16.74373510148362
    vertex 9.011000218246917 1.640071703540958 16.83054447571787
  endloop
endfacet
facet normal 0.867495 -0.472365 0.15596
  outer loop
    vertex 6.591305826617365 -5.16675067136008 24
    vertex 7.582633612711617 -4.128860425164623 21.62945796112506
    vertex 7.916527373094866 -2.732987257752892 24
  endloop
endfacet
facet normal 0.943546 -0.325939 0.0590268
  outer loop
    vertex 7.582633612711617 -4.128860425164623 21.62945796112506
    vertex 8.520141673016905 -1.420817833186762 21.59684259780113
    vertex 7.916527373094866 -2.732987257752892 24
  endloop
endfacet
facet normal 0.746032 -0.662342 0.0688435
  outer loop
    vertex 7.391499863360139 -6.775622382588557 8.879187199672335
    vertex 6.685211956886802 -7.817103040708925 6.512904990995172
    vertex 8.470270150055628 -5.77119028016843 6.852571188859915
  endloop
endfacet
facet normal 0.985943 -0.0761481 0.148719
  outer loop
    vertex 10.16439219179645 -0.7963473096278425 7.354877130565542
    vertex 9.912161436369319 0.6350736089117993 9.759989081292208
    vertex 9.728327478811815 -2.098688816001686 9.578970367782048
  endloop
endfacet
facet normal 0.873022 0.482291 0.0723047
  outer loop
    vertex 8.882521937051994 6.488513237852744 0
    vertex 9.309628951758471 5.36856427559683 2.313363799201378
    vertex 10.22127793908176 4.065154030543085 0
  endloop
endfacet
facet normal 0.711426 0.686519 0.150215
  outer loop
    vertex 7.673133192559544 5.488608733799266 14.30404439223912
    vertex 7.038847703893569 6.661282466021356 11.94864558288921
    vertex 5.730510819688163 7.477313499398428 14.41553969840557
  endloop
endfacet
facet normal 0.873079 -0.482322 0.0714036
  outer loop
    vertex 10.22127793908175 -4.065154030543082 0
    vertex 9.301530757007386 -5.39807044808438 2.242420784869645
    vertex 8.882521937051978 -6.488513237852737 0
  endloop
endfacet
facet normal 0.951752 -0.269502 0.146755
  outer loop
    vertex 9.093052546882143 -1.174503590104761 16.74373510148362
    vertex 8.406056498722444 -3.718014643159949 16.52819371877411
    vertex 9.148047972382678 -2.316535228143676 14.2898407369769
  endloop
endfacet
facet normal 0.924198 -0.375169 0.0714614
  outer loop
    vertex 8.406056498722444 -3.718014643159949 16.52819371877411
    vertex 8.165762560151716 -4.792759909410473 13.99351431640823
    vertex 9.148047972382678 -2.316535228143676 14.2898407369769
  endloop
endfacet
facet normal 0.992394 -0.10159 0.0695207
  outer loop
    vertex 9.093052546882143 -1.174503590104761 16.74373510148362
    vertex 9.148047972382678 -2.316535228143676 14.2898407369769
    vertex 9.415412139779876 0.3820806920779514 14.4167468283681
  endloop
endfacet
facet normal 0.971994 -0.224623 0.0690798
  outer loop
    vertex 9.148047972382678 -2.316535228143676 14.2898407369769
    vertex 9.044806083109236 -3.521454453905902 11.82454156849869
    vertex 9.649023753749649 -0.8498447562153649 12.00997414468739
  endloop
endfacet
facet normal 0.938017 -0.33934 0.0705182
  outer loop
    vertex 9.044806083109236 -3.521454453905902 11.82454156849869
    vertex 8.813802996355168 -4.675122029303726 9.345741999610967
    vertex 9.728327478811815 -2.098688816001686 9.578970367782048
  endloop
endfacet
facet normal 0.80834 0.570667 0.144661
  outer loop
    vertex 7.038847703893569 6.661282466021356 11.94864558288921
    vertex 8.630266549132008 4.477304476031343 11.67155859474442
    vertex 7.958826251874109 6.009174702470609 9.380444749780516
  endloop
endfacet
facet normal 0.996105 0.0562556 0.0678913
  outer loop
    vertex 9.649023753749649 -0.8498447562153649 12.00997414468739
    vertex 9.485788744827033 1.893463101171337 12.13182653743795
    vertex 9.415412139779876 0.3820806920779514 14.4167468283681
  endloop
endfacet
facet normal 0.780558 0.620353 0.0767552
  outer loop
    vertex 7.958826251874109 6.009174702470609 9.380444749780516
    vertex 8.770368348987866 5.295874264970966 6.892568283722434
    vertex 7.17738259436186 7.260343335259628 7.215065547978974
  endloop
endfacet
facet normal 0.893663 -0.442987 0.0716121
  outer loop
    vertex 8.813802996355168 -4.675122029303726 9.345741999610967
    vertex 8.470270150055628 -5.77119028016843 6.852571188859915
    vertex 9.672585094019295 -3.302197269773123 7.121614524268875
  endloop
endfacet
facet normal 0.987937 0.024083 0.15297
  outer loop
    vertex 9.093052546882143 -1.174503590104761 16.74373510148362
    vertex 9.415412139779876 0.3820806920779514 14.4167468283681
    vertex 9.011000218246917 1.640071703540958 16.83054447571787
  endloop
endfacet
facet normal 0.974129 0.163415 0.156105
  outer loop
    vertex 8.375000000000004 2.556288514199423e-14 24
    vertex 8.515238036538975 1.428474845705846 21.62951283299097
    vertex 7.916527373094862 2.732987257752935 24
  endloop
endfacet
facet normal 0.997016 -1.91911e-15 0.0771981
  outer loop
    vertex 10.91255083057322 1.38428117452915 0
    vertex 10.70658171350875 0.2299717674382027 2.660096665060174
    vertex 10.91255083057321 -1.38428117452916 0
  endloop
endfacet
facet normal 0.962286 -0.227939 0.148487
  outer loop
    vertex 9.044806083109236 -3.521454453905902 11.82454156849869
    vertex 9.728327478811815 -2.098688816001686 9.578970367782048
    vertex 9.649023753749649 -0.8498447562153649 12.00997414468739
  endloop
endfacet
facet normal 0.983324 -0.104424 0.148896
  outer loop
    vertex 9.148047972382678 -2.316535228143676 14.2898407369769
    vertex 9.649023753749649 -0.8498447562153649 12.00997414468739
    vertex 9.415412139779876 0.3820806920779514 14.4167468283681
  endloop
endfacet
facet normal 0.834274 -0.532368 0.143425
  outer loop
    vertex 9.301530757007386 -5.39807044808438 2.242420784869645
    vertex 9.522397726874555 -4.387218135884312 4.70977698878939
    vertex 8.075839773280077 -6.739704427036775 4.39210485125711
  endloop
endfacet
facet normal 0.733734 -0.664052 0.143768
  outer loop
    vertex 6.685211956886802 -7.817103040708925 6.512904990995172
    vertex 8.075839773280077 -6.739704427036775 4.39210485125711
    vertex 8.470270150055628 -5.77119028016843 6.852571188859915
  endloop
endfacet
facet normal 0.927924 -0.34266 0.146771
  outer loop
    vertex 8.813802996355168 -4.675122029303726 9.345741999610967
    vertex 9.672585094019295 -3.302197269773123 7.121614524268875
    vertex 9.728327478811815 -2.098688816001686 9.578970367782048
  endloop
endfacet
facet normal 0.874188 0.460844 0.15303
  outer loop
    vertex 7.958826251874109 6.009174702470609 9.380444749780516
    vertex 9.460019346475766 3.242127030806747 9.137688097644757
    vertex 8.770368348987866 5.295874264970966 6.892568283722434
  endloop
endfacet
facet normal 0.886921 0.456657 0.069538
  outer loop
    vertex 8.098742771806871 4.279355886648426 16.81679926903188
    vertex 8.909146421728487 3.072934558340124 14.4031138613792
    vertex 7.673133192559544 5.488608733799266 14.30404439223912
  endloop
endfacet
facet normal 0.780136 0.609342 0.141742
  outer loop
    vertex 8.770368348987866 5.295874264970966 6.892568283722434
    vertex 8.257035327610899 6.45834075993293 4.720520378438319
    vertex 7.17738259436186 7.260343335259628 7.215065547978974
  endloop
endfacet
facet normal 0.969364 -0.203109 0.138132
  outer loop
    vertex 9.672585094019295 -3.302197269773123 7.121614524268875
    vertex 10.32495631926718 -1.730690918038809 4.854227655898501
    vertex 10.16439219179645 -0.7963473096278425 7.354877130565542
  endloop
endfacet
facet normal 0.977156 -0.198779 0.0751879
  outer loop
    vertex 9.672585094019295 -3.302197269773123 7.121614524268875
    vertex 10.16439219179645 -0.7963473096278425 7.354877130565542
    vertex 9.728327478811815 -2.098688816001686 9.578970367782048
  endloop
endfacet
facet normal 0.907071 0.409825 0.09626
  outer loop
    vertex 9.460019346475766 3.242127030806747 9.137688097644757
    vertex 9.852286423500031 3.040920018120627 6.297939129333871
    vertex 8.770368348987866 5.295874264970966 6.892568283722434
  endloop
endfacet
facet normal 0.325219 -0.93978 0.105097
  outer loop
    vertex 1.999999999999996 -9.32556207273341 13.33333333333334
    vertex 4.110599805700089 -8.455884151747505 14.57882668367692
    vertex 1.999999999999997 -9.027343722001698 16.00000000000001
  endloop
endfacet
facet normal 0.303198 -0.947024 0.105907
  outer loop
    vertex 1.999999999999996 -9.921998774196835 7.999999999999996
    vertex 4.04424168849505 -9.104609273240428 9.456728905639835
    vertex 1.999999999999996 -9.623780423465121 10.66666666666667
  endloop
endfacet
facet normal 0.665557 -0.72926 0.158786
  outer loop
    vertex 4.544428567408064 -7.034827218612074 24
    vertex 5.827831545381398 -6.348006387537116 21.77494452798541
    vertex 6.591305826617365 -5.16675067136008 24
  endloop
endfacet
facet normal 0.324492 0.940029 0.105125
  outer loop
    vertex 1.999999999999998 9.32556207273341 13.33333333333333
    vertex 4.280683627602939 8.695690859406206 11.92580290018802
    vertex 1.999999999999998 9.623780423465121 10.66666666666666
  endloop
endfacet
facet normal 0.342375 0.933743 0.104422
  outer loop
    vertex 1.999999999999999 8.729125371269983 18.66666666666668
    vertex 4.2300123669864 8.079871645610105 17.16062258605039
    vertex 1.999999999999999 9.027343722001696 16
  endloop
endfacet
facet normal 0.971304 0.183511 0.151302
  outer loop
    vertex 9.485788744827033 1.893463101171337 12.13182653743795
    vertex 8.909146421728487 3.072934558340124 14.4031138613792
    vertex 9.415412139779876 0.3820806920779514 14.4167468283681
  endloop
endfacet
facet normal 0.933933 0.323601 0.151828
  outer loop
    vertex 9.011000218246917 1.640071703540958 16.83054447571787
    vertex 8.909146421728487 3.072934558340124 14.4031138613792
    vertex 8.098742771806871 4.279355886648426 16.81679926903188
  endloop
endfacet
facet normal 0.289655 0.951202 0.106375
  outer loop
    vertex 1.999999999999998 9.921998774196833 7.999999999999995
    vertex 3.962895255033073 9.485681125528936 6.556648446002578
    vertex 1.999999999999997 10.22021712492854 5.333333333333333
  endloop
endfacet
facet normal 0.358123 -0.92789 0.103768
  outer loop
    vertex 1.999999999999997 -8.729125371269987 18.66666666666667
    vertex 4.303928948163247 -7.717237604670114 19.76363837968865
    vertex 1.999999999999998 -8.430907020538276 21.33333333333333
  endloop
endfacet
facet normal 0.341604 0.934021 0.104453
  outer loop
    vertex 1.999999999999999 8.430907020538273 21.33333333333334
    vertex 4.018188685792636 7.853721468043223 19.89424131572074
    vertex 1.999999999999999 8.729125371269983 18.66666666666668
  endloop
endfacet
facet normal 0.290685 -0.950891 0.10634
  outer loop
    vertex 1.999999999999995 -10.51843547566026 2.666666666666659
    vertex 4.153035264850381 -9.730674666820635 3.825397228122826
    vertex 1.999999999999995 -10.22021712492855 5.333333333333321
  endloop
endfacet
facet normal 0.995039 -0.0714934 0.0691872
  outer loop
    vertex 9.728327478811815 -2.098688816001686 9.578970367782048
    vertex 9.912161436369319 0.6350736089117993 9.759989081292208
    vertex 9.649023753749649 -0.8498447562153649 12.00997414468739
  endloop
endfacet
facet normal 0.687009 0.723768 0.0646481
  outer loop
    vertex 8.257035327610899 6.45834075993293 4.720520378438319
    vertex 6.069697511175871 8.512182488953401 4.971360367010031
    vertex 7.17738259436186 7.260343335259628 7.215065547978974
  endloop
endfacet
facet normal 0.987335 0.0520934 0.14985
  outer loop
    vertex 9.649023753749649 -0.8498447562153649 12.00997414468739
    vertex 9.912161436369319 0.6350736089117993 9.759989081292208
    vertex 9.485788744827033 1.893463101171337 12.13182653743795
  endloop
endfacet
facet normal 0.341994 0.933956 0.103766
  outer loop
    vertex 1.999999999999999 8.729125371269983 18.66666666666668
    vertex 4.018188685792636 7.853721468043223 19.89424131572074
    vertex 4.2300123669864 8.079871645610105 17.16062258605039
  endloop
endfacet
facet normal 0.996313 -0.0365303 0.0776215
  outer loop
    vertex 10.32495631926718 -1.730690918038809 4.854227655898501
    vertex 10.36782506218921 0.8025401409724311 5.496176802633752
    vertex 10.16439219179645 -0.7963473096278425 7.354877130565542
  endloop
endfacet
facet normal 0.91267 0.38241 0.144205
  outer loop
    vertex 9.309628951758471 5.36856427559683 2.313363799201378
    vertex 10.3561844408143 2.864140026605202 2.331099239026324
    vertex 10.22127793908176 4.065154030543085 0
  endloop
endfacet
facet normal 0.980424 0.184804 0.0679481
  outer loop
    vertex 9.415412139779876 0.3820806920779514 14.4167468283681
    vertex 8.909146421728487 3.072934558340124 14.4031138613792
    vertex 9.011000218246917 1.640071703540958 16.83054447571787
  endloop
endfacet
facet normal 0.313194 -0.945326 0.0909274
  outer loop
    vertex 1.999999999999996 -9.921998774196835 7.999999999999996
    vertex 4.571937780407868 -9.212181297946167 6.520739867154108
    vertex 4.04424168849505 -9.104609273240428 9.456728905639835
  endloop
endfacet
facet normal 0.505996 -0.855399 0.110724
  outer loop
    vertex 5.979087723376044 -7.803157908807526 10.66906982860915
    vertex 3.880941834290813 -8.875659676311447 11.97173662939489
    vertex 4.04424168849505 -9.104609273240428 9.456728905639835
  endloop
endfacet
facet normal 0.980745 -0.12378 0.151053
  outer loop
    vertex 10.70658171350875 0.2299717674382027 2.660096665060174
    vertex 10.36468391811784 -2.808763003244426 2.389854633908489
    vertex 10.91255083057321 -1.38428117452916 0
  endloop
endfacet
facet normal 0.965785 0.249031 0.0724119
  outer loop
    vertex 10.22127793908176 4.065154030543085 0
    vertex 10.3561844408143 2.864140026605202 2.331099239026324
    vertex 10.91255083057322 1.38428117452915 0
  endloop
endfacet
facet normal 0.307649 -0.9421 0.133415
  outer loop
    vertex 4.153035264850381 -9.730674666820635 3.825397228122826
    vertex 4.571937780407868 -9.212181297946167 6.520739867154108
    vertex 1.999999999999995 -10.22021712492855 5.333333333333321
  endloop
endfacet
facet normal 0.320372 -0.941423 0.105281
  outer loop
    vertex 1.999999999999995 -10.22021712492855 5.333333333333321
    vertex 4.571937780407868 -9.212181297946167 6.520739867154108
    vertex 1.999999999999996 -9.921998774196835 7.999999999999996
  endloop
endfacet
facet normal 0.777429 -0.626082 0.0602205
  outer loop
    vertex 8.165762560151716 -4.792759909410473 13.99351431640823
    vertex 7.014803674818423 -6.031680943468337 15.97162313801071
    vertex 6.373100203448562 -7.052496301324694 13.64293138275178
  endloop
endfacet
facet normal 0.979085 0.147712 0.139907
  outer loop
    vertex 10.91255083057322 1.38428117452915 0
    vertex 10.3561844408143 2.864140026605202 2.331099239026324
    vertex 10.70658171350875 0.2299717674382027 2.660096665060174
  endloop
endfacet
facet normal 0.965746 -0.249021 0.0729643
  outer loop
    vertex 10.91255083057321 -1.38428117452916 0
    vertex 10.36468391811784 -2.808763003244426 2.389854633908489
    vertex 10.22127793908175 -4.065154030543082 0
  endloop
endfacet
facet normal 0.795743 -0.600465 0.0789563
  outer loop
    vertex 8.075839773280077 -6.739704427036775 4.39210485125711
    vertex 7.731127256106314 -7.498467180567234 2.095797229763471
    vertex 9.301530757007386 -5.39807044808438 2.242420784869645
  endloop
endfacet
facet normal 0.912113 -0.382852 0.14654
  outer loop
    vertex 10.22127793908175 -4.065154030543082 0
    vertex 10.36468391811784 -2.808763003244426 2.389854633908489
    vertex 9.301530757007386 -5.39807044808438 2.242420784869645
  endloop
endfacet
facet normal 0.618465 0.772916 0.141783
  outer loop
    vertex 5.673981913113622 9.134500132533129 2.247370410685325
    vertex 7.681474480771344 7.510502318078908 2.343649887020471
    vertex 6.9810884530572 8.500847252514992 0
  endloop
endfacet
facet normal 0.788831 0.597584 0.143664
  outer loop
    vertex 8.882521937051994 6.488513237852744 0
    vertex 7.681474480771344 7.510502318078908 2.343649887020471
    vertex 9.309628951758471 5.36856427559683 2.313363799201378
  endloop
endfacet
facet normal 0.549737 -0.832348 0.0706107
  outer loop
    vertex 6.685211956886802 -7.817103040708925 6.512904990995172
    vertex 5.840742703469483 -8.216183202126276 8.383187049296016
    vertex 4.571937780407868 -9.212181297946167 6.520739867154108
  endloop
endfacet
facet normal 0.845144 -0.529536 0.0729589
  outer loop
    vertex 8.075839773280077 -6.739704427036775 4.39210485125711
    vertex 9.522397726874555 -4.387218135884312 4.70977698878939
    vertex 8.470270150055628 -5.77119028016843 6.852571188859915
  endloop
endfacet
facet normal 0.511807 -0.851764 0.112034
  outer loop
    vertex 4.110599805700089 -8.455884151747505 14.57882668367692
    vertex 5.507804744096628 -7.463668434253715 15.73948925584144
    vertex 3.899660836191711 -8.257830084123134 17.04821798500027
  endloop
endfacet
facet normal 0.991335 0.0240007 0.129146
  outer loop
    vertex 10.36782506218921 0.8025401409724311 5.496176802633752
    vertex 10.0624947893295 1.358197511734337 7.736643871669123
    vertex 10.16439219179645 -0.7963473096278425 7.354877130565542
  endloop
endfacet
facet normal 0.953695 -0.292034 0.0719906
  outer loop
    vertex 9.672585094019295 -3.302197269773123 7.121614524268875
    vertex 9.522397726874555 -4.387218135884312 4.70977698878939
    vertex 10.32495631926718 -1.730690918038809 4.854227655898501
  endloop
endfacet
facet normal 0.628261 -0.774084 0.0779862
  outer loop
    vertex 7.731127256106314 -7.498467180567234 2.095797229763471
    vertex 6.288199046799649 -8.457096955275201 4.204829331538693
    vertex 5.740569703578226 -9.119485850658053 2.041745219983171
  endloop
endfacet
facet normal 0.724923 0.684972 0.0728064
  outer loop
    vertex 6.9810884530572 8.500847252514992 0
    vertex 7.681474480771344 7.510502318078908 2.343649887020471
    vertex 8.882521937051994 6.488513237852744 0
  endloop
endfacet
facet normal 0.498742 -0.85772 0.124793
  outer loop
    vertex 4.04424168849505 -9.104609273240428 9.456728905639835
    vertex 5.840742703469483 -8.216183202126276 8.383187049296016
    vertex 5.979087723376044 -7.803157908807526 10.66906982860915
  endloop
endfacet
facet normal 0.851377 0.518943 0.0765243
  outer loop
    vertex 8.770368348987866 5.295874264970966 6.892568283722434
    vertex 9.577131139433973 4.328292976468743 4.47844307103973
    vertex 8.257035327610899 6.45834075993293 4.720520378438319
  endloop
endfacet
facet normal 0.787687 -0.598988 0.144092
  outer loop
    vertex 9.301530757007386 -5.39807044808438 2.242420784869645
    vertex 7.731127256106314 -7.498467180567234 2.095797229763471
    vertex 8.882521937051978 -6.488513237852737 0
  endloop
endfacet
facet normal 0.977191 0.194656 0.0848947
  outer loop
    vertex 9.852286423500031 3.040920018120627 6.297939129333871
    vertex 10.0624947893295 1.358197511734337 7.736643871669123
    vertex 10.36782506218921 0.8025401409724311 5.496176802633752
  endloop
endfacet
facet normal 0.303394 0.950362 0.0690193
  outer loop
    vertex 1.999999999999997 10.81665382639197 0
    vertex 3.770854704375839 10.11722495919958 1.846507872626821
    vertex 4.637426815844361 9.974681575252813 0
  endloop
endfacet
facet normal 0.31204 0.941321 0.128632
  outer loop
    vertex 4.280683627602939 8.695690859406206 11.92580290018802
    vertex 3.931620052703594 9.187620890253378 9.172654386874656
    vertex 1.999999999999998 9.623780423465121 10.66666666666666
  endloop
endfacet
facet normal 0.293187 0.949509 0.111689
  outer loop
    vertex 1.999999999999998 9.921998774196833 7.999999999999995
    vertex 3.931620052703594 9.187620890253378 9.172654386874656
    vertex 3.962895255033073 9.485681125528936 6.556648446002578
  endloop
endfacet
facet normal 0.314716 -0.941078 0.123803
  outer loop
    vertex 1.999999999999996 -9.32556207273341 13.33333333333334
    vertex 3.880941834290813 -8.875659676311447 11.97173662939489
    vertex 4.110599805700089 -8.455884151747505 14.57882668367692
  endloop
endfacet
facet normal 0.303192 -0.947027 0.105897
  outer loop
    vertex 4.04424168849505 -9.104609273240428 9.456728905639835
    vertex 3.880941834290813 -8.875659676311447 11.97173662939489
    vertex 1.999999999999996 -9.623780423465121 10.66666666666667
  endloop
endfacet
facet normal 0.315344 0.944876 0.0881329
  outer loop
    vertex 1.999999999999998 9.32556207273341 13.33333333333333
    vertex 3.705701646310478 8.637554350760704 14.60640062824887
    vertex 4.280683627602939 8.695690859406206 11.92580290018802
  endloop
endfacet
facet normal 0.325943 0.935364 0.137318
  outer loop
    vertex 4.2300123669864 8.079871645610105 17.16062258605039
    vertex 3.705701646310478 8.637554350760704 14.60640062824887
    vertex 1.999999999999999 9.027343722001696 16
  endloop
endfacet
facet normal 0.661167 -0.744268 0.0944634
  outer loop
    vertex 5.979087723376044 -7.803157908807526 10.66906982860915
    vertex 5.840742703469483 -8.216183202126276 8.383187049296016
    vertex 7.391499863360139 -6.775622382588557 8.879187199672335
  endloop
endfacet
facet normal 0.831362 -0.535584 0.148281
  outer loop
    vertex 8.406056498722444 -3.718014643159949 16.52819371877411
    vertex 7.014803674818423 -6.031680943468337 15.97162313801071
    vertex 8.165762560151716 -4.792759909410473 13.99351431640823
  endloop
endfacet
facet normal 0.391235 -0.906734 0.157381
  outer loop
    vertex 1.999999999999998 -8.132688669806564 24
    vertex 3.888605547493504 -7.6560761715025 22.05105348005019
    vertex 4.544428567408064 -7.034827218612074 24
  endloop
endfacet
facet normal 0.324047 -0.940406 0.103104
  outer loop
    vertex 4.110599805700089 -8.455884151747505 14.57882668367692
    vertex 3.899660836191711 -8.257830084123134 17.04821798500027
    vertex 1.999999999999997 -9.027343722001698 16.00000000000001
  endloop
endfacet
facet normal 0.883144 -0.445929 0.145617
  outer loop
    vertex 8.470270150055628 -5.77119028016843 6.852571188859915
    vertex 9.522397726874555 -4.387218135884312 4.70977698878939
    vertex 9.672585094019295 -3.302197269773123 7.121614524268875
  endloop
endfacet
facet normal 0.343279 -0.933415 0.104386
  outer loop
    vertex 1.999999999999998 -8.430907020538276 21.33333333333333
    vertex 3.888605547493504 -7.6560761715025 22.05105348005019
    vertex 1.999999999999998 -8.132688669806564 24
  endloop
endfacet
facet normal 0.344455 -0.929232 0.133712
  outer loop
    vertex 1.999999999999997 -8.729125371269987 18.66666666666667
    vertex 3.899660836191711 -8.257830084123134 17.04821798500027
    vertex 4.303928948163247 -7.717237604670114 19.76363837968865
  endloop
endfacet
facet normal 0.303294 -0.95005 0.0736033
  outer loop
    vertex 4.637426815844344 -9.974681575252792 0
    vertex 3.873509291664231 -10.06995694445095 1.918056335678567
    vertex 1.999999999999994 -10.81665382639197 0
  endloop
endfacet
facet normal 0.266619 0.957831 0.107116
  outer loop
    vertex 1.999999999999997 10.51843547566026 2.666666666666668
    vertex 3.770854704375839 10.11722495919958 1.846507872626821
    vertex 1.999999999999997 10.81665382639197 0
  endloop
endfacet
facet normal 0.678838 -0.72149 0.136495
  outer loop
    vertex 8.075839773280077 -6.739704427036775 4.39210485125711
    vertex 6.288199046799649 -8.457096955275201 4.204829331538693
    vertex 7.731127256106314 -7.498467180567234 2.095797229763471
  endloop
endfacet
facet normal 0.271686 -0.956424 0.106959
  outer loop
    vertex 1.999999999999994 -10.81665382639197 0
    vertex 3.873509291664231 -10.06995694445095 1.918056335678567
    vertex 1.999999999999995 -10.51843547566026 2.666666666666659
  endloop
endfacet
facet normal 0.623945 0.771795 0.122577
  outer loop
    vertex 6.069697511175871 8.512182488953401 4.971360367010031
    vertex 5.499998268642623 8.526473295478338 7.781271645734495
    vertex 7.17738259436186 7.260343335259628 7.215065547978974
  endloop
endfacet
facet normal 0.470458 0.872641 0.131018
  outer loop
    vertex 5.673981913113622 9.134500132533129 2.247370410685325
    vertex 4.000592429113658 9.77393264366385 3.997238510137482
    vertex 6.069697511175871 8.512182488953401 4.971360367010031
  endloop
endfacet
facet normal 0.520685 -0.844167 0.127552
  outer loop
    vertex 3.899660836191711 -8.257830084123134 17.04821798500027
    vertex 5.507804744096628 -7.463668434253715 15.73948925584144
    vertex 5.664448708514287 -7.104266810139856 17.47864061117436
  endloop
endfacet
facet normal 0.531157 -0.844636 0.0667989
  outer loop
    vertex 6.981088453057185 -8.500847252514976 0
    vertex 5.740569703578226 -9.119485850658053 2.041745219983171
    vertex 4.637426815844344 -9.974681575252792 0
  endloop
endfacet
facet normal 0.337111 0.935632 0.104634
  outer loop
    vertex 2 8.132688669806562 24
    vertex 3.785475088436459 7.704459330448963 22.07672877268648
    vertex 1.999999999999999 8.430907020538273 21.33333333333334
  endloop
endfacet
facet normal 0.283755 0.952956 0.106571
  outer loop
    vertex 1.999999999999997 10.22021712492854 5.333333333333333
    vertex 4.000592429113658 9.77393264366385 3.997238510137482
    vertex 1.999999999999997 10.51843547566026 2.666666666666668
  endloop
endfacet
facet normal 0.286656 0.951536 0.111388
  outer loop
    vertex 3.962895255033073 9.485681125528936 6.556648446002578
    vertex 4.000592429113658 9.77393264366385 3.997238510137482
    vertex 1.999999999999997 10.22021712492854 5.333333333333333
  endloop
endfacet
facet normal 0.49712 -0.859227 0.120831
  outer loop
    vertex 4.571937780407868 -9.212181297946167 6.520739867154108
    vertex 5.840742703469483 -8.216183202126276 8.383187049296016
    vertex 4.04424168849505 -9.104609273240428 9.456728905639835
  endloop
endfacet
facet normal 0.725159 -0.685196 0.0681978
  outer loop
    vertex 8.882521937051978 -6.488513237852737 0
    vertex 7.731127256106314 -7.498467180567234 2.095797229763471
    vertex 6.981088453057185 -8.500847252514976 0
  endloop
endfacet
facet normal 0.622402 -0.769128 0.145116
  outer loop
    vertex 6.981088453057185 -8.500847252514976 0
    vertex 7.731127256106314 -7.498467180567234 2.095797229763471
    vertex 5.740569703578226 -9.119485850658053 2.041745219983171
  endloop
endfacet
facet normal 0.481218 0.870277 0.105102
  outer loop
    vertex 6.069697511175871 8.512182488953401 4.971360367010031
    vertex 4.000592429113658 9.77393264366385 3.997238510137482
    vertex 3.962895255033073 9.485681125528936 6.556648446002578
  endloop
endfacet
facet normal 0.967929 0.221794 0.117989
  outer loop
    vertex 9.460019346475766 3.242127030806747 9.137688097644757
    vertex 10.0624947893295 1.358197511734337 7.736643871669123
    vertex 9.852286423500031 3.040920018120627 6.297939129333871
  endloop
endfacet
facet normal 0.906481 0.397002 0.143813
  outer loop
    vertex 9.852286423500031 3.040920018120627 6.297939129333871
    vertex 9.577131139433973 4.328292976468743 4.47844307103973
    vertex 8.770368348987866 5.295874264970966 6.892568283722434
  endloop
endfacet
facet normal 0.557073 0.822373 0.115642
  outer loop
    vertex 4.018188685792636 7.853721468043223 19.89424131572074
    vertex 3.785475088436459 7.704459330448963 22.07672877268648
    vertex 5.770327243083545 6.451530212769379 21.42530132136912
  endloop
endfacet
facet normal 0.473656 0.875936 0.091577
  outer loop
    vertex 3.962895255033073 9.485681125528936 6.556648446002578
    vertex 5.499998268642623 8.526473295478338 7.781271645734495
    vertex 6.069697511175871 8.512182488953401 4.971360367010031
  endloop
endfacet
facet normal 0.685928 -0.72298 0.0824844
  outer loop
    vertex 6.685211956886802 -7.817103040708925 6.512904990995172
    vertex 6.288199046799649 -8.457096955275201 4.204829331538693
    vertex 8.075839773280077 -6.739704427036775 4.39210485125711
  endloop
endfacet
facet normal 0.39099 0.906166 0.161212
  outer loop
    vertex 4.544428567408068 7.034827218612108 24
    vertex 3.785475088436459 7.704459330448963 22.07672877268648
    vertex 2 8.132688669806562 24
  endloop
endfacet
facet normal 0.296414 0.949143 0.106144
  outer loop
    vertex 1.999999999999998 9.623780423465121 10.66666666666666
    vertex 3.931620052703594 9.187620890253378 9.172654386874656
    vertex 1.999999999999998 9.921998774196833 7.999999999999995
  endloop
endfacet
facet normal 0.338926 0.935471 0.100117
  outer loop
    vertex 1.999999999999999 8.430907020538273 21.33333333333334
    vertex 3.785475088436459 7.704459330448963 22.07672877268648
    vertex 4.018188685792636 7.853721468043223 19.89424131572074
  endloop
endfacet
facet normal 0.303185 -0.947028 0.105908
  outer loop
    vertex 1.999999999999996 -9.623780423465121 10.66666666666667
    vertex 3.880941834290813 -8.875659676311447 11.97173662939489
    vertex 1.999999999999996 -9.32556207273341 13.33333333333334
  endloop
endfacet
facet normal 0.566983 -0.814233 0.124718
  outer loop
    vertex 5.827831545381398 -6.348006387537116 21.77494452798541
    vertex 3.888605547493504 -7.6560761715025 22.05105348005019
    vertex 4.303928948163247 -7.717237604670114 19.76363837968865
  endloop
endfacet
facet normal 0.582183 0.810548 0.0638342
  outer loop
    vertex 4.2300123669864 8.079871645610105 17.16062258605039
    vertex 5.623945956208908 6.946677246844581 18.83658859038558
    vertex 6.450576732193968 6.522787666268348 16.67994774353096
  endloop
endfacet
facet normal 0.711242 0.689448 0.137104
  outer loop
    vertex 6.450576732193968 6.522787666268348 16.67994774353096
    vertex 5.623945956208908 6.946677246844581 18.83658859038558
    vertex 7.134993217289901 5.346383925170949 19.04517937434082
  endloop
endfacet
facet normal 0.302968 0.947097 0.105916
  outer loop
    vertex 1.999999999999999 9.027343722001696 16
    vertex 3.705701646310478 8.637554350760704 14.60640062824887
    vertex 1.999999999999998 9.32556207273341 13.33333333333333
  endloop
endfacet
facet normal 0.544083 -0.836852 0.0604334
  outer loop
    vertex 6.373100203448562 -7.052496301324694 13.64293138275178
    vertex 5.507804744096628 -7.463668434253715 15.73948925584144
    vertex 4.110599805700089 -8.455884151747505 14.57882668367692
  endloop
endfacet
facet normal 0.56478 -0.822094 0.0720025
  outer loop
    vertex 4.544428567408064 -7.034827218612074 24
    vertex 3.888605547493504 -7.6560761715025 22.05105348005019
    vertex 5.827831545381398 -6.348006387537116 21.77494452798541
  endloop
endfacet
facet normal 0.464453 0.879263 0.105733
  outer loop
    vertex 3.931620052703594 9.187620890253378 9.172654386874656
    vertex 5.499998268642623 8.526473295478338 7.781271645734495
    vertex 3.962895255033073 9.485681125528936 6.556648446002578
  endloop
endfacet
facet normal 0.549391 0.832369 0.0730103
  outer loop
    vertex 5.770327243083545 6.451530212769379 21.42530132136912
    vertex 3.785475088436459 7.704459330448963 22.07672877268648
    vertex 4.544428567408068 7.034827218612108 24
  endloop
endfacet
facet normal 0.671643 -0.728599 0.134311
  outer loop
    vertex 7.014803674818423 -6.031680943468337 15.97162313801071
    vertex 5.507804744096628 -7.463668434253715 15.73948925584144
    vertex 6.373100203448562 -7.052496301324694 13.64293138275178
  endloop
endfacet
facet normal 0.432244 0.891743 0.134015
  outer loop
    vertex 4.637426815844361 9.974681575252813 0
    vertex 3.770854704375839 10.11722495919958 1.846507872626821
    vertex 5.673981913113622 9.134500132533129 2.247370410685325
  endloop
endfacet
facet normal 0.488766 -0.861116 0.139953
  outer loop
    vertex 5.740569703578226 -9.119485850658053 2.041745219983171
    vertex 6.288199046799649 -8.457096955275201 4.204829331538693
    vertex 4.153035264850381 -9.730674666820635 3.825397228122826
  endloop
endfacet
facet normal 0.322958 -0.94055 0.105183
  outer loop
    vertex 1.999999999999997 -9.027343722001698 16.00000000000001
    vertex 3.899660836191711 -8.257830084123134 17.04821798500027
    vertex 1.999999999999997 -8.729125371269987 18.66666666666667
  endloop
endfacet
facet normal 0.349161 -0.932889 0.0883406
  outer loop
    vertex 4.303928948163247 -7.717237604670114 19.76363837968865
    vertex 3.888605547493504 -7.6560761715025 22.05105348005019
    vertex 1.999999999999998 -8.430907020538276 21.33333333333333
  endloop
endfacet
facet normal 0.650975 -0.747086 0.134515
  outer loop
    vertex 7.391499863360139 -6.775622382588557 8.879187199672335
    vertex 5.840742703469483 -8.216183202126276 8.383187049296016
    vertex 6.685211956886802 -7.817103040708925 6.512904990995172
  endloop
endfacet
facet normal 0.995833 0.0319627 0.0854129
  outer loop
    vertex 10.16439219179645 -0.7963473096278425 7.354877130565542
    vertex 10.0624947893295 1.358197511734337 7.736643871669123
    vertex 9.912161436369319 0.6350736089117993 9.759989081292208
  endloop
endfacet
facet normal 0.618341 0.781341 0.0846266
  outer loop
    vertex 7.17738259436186 7.260343335259628 7.215065547978974
    vertex 5.499998268642623 8.526473295478338 7.781271645734495
    vertex 6.003019102147472 7.929125099881109 9.621051248863443
  endloop
endfacet
facet normal 0.2791 -0.951642 0.128378
  outer loop
    vertex 1.999999999999995 -10.51843547566026 2.666666666666659
    vertex 3.873509291664231 -10.06995694445095 1.918056335678567
    vertex 4.153035264850381 -9.730674666820635 3.825397228122826
  endloop
endfacet
facet normal 0.543187 0.83225 0.110942
  outer loop
    vertex 4.018188685792636 7.853721468043223 19.89424131572074
    vertex 5.623945956208908 6.946677246844581 18.83658859038558
    vertex 4.2300123669864 8.079871645610105 17.16062258605039
  endloop
endfacet
facet normal 0.490679 0.859222 0.144818
  outer loop
    vertex 6.003019102147472 7.929125099881109 9.621051248863443
    vertex 5.499998268642623 8.526473295478338 7.781271645734495
    vertex 3.931620052703594 9.187620890253378 9.172654386874656
  endloop
endfacet
facet normal 0.440789 0.892529 0.0953781
  outer loop
    vertex 5.673981913113622 9.134500132533129 2.247370410685325
    vertex 3.770854704375839 10.11722495919958 1.846507872626821
    vertex 4.000592429113658 9.77393264366385 3.997238510137482
  endloop
endfacet
facet normal 0.974898 0.175422 0.137118
  outer loop
    vertex 10.36782506218921 0.8025401409724311 5.496176802633752
    vertex 10.24200135394117 2.454948773121359 4.276755375242393
    vertex 9.852286423500031 3.040920018120627 6.297939129333871
  endloop
endfacet
facet normal 0.273169 0.954057 0.123104
  outer loop
    vertex 4.000592429113658 9.77393264366385 3.997238510137482
    vertex 3.770854704375839 10.11722495919958 1.846507872626821
    vertex 1.999999999999997 10.51843547566026 2.666666666666668
  endloop
endfacet
facet normal 0.442712 -0.886855 0.132269
  outer loop
    vertex 5.740569703578226 -9.119485850658053 2.041745219983171
    vertex 3.873509291664231 -10.06995694445095 1.918056335678567
    vertex 4.637426815844344 -9.974681575252792 0
  endloop
endfacet
facet normal 0.446824 -0.889796 0.0927957
  outer loop
    vertex 4.153035264850381 -9.730674666820635 3.825397228122826
    vertex 3.873509291664231 -10.06995694445095 1.918056335678567
    vertex 5.740569703578226 -9.119485850658053 2.041745219983171
  endloop
endfacet
facet normal 0.678794 -0.728857 0.0894823
  outer loop
    vertex 5.664448708514287 -7.104266810139856 17.47864061117436
    vertex 5.507804744096628 -7.463668434253715 15.73948925584144
    vertex 7.014803674818423 -6.031680943468337 15.97162313801071
  endloop
endfacet
facet normal 0.941728 0.324819 0.0874097
  outer loop
    vertex 9.852286423500031 3.040920018120627 6.297939129333871
    vertex 10.24200135394117 2.454948773121359 4.276755375242393
    vertex 9.577131139433973 4.328292976468743 4.47844307103973
  endloop
endfacet
facet normal -1 0 0
  outer loop
    vertex 1.999999999999999 -2.683880395698584 9.97671623467577
    vertex 1.999999999999999 -4.492010648503861 12.68023793305448
    vertex 1.999999999999999 -1.450956131354121 12.39394914376644
  endloop
endfacet
facet normal -1 -7.12353e-16 -1.06694e-16
  outer loop
    vertex 1.999999999999999 8.112490369793973 0
    vertex 1.999999999999999 7.695365099979103 2.784971198589295
    vertex 1.999999999999997 10.51843547566026 2.666666666666668
  endloop
endfacet
facet normal -1 0 0
  outer loop
    vertex 1.999999999999999 -3.301528155123704 5.209625670874715
    vertex 1.999999999999999 -5.836445629413737 6.574156780812706
    vertex 1.999999999999999 -4.343715626553121 8.115978972799033
  endloop
endfacet
facet normal -1 0 0
  outer loop
    vertex 1.999999999999999 4.043691439649828 12.31382055164526
    vertex 1.999999999999999 5.285086270799712 14.58707997284738
    vertex 1.999999999999999 6.936129600847806 12.08770503181631
  endloop
endfacet
facet normal -1 -7.39009e-16 -8.26448e-17
  outer loop
    vertex 1.999999999999997 10.81665382639197 0
    vertex 1.999999999999999 8.112490369793973 0
    vertex 1.999999999999997 10.51843547566026 2.666666666666668
  endloop
endfacet
facet normal -1 0 0
  outer loop
    vertex 1.999999999999999 -3.301528155123704 5.209625670874715
    vertex 1.999999999999999 -4.343715626553121 8.115978972799033
    vertex 1.999999999999999 -1.638498176942249 7.544116680585178
  endloop
endfacet
facet normal -1 0 0
  outer loop
    vertex 1.999999999999999 -2.664535259100371e-15 0
    vertex 1.999999999999999 1.317903131751624 2.653409348377465
    vertex 1.999999999999999 2.704163456597986 0
  endloop
endfacet
facet normal -1 0 0
  outer loop
    vertex 1.999999999999999 -6.006254456223997 4.471451510115677
    vertex 1.999999999999999 -5.836445629413737 6.574156780812706
    vertex 1.999999999999999 -3.301528155123704 5.209625670874715
  endloop
endfacet
facet normal -1 -0 0
  outer loop
    vertex 1.999999999999999 1.250346792135369 7.597983035095499
    vertex 1.999999999999999 -1.638498176942249 7.544116680585178
    vertex 1.999999999999999 -0.09286449179086705 9.947299126170613
  endloop
endfacet
facet normal -1 0 0
  outer loop
    vertex 1.999999999999999 -2.683880395698584 9.97671623467577
    vertex 1.999999999999999 -5.167326846617336 10.27251448131763
    vertex 1.999999999999999 -4.492010648503861 12.68023793305448
  endloop
endfacet
facet normal -1 0 0
  outer loop
    vertex 1.999999999999999 -1.450956131354121 12.39394914376644
    vertex 1.999999999999999 -4.492010648503861 12.68023793305448
    vertex 1.999999999999999 -2.689343342888845 14.63917914519027
  endloop
endfacet
facet normal -1 0 0
  outer loop
    vertex 1.999999999999999 -1.358528609349739 2.465741731109341
    vertex 1.999999999999999 -3.301528155123704 5.209625670874715
    vertex 1.999999999999999 -0.1181622337930688 5.053939197269345
  endloop
endfacet
facet normal -1 0 0
  outer loop
    vertex 1.999999999999999 2.651122442210891 5.120993578350262
    vertex 1.999999999999999 5.820809863174711 4.821344917253593
    vertex 1.999999999999999 3.930124684476804 2.490978226200093
  endloop
endfacet
facet normal -1 0 0
  outer loop
    vertex 1.999999999999999 5.285086270799712 14.58707997284738
    vertex 1.999999999999999 7.495925157253222 14.51658864013297
    vertex 1.999999999999999 6.936129600847806 12.08770503181631
  endloop
endfacet
facet normal -1 0 0
  outer loop
    vertex 1.999999999999999 -1.358528609349739 2.465741731109341
    vertex 1.999999999999999 1.317903131751624 2.653409348377465
    vertex 1.999999999999999 -2.664535259100371e-15 0
  endloop
endfacet
facet normal -1 0 -0
  outer loop
    vertex 1.999999999999999 -0.1181622337930688 5.053939197269345
    vertex 1.999999999999999 1.317903131751624 2.653409348377465
    vertex 1.999999999999999 -1.358528609349739 2.465741731109341
  endloop
endfacet
facet normal -1 0 0
  outer loop
    vertex 1.999999999999999 2.704163456597986 0
    vertex 1.999999999999999 1.317903131751624 2.653409348377465
    vertex 1.999999999999999 3.930124684476804 2.490978226200093
  endloop
endfacet
facet normal -1 0 0
  outer loop
    vertex 1.999999999999999 3.930124684476804 2.490978226200093
    vertex 1.999999999999999 1.317903131751624 2.653409348377465
    vertex 1.999999999999999 2.651122442210891 5.120993578350262
  endloop
endfacet
facet normal -1 0 -0
  outer loop
    vertex 1.999999999999999 3.891029022793663 7.560725054244363
    vertex 1.999999999999999 5.820809863174711 4.821344917253593
    vertex 1.999999999999999 2.651122442210891 5.120993578350262
  endloop
endfacet
facet normal -1 -0 0
  outer loop
    vertex 1.999999999999999 -0.09286449179086705 9.947299126170613
    vertex 1.999999999999999 -1.638498176942249 7.544116680585178
    vertex 1.999999999999999 -2.683880395698584 9.97671623467577
  endloop
endfacet
facet normal -1 0 0
  outer loop
    vertex 1.999999999999999 -0.1181622337930688 5.053939197269345
    vertex 1.999999999999999 -1.638498176942249 7.544116680585178
    vertex 1.999999999999999 1.250346792135369 7.597983035095499
  endloop
endfacet
facet normal -1 0 0
  outer loop
    vertex 1.999999999999999 -7.129742706386122 8.82025436408585
    vertex 1.999999999999999 -5.167326846617336 10.27251448131763
    vertex 1.999999999999999 -4.343715626553121 8.115978972799033
  endloop
endfacet
facet normal -1 -0 0
  outer loop
    vertex 1.999999999999999 -4.343715626553121 8.115978972799033
    vertex 1.999999999999999 -5.836445629413737 6.574156780812706
    vertex 1.999999999999999 -7.129742706386122 8.82025436408585
  endloop
endfacet
facet normal -1 0 0
  outer loop
    vertex 1.999999999999999 3.891029022793663 7.560725054244363
    vertex 1.999999999999999 6.09208852942711 7.596377815382176
    vertex 1.999999999999999 5.820809863174711 4.821344917253593
  endloop
endfacet
facet normal -1 -0 0
  outer loop
    vertex 1.999999999999999 6.936129600847806 12.08770503181631
    vertex 1.999999999999999 5.199788843331025 9.873450398813368
    vertex 1.999999999999999 4.043691439649828 12.31382055164526
  endloop
endfacet
facet normal -1 0 0
  outer loop
    vertex 1.999999999999999 -3.301528155123704 5.209625670874715
    vertex 1.999999999999999 -1.638498176942249 7.544116680585178
    vertex 1.999999999999999 -0.1181622337930688 5.053939197269345
  endloop
endfacet
facet normal -1 -0 0
  outer loop
    vertex 1.999999999999999 -1.358528609349739 2.465741731109341
    vertex 1.999999999999999 -4.149700814158705 2.423254930268584
    vertex 1.999999999999999 -3.301528155123704 5.209625670874715
  endloop
endfacet
facet normal -1 0 0
  outer loop
    vertex 1.999999999999999 -5.408326913195983 0
    vertex 1.999999999999999 -4.149700814158705 2.423254930268584
    vertex 1.999999999999999 -2.704163456597992 0
  endloop
endfacet
facet normal -1 0 0
  outer loop
    vertex 1.999999999999999 -1.638498176942249 7.544116680585178
    vertex 1.999999999999999 -4.343715626553121 8.115978972799033
    vertex 1.999999999999999 -2.683880395698584 9.97671623467577
  endloop
endfacet
facet normal -1 0 0
  outer loop
    vertex 1.999999999999999 -6.661007327258357 2.186284341317846
    vertex 1.999999999999999 -4.149700814158705 2.423254930268584
    vertex 1.999999999999999 -5.408326913195983 0
  endloop
endfacet
facet normal -1 0 0
  outer loop
    vertex 1.999999999999999 -2.704163456597992 0
    vertex 1.999999999999999 -4.149700814158705 2.423254930268584
    vertex 1.999999999999999 -1.358528609349739 2.465741731109341
  endloop
endfacet
facet normal -1 -0 0
  outer loop
    vertex 1.999999999999999 -6.006254456223997 4.471451510115677
    vertex 1.999999999999999 -8.32574035917343 3.808828810815964
    vertex 1.999999999999999 -7.856520755061076 6.299403422228687
  endloop
endfacet
facet normal -1 0 0
  outer loop
    vertex 1.999999999999999 0.002858595220549233 19.31050253921679
    vertex 1.999999999999999 2.57786199258308 19.15647532163355
    vertex 1.999999999999999 1.349803468450364 16.975251469227
  endloop
endfacet
facet normal -1 -0 0
  outer loop
    vertex 1.999999999999999 -2.71089622326884 24
    vertex 1.999999999999999 -4.168632761936581 21.33477181741336
    vertex 1.999999999999999 -5.4217924465377 24
  endloop
endfacet
facet normal -1 -0 0
  outer loop
    vertex 1.999999999999999 1.377865162208917 21.60402848223048
    vertex 1.999999999999999 0.002858595220549233 19.31050253921679
    vertex 1.999999999999999 -1.351152940287437 21.65263787787369
  endloop
endfacet
facet normal -1 0 -0
  outer loop
    vertex 1.999999999999999 1.377865162208917 21.60402848223048
    vertex 1.999999999999999 2.57786199258308 19.15647532163355
    vertex 1.999999999999999 0.002858595220549233 19.31050253921679
  endloop
endfacet
facet normal -1 0 -0
  outer loop
    vertex 1.999999999999999 5.773159728050814e-15 24
    vertex 1.999999999999999 1.377865162208917 21.60402848223048
    vertex 1.999999999999999 -1.351152940287437 21.65263787787369
  endloop
endfacet
facet normal -1 0 0
  outer loop
    vertex 1.999999999999999 0.002858595220549233 19.31050253921679
    vertex 1.999999999999999 -1.306727643592898 16.95075098527198
    vertex 1.999999999999999 -2.547916447612169 19.21302786009755
  endloop
endfacet
facet normal -1 -0 0
  outer loop
    vertex 1.999999999999999 0.002858595220549233 19.31050253921679
    vertex 1.999999999999999 -2.547916447612169 19.21302786009755
    vertex 1.999999999999999 -1.351152940287437 21.65263787787369
  endloop
endfacet
facet normal -1 -0 0
  outer loop
    vertex 1.999999999999999 4.19369028580055 21.34889801502934
    vertex 1.999999999999999 2.57786199258308 19.15647532163355
    vertex 1.999999999999999 1.377865162208917 21.60402848223048
  endloop
endfacet
facet normal -1 0 -0
  outer loop
    vertex 1.999999999999999 0.002858595220549233 19.31050253921679
    vertex 1.999999999999999 1.349803468450364 16.975251469227
    vertex 1.999999999999999 -1.306727643592898 16.95075098527198
  endloop
endfacet
facet normal -1 0 0
  outer loop
    vertex 1.999999999999999 4.19369028580055 21.34889801502934
    vertex 1.999999999999999 1.377865162208917 21.60402848223048
    vertex 1.999999999999999 2.710896223268854 24
  endloop
endfacet
facet normal -1 0 -0
  outer loop
    vertex 1.999999999999999 1.349803468450364 16.975251469227
    vertex 1.999999999999999 2.681052692064674 14.63716948849347
    vertex 1.999999999999999 0.01076224731633217 14.63824510206288
  endloop
endfacet
facet normal -1 -0 0
  outer loop
    vertex 1.999999999999999 5.421792446537711 24
    vertex 1.999999999999999 4.19369028580055 21.34889801502934
    vertex 1.999999999999999 2.710896223268854 24
  endloop
endfacet
facet normal -1 0 0
  outer loop
    vertex 1.999999999999999 -8.112490369793971 0
    vertex 1.999999999999999 -6.661007327258357 2.186284341317846
    vertex 1.999999999999999 -5.408326913195983 0
  endloop
endfacet
facet normal -1 -0 0
  outer loop
    vertex 1.999999999999999 -1.351152940287437 21.65263787787369
    vertex 1.999999999999999 -4.168632761936581 21.33477181741336
    vertex 1.999999999999999 -2.71089622326884 24
  endloop
endfacet
facet normal -1 0 0
  outer loop
    vertex 1.999999999999999 1.335075893280576 12.32507218516661
    vertex 1.999999999999999 4.043691439649828 12.31382055164526
    vertex 1.999999999999999 2.647084721075195 9.998166710548452
  endloop
endfacet
facet normal -1 -0 0
  outer loop
    vertex 1.999999999999999 5.773159728050814e-15 24
    vertex 1.999999999999999 -1.351152940287437 21.65263787787369
    vertex 1.999999999999999 -2.71089622326884 24
  endloop
endfacet
facet normal -1 0 0
  outer loop
    vertex 1.999999999999999 2.704163456597986 0
    vertex 1.999999999999999 3.930124684476804 2.490978226200093
    vertex 1.999999999999999 5.40832691319598 0
  endloop
endfacet
facet normal -1 0 0
  outer loop
    vertex 1.999999999999999 1.349803468450364 16.975251469227
    vertex 1.999999999999999 0.01076224731633217 14.63824510206288
    vertex 1.999999999999999 -1.306727643592898 16.95075098527198
  endloop
endfacet
facet normal -1 0 0
  outer loop
    vertex 1.999999999999999 -2.704163456597992 0
    vertex 1.999999999999999 -1.358528609349739 2.465741731109341
    vertex 1.999999999999999 -2.664535259100371e-15 0
  endloop
endfacet
facet normal -1 -0 0
  outer loop
    vertex 1.999999999999999 2.710896223268854 24
    vertex 1.999999999999999 1.377865162208917 21.60402848223048
    vertex 1.999999999999999 5.773159728050814e-15 24
  endloop
endfacet
facet normal -1 0 0
  outer loop
    vertex 1.999999999999999 0.01076224731633217 14.63824510206288
    vertex 1.999999999999999 2.681052692064674 14.63716948849347
    vertex 1.999999999999999 1.335075893280576 12.32507218516661
  endloop
endfacet
facet normal -1 0 0
  outer loop
    vertex 1.999999999999999 0.01076224731633217 14.63824510206288
    vertex 1.999999999999999 -2.689343342888845 14.63917914519027
    vertex 1.999999999999999 -1.306727643592898 16.95075098527198
  endloop
endfacet
facet normal -1 0 0
  outer loop
    vertex 1.999999999999999 1.335075893280576 12.32507218516661
    vertex 1.999999999999999 2.681052692064674 14.63716948849347
    vertex 1.999999999999999 4.043691439649828 12.31382055164526
  endloop
endfacet
facet normal -1 0 0
  outer loop
    vertex 1.999999999999999 2.681052692064674 14.63716948849347
    vertex 1.999999999999999 5.285086270799712 14.58707997284738
    vertex 1.999999999999999 4.043691439649828 12.31382055164526
  endloop
endfacet
facet normal -1 0 -0
  outer loop
    vertex 1.999999999999999 1.335075893280576 12.32507218516661
    vertex 1.999999999999999 2.647084721075195 9.998166710548452
    vertex 1.999999999999999 -0.09286449179086705 9.947299126170613
  endloop
endfacet
facet normal -1 0 0
  outer loop
    vertex 1.999999999999999 -0.09286449179086705 9.947299126170613
    vertex 1.999999999999999 -2.683880395698584 9.97671623467577
    vertex 1.999999999999999 -1.450956131354121 12.39394914376644
  endloop
endfacet
facet normal -1 0 -0
  outer loop
    vertex 1.999999999999999 0.01076224731633217 14.63824510206288
    vertex 1.999999999999999 1.335075893280576 12.32507218516661
    vertex 1.999999999999999 -1.450956131354121 12.39394914376644
  endloop
endfacet
facet normal -1 -0 0
  outer loop
    vertex 1.999999999999999 0.01076224731633217 14.63824510206288
    vertex 1.999999999999999 -1.450956131354121 12.39394914376644
    vertex 1.999999999999999 -2.689343342888845 14.63917914519027
  endloop
endfacet
facet normal -1 -0 0
  outer loop
    vertex 1.999999999999999 1.335075893280576 12.32507218516661
    vertex 1.999999999999999 -0.09286449179086705 9.947299126170613
    vertex 1.999999999999999 -1.450956131354121 12.39394914376644
  endloop
endfacet
facet normal -1 1.26449e-15 2.51233e-17
  outer loop
    vertex 1.999999999999996 -9.32556207273341 13.33333333333334
    vertex 1.999999999999999 -7.187284855944992 11.76938490197301
    vertex 1.999999999999996 -9.623780423465121 10.66666666666667
  endloop
endfacet
facet normal -1 -3.45459e-16 1.279e-16
  outer loop
    vertex 1.999999999999998 9.623780423465121 10.66666666666666
    vertex 1.999999999999999 6.936129600847806 12.08770503181631
    vertex 1.999999999999998 9.32556207273341 13.33333333333333
  endloop
endfacet
facet normal -1 0 -0
  outer loop
    vertex 1.999999999999999 2.647084721075195 9.998166710548452
    vertex 1.999999999999999 3.891029022793663 7.560725054244363
    vertex 1.999999999999999 1.250346792135369 7.597983035095499
  endloop
endfacet
facet normal -1 0 0
  outer loop
    vertex 1.999999999999999 -2.547916447612169 19.21302786009755
    vertex 1.999999999999999 -4.168632761936581 21.33477181741336
    vertex 1.999999999999999 -1.351152940287437 21.65263787787369
  endloop
endfacet
facet normal -1 1.26469e-15 2.46761e-17
  outer loop
    vertex 1.999999999999999 -7.187284855944992 11.76938490197301
    vertex 1.999999999999999 -7.129742706386122 8.82025436408585
    vertex 1.999999999999996 -9.623780423465121 10.66666666666667
  endloop
endfacet
facet normal -1 1.26498e-15 2.50682e-17
  outer loop
    vertex 1.999999999999996 -9.623780423465121 10.66666666666667
    vertex 1.999999999999999 -7.129742706386122 8.82025436408585
    vertex 1.999999999999996 -9.921998774196835 7.999999999999996
  endloop
endfacet
facet normal -1 -5.67612e-16 1.97896e-17
  outer loop
    vertex 1.999999999999998 9.921998774196833 7.999999999999995
    vertex 1.999999999999999 7.615457143189689 9.16459778022228
    vertex 1.999999999999998 9.623780423465121 10.66666666666666
  endloop
endfacet
facet normal -1 -4.70952e-16 -1.09449e-16
  outer loop
    vertex 1.999999999999998 9.623780423465121 10.66666666666666
    vertex 1.999999999999999 7.615457143189689 9.16459778022228
    vertex 1.999999999999999 6.936129600847806 12.08770503181631
  endloop
endfacet
facet normal -1 0 0
  outer loop
    vertex 1.999999999999999 2.647084721075195 9.998166710548452
    vertex 1.999999999999999 1.250346792135369 7.597983035095499
    vertex 1.999999999999999 -0.09286449179086705 9.947299126170613
  endloop
endfacet
facet normal -1 1.14974e-15 -1.31765e-16
  outer loop
    vertex 1.999999999999996 -9.32556207273341 13.33333333333334
    vertex 1.999999999999999 -6.894458407817945 14.32449589209642
    vertex 1.999999999999999 -7.187284855944992 11.76938490197301
  endloop
endfacet
facet normal -1 1.07724e-15 4.60638e-17
  outer loop
    vertex 1.999999999999997 -9.027343722001698 16.00000000000001
    vertex 1.999999999999999 -6.894458407817945 14.32449589209642
    vertex 1.999999999999996 -9.32556207273341 13.33333333333334
  endloop
endfacet
facet normal -1 1.6378e-15 -9.98915e-17
  outer loop
    vertex 1.999999999999996 -9.921998774196835 7.999999999999996
    vertex 1.999999999999999 -7.856520755061076 6.299403422228687
    vertex 1.999999999999995 -10.22021712492855 5.333333333333321
  endloop
endfacet
facet normal -1 0 -0
  outer loop
    vertex 1.999999999999999 -6.894458407817945 14.32449589209642
    vertex 1.999999999999999 -4.492010648503861 12.68023793305448
    vertex 1.999999999999999 -7.187284855944992 11.76938490197301
  endloop
endfacet
facet normal -1 0 0
  outer loop
    vertex 1.999999999999999 2.651122442210891 5.120993578350262
    vertex 1.999999999999999 1.317903131751624 2.653409348377465
    vertex 1.999999999999999 -0.1181622337930688 5.053939197269345
  endloop
endfacet
facet normal -1 -0 0
  outer loop
    vertex 1.999999999999999 3.891029022793663 7.560725054244363
    vertex 1.999999999999999 2.651122442210891 5.120993578350262
    vertex 1.999999999999999 1.250346792135369 7.597983035095499
  endloop
endfacet
facet normal -1 -1.13354e-16 1.53857e-16
  outer loop
    vertex 1.999999999999999 9.027343722001696 16
    vertex 1.999999999999999 6.568833469877334 17.07506866572498
    vertex 1.999999999999999 8.729125371269983 18.66666666666668
  endloop
endfacet
facet normal -1 -0 0
  outer loop
    vertex 1.999999999999999 2.651122442210891 5.120993578350262
    vertex 1.999999999999999 -0.1181622337930688 5.053939197269345
    vertex 1.999999999999999 1.250346792135369 7.597983035095499
  endloop
endfacet
facet normal -1 -7.31237e-16 8.47578e-17
  outer loop
    vertex 1.999999999999997 10.22021712492854 5.333333333333333
    vertex 1.999999999999999 7.93335777464646 6.561770926377278
    vertex 1.999999999999998 9.921998774196833 7.999999999999995
  endloop
endfacet
facet normal -1 1.39007e-15 -4.00768e-16
  outer loop
    vertex 1.999999999999996 -9.921998774196835 7.999999999999996
    vertex 1.999999999999999 -7.129742706386122 8.82025436408585
    vertex 1.999999999999999 -7.856520755061076 6.299403422228687
  endloop
endfacet
facet normal -1 8.23296e-16 -8.80398e-18
  outer loop
    vertex 1.999999999999997 -8.729125371269987 18.66666666666667
    vertex 1.999999999999999 -6.318903604761656 17.06780859244209
    vertex 1.999999999999997 -9.027343722001698 16.00000000000001
  endloop
endfacet
facet normal -1 -6.15565e-16 -7.5183e-17
  outer loop
    vertex 1.999999999999999 7.93335777464646 6.561770926377278
    vertex 1.999999999999999 7.615457143189689 9.16459778022228
    vertex 1.999999999999998 9.921998774196833 7.999999999999995
  endloop
endfacet
facet normal -1 4.66826e-17 8.84873e-17
  outer loop
    vertex 1.999999999999999 8.729125371269983 18.66666666666668
    vertex 1.999999999999999 6.467645705747763 19.85973948620235
    vertex 1.999999999999999 8.430907020538273 21.33333333333334
  endloop
endfacet
facet normal -1 8.27657e-16 7.3975e-17
  outer loop
    vertex 1.999999999999998 -8.430907020538276 21.33333333333333
    vertex 1.999999999999999 -6.420937485868464 19.85643034356435
    vertex 1.999999999999997 -8.729125371269987 18.66666666666667
  endloop
endfacet
facet normal -1 8.93752e-16 -1.87512e-16
  outer loop
    vertex 1.999999999999999 -6.318903604761656 17.06780859244209
    vertex 1.999999999999999 -6.894458407817945 14.32449589209642
    vertex 1.999999999999997 -9.027343722001698 16.00000000000001
  endloop
endfacet
facet normal -1 0 0
  outer loop
    vertex 1.999999999999999 6.568833469877334 17.07506866572498
    vertex 1.999999999999999 6.467645705747763 19.85973948620235
    vertex 1.999999999999999 8.729125371269983 18.66666666666668
  endloop
endfacet
facet normal -1 8.49761e-16 3.10922e-17
  outer loop
    vertex 1.999999999999997 -8.729125371269987 18.66666666666667
    vertex 1.999999999999999 -6.420937485868464 19.85643034356435
    vertex 1.999999999999999 -6.318903604761656 17.06780859244209
  endloop
endfacet
facet normal -1 -0 0
  outer loop
    vertex 1.999999999999999 6.467645705747763 19.85973948620235
    vertex 1.999999999999999 4.635696525733098 18.80514717503046
    vertex 1.999999999999999 4.19369028580055 21.34889801502934
  endloop
endfacet
facet normal -1 0 0
  outer loop
    vertex 1.999999999999999 -4.149700814158705 2.423254930268584
    vertex 1.999999999999999 -6.006254456223997 4.471451510115677
    vertex 1.999999999999999 -3.301528155123704 5.209625670874715
  endloop
endfacet
facet normal -1 0 0
  outer loop
    vertex 1.999999999999999 -6.661007327258357 2.186284341317846
    vertex 1.999999999999999 -6.006254456223997 4.471451510115677
    vertex 1.999999999999999 -4.149700814158705 2.423254930268584
  endloop
endfacet
facet normal -1 0 0
  outer loop
    vertex 1.999999999999999 -4.168632761936581 21.33477181741336
    vertex 1.999999999999999 -4.599476588847732 18.8018401513813
    vertex 1.999999999999999 -6.420937485868464 19.85643034356435
  endloop
endfacet
facet normal -1 0 0
  outer loop
    vertex 1.999999999999999 5.285086270799712 14.58707997284738
    vertex 1.999999999999999 3.840733820569556 16.86731338029156
    vertex 1.999999999999999 6.568833469877334 17.07506866572498
  endloop
endfacet
facet normal -1 0 0
  outer loop
    vertex 1.999999999999999 5.820809863174711 4.821344917253593
    vertex 1.999999999999999 8.44100998219872 4.613215281506406
    vertex 1.999999999999999 7.695365099979103 2.784971198589295
  endloop
endfacet
facet normal -1 0 -0
  outer loop
    vertex 1.999999999999999 2.57786199258308 19.15647532163355
    vertex 1.999999999999999 3.840733820569556 16.86731338029156
    vertex 1.999999999999999 1.349803468450364 16.975251469227
  endloop
endfacet
facet normal -1 -0 0
  outer loop
    vertex 1.999999999999999 -1.306727643592898 16.95075098527198
    vertex 1.999999999999999 -3.867399982899728 16.92750381969096
    vertex 1.999999999999999 -2.547916447612169 19.21302786009755
  endloop
endfacet
facet normal -1 0 0
  outer loop
    vertex 1.999999999999999 2.681052692064674 14.63716948849347
    vertex 1.999999999999999 3.840733820569556 16.86731338029156
    vertex 1.999999999999999 5.285086270799712 14.58707997284738
  endloop
endfacet
facet normal -1 0 -0
  outer loop
    vertex 1.999999999999999 7.93335777464646 6.561770926377278
    vertex 1.999999999999999 8.44100998219872 4.613215281506406
    vertex 1.999999999999999 5.820809863174711 4.821344917253593
  endloop
endfacet
facet normal -1 0 0
  outer loop
    vertex 1.999999999999999 8.112490369793973 0
    vertex 1.999999999999999 5.937963663426207 1.86703541991774
    vertex 1.999999999999999 7.695365099979103 2.784971198589295
  endloop
endfacet
facet normal -1 -6.95987e-16 2.83857e-16
  outer loop
    vertex 1.999999999999999 7.695365099979103 2.784971198589295
    vertex 1.999999999999999 8.44100998219872 4.613215281506406
    vertex 1.999999999999997 10.51843547566026 2.666666666666668
  endloop
endfacet
facet normal -1 -0 0
  outer loop
    vertex 1.999999999999999 7.695365099979103 2.784971198589295
    vertex 1.999999999999999 5.937963663426207 1.86703541991774
    vertex 1.999999999999999 5.820809863174711 4.821344917253593
  endloop
endfacet
facet normal -1 0 -0
  outer loop
    vertex 1.999999999999999 5.820809863174711 4.821344917253593
    vertex 1.999999999999999 5.937963663426207 1.86703541991774
    vertex 1.999999999999999 3.930124684476804 2.490978226200093
  endloop
endfacet
facet normal -1 0 0
  outer loop
    vertex 1.999999999999999 1.349803468450364 16.975251469227
    vertex 1.999999999999999 3.840733820569556 16.86731338029156
    vertex 1.999999999999999 2.681052692064674 14.63716948849347
  endloop
endfacet
facet normal -1 0 0
  outer loop
    vertex 1.999999999999999 -2.689343342888845 14.63917914519027
    vertex 1.999999999999999 -3.867399982899728 16.92750381969096
    vertex 1.999999999999999 -1.306727643592898 16.95075098527198
  endloop
endfacet
facet normal -1 0 -0
  outer loop
    vertex 1.999999999999999 -7.129742706386122 8.82025436408585
    vertex 1.999999999999999 -5.836445629413737 6.574156780812706
    vertex 1.999999999999999 -7.856520755061076 6.299403422228687
  endloop
endfacet
facet normal -1 0 0
  outer loop
    vertex 1.999999999999999 2.647084721075195 9.998166710548452
    vertex 1.999999999999999 5.199788843331025 9.873450398813368
    vertex 1.999999999999999 3.891029022793663 7.560725054244363
  endloop
endfacet
facet normal -1 0 0
  outer loop
    vertex 1.999999999999999 5.820809863174711 4.821344917253593
    vertex 1.999999999999999 6.09208852942711 7.596377815382176
    vertex 1.999999999999999 7.93335777464646 6.561770926377278
  endloop
endfacet
facet normal -1 0 0
  outer loop
    vertex 1.999999999999999 -6.661007327258357 2.186284341317846
    vertex 1.999999999999999 -8.32574035917343 3.808828810815964
    vertex 1.999999999999999 -6.006254456223997 4.471451510115677
  endloop
endfacet
facet normal -1 0 0
  outer loop
    vertex 1.999999999999999 -7.187284855944992 11.76938490197301
    vertex 1.999999999999999 -5.167326846617336 10.27251448131763
    vertex 1.999999999999999 -7.129742706386122 8.82025436408585
  endloop
endfacet
facet normal -1 0 -0
  outer loop
    vertex 1.999999999999999 4.19369028580055 21.34889801502934
    vertex 1.999999999999999 4.635696525733098 18.80514717503046
    vertex 1.999999999999999 2.57786199258308 19.15647532163355
  endloop
endfacet
facet normal -1 -0 0
  outer loop
    vertex 1.999999999999999 -2.547916447612169 19.21302786009755
    vertex 1.999999999999999 -4.599476588847732 18.8018401513813
    vertex 1.999999999999999 -4.168632761936581 21.33477181741336
  endloop
endfacet
facet normal -1 1.95095e-15 -5.16447e-17
  outer loop
    vertex 1.999999999999995 -10.22021712492855 5.333333333333321
    vertex 1.999999999999999 -8.32574035917343 3.808828810815964
    vertex 1.999999999999995 -10.51843547566026 2.666666666666659
  endloop
endfacet
facet normal -1 0 0
  outer loop
    vertex 1.999999999999999 7.615457143189689 9.16459778022228
    vertex 1.999999999999999 5.199788843331025 9.873450398813368
    vertex 1.999999999999999 6.936129600847806 12.08770503181631
  endloop
endfacet
facet normal -1 3.27633e-16 1.41407e-16
  outer loop
    vertex 2 8.132688669806562 24
    vertex 1.999999999999999 6.301553057358257 21.96163487263684
    vertex 1.999999999999999 5.421792446537711 24
  endloop
endfacet
facet normal -1 4.91449e-16 -2.1211e-16
  outer loop
    vertex 1.999999999999999 -5.4217924465377 24
    vertex 1.999999999999999 -6.30155305735824 21.96163487263683
    vertex 1.999999999999998 -8.132688669806564 24
  endloop
endfacet
facet normal -1 1.84059e-16 2.70384e-16
  outer loop
    vertex 1.999999999999999 8.430907020538273 21.33333333333334
    vertex 1.999999999999999 6.301553057358257 21.96163487263684
    vertex 2 8.132688669806562 24
  endloop
endfacet
facet normal -1 0 -0
  outer loop
    vertex 1.999999999999999 6.568833469877334 17.07506866572498
    vertex 1.999999999999999 7.495925157253222 14.51658864013297
    vertex 1.999999999999999 5.285086270799712 14.58707997284738
  endloop
endfacet
facet normal -1 7.29446e-16 1.69137e-18
  outer loop
    vertex 1.999999999999998 -8.132688669806564 24
    vertex 1.999999999999999 -6.30155305735824 21.96163487263683
    vertex 1.999999999999998 -8.430907020538276 21.33333333333333
  endloop
endfacet
facet normal -1 0 0
  outer loop
    vertex 1.999999999999999 -4.492010648503861 12.68023793305448
    vertex 1.999999999999999 -5.167326846617336 10.27251448131763
    vertex 1.999999999999999 -7.187284855944992 11.76938490197301
  endloop
endfacet
facet normal -1 1.72435e-15 6.10886e-16
  outer loop
    vertex 1.999999999999994 -10.81665382639197 0
    vertex 1.999999999999999 -8.763019572667545 1.836257196381738
    vertex 1.999999999999999 -8.112490369793971 0
  endloop
endfacet
facet normal -1 2.3574e-15 -9.70989e-17
  outer loop
    vertex 1.999999999999995 -10.51843547566026 2.666666666666659
    vertex 1.999999999999999 -8.763019572667545 1.836257196381738
    vertex 1.999999999999994 -10.81665382639197 0
  endloop
endfacet
facet normal -1 -3.16852e-16 7.30264e-17
  outer loop
    vertex 1.999999999999999 6.936129600847806 12.08770503181631
    vertex 1.999999999999999 7.495925157253222 14.51658864013297
    vertex 1.999999999999998 9.32556207273341 13.33333333333333
  endloop
endfacet
facet normal -1 -2.14645e-16 -7.77788e-17
  outer loop
    vertex 1.999999999999999 9.027343722001696 16
    vertex 1.999999999999999 7.495925157253222 14.51658864013297
    vertex 1.999999999999999 6.568833469877334 17.07506866572498
  endloop
endfacet
facet normal -1 0 0
  outer loop
    vertex 1.999999999999999 5.40832691319598 0
    vertex 1.999999999999999 5.937963663426207 1.86703541991774
    vertex 1.999999999999999 8.112490369793973 0
  endloop
endfacet
facet normal -1 0 -0
  outer loop
    vertex 1.999999999999999 4.043691439649828 12.31382055164526
    vertex 1.999999999999999 5.199788843331025 9.873450398813368
    vertex 1.999999999999999 2.647084721075195 9.998166710548452
  endloop
endfacet
facet normal -1 -9.87407e-16 -2.71568e-17
  outer loop
    vertex 1.999999999999997 10.51843547566026 2.666666666666668
    vertex 1.999999999999999 8.44100998219872 4.613215281506406
    vertex 1.999999999999997 10.22021712492854 5.333333333333333
  endloop
endfacet
facet normal -1 0 0
  outer loop
    vertex 1.999999999999999 -4.343715626553121 8.115978972799033
    vertex 1.999999999999999 -5.167326846617336 10.27251448131763
    vertex 1.999999999999999 -2.683880395698584 9.97671623467577
  endloop
endfacet
facet normal -1 0 -0
  outer loop
    vertex 1.999999999999999 -6.318903604761656 17.06780859244209
    vertex 1.999999999999999 -4.815334738152584 15.00354320293909
    vertex 1.999999999999999 -6.894458407817945 14.32449589209642
  endloop
endfacet
facet normal -1 0 0
  outer loop
    vertex 1.999999999999999 -6.420937485868464 19.85643034356435
    vertex 1.999999999999999 -6.30155305735824 21.96163487263683
    vertex 1.999999999999999 -4.168632761936581 21.33477181741336
  endloop
endfacet
facet normal -1 0 0
  outer loop
    vertex 1.999999999999999 4.19369028580055 21.34889801502934
    vertex 1.999999999999999 6.301553057358257 21.96163487263684
    vertex 1.999999999999999 6.467645705747763 19.85973948620235
  endloop
endfacet
facet normal -1 -0 0
  outer loop
    vertex 1.999999999999999 -3.867399982899728 16.92750381969096
    vertex 1.999999999999999 -4.815334738152584 15.00354320293909
    vertex 1.999999999999999 -6.318903604761656 17.06780859244209
  endloop
endfacet
facet normal -1 0 -0
  outer loop
    vertex 1.999999999999999 5.199788843331025 9.873450398813368
    vertex 1.999999999999999 6.09208852942711 7.596377815382176
    vertex 1.999999999999999 3.891029022793663 7.560725054244363
  endloop
endfacet
facet normal -1 0 0
  outer loop
    vertex 1.999999999999999 -7.856520755061076 6.299403422228687
    vertex 1.999999999999999 -5.836445629413737 6.574156780812706
    vertex 1.999999999999999 -6.006254456223997 4.471451510115677
  endloop
endfacet
facet normal -1 0 0
  outer loop
    vertex 1.999999999999999 -6.420937485868464 19.85643034356435
    vertex 1.999999999999999 -4.599476588847732 18.8018401513813
    vertex 1.999999999999999 -6.318903604761656 17.06780859244209
  endloop
endfacet
facet normal -1 0 0
  outer loop
    vertex 1.999999999999999 6.568833469877334 17.07506866572498
    vertex 1.999999999999999 4.635696525733098 18.80514717503046
    vertex 1.999999999999999 6.467645705747763 19.85973948620235
  endloop
endfacet
facet normal -1 1.7302e-15 -3.25966e-16
  outer loop
    vertex 1.999999999999999 -7.856520755061076 6.299403422228687
    vertex 1.999999999999999 -8.32574035917343 3.808828810815964
    vertex 1.999999999999995 -10.22021712492855 5.333333333333321
  endloop
endfacet
facet normal -1 -0 0
  outer loop
    vertex 1.999999999999999 7.615457143189689 9.16459778022228
    vertex 1.999999999999999 6.09208852942711 7.596377815382176
    vertex 1.999999999999999 5.199788843331025 9.873450398813368
  endloop
endfacet
facet normal -1 0 0
  outer loop
    vertex 1.999999999999999 -6.318903604761656 17.06780859244209
    vertex 1.999999999999999 -4.599476588847732 18.8018401513813
    vertex 1.999999999999999 -3.867399982899728 16.92750381969096
  endloop
endfacet
facet normal -1 0 0
  outer loop
    vertex 1.999999999999999 3.840733820569556 16.86731338029156
    vertex 1.999999999999999 4.635696525733098 18.80514717503046
    vertex 1.999999999999999 6.568833469877334 17.07506866572498
  endloop
endfacet
facet normal -1 0 0
  outer loop
    vertex 1.999999999999999 -4.168632761936581 21.33477181741336
    vertex 1.999999999999999 -6.30155305735824 21.96163487263683
    vertex 1.999999999999999 -5.4217924465377 24
  endloop
endfacet
facet normal -1 0 -0
  outer loop
    vertex 1.999999999999999 5.421792446537711 24
    vertex 1.999999999999999 6.301553057358257 21.96163487263684
    vertex 1.999999999999999 4.19369028580055 21.34889801502934
  endloop
endfacet
facet normal -1 1.06767e-16 8.4368e-18
  outer loop
    vertex 1.999999999999999 6.467645705747763 19.85973948620235
    vertex 1.999999999999999 6.301553057358257 21.96163487263684
    vertex 1.999999999999999 8.430907020538273 21.33333333333334
  endloop
endfacet
facet normal -1 7.42367e-16 -4.20991e-17
  outer loop
    vertex 1.999999999999998 -8.430907020538276 21.33333333333333
    vertex 1.999999999999999 -6.30155305735824 21.96163487263683
    vertex 1.999999999999999 -6.420937485868464 19.85643034356435
  endloop
endfacet
facet normal -1 0 0
  outer loop
    vertex 1.999999999999999 -4.492010648503861 12.68023793305448
    vertex 1.999999999999999 -4.815334738152584 15.00354320293909
    vertex 1.999999999999999 -2.689343342888845 14.63917914519027
  endloop
endfacet
facet normal -1 2.17522e-15 -4.82203e-16
  outer loop
    vertex 1.999999999999999 -8.32574035917343 3.808828810815964
    vertex 1.999999999999999 -8.763019572667545 1.836257196381738
    vertex 1.999999999999995 -10.51843547566026 2.666666666666659
  endloop
endfacet
facet normal -1 -3.34416e-16 4.58684e-17
  outer loop
    vertex 1.999999999999998 9.32556207273341 13.33333333333333
    vertex 1.999999999999999 7.495925157253222 14.51658864013297
    vertex 1.999999999999999 9.027343722001696 16
  endloop
endfacet
facet normal -1 0 0
  outer loop
    vertex 1.999999999999999 -6.894458407817945 14.32449589209642
    vertex 1.999999999999999 -4.815334738152584 15.00354320293909
    vertex 1.999999999999999 -4.492010648503861 12.68023793305448
  endloop
endfacet
facet normal -1 0 0
  outer loop
    vertex 1.999999999999999 7.93335777464646 6.561770926377278
    vertex 1.999999999999999 6.09208852942711 7.596377815382176
    vertex 1.999999999999999 7.615457143189689 9.16459778022228
  endloop
endfacet
facet normal -1 0 0
  outer loop
    vertex 1.999999999999999 -8.112490369793971 0
    vertex 1.999999999999999 -8.763019572667545 1.836257196381738
    vertex 1.999999999999999 -6.661007327258357 2.186284341317846
  endloop
endfacet
facet normal -1 0 0
  outer loop
    vertex 1.999999999999999 -2.689343342888845 14.63917914519027
    vertex 1.999999999999999 -4.815334738152584 15.00354320293909
    vertex 1.999999999999999 -3.867399982899728 16.92750381969096
  endloop
endfacet
facet normal -1 0 0
  outer loop
    vertex 1.999999999999999 -3.867399982899728 16.92750381969096
    vertex 1.999999999999999 -4.599476588847732 18.8018401513813
    vertex 1.999999999999999 -2.547916447612169 19.21302786009755
  endloop
endfacet
facet normal -1 0 0
  outer loop
    vertex 1.999999999999999 3.930124684476804 2.490978226200093
    vertex 1.999999999999999 5.937963663426207 1.86703541991774
    vertex 1.999999999999999 5.40832691319598 0
  endloop
endfacet
facet normal -1 0 0
  outer loop
    vertex 1.999999999999999 2.57786199258308 19.15647532163355
    vertex 1.999999999999999 4.635696525733098 18.80514717503046
    vertex 1.999999999999999 3.840733820569556 16.86731338029156
  endloop
endfacet
facet normal -1 -9.03163e-16 -2.35299e-16
  outer loop
    vertex 1.999999999999997 10.22021712492854 5.333333333333333
    vertex 1.999999999999999 8.44100998219872 4.613215281506406
    vertex 1.999999999999999 7.93335777464646 6.561770926377278
  endloop
endfacet
facet normal -1 -0 0
  outer loop
    vertex 1.999999999999999 -6.661007327258357 2.186284341317846
    vertex 1.999999999999999 -8.763019572667545 1.836257196381738
    vertex 1.999999999999999 -8.32574035917343 3.808828810815964
  endloop
endfacet
facet normal 1.37886e-15 2.23015e-15 1
  outer loop
    vertex 1.999999999999999 5.421792446537713 24
    vertex 4.119971008687713 4.111055917329124 24
    vertex 4.544348749072348 7.034752094068238 23.99999999999999
  endloop
endfacet
facet normal 0 0 1
  outer loop
    vertex 5.146177917472839 -2.802194721947412 24
    vertex 4.24430973520526 -0.7120243405172459 24
    vertex 1.999999999999999 -2.710896223268824 24
  endloop
endfacet
facet normal 0 0 1
  outer loop
    vertex 1.999999999999999 -2.710896223268824 24
    vertex 4.16392187053623 -4.821593169923776 24
    vertex 5.146177917472839 -2.802194721947412 24
  endloop
endfacet
facet normal 2.79263e-15 0 1
  outer loop
    vertex 1.999999999999999 8.132688669806562 24
    vertex 1.999999999999999 5.421792446537713 24
    vertex 4.544348749072348 7.034752094068238 23.99999999999999
  endloop
endfacet
facet normal 0 0 1
  outer loop
    vertex 4.544348749072338 -7.03475209406821 24
    vertex 1.999999999999999 -5.421792446537681 24
    vertex 1.999999999999993 -8.132688669806546 24
  endloop
endfacet
facet normal 4.25837e-16 2.36848e-15 1
  outer loop
    vertex 4.544348749072348 7.034752094068238 23.99999999999999
    vertex 4.119971008687713 4.111055917329124 24
    vertex 6.591270889656837 5.166730444235311 24
  endloop
endfacet
facet normal 0 0 1
  outer loop
    vertex 1.999999999999999 -2.710896223268824 24
    vertex 4.24430973520526 -0.7120243405172459 24
    vertex 1.999999999999999 1.738431447406708e-14 24
  endloop
endfacet
facet normal 7.39544e-17 -2.9598e-15 1
  outer loop
    vertex 7.916472407221912 -2.732975358349637 24
    vertex 5.146177917472839 -2.802194721947412 24
    vertex 6.59127088965684 -5.166730444235272 23.99999999999999
  endloop
endfacet
facet normal 1.73249e-15 -3.60916e-15 1
  outer loop
    vertex 7.916472407221908 2.732975358349694 24
    vertex 6.101560630870328 0.8774081240930478 24
    vertex 8.375000000000004 1.604344552211438e-14 23.99999999999999
  endloop
endfacet
facet normal 0 0 1
  outer loop
    vertex 1.999999999999999 -5.421792446537681 24
    vertex 4.16392187053623 -4.821593169923776 24
    vertex 1.999999999999999 -2.710896223268824 24
  endloop
endfacet
facet normal 0 0 1
  outer loop
    vertex 1.999999999999999 2.710896223268861 24
    vertex 4.119971008687713 4.111055917329124 24
    vertex 1.999999999999999 5.421792446537713 24
  endloop
endfacet
facet normal 0 0 1
  outer loop
    vertex 4.544348749072338 -7.03475209406821 24
    vertex 4.16392187053623 -4.821593169923776 24
    vertex 1.999999999999999 -5.421792446537681 24
  endloop
endfacet
facet normal 0 0 1
  outer loop
    vertex 4.06415318726201 1.660675351400666 24
    vertex 5.804511945902332 2.928896794838315 24
    vertex 4.119971008687713 4.111055917329124 24
  endloop
endfacet
facet normal -0 0 1
  outer loop
    vertex 1.999999999999999 2.710896223268861 24
    vertex 4.06415318726201 1.660675351400666 24
    vertex 4.119971008687713 4.111055917329124 24
  endloop
endfacet
facet normal 2.73788e-15 -1.33173e-15 1
  outer loop
    vertex 5.146177917472839 -2.802194721947412 24
    vertex 4.16392187053623 -4.821593169923776 24
    vertex 6.59127088965684 -5.166730444235272 23.99999999999999
  endloop
endfacet
facet normal 3.00057e-15 5.15778e-16 1
  outer loop
    vertex 6.59127088965684 -5.166730444235272 23.99999999999999
    vertex 4.16392187053623 -4.821593169923776 24
    vertex 4.544348749072338 -7.03475209406821 24
  endloop
endfacet
facet normal 0 0 1
  outer loop
    vertex 7.916472407221912 -2.732975358349637 24
    vertex 6.489375229397696 -1.0886665691388 24
    vertex 5.146177917472839 -2.802194721947412 24
  endloop
endfacet
facet normal 3.38294e-15 6.67297e-16 1
  outer loop
    vertex 6.101560630870328 0.8774081240930478 24
    vertex 6.489375229397696 -1.0886665691388 24
    vertex 8.375000000000004 1.604344552211438e-14 23.99999999999999
  endloop
endfacet
facet normal 2.51033e-15 2.17871e-15 1
  outer loop
    vertex 8.375000000000004 1.604344552211438e-14 23.99999999999999
    vertex 6.489375229397696 -1.0886665691388 24
    vertex 7.916472407221912 -2.732975358349637 24
  endloop
endfacet
facet normal 0 0 1
  outer loop
    vertex 1.999999999999999 1.738431447406708e-14 24
    vertex 4.06415318726201 1.660675351400666 24
    vertex 1.999999999999999 2.710896223268861 24
  endloop
endfacet
facet normal 0 0 1
  outer loop
    vertex 6.101560630870328 0.8774081240930478 24
    vertex 5.804511945902332 2.928896794838315 24
    vertex 4.06415318726201 1.660675351400666 24
  endloop
endfacet
facet normal -1.48643e-15 2.11016e-15 1
  outer loop
    vertex 6.591270889656837 5.166730444235311 24
    vertex 5.804511945902332 2.928896794838315 24
    vertex 7.916472407221908 2.732975358349694 24
  endloop
endfacet
facet normal -1.70509e-15 -2.46891e-16 1
  outer loop
    vertex 7.916472407221908 2.732975358349694 24
    vertex 5.804511945902332 2.928896794838315 24
    vertex 6.101560630870328 0.8774081240930478 24
  endloop
endfacet
facet normal 8.93629e-16 1.27339e-15 1
  outer loop
    vertex 4.119971008687713 4.111055917329124 24
    vertex 5.804511945902332 2.928896794838315 24
    vertex 6.591270889656837 5.166730444235311 24
  endloop
endfacet
facet normal 0 0 1
  outer loop
    vertex 6.489375229397696 -1.0886665691388 24
    vertex 4.24430973520526 -0.7120243405172459 24
    vertex 5.146177917472839 -2.802194721947412 24
  endloop
endfacet
facet normal 0 0 1
  outer loop
    vertex 6.101560630870328 0.8774081240930478 24
    vertex 4.24430973520526 -0.7120243405172459 24
    vertex 6.489375229397696 -1.0886665691388 24
  endloop
endfacet
facet normal 0 0 1
  outer loop
    vertex 4.24430973520526 -0.7120243405172459 24
    vertex 4.06415318726201 1.660675351400666 24
    vertex 1.999999999999999 1.738431447406708e-14 24
  endloop
endfacet
facet normal 0 0 1
  outer loop
    vertex 6.101560630870328 0.8774081240930478 24
    vertex 4.06415318726201 1.660675351400666 24
    vertex 4.24430973520526 -0.7120243405172459 24
  endloop
endfacet
endsolid Created by Gmsh
